<svg width="883" height="562" viewBox="0 0 883 562" fill="none" xmlns="http://www.w3.org/2000/svg">
<path fill-rule="evenodd" clip-rule="evenodd" d="M48.3872 518.063C38.891 521.625 30.8481 526.55 22.428 532.141C33.322 542.958 43.5171 549.314 58.4381 553.308C72.76 556.581 86.6271 556.791 101.26 556.137C96.8444 557.823 92.54 559.698 88.3466 561.817H738.147C736.428 560.308 734.265 558.688 731.502 556.902C720.009 546.008 694.804 548.271 694.949 547.783L697.711 536.412C692.708 540.04 687.871 544.211 682.213 546.829C676.899 549.048 671.785 548.294 666.593 546.275L682.036 543.656C675.135 540.262 668.39 537.289 662.222 532.751C653.17 525.585 647.113 516.71 642.897 506.016C642.098 503.797 636.818 481.099 638.97 482.73C645.504 486.835 653.17 486.336 660.525 490.662C660.813 483.562 661.224 480.667 666.127 475.319L686.273 514.147C688.525 520.193 691.709 524.93 698.033 527.083C704.123 528.469 710.89 524.464 716.393 528.591L725.068 536.024L722.383 524.054C721.784 515.09 732.312 511.097 731.28 502.266C736.062 506.282 741.93 507.924 748.121 507.524C753.202 505.749 758.116 504.163 762.886 507.502L770.974 514.358L769.398 504.141C768.777 497.862 770.951 491.916 773.558 486.213C773.947 482.586 773.692 479.213 772.416 475.797L773.037 475.996C776.776 476.995 780.237 476.984 784.064 476.695C789.888 473.367 795.357 471.503 802.114 472.568L809.557 474.132C808.271 470.727 806.74 467.376 806.107 463.76C805.209 456.738 807.339 451.091 804.299 444.102C812.575 447.219 818.832 445.455 826.564 442.083C829.981 436.836 835.217 434.883 840.575 431.954C835.572 424.976 836.093 421.526 834.208 413.628C830.846 402.024 819.719 399.871 809.746 397.165C824.434 398.052 843.781 398.751 855.563 388.323C857.815 385.938 859.046 383.652 860.544 380.69C848.33 367.777 835.017 361.942 817.589 359.612C834.352 356.051 846.788 347.654 854.42 332.011C845.39 320.696 835.971 315.36 821.328 316.392C837.036 307.139 847.753 295.436 857.305 280.093C840.032 275.6 823.868 272.383 805.952 277.342C814.76 271.129 823.103 264.018 830.214 255.898C839.455 244.505 843.393 234.975 845.689 220.298C838.601 219.61 832.333 219.4 825.288 220.387C812.886 222.572 801.004 227.454 790.077 233.599C800.616 222.295 810.156 210.025 816.702 195.914C822.182 182.813 823.358 171.741 822.127 157.685C801.426 163.842 787.947 171.076 771.229 186.773C777.375 175.546 782.4 163.776 785.473 151.307C788.657 136.463 788.224 123.628 785.218 108.818C765.826 115.984 753.557 124.97 741.087 143.397C746.756 126.002 750.362 108.308 748.875 90.0917C745.969 68.9805 735.429 54.6585 717.214 41.69C714.141 60.405 710.657 79.0757 706.231 97.5245C708.572 70.8109 704.933 43.5649 686.651 22.5423C675.235 11.0937 663.332 5.58012 648.311 0C652.66 32.0718 655.999 63.2894 655.111 95.5498C654.934 99.9318 649.576 151.085 648.488 150.064L642.154 144.196C641.266 168.923 636.507 196.269 628.897 210.38L621.819 204.257L621.087 214.108C618.524 234.653 606.643 250.595 597.48 268.955C589.248 286.305 584.112 308.593 593.02 326.576C598.034 335.761 605.079 342.184 613.355 348.419C616.827 346.278 619.123 344.714 623.239 345.324C635.908 348.663 637.339 365.104 631.349 374.667C623.106 385.705 608.551 392.073 594.961 391.873C593.508 391.795 576.235 389.488 578.521 388.057C591.256 378.261 593.575 361.82 587.14 346.888C582.392 337.603 575.769 333.642 567.294 328.461C570.178 338.49 573.406 346.944 567.039 356.706L565.807 358.27C559.384 365.082 549.91 368.044 540.735 366.224C549.056 362.464 555.79 357.904 558.141 348.131C559.04 343.061 558.23 337.98 556.844 333.054L553.771 322.804L549.222 333.309C545.606 340.321 539.892 343.726 531.994 342.295C515.653 338.124 507.255 322.959 502.329 308.116C499.212 297.677 497.992 287.559 498.812 276.698C499.767 267.48 500.854 254.955 506.922 247.511C510.616 249.552 514.51 249.996 518.637 250.462C523.54 245.059 528.477 239.89 534.357 235.519C539.748 231.747 545.317 228.996 552.04 229.206C556.167 229.595 559.218 231.015 562.901 232.889C566.606 230.515 570.311 228.13 574.017 225.745C572.108 224.791 557.243 218.146 557.72 218.09C567.837 217.148 578.465 218.323 588.35 216.227C598.933 213.476 607.897 206.964 611.347 195.925C613.699 186.252 610.759 178.109 608.518 168.469L604.036 181.393C598.778 194.783 588.239 197.578 574.837 197.833C563.245 195.559 547.092 205.899 547.214 205.699C555.412 191.71 565.397 181.437 582.703 180.882C579.375 170.166 575.991 160.437 565.741 153.725C556.067 148.256 545.495 149.01 535.388 152.593L535.044 152.727C532.726 149.631 529.609 148.067 525.526 149.077C542.976 134 550.864 121.997 553.327 108.674C553.049 94.862 547.702 83.4133 537.263 74.3609C534.379 70.6778 531.494 66.9947 528.599 63.3116C540.503 65.5525 552.783 66.0295 561.913 62.3353C574.116 62.89 577.677 70.345 579.153 81.0836C575.603 93.3532 570.788 105.756 587.351 115.984C592.587 117.804 598.134 119.457 605.922 120.067C609.305 121.198 612.035 122.885 610.26 128.498C614.597 126.579 618.036 124.127 616.516 118.791C614.52 111.791 610.825 111.38 604.458 109.605C599.865 108.33 595.56 106.865 594.263 103.437C603.06 109.406 611.469 110.005 618.835 106.266C626.445 103.216 631.293 91.778 640.845 92.8651C637.961 83.1027 631.97 81.9046 624.581 84.5893C619.8 85.4102 609.561 96.9254 610.237 87.052C614.952 78.643 616.084 71.3989 613.621 65.3195C609.782 55.0468 601.44 51.8518 591.056 51.8629C576.08 56.6887 561.458 57.4652 547.647 49.3336C537.485 39.4935 526.447 33.3032 513.478 35.1115C509.662 34.6899 506.356 35.0671 506.578 41.0577C505.513 50.3209 504.626 59.3844 500.909 71.9868C500.299 78.6985 499.001 85.4767 509.518 91.2011C516.44 94.6734 523.141 98.767 529.609 103.493C534.956 112.423 530.707 132.869 509.529 145.826L508.198 146.459C508.009 145.926 507.821 145.394 507.632 144.861C507.998 143.075 506.645 142.099 506.112 140.59C505.835 139.825 506.345 139.104 506.057 138.161C505.413 134.91 504.914 131.66 504.537 128.365C503.749 120.932 503.782 113.965 500.887 106.876C496.549 97.1362 487.475 92.4658 476.914 94.507C471.489 95.6496 467.473 97.3803 462.447 99.7321L463.623 103.182L459.286 105.046L457.1 99.832L456.39 100.131C457.078 97.1806 456.202 93.8414 453.24 92.3548L452.042 89.8033L451.121 90.2359L449.124 87.6733L452.197 87.0631L452.641 88.0172L455.858 86.5195L451.054 76.2579L447.848 77.7666L448.292 78.7207L445.862 80.6954L445.175 77.5115L446.095 77.0788L444.531 73.7285L434.702 78.3324L436.266 81.6827L437.187 81.2501L439.195 83.8238L436.122 84.4339L435.678 83.4799L432.472 84.9886L437.276 95.2503L440.482 93.7415L440.038 92.7875L442.468 90.8128L443.156 93.9967L442.246 94.4293L443.81 97.7796L444.132 97.6354C444.01 100.486 445.685 102.761 448.148 103.992L446.694 104.735L449.301 109.75L445.086 111.88L443.189 108.762C437.886 111.247 432.728 113.954 428.357 117.859C421.501 124.238 419.803 133.546 423.653 142.043C426.693 148.234 431.629 152.793 436.433 157.586C438.995 160.17 441.514 162.822 443.81 165.651C443.034 168.191 445.43 168.513 446.384 168.635C447.338 170.155 447.227 171.275 448.769 172.429C449.257 173.205 449.39 173.35 449.512 174.304L447.404 175.302C420.136 188.592 400.334 181.282 381.652 170.854C384.026 168.824 387.288 166.827 388.453 163.854C389.773 162.755 390.061 160.592 389.196 158.906C388.641 158.34 388.197 157.674 387.443 157.397L386.777 155.345L386.478 152.316C385.857 151.085 385.18 150.375 384.758 149.055C386.112 147.967 386.156 146.137 385.402 144.695C384.625 143.741 384.248 140.346 383.982 139.059C382.54 131.804 381.785 124.427 381.275 117.049C380.521 105.29 380.033 94.862 372.944 84.4783C365.833 74.849 353.996 70.6556 342.347 72.2642C332.707 73.8284 324.875 77.1787 316.244 81.2168L318.03 86.4974L310.93 89.5703L307.613 81.594L305.128 82.659C305.816 80.4069 305.794 78.4434 305.128 76.1802C304.451 74.5162 303.176 72.4861 301.645 71.4765L302.188 71.2214L299.881 66.3069L298.439 66.9836L295.177 62.8789L300.313 61.8139L300.99 63.2561L305.916 60.9486L298.672 45.4841L293.746 47.7915L294.423 49.2337L290.318 52.4953L289.253 47.3589L290.695 46.6822L288.388 41.7677L272.912 49.0118L275.22 53.9263L276.662 53.2496L279.923 57.3543L274.787 58.4193L274.11 56.9771L269.185 59.2735L276.429 74.7492L281.343 72.4306L280.667 70.9995L284.771 67.738L285.836 72.8743L284.394 73.551L286.169 77.3562C285.714 79.5749 286.025 81.5385 286.868 83.613C288.166 86.0536 289.819 87.6067 292.381 88.6828L291.183 89.293L295.177 96.9476L288.266 100.431L285.348 95.6829C274.277 100.864 260.254 107.742 254.02 119.679C247.397 133.734 251.645 146.392 260.598 157.996C265.191 163.665 271.159 168.38 276.318 173.561C280.755 178.065 285.06 182.79 288.809 187.882C287.988 189.913 289.553 191.865 291.461 192.242C292.282 194.805 292.67 196.913 295.122 198.532L295.21 198.566C296.242 200.296 297.041 202.493 298.749 203.68C299.659 204.434 301.134 204.956 303.076 204.911C306.049 204.822 309.333 204.412 312.816 203.735C308.911 225.357 299.248 244.638 273.489 258.017C271.869 258.771 271.548 259.037 271.381 258.871C271.226 258.716 270.216 257.174 270.194 257.118C270.006 256.563 269.85 256.02 269.872 255.432C269.75 254.334 269.429 253.524 268.763 252.681C268.708 252.57 268.386 251.749 268.452 251.693C269.983 249.663 268.108 249.352 267.798 247.755C267.099 244.005 266.644 240.233 266.3 236.439C265.845 231.292 265.723 226.91 264.326 221.951C261.841 213.964 257.581 208.206 248.872 205.743C240.674 203.791 231.644 207.685 224.533 211.013L225.72 214.463L221.382 216.338L219.197 211.124L217.699 211.767C218.109 209.992 217.954 208.727 217.344 207.03C216.789 206.087 216.268 205.277 215.38 204.612L215.702 204.456L214.127 201.106L213.206 201.539L211.198 198.965L214.271 198.355L214.715 199.309L217.932 197.8L213.128 187.539L209.922 189.047L210.366 190.001L207.925 191.976L207.238 188.792L208.158 188.359L206.594 185.009L196.765 189.613L198.329 192.963L199.25 192.531L201.247 195.104L198.174 195.715L197.73 194.761L194.513 196.258L199.317 206.52L202.523 205.011L202.079 204.057L204.508 202.082L205.207 205.266L204.298 205.699L205.485 208.25C205.352 209.848 205.451 210.824 205.984 212.333C206.916 213.908 207.792 214.829 209.434 215.65L208.746 216.005L211.353 221.019L207.138 223.149L205.241 220.032C200.748 222.14 196.466 224.358 192.494 227.376C185.805 232.645 182.277 240.167 184.074 248.709C186.592 258.649 194.469 264.573 201.169 271.606C203.144 273.703 205.03 275.889 206.838 278.118C207.238 278.751 207.67 279.072 208.369 279.339C208.58 279.383 208.746 279.86 208.857 280.038C208.813 281.446 209.723 282.944 210.965 283.61C211.886 285.152 211.808 285.84 210.543 285.795C188.234 292.485 169.497 283.51 164.704 275.423C165.226 267.424 166.99 261.556 168.321 253.857C170.662 242.119 165.858 236.728 160.189 233.688C148.13 228.463 139.677 221.751 131.889 216.637C127.441 212.632 125.277 215.128 123.17 218.323C113.474 227.121 111.898 233.855 112.952 247.955C108.759 268.167 99.64 280.703 86.3498 289.123C79.6825 297.089 76.2323 304.333 81.6682 313.873C84.7634 319.653 92.2738 325.533 101.759 327.297C107.317 331.723 93.2611 331.224 89.578 334.374C81.7348 338.934 82.3782 345.579 84.5415 352.856C87.8696 350.349 90.288 349.207 92.9394 347.875C96.1344 346.267 101.049 347.276 109.58 345.069C117.157 341.807 122.815 334.618 123.869 324.046C125.677 327.241 123.392 331.656 121.428 335.994C118.71 342.007 117.124 343.893 121.217 349.906C124.335 354.498 128.717 354.698 132.965 352.59C127.507 350.36 127.929 346.289 129.227 342.972C133.742 336.593 135.528 331.778 137.48 326.598C140.232 307.317 128.761 304.721 117.057 299.585C109.757 291.575 107.039 283.033 114.439 273.304C123.114 268.655 129.87 259.936 135.772 249.364C136.748 253.934 137.736 258.516 138.712 263.098C138.978 276.909 144.336 288.358 154.776 297.41C166.446 303.989 180.857 304.776 203.177 301.182C202.157 303.634 201.824 305.753 202.456 308.415L202.123 308.593C195.567 312.475 189.898 317.468 186.237 324.235C179.526 338.634 185.583 350.738 193.548 363.052C198.906 357.039 202.711 353.289 210.588 351.248C218.842 349.506 227.317 350.227 235.571 351.725C228.293 353.988 221.67 357.372 216.068 362.586C209.645 368.976 205.529 376.109 196.832 379.947C190.985 382.166 185.904 381.622 180.291 379.759L167.489 374.922L175.865 385.993C183.342 394.868 193.082 398.662 204.52 396.144C213.017 393.792 219.429 388.911 225.032 382.221C229.347 377.118 233.685 372.004 238.477 367.345C236.125 373.003 234.972 379.182 233.574 385.095C237.778 383.786 241.972 382.465 246.176 381.134C248.14 372.514 251.268 367.345 259.356 363.373C268.408 359.424 278.259 358.814 288.011 358.414C290.218 355.053 292.481 351.536 293.247 347.52C304.329 347.642 319.805 358.581 328.003 365.536C333.029 370.074 337.289 374.966 341.216 380.491C349.436 392.882 354.739 404.775 352.476 419.862C351.544 424.411 350.08 428.327 346.885 431.766C342.492 435.737 337.699 436.192 332.064 434.939L321.092 431.71C326.306 439.587 330.854 448.473 339.984 452.311L341.171 452.722C348.582 454.763 356.104 452.733 362.771 449.505C356.647 460.72 343.301 466.755 331.021 461.63C324.076 457.914 321.181 452.256 316.754 445.722L315.135 456.704C314.425 470.072 321.48 481.82 332.796 489.187C340.007 493.147 347.905 494.944 356.037 492.282C353.042 500.347 348.349 507.957 341.904 513.715C333.783 520.382 321.824 525.075 311.207 524.509C300.624 523.067 292.06 515.035 292.603 503.886C293.48 497.529 296.83 495.81 302.577 493.89C303.397 477.339 301.645 462.562 289.02 449.948C281.765 443.27 272.025 437.756 262.961 434.206C248.206 429.026 232.742 427.495 217.621 423.712C203.011 419.718 182.643 396.743 186.936 420.317C178.339 417.244 166.08 411.431 158.104 406.916C147.165 400.548 137.336 393.004 127.297 385.228L127.762 394.269C102.302 380.546 78.4289 362.619 57.0514 343.194C41.4315 328.728 26.9432 313.307 12.5879 297.61C4.32315 321.062 1.48318 340.321 12.0554 363.573C21.1301 380.646 34.6311 393.592 50.4063 404.553C40.9101 399.849 31.547 394.913 22.2616 389.787C14.9398 385.705 7.71782 381.478 0.495838 377.229C-0.73556 393.215 -0.125407 405.396 7.60688 419.718C20.3757 440.119 41.5868 452.023 63.3304 460.698C54.8326 459.844 46.4347 459.933 37.9703 461.075C26.8877 463.006 18.2346 466.866 8.50547 472.446C18.7006 485.148 29.1619 494.09 43.8721 501.257C54.7106 506.149 65.6268 509.322 77.3417 511.629C67.424 512.849 57.8168 514.724 48.3539 518.019L48.3872 518.063ZM882.82 561.817C875.909 551.489 868.742 543.934 856.772 539.097C846.033 535.225 835.827 535.247 824.689 536.756L822.848 532.829L820.973 533.706L816.624 529.823L822.448 529.623L823.325 531.498L829.459 528.625L821.039 510.642L814.905 513.515L815.781 515.39L811.898 519.727L811.698 513.903L813.573 513.027L810.7 506.892L792.717 515.312L795.59 521.447L797.465 520.571L801.803 524.453L795.979 524.653L795.102 522.778L788.968 525.651L797.388 543.634L803.522 540.761L802.646 538.886L806.529 534.538L806.729 540.362L804.854 541.238L806.507 544.832C800.571 549.614 795.324 555.316 791.275 561.795H882.809L882.82 561.817ZM359.654 185.475C375.362 194.106 392.213 197.423 410.196 195.437L398.348 200.74C406.114 202.371 413.802 204.29 421.734 204.8C417.052 206.076 412.337 207.23 407.634 208.428C410.928 210.103 427.125 218.934 435.024 218.545C427.513 233.156 426.315 242.53 413.114 255.731C417.684 256.33 422.144 257.273 426.737 256.763C420.68 276.687 419.104 298.497 420.868 319.176C422.344 332.977 425.095 346.422 429.166 359.69C421.589 348.064 413.025 337.336 403.363 327.374C388.63 312.786 370.825 300.006 351.666 291.908C354.983 288.735 357.18 284.63 359.598 280.792C340.894 282.478 335.125 277.419 316.355 273.67C322.523 265.693 324.564 255.998 326.772 246.28C322.845 249.12 318.929 252.004 314.957 254.788C319.639 248.365 323.1 241.232 326.816 234.221L316.987 239.013C328.214 226.81 335.258 212.399 338.098 195.781C345.487 192.741 352.875 189.191 359.642 185.464L359.654 185.475Z" fill="#3B4F9A"/>
</svg>
