<svg width="883" height="683" viewBox="0 0 883 683" fill="none" xmlns="http://www.w3.org/2000/svg">
<path d="M38.3903 273.301C77.9431 281.225 104.804 286.572 152.2 295.784C203.529 305.756 460.629 355.675 460.629 355.675C460.629 355.675 717.716 405.6 769.052 415.559C816.454 424.759 843.363 429.851 883 437.301C843.453 429.377 816.593 424.03 769.191 414.818C717.861 404.846 460.767 354.933 460.767 354.933C460.767 354.933 203.674 305.008 152.338 295.043C104.942 285.849 78.0335 280.757 38.3903 273.301Z" fill="#FEFEFE"/>
<path d="M98.9721 342.317C132.248 353.024 154.85 360.255 194.758 372.797C237.985 386.385 454.484 454.381 454.484 454.381C454.484 454.381 670.977 522.39 714.21 535.965C754.125 548.501 776.804 555.483 810.219 565.728C776.949 555.028 754.347 547.79 714.433 535.248C671.212 521.661 454.707 453.664 454.707 453.664C454.707 453.664 238.208 385.655 194.981 372.08C155.073 359.551 132.393 352.562 98.9721 342.317Z" fill="#FEFEFE"/>
<path d="M110.255 292.453C137.592 298.147 156.157 301.975 188.927 308.513C224.42 315.592 402.203 351.007 402.203 351.007C402.203 351.007 579.98 386.433 615.479 393.5C648.255 400.026 666.875 403.599 694.295 408.819C666.959 403.125 648.393 399.297 615.623 392.759C580.131 385.68 402.348 350.265 402.348 350.265C402.348 350.265 224.57 314.839 189.072 307.772C156.296 301.246 137.682 297.673 110.255 292.453Z" fill="#FEFEFE"/>
<path d="M3.59037 262.138C43.5167 267.613 70.6302 271.296 118.448 277.573C170.247 284.366 429.666 318.359 429.666 318.359C429.666 318.359 689.085 352.363 740.879 359.145C788.708 365.409 815.852 368.831 855.838 373.832C815.918 368.357 788.805 364.674 740.981 358.397C689.188 351.604 429.763 317.611 429.763 317.611C429.763 317.611 170.344 283.607 118.544 276.825C70.7206 270.567 43.577 267.139 3.59037 262.138Z" fill="#FEFEFE"/>
<path d="M80.4251 229.992C101.292 231.9 115.466 233.164 140.465 235.169C167.543 237.339 303.152 248.179 303.152 248.179C303.152 248.179 438.762 259.032 465.84 261.189C490.845 263.182 505.031 264.185 525.94 265.619C505.073 263.711 490.905 262.447 465.9 260.442C438.823 258.273 303.213 247.432 303.213 247.432C303.213 247.432 167.603 236.579 140.525 234.422C115.526 232.429 101.334 231.426 80.4251 229.992Z" fill="#FEFEFE"/>
<path d="M0 294.386C23.8305 300.809 40.0167 305.142 68.6061 312.555C99.5749 320.588 254.678 360.773 254.678 360.773C254.678 360.773 409.781 400.969 440.75 408.99C469.345 416.392 485.598 420.469 509.543 426.43C485.712 420.007 469.526 415.681 440.937 408.261C409.968 400.228 254.865 360.044 254.865 360.044C254.865 360.044 99.7616 319.847 68.7928 311.826C40.1974 304.425 23.945 300.347 0 294.386Z" fill="#FEFEFE"/>
<path d="M158.838 609.808C192.12 593.9 214.703 583.065 254.413 563.772C297.423 542.875 512.826 438.163 512.826 438.163C512.826 438.163 728.228 333.464 771.239 312.555C810.948 293.243 833.417 282.178 866.488 265.838C833.212 281.747 810.629 292.575 770.913 311.874C727.903 332.771 512.5 437.483 512.5 437.483C512.5 437.483 297.092 542.182 254.087 563.091C214.384 582.397 191.915 593.462 158.838 609.808Z" fill="#FEFEFE"/>
<path d="M80.3586 477.49C114.647 467.421 137.917 460.549 178.873 448.226C223.233 434.875 445.4 367.991 445.4 367.991C445.4 367.991 667.567 301.118 711.921 287.756C752.878 275.42 776.076 268.305 810.225 257.768C775.943 267.837 752.673 274.703 711.711 287.033C667.351 300.383 445.19 367.267 445.19 367.267C445.19 367.267 223.022 434.14 178.662 447.502C137.712 459.838 114.514 466.954 80.3646 477.484L80.3586 477.49Z" fill="#FEFEFE"/>
<path d="M27.8542 331.593C63.8108 326.258 88.2196 322.606 131.218 315.946C177.789 308.727 411.01 272.553 411.01 272.553C411.01 272.553 644.231 236.385 690.801 229.16C733.8 222.488 758.167 218.575 794.051 212.766C758.094 218.101 733.685 221.753 690.687 228.413C644.116 235.632 410.895 271.806 410.895 271.806C410.895 271.806 177.668 307.973 131.104 315.198C88.1111 321.871 63.7445 325.784 27.8542 331.593Z" fill="#FEFEFE"/>
<path d="M834.52 143.128C798.093 144.611 773.359 145.65 729.776 147.704C682.567 149.928 446.135 161.109 446.135 161.109C446.135 161.109 209.704 172.278 162.494 174.514C118.906 176.58 94.1895 177.88 57.7811 179.843C94.2076 178.36 118.936 177.321 162.525 175.267C209.734 173.043 446.165 161.862 446.165 161.862C446.165 161.862 682.597 150.694 729.806 148.458C773.389 146.392 798.111 145.091 834.514 143.128H834.52Z" fill="#FEFEFE"/>
<path d="M472.936 683C472.725 653.626 472.55 633.676 472.014 598.523C471.442 560.448 468.52 369.741 468.52 369.741C468.52 369.741 465.611 179.034 465.02 140.958C464.478 105.799 464.045 85.856 463.358 56.494C463.569 85.8681 463.743 105.811 464.273 140.97C464.846 179.046 467.773 369.753 467.773 369.753C467.773 369.753 470.683 560.46 471.267 598.536C471.809 633.689 472.243 653.632 472.936 683Z" fill="#FEFEFE"/>
<path d="M306.333 645.216C306.435 615.004 306.472 594.489 306.321 558.328C306.152 519.158 305.273 323.001 305.273 323.001C305.273 323.001 304.405 126.837 304.225 87.6735C304.056 51.5057 303.839 30.9973 303.466 0.784668C303.363 30.9973 303.327 51.5118 303.478 87.6735C303.646 126.843 304.526 323.001 304.526 323.001C304.526 323.001 305.393 519.164 305.574 558.334C305.743 594.495 305.96 615.01 306.333 645.216Z" fill="#FEFEFE"/>
<path d="M360.451 601.095C360.602 573.289 360.668 554.409 360.566 521.133C360.457 485.087 359.867 304.559 359.867 304.559C359.867 304.559 359.289 124.036 359.168 87.9899C359.054 54.7086 358.867 35.8287 358.536 8.02844C358.385 35.8348 358.319 54.7086 358.421 87.9899C358.53 124.036 359.12 304.559 359.12 304.559C359.12 304.559 359.698 485.087 359.819 521.133C359.933 554.415 360.12 573.289 360.451 601.095Z" fill="#FEFEFE"/>
<path d="M241.365 618.164C241.365 594.064 241.329 577.7 241.052 548.86C240.751 517.621 239.185 361.161 239.185 361.161C239.185 361.161 237.637 204.702 237.317 173.462C237.028 144.617 236.733 128.259 236.257 104.165C236.257 128.265 236.293 144.629 236.57 173.475C236.878 204.714 238.438 361.174 238.438 361.174C238.438 361.174 239.986 517.633 240.305 548.873C240.6 577.712 240.89 594.076 241.365 618.17V618.164Z" fill="#FEFEFE"/>
<path d="M618.418 574.686C618.587 553.187 618.665 538.591 618.581 512.857C618.491 484.99 618.015 345.411 618.015 345.411C618.015 345.411 617.551 205.839 617.448 177.966C617.358 152.231 617.177 137.635 616.864 116.143C616.696 137.642 616.617 152.237 616.702 177.972C616.792 205.839 617.268 345.418 617.268 345.418C617.268 345.418 617.732 484.996 617.834 512.863C617.924 538.591 618.105 553.187 618.418 574.686Z" fill="#FEFEFE"/>
<path d="M63.8532 354.076C91.3282 364.114 109.996 370.902 142.977 382.654C178.699 395.384 357.614 459.097 357.614 459.097C357.614 459.097 536.524 522.822 572.246 535.54C605.232 547.28 623.985 553.825 651.616 563.407C624.141 553.369 605.473 546.581 572.493 534.829C536.771 522.099 357.861 458.386 357.861 458.386C357.861 458.386 178.952 394.661 143.224 381.943C110.243 370.203 91.4908 363.659 63.8532 354.076Z" fill="#FEFEFE"/>
<path d="M336.814 555.411C356.174 545.33 369.307 538.457 392.348 526.146C417.305 512.808 542.289 445.978 542.289 445.978C542.289 445.978 667.272 379.16 692.223 365.81C715.265 353.487 728.27 346.383 747.408 335.877C728.047 345.958 714.921 352.83 691.874 365.141C666.917 378.479 541.939 445.303 541.939 445.303C541.939 445.303 416.95 512.121 391.999 525.472C368.963 537.795 355.952 544.898 336.814 555.405V555.411Z" fill="#FEFEFE"/>
<path d="M556.385 594.118C556.584 568.165 556.686 550.549 556.644 519.486C556.596 485.846 556.325 317.355 556.325 317.355C556.325 317.355 556.066 148.87 556.005 115.23C555.951 84.1666 555.794 66.5507 555.517 40.5977C555.319 66.5446 555.216 84.1666 555.258 115.23C555.307 148.87 555.578 317.355 555.578 317.355C555.578 317.355 555.837 485.84 555.897 519.486C555.951 550.543 556.108 568.165 556.385 594.112V594.118Z" fill="#FEFEFE"/>
<path d="M528.066 430.726C538.958 433.977 546.367 436.152 559.481 439.774C573.685 443.693 644.821 463.296 644.821 463.296C644.821 463.296 715.958 482.905 730.162 486.819C743.276 490.428 750.752 492.354 761.769 495.138C750.878 491.887 743.475 489.711 730.355 486.09C716.15 482.17 645.014 462.567 645.014 462.567C645.014 462.567 573.878 442.952 559.674 439.045C546.56 435.435 539.084 433.509 528.066 430.726Z" fill="#FEFEFE"/>
<path d="M149.206 370.391C160.302 374.523 167.85 377.3 181.223 381.979C195.71 387.047 268.274 412.399 268.274 412.399C268.274 412.399 340.832 437.762 355.325 442.818C368.704 447.485 376.337 450.018 387.589 453.695C376.493 449.563 368.945 446.786 355.566 442.107C341.079 437.039 268.515 411.688 268.515 411.688C268.515 411.688 195.951 386.324 181.464 381.268C168.085 376.601 160.458 374.074 149.2 370.391H149.206Z" fill="#FEFEFE"/>
<path d="M203.746 380.376C214.908 384.338 222.498 386.999 235.95 391.472C250.515 396.321 323.483 420.56 323.483 420.56C323.483 420.56 396.45 444.812 411.022 449.649C424.473 454.115 432.148 456.527 443.461 460.027C432.298 456.065 424.708 453.404 411.257 448.932C396.691 444.082 323.724 419.843 323.724 419.843C323.724 419.843 250.756 395.591 236.184 390.754C222.733 386.288 215.059 383.876 203.746 380.37V380.376Z" fill="#FEFEFE"/>
<path d="M157.507 499.002C167.265 495.799 173.88 493.593 185.47 489.498C198.017 485.062 260.865 462.803 260.865 462.803C260.865 462.803 323.712 440.557 336.26 436.109C347.844 432.001 354.374 429.552 363.97 425.894C354.211 429.097 347.597 431.296 336.007 435.398C323.459 439.834 260.618 462.099 260.618 462.099C260.618 462.099 197.77 484.345 185.223 488.793C173.639 492.901 167.109 495.35 157.513 499.008L157.507 499.002Z" fill="#FEFEFE"/>
<path d="M608.202 410.436C619.057 413.317 626.442 415.237 639.502 418.409C653.646 421.842 724.505 439.008 724.505 439.008C724.505 439.008 795.358 456.187 809.508 459.608C822.574 462.768 830.014 464.439 840.983 466.845C830.128 463.965 822.749 462.045 809.683 458.873C795.539 455.439 724.68 438.273 724.68 438.273C724.68 438.273 653.827 421.095 639.677 417.673C626.611 414.514 619.171 412.849 608.202 410.436Z" fill="#FEFEFE"/>
<path d="M5.31939 453.695C45.3722 442.551 72.552 434.955 120.412 421.344C172.247 406.608 431.853 332.747 431.853 332.747C431.853 332.747 691.459 258.905 743.288 244.151C791.148 230.528 818.262 222.683 858.182 211.076C818.135 222.221 790.955 229.817 743.089 243.428C691.254 258.17 431.648 332.024 431.648 332.024C431.648 332.024 172.037 405.867 120.207 420.621C72.3532 434.238 45.2397 442.089 5.31939 453.695Z" fill="#FEFEFE"/>
<path d="M104.08 265.188C123.309 268.202 136.363 270.22 159.41 273.55C184.379 277.159 309.417 295.188 309.417 295.188C309.417 295.188 434.455 313.23 459.424 316.827C482.477 320.145 495.573 321.901 514.862 324.441C495.639 321.427 482.58 319.41 459.526 316.08C434.563 312.47 309.519 294.441 309.519 294.441C309.519 294.441 184.481 276.4 159.512 272.802C136.459 269.484 123.369 267.728 104.074 265.188H104.08Z" fill="#FEFEFE"/>
<path d="M618.371 308.386C619.22 308.617 619.798 308.751 620.816 308.818C621.925 308.891 627.461 309.219 627.461 309.219C627.461 309.219 633.003 309.559 634.105 309.62C635.129 309.675 635.707 309.614 636.563 309.48C635.714 309.243 635.135 309.11 634.111 309.043C633.009 308.97 627.467 308.642 627.467 308.642C627.467 308.642 621.931 308.301 620.822 308.241C619.804 308.186 619.22 308.247 618.365 308.38L618.371 308.386Z" fill="#FEFEFE"/>
<path d="M568.806 168.894C571.686 175.9 573.692 180.64 577.541 188.849C581.721 197.745 602.998 242.274 602.998 242.274C602.998 242.274 624.696 286.809 629.093 295.699C631.129 299.801 632.774 302.997 634.37 306.005L635.569 308.241L636.171 309.353C636.888 310.204 637.087 309.499 637.575 309.651C638.93 308.43 637.756 306.376 637.942 304.601C637.756 306.163 638.147 308.892 637.509 309.171C637.292 309.141 636.207 309.311 636.701 309.122L636.183 307.974L635.129 305.677C633.702 302.59 632.153 299.351 630.123 295.244C625.738 286.347 604.016 241.818 604.016 241.818C604.016 241.818 582.751 197.283 578.547 188.393C574.68 180.184 572.324 175.608 568.8 168.9L568.806 168.894Z" fill="#FEFEFE"/>
<path d="M465.31 363.374C468.159 363.325 470.117 361.314 470.99 359.145L474.448 353.135C476.743 349.082 479.116 344.786 482.08 339.268C488.472 327.322 519.85 267.468 519.85 267.468C519.85 267.468 550.283 207.626 556.228 195.673C561.692 184.632 564.602 178.282 568.806 168.894C563.957 177.942 560.692 184.103 555.216 195.132C549.247 207.079 518.826 266.933 518.826 266.933C518.826 266.933 487.417 326.775 481.044 338.733C478.086 344.251 475.809 348.596 473.689 352.74C472.629 354.812 471.605 356.83 470.556 358.92C469.743 361.186 468.237 363.034 465.316 363.38L465.31 363.374Z" fill="#FEFEFE"/>
<path d="M568.62 155.688C563.301 165.143 559.74 171.597 553.879 183.215C547.494 195.8 514.917 258.874 514.917 258.874C514.917 258.874 481.231 321.937 474.388 334.534C471.213 340.349 468.786 344.943 466.545 349.33C465.503 351.7 464.165 353.274 463.424 356.27C463.804 356.658 464.394 357.333 464.611 357.503L464.828 359.399C464.979 360.681 465.135 362 465.298 363.373C465.274 361.994 465.25 360.663 465.226 359.375L465.189 357.467C464.75 356.61 464.394 356.373 463.997 355.802C465.099 354.526 466.472 351.864 467.683 349.926C470.183 345.678 472.514 340.562 475.701 334.752C482.568 322.168 516.139 259.391 516.139 259.391C516.139 259.391 549.156 195.769 555.518 183.173C561.349 171.542 564.258 165.666 568.62 155.688Z" fill="#FEFEFE"/>
<path d="M637.943 304.595C638.238 304.267 638.918 304.2 638.882 303.665L638.328 302.395L637.262 299.958L635.16 295.261C633.726 292.113 632.172 288.808 630.136 284.621C625.738 275.543 603.938 230.102 603.938 230.102C603.938 230.102 582.607 184.656 578.396 175.583C574.523 167.21 572.162 162.537 568.626 155.682C571.511 162.829 573.523 167.659 577.378 176.039C581.577 185.117 602.908 230.558 602.908 230.558C602.908 230.558 624.684 276.005 629.093 285.077C631.136 289.264 632.786 292.527 634.388 295.595L636.816 300.153L638.087 302.498L638.756 303.72C638.894 303.969 638.19 304.297 637.943 304.595Z" fill="#FEFEFE"/>
<path d="M568.764 160.088C571.74 166.936 573.794 171.572 577.565 179.684C581.673 188.471 602.516 232.453 602.516 232.453C602.516 232.453 623.78 276.442 628.087 285.222C632.075 293.328 634.43 297.892 637.948 304.588C634.768 297.74 632.593 293.104 628.605 284.991C624.31 276.205 603.028 232.222 603.028 232.222C603.028 232.222 582.185 188.234 578.071 179.454C574.288 171.347 572.059 166.784 568.764 160.088Z" fill="#FEFEFE"/>
<path d="M465.093 357.776C470.357 348.595 473.893 342.348 479.953 331.258C486.477 319.245 518.518 259.069 518.518 259.069C518.518 259.069 549.578 198.892 555.656 186.879C561.234 175.783 564.3 169.439 568.758 160.088C563.975 169.269 560.74 175.516 555.15 186.606C549.066 198.619 518.006 258.795 518.006 258.795C518.006 258.795 485.947 318.971 479.435 330.985C473.387 342.081 470.026 348.418 465.093 357.776Z" fill="#FEFEFE"/>
<path d="M617.576 292.861C615.245 287.514 613.624 283.904 610.462 277.688C607.046 270.949 590.065 237.236 590.065 237.236C590.065 237.236 573.361 203.517 570.047 196.791C566.999 190.58 565.102 187.135 562.253 182.098C564.463 187.445 566.005 191.054 569.041 197.277C572.336 204.01 589.047 237.722 589.047 237.722C589.047 237.722 606.01 271.441 609.438 278.168C612.612 284.378 614.588 287.824 617.582 292.861H617.576Z" fill="#FEFEFE"/>
<path d="M609.726 383.821C611.835 382.94 613.6 382.192 615.443 381.354C616.262 380.6 617.521 381.238 618.088 379.251C618.118 378.145 618.13 376.948 618.136 375.605C618.154 369.796 618.166 340.689 618.166 340.689C618.166 340.689 618.178 311.589 618.166 305.773C618.154 300.408 617.955 297.357 617.581 292.855C617.214 297.321 617.009 300.359 617.003 305.725C616.991 311.534 616.991 340.641 616.991 340.641C616.991 340.641 616.949 369.741 616.955 375.557C616.955 376.9 616.967 378.097 616.991 379.209C617.551 379.446 615.539 380.169 615.015 380.612C613.274 381.621 611.66 382.618 609.738 383.827L609.726 383.821Z" fill="#FEFEFE"/>
<path d="M609.612 390.419C610.413 390.426 610.931 390.389 611.666 390.018C612.461 389.617 616.425 387.557 616.425 387.557C616.425 387.557 616.672 387.43 617.057 387.229C617.991 385.99 617.28 385.996 617.467 385.212C617.413 383.997 617.358 382.672 617.334 382.228C617.292 381.414 617.069 380.952 616.66 380.272C616.31 380.952 616.124 381.414 616.148 382.228C616.16 382.672 616.214 383.997 616.268 385.212C616.346 385.546 616.202 387.004 616.455 386.214C616.069 386.415 615.822 386.543 615.822 386.543C615.822 386.543 611.853 388.59 611.063 389.004C610.335 389.393 610.021 389.781 609.6 390.419H609.612Z" fill="#FEFEFE"/>
<path d="M570.662 344.566C577.457 342.628 582.047 341.261 590.004 338.538C591.083 338.168 592.697 337.615 594.697 336.928C595.697 336.582 596.793 336.205 597.968 335.804L598.414 335.652C598.107 335.403 599.414 336.108 597.787 335.075V335.312L597.769 338.289C597.739 343.782 597.703 350.266 597.667 356.464C597.631 362.662 597.594 368.587 597.564 372.95C597.552 375.131 597.54 376.93 597.534 378.182C597.245 377.854 595.968 378.765 596.161 378.577C596.161 378.577 585.715 383.286 574.204 388.469C573.18 389.308 570.366 389.344 570.788 390.857L570.8 386.185C570.806 383.098 570.812 380.108 570.818 377.355C570.83 371.862 570.836 367.347 570.836 365.099C570.842 356.78 570.644 352.059 570.282 345.095C569.897 352.034 569.68 356.744 569.656 365.062C569.65 367.317 569.638 371.826 569.626 377.319C569.62 380.065 569.614 383.061 569.607 386.142L569.595 390.815C572.631 391.471 572.945 389.867 574.74 389.508C586.251 384.319 596.697 379.604 596.697 379.604C596.793 379.348 597.131 379.871 598.721 378.218C598.727 376.966 598.739 375.168 598.757 372.986C598.787 368.617 598.817 362.699 598.859 356.501C598.896 350.302 598.932 343.819 598.962 338.326L598.98 335.348V335.111C597.39 333.871 598.414 334.813 597.998 334.558L597.552 334.71C596.378 335.117 595.281 335.494 594.281 335.84C592.281 336.527 590.667 337.086 589.589 337.457C581.637 340.203 577.192 341.941 570.668 344.566H570.662Z" fill="#FEFEFE"/>
<path d="M570.228 346.778C572.951 346.031 574.782 345.496 577.957 344.396C578.204 344.129 579.438 344.287 579.42 343.478C579.426 344.311 579.438 345.314 579.444 346.407C579.463 348.601 579.487 351.183 579.511 353.657C579.553 358.603 579.595 363.1 579.595 363.1C579.595 363.1 579.631 367.596 579.673 372.543C579.366 377.592 580.944 383.183 577.426 382.873C574.36 384.283 572.668 385.17 570.192 386.513C572.842 385.504 574.625 384.793 577.698 383.389C581.143 383.815 580.258 377.149 580.27 372.555C580.228 367.608 580.185 363.112 580.185 363.112C580.185 363.112 580.149 358.615 580.107 353.669C580.083 351.196 580.065 348.613 580.041 346.419C580.029 345.326 580.023 344.329 580.011 343.491C578.426 343.187 578.354 343.831 577.746 343.855C574.577 344.961 572.812 345.684 570.228 346.778Z" fill="#FEFEFE"/>
<path d="M594.793 336.107C594.426 338.204 594.227 339.632 594.221 342.153C594.215 344.888 594.257 358.578 594.257 358.578C594.257 358.578 594.275 372.269 594.293 375.003C594.594 376.358 593.691 377.057 595.124 378.4C596.1 378.412 597.022 378.376 598.13 378.321C597.058 378.017 596.154 377.774 595.197 377.568C595.558 377.956 595.42 376.012 595.48 375.046C595.486 372.311 595.444 358.621 595.444 358.621C595.444 358.621 595.42 344.93 595.401 342.196C595.383 339.668 595.179 338.234 594.799 336.113L594.793 336.107Z" fill="#FEFEFE"/>
<path d="M570.143 389.199C571.39 388.84 572.227 388.579 573.619 387.953C575.125 387.279 582.667 383.882 582.667 383.882C582.667 383.882 590.197 380.491 591.697 379.81C593.082 379.178 593.823 378.735 594.895 378.042C593.655 378.401 592.823 378.668 591.432 379.288C589.926 379.962 582.402 383.365 582.402 383.365C582.402 383.365 574.86 386.756 573.354 387.436C571.962 388.068 571.221 388.512 570.143 389.199Z" fill="#FEFEFE"/>
<path d="M570.228 387.855C571.475 387.515 572.306 387.26 573.704 386.652C575.21 385.996 582.752 382.69 582.752 382.69C582.752 382.69 590.281 379.391 591.781 378.728C593.167 378.114 593.908 377.683 594.98 377.002C593.739 377.343 592.908 377.598 591.522 378.206C590.016 378.862 582.492 382.168 582.492 382.168C582.492 382.168 574.951 385.467 573.445 386.129C572.053 386.743 571.306 387.181 570.228 387.855Z" fill="#FEFEFE"/>
<path d="M582.986 341.88C585.209 341.224 587.071 340.664 589.034 340.045C590.016 339.735 591.022 339.413 592.107 339.054C592.414 338.842 593.745 338.769 593.269 338.416C593.263 339.03 593.257 339.68 593.257 340.361C593.269 346.146 593.04 376.255 593.209 375.641C593.209 375.641 591.474 376.37 588.781 377.507C587.438 378.072 585.854 378.74 584.125 379.469L583.468 379.743C583.553 379.907 582.818 379.573 583.565 380.144L583.559 379.785L583.504 375.313C583.402 367.152 583.294 358.25 583.251 355.285C583.179 349.81 583.035 346.705 582.788 342.135C582.661 346.705 582.595 349.804 582.661 355.273C582.697 358.238 582.806 367.14 582.908 375.301L582.962 379.773L582.968 380.132C583.914 380.642 583.42 380.193 583.715 380.272L584.372 379.998C586.101 379.269 587.685 378.6 589.028 378.035C591.721 376.899 593.456 376.17 593.456 376.17C593.968 375.775 593.709 346.395 593.835 340.385C593.835 339.704 593.835 339.054 593.835 338.434C592.751 337.693 592.546 338.574 591.902 338.55C590.823 338.933 589.829 339.291 588.866 339.644C586.938 340.349 585.131 341.041 582.974 341.874L582.986 341.88Z" fill="#FEFEFE"/>
<path d="M581.445 340.908C581.276 342.853 581.185 344.171 581.203 346.505C581.222 349.033 581.348 361.684 581.348 361.684C581.348 361.684 581.457 374.335 581.487 376.863C581.511 379.197 581.626 380.521 581.831 382.472C582.006 380.527 582.096 379.209 582.078 376.875C582.06 374.348 581.939 361.696 581.939 361.696C581.939 361.696 581.825 349.045 581.794 346.517C581.764 344.183 581.656 342.859 581.445 340.908Z" fill="#FEFEFE"/>
<path d="M545.379 392.62C541.928 391.605 539.578 390.967 535.374 390.171C534.807 390.061 533.952 389.903 532.892 389.703C532.362 389.606 531.784 389.496 531.163 389.375C531.368 390.541 531.223 388.609 531.265 388.324C531.265 385.607 531.265 382.405 531.271 379.336C531.271 373.205 531.271 367.633 531.271 367.633C531.271 367.633 531.271 362.061 531.278 355.929C531.278 352.861 531.278 349.658 531.278 346.942V345.946C530.988 346.049 531.916 345.028 530.633 346.061L531.103 346.14C531.723 346.243 532.296 346.334 532.826 346.42C533.88 346.59 534.729 346.723 535.295 346.815C539.476 347.483 541.874 347.671 545.416 347.878C541.976 346.954 539.639 346.377 535.464 345.69C534.898 345.599 534.048 345.459 533 345.289C532.476 345.204 531.898 345.107 531.278 345.01L530.808 344.931C529.386 346.116 530.41 345.532 530.097 345.921V346.918C530.097 349.634 530.097 352.836 530.097 355.905C530.097 362.036 530.097 367.609 530.097 367.609C530.097 367.609 530.091 373.181 530.091 379.312C530.085 382.381 530.085 385.583 530.085 388.299C530.482 389.095 529.199 389.363 530.97 390.505C531.591 390.62 532.175 390.73 532.705 390.827C533.765 391.028 534.621 391.186 535.187 391.289C539.392 392.067 541.813 392.316 545.391 392.614L545.379 392.62Z" fill="#FEFEFE"/>
<path d="M545.416 347.878C545.229 349.968 545.126 351.396 545.12 353.899C545.114 356.622 545.108 370.239 545.108 370.239C545.108 370.239 545.09 383.857 545.09 386.579C545.096 389.089 545.192 390.517 545.385 392.619C545.578 390.529 545.681 389.101 545.687 386.597C545.693 383.875 545.699 370.258 545.699 370.258C545.699 370.258 545.711 356.634 545.711 353.918C545.705 351.408 545.609 349.98 545.422 347.878L545.416 347.878Z" fill="#FEFEFE"/>
<path d="M530.681 345.49C529.271 344.992 527.085 344.384 527.651 346.493C527.621 347.915 527.615 349.41 527.633 351.324C527.675 355.468 527.94 376.207 527.94 376.207C527.94 376.207 528 381.397 528.073 387.097L528.127 391.399C529.819 392.438 531.048 392.164 532.398 392.59C534.982 393.094 537.096 393.507 538.15 393.708C540.102 394.085 541.644 394.358 543.102 394.595L545.277 394.929C545.638 394.091 545.331 393.446 545.385 392.619C545.367 393.342 545.162 394.316 545.319 394.692L543.174 394.188C541.735 393.86 540.205 393.532 538.253 393.149C537.193 392.942 535.078 392.529 532.494 392.025C531.368 391.854 529.434 391.308 528.717 391.405L528.663 387.103C528.591 381.397 528.53 376.213 528.53 376.213C528.53 376.213 528.277 355.468 528.223 351.33C528.199 349.416 528.151 347.921 528.085 346.499C527.428 344.378 528.916 345.43 530.681 345.496V345.49Z" fill="#FEFEFE"/>
<path d="M530.669 389.874C530.446 389.807 530.313 389.776 530.181 389.868C530.042 389.965 529.362 390.469 529.362 390.469C529.362 390.469 528.675 390.967 528.542 391.071C528.422 391.168 528.41 391.302 528.422 391.52C528.645 391.587 528.777 391.618 528.91 391.526C529.048 391.429 529.729 390.925 529.729 390.925C529.729 390.925 530.416 390.427 530.548 390.323C530.669 390.226 530.681 390.098 530.669 389.874Z" fill="#FEFEFE"/>
<path d="M530.711 388.712C531.368 389.01 531.813 389.192 532.639 389.338C533.524 389.496 537.982 390.274 537.982 390.274C537.982 390.274 542.439 391.058 543.331 391.21C544.15 391.35 544.632 391.331 545.349 391.277C544.692 390.979 544.241 390.797 543.421 390.651C542.53 390.487 538.072 389.715 538.072 389.715C538.072 389.715 533.614 388.931 532.729 388.779C531.91 388.639 531.428 388.658 530.711 388.712Z" fill="#FEFEFE"/>
<path d="M555.903 430.034C558.632 429.068 560.451 428.369 563.493 426.831C566.782 425.166 583.197 416.787 583.197 416.787C583.197 416.787 599.552 408.419 602.805 406.742C605.805 405.193 607.407 404.142 609.72 402.525C607.021 403.491 605.22 404.19 602.208 405.727C598.95 407.392 582.607 415.772 582.607 415.772C582.607 415.772 566.186 424.139 562.903 425.817C559.872 427.366 558.252 428.417 555.897 430.034H555.903Z" fill="#FEFEFE"/>
<path d="M556.517 341.091C555.927 345.241 555.608 348.067 555.559 353.055C555.511 358.464 555.337 385.535 555.337 385.535C555.337 385.535 555.12 412.606 555.096 418.014C555.071 423.003 555.361 425.847 555.903 430.034C556.505 425.883 556.836 423.057 556.891 418.069C556.945 412.66 557.12 385.589 557.12 385.589C557.12 385.589 557.312 358.512 557.33 353.11C557.349 348.121 557.059 345.277 556.523 341.091H556.517Z" fill="#FEFEFE"/>
<path d="M609.564 324.039C607.022 324.665 605.305 325.115 602.335 326.069C599.118 327.102 582.998 332.297 582.998 332.297C582.998 332.297 566.83 337.487 563.602 338.526C560.614 339.486 558.957 340.124 556.523 341.096C559.084 340.47 560.812 340.021 563.8 339.067C567.035 338.034 583.203 332.838 583.203 332.838C583.203 332.838 599.329 327.649 602.546 326.61C605.51 325.65 607.16 325.012 609.57 324.039H609.564Z" fill="#FEFEFE"/>
<path d="M581.818 289.744C583.077 290.042 583.932 290.224 585.45 290.364C587.095 290.522 595.329 291.282 595.329 291.282C595.329 291.282 603.57 292.047 605.215 292.199C606.739 292.333 607.6 292.315 608.883 292.254C607.624 291.956 606.769 291.774 605.245 291.628C603.6 291.47 595.359 290.71 595.359 290.71C595.359 290.71 587.125 289.945 585.48 289.793C583.962 289.659 583.095 289.677 581.818 289.738V289.744Z" fill="#FEFEFE"/>
<path d="M609.69 317.988C609.142 321.895 608.817 324.617 608.889 329.369C608.907 334.516 609.058 360.293 609.058 360.293C609.058 360.293 609.172 386.069 609.208 391.216C609.238 395.968 609.455 398.672 609.853 402.652C610.214 398.696 610.407 396.011 610.395 391.253C610.377 386.106 610.238 360.329 610.238 360.329C610.238 360.329 610.106 334.552 610.064 329.405C609.967 324.647 609.895 321.992 609.696 317.988H609.69Z" fill="#FEFEFE"/>
<path d="M556.517 341.091C555.126 340.72 554.174 340.494 552.481 340.263C550.65 340.014 541.469 338.793 541.469 338.793C541.469 338.793 532.301 337.559 530.47 337.316C528.783 337.091 527.807 337.061 526.374 337.055C527.765 337.426 528.711 337.65 530.397 337.881C532.229 338.13 541.403 339.358 541.403 339.358C541.403 339.358 550.584 340.591 552.415 340.828C554.107 341.053 555.078 341.085 556.517 341.091Z" fill="#FEFEFE"/>
<path d="M556.536 305.573C555.969 307.22 555.656 308.338 555.632 310.331C555.602 312.489 555.542 323.299 555.542 323.299C555.572 323.311 555.379 334.079 555.518 336.297C555.584 338.29 555.921 339.42 556.53 341.085C557.042 339.42 557.319 338.29 557.277 336.297C557.168 334.194 557.331 323.341 557.301 323.36C557.301 323.36 557.391 312.549 557.391 310.392C557.391 308.399 557.096 307.257 556.548 305.573H556.536Z" fill="#FEFEFE"/>
<path d="M526.217 301.666C527.597 302.213 528.537 302.535 530.235 302.76C532.073 303.009 541.301 304.188 541.301 304.188C541.301 304.188 550.53 305.391 552.379 305.616C554.084 305.829 555.066 305.756 556.53 305.574C555.144 305.027 554.204 304.711 552.5 304.48C550.656 304.231 541.428 303.052 541.428 303.052C541.428 303.052 532.205 301.855 530.362 301.624C528.663 301.411 527.675 301.484 526.211 301.666H526.217Z" fill="#FEFEFE"/>
<path d="M527.458 330.785L526.47 330.421C526.578 330.949 526.615 330.038 526.669 329.91C526.765 329.284 526.819 328.622 526.825 327.777C526.831 325.942 526.813 316.76 526.813 316.76C526.813 316.76 526.813 307.579 526.801 305.744C526.789 304.048 526.591 303.088 526.217 301.666C525.844 303.076 525.651 304.03 525.639 305.725C525.633 307.561 525.651 316.742 525.651 316.742C525.651 316.742 525.645 325.924 525.657 327.759C525.663 328.604 525.717 329.272 525.813 329.898C526.054 330.244 525.494 330.451 526.422 330.907L527.458 330.791V330.785Z" fill="#FEFEFE"/>
<path d="M556.331 334.302C554.994 333.956 554.084 333.743 552.464 333.543C550.711 333.324 541.916 332.261 541.916 332.261C541.916 332.261 533.133 331.185 531.38 330.973C529.76 330.778 528.832 330.766 527.458 330.784C528.79 331.131 529.699 331.343 531.32 331.544C533.073 331.762 541.862 332.832 541.862 332.832C541.862 332.832 550.651 333.908 552.409 334.114C554.03 334.309 554.964 334.321 556.337 334.302H556.331Z" fill="#FEFEFE"/>
<path d="M609.69 317.988C607.136 318.577 605.414 319.002 602.426 319.914C599.191 320.904 582.975 325.875 582.975 325.875C582.975 325.875 566.71 330.839 563.463 331.836C560.463 332.76 558.789 333.373 556.337 334.309C558.909 333.72 560.644 333.294 563.65 332.383C566.903 331.392 583.161 326.422 583.161 326.422C583.161 326.422 599.384 321.457 602.618 320.461C605.6 319.543 607.262 318.923 609.69 317.988Z" fill="#FEFEFE"/>
<path d="M609.744 292.126C609.371 293.323 609.172 294.137 609.16 295.589C609.148 297.157 609.136 305.032 609.136 305.032C609.136 305.032 609.106 312.902 609.112 314.475C609.118 315.928 609.317 316.76 609.684 317.988C610.058 316.791 610.262 315.976 610.274 314.524C610.286 312.956 610.292 305.081 610.292 305.081C610.292 305.081 610.317 297.212 610.311 295.638C610.305 294.186 610.106 293.353 609.738 292.126H609.744Z" fill="#FEFEFE"/>
<path d="M556.65 305.33C559.246 305.063 560.999 304.838 563.987 304.102C567.228 303.306 583.402 299.284 583.402 299.284C583.402 299.284 599.552 295.273 602.769 294.465C605.739 293.718 607.365 293.104 609.745 292.132C607.161 292.399 605.42 292.624 602.444 293.359C599.221 294.155 583.083 298.184 583.083 298.184C583.083 298.184 566.903 302.194 563.674 303.003C560.692 303.75 559.048 304.364 556.65 305.336V305.33Z" fill="#FEFEFE"/>
<path d="M555.903 430.034C555.758 431.741 555.65 433.175 555.59 434.694C555.56 435.454 555.542 436.232 555.536 437.082C555.951 437.684 554.602 437.532 556.476 438.814L557.801 438.121C561.813 435.982 581.794 425.239 581.794 425.239C581.794 425.239 601.685 414.508 605.636 412.357C606.552 411.858 607.353 411.409 608.094 410.971C608.727 409.306 608.209 409.118 608.305 408.176C608.197 406.657 608.046 405.217 607.853 403.509C607.667 405.211 607.528 406.639 607.432 408.152C607.474 408.693 607.142 410.169 607.528 410.048C606.757 410.437 605.938 410.862 605.022 411.36C601.058 413.493 581.179 424.242 581.179 424.242C581.179 424.242 561.186 434.974 557.186 437.125L555.873 437.842C557.53 438.522 556.295 437.259 556.644 437.088C556.596 436.244 556.536 435.46 556.463 434.7C556.319 433.181 556.138 431.747 555.897 430.04L555.903 430.034Z" fill="#FEFEFE"/>
<path d="M527.331 422.699C528.578 423.398 529.434 423.817 531.03 424.242C532.765 424.698 541.457 426.922 541.457 426.922C541.457 426.922 550.156 429.164 551.897 429.602C553.505 430.003 554.464 430.052 555.897 430.04C554.644 429.341 553.782 428.921 552.18 428.496C550.445 428.04 541.74 425.816 541.74 425.816C541.74 425.816 533.054 423.574 531.319 423.136C529.717 422.735 528.759 422.693 527.325 422.699H527.331Z" fill="#FEFEFE"/>
<path d="M526.241 330.639C525.922 334.954 525.753 337.883 525.801 343.048C525.855 348.644 526.199 376.663 526.199 376.663C526.199 376.663 526.512 404.682 526.59 410.279C526.657 415.444 526.898 418.379 527.331 422.693C527.663 418.379 527.831 415.45 527.783 410.285C527.729 404.688 527.38 376.669 527.38 376.669C527.38 376.669 527.054 348.65 526.976 343.054C526.904 337.889 526.663 334.954 526.241 330.639Z" fill="#FEFEFE"/>
<path d="M545.216 350.078C542.253 349.44 540.234 349.033 536.656 348.48C536.168 348.407 535.445 348.291 534.542 348.152C534.042 348.316 533.717 347.483 532.952 348.449C532.952 348.972 532.952 349.525 532.958 350.102C532.964 352.423 532.97 355.164 532.976 357.789C532.988 363.033 533 367.797 533 367.797C533 367.797 533.012 372.561 533.024 377.805C533.03 380.424 533.036 383.165 533.042 385.492C533.042 386.075 533.042 386.628 533.048 387.145C533.415 388.366 534.036 387.619 534.452 387.941C535.361 388.081 536.096 388.19 536.584 388.269C540.198 388.822 542.259 389.035 545.301 389.32C542.307 388.676 540.271 388.263 536.662 387.704C536.174 387.631 535.439 387.516 534.53 387.376C534.343 387.309 532.976 387.218 533.644 387.157C533.644 386.635 533.644 386.082 533.638 385.504C533.632 383.183 533.626 380.442 533.62 377.817C533.608 372.573 533.59 367.809 533.59 367.809C533.59 367.809 533.578 363.045 533.566 357.801C533.56 355.182 533.548 352.442 533.542 350.114C533.542 349.531 533.536 348.978 533.536 348.462C532.958 348.607 534.253 348.638 534.458 348.717C535.361 348.857 536.084 348.966 536.572 349.039C540.15 349.58 542.192 349.798 545.21 350.072L545.216 350.078Z" fill="#FEFEFE"/>
<path d="M563.535 248.569C563.385 251.109 563.3 253.479 563.336 256.53C563.372 259.829 563.565 276.351 563.565 276.351C563.565 276.351 563.752 292.873 563.794 296.173C563.83 299.217 563.951 300.949 564.168 303.495C564.324 300.955 564.403 299.23 564.372 296.179C564.336 292.88 564.143 276.357 564.143 276.357C564.143 276.357 563.951 259.835 563.909 256.536C563.866 253.491 563.746 251.115 563.535 248.569Z" fill="#FEFEFE"/>
<path d="M578.444 299.831C578.751 296.719 578.902 294.605 578.83 290.88C578.751 286.839 578.299 266.61 578.299 266.61C578.299 266.61 578.191 261.554 578.071 255.994C578.01 253.211 577.95 249.662 577.896 247.195L577.884 246.74C576.492 245.482 577.245 246.424 576.824 246.162L575.98 246.278C575.438 246.351 574.926 246.424 574.462 246.484C573.535 246.612 572.788 246.715 572.288 246.788C568.607 247.305 566.547 247.785 563.535 248.575C566.673 248.514 568.794 248.423 572.48 247.924C572.98 247.858 573.727 247.754 574.655 247.627C575.119 247.566 575.625 247.493 576.173 247.42L577.016 247.305C576.836 247.056 578.034 247.779 576.727 246.727L576.739 247.183C576.793 249.644 576.854 253.199 576.914 255.982C577.034 261.542 577.149 266.604 577.149 266.604C577.149 266.604 577.577 286.833 577.673 290.874C577.763 294.605 578.01 296.719 578.444 299.843V299.831Z" fill="#FEFEFE"/>
<path d="M576.348 300.195C576.668 297.734 576.83 296.063 576.776 293.11C576.716 289.914 576.36 273.908 576.36 273.908C576.36 273.908 576.023 257.902 575.945 254.706C575.872 251.753 575.638 249.432 575.216 246.964C574.903 249.425 574.74 251.741 574.794 254.694C574.854 257.89 575.204 273.896 575.204 273.896C575.204 273.896 575.535 289.901 575.613 293.098C575.686 296.051 575.921 297.722 576.342 300.195H576.348Z" fill="#FEFEFE"/>
<path d="M573.908 249.486C573.763 251.315 573.691 253.205 573.733 255.393C573.782 257.769 574.041 269.654 574.041 269.654C574.041 269.654 574.294 281.546 574.348 283.916C574.396 286.11 574.529 287.355 574.751 289.184C574.896 287.355 574.968 286.116 574.932 283.922C574.884 281.546 574.625 269.654 574.625 269.654C574.625 269.654 574.372 257.763 574.318 255.393C574.264 253.199 574.137 251.315 573.914 249.48L573.908 249.486Z" fill="#FEFEFE"/>
<path d="M564.071 251.692C564.583 251.886 564.927 251.984 565.481 251.905C566.077 251.82 569.077 250.689 569.077 250.689C569.077 250.689 572.071 250.221 572.667 250.118C573.215 250.021 573.505 249.826 573.914 249.486C573.402 249.286 573.059 249.194 572.511 249.273C571.908 249.365 568.92 249.845 568.92 249.845C568.92 249.845 565.927 250.313 565.324 250.416C564.776 250.513 564.487 251.352 564.077 251.692H564.071Z" fill="#FEFEFE"/>
<path d="M564.614 291.397C564.771 289.537 564.855 288.273 564.831 286.049C564.801 283.637 564.632 271.551 564.632 271.551C564.632 271.551 564.469 259.464 564.433 257.052C564.397 254.822 564.282 253.557 564.071 251.692C563.915 253.551 563.831 254.81 563.861 257.04C563.891 259.452 564.06 271.538 564.06 271.538C564.06 271.538 564.216 283.625 564.259 286.037C564.295 288.267 564.409 289.531 564.62 291.397H564.614Z" fill="#FEFEFE"/>
<path d="M574.752 289.191C574.234 289.118 573.885 289.087 573.318 289.209C572.698 289.337 569.62 290.011 569.62 290.011C569.62 290.011 566.536 290.673 565.915 290.813C565.349 290.941 565.048 291.105 564.62 291.39C565.138 291.463 565.487 291.494 566.06 291.372C566.68 291.245 569.764 290.57 569.764 290.57C569.764 290.57 572.849 289.902 573.469 289.768C574.035 289.64 574.33 289.476 574.764 289.191H574.752Z" fill="#FEFEFE"/>
<path d="M574.884 300.809C575.047 299.4 575.131 298.446 575.107 296.756C574.776 295.906 575.752 292.952 574.3 290.728C571.83 291.263 569.583 291.755 569.583 291.755C569.583 291.755 567.337 292.241 564.861 292.776C563.734 295.28 564.584 298.032 564.337 298.944C564.355 300.633 564.463 301.587 564.662 303.003C564.837 301.599 564.927 300.645 564.921 298.956C564.975 298.288 564.764 294.745 565.005 293.335C567.475 292.801 569.728 292.308 569.728 292.308C569.728 292.308 571.975 291.822 574.445 291.287C574.451 292.369 574.523 296.149 574.535 296.744C574.565 298.433 574.686 299.387 574.89 300.803L574.884 300.809Z" fill="#FEFEFE"/>
<path d="M531.789 253.126C535.09 253.023 537.319 252.901 541.199 252.348C542.247 252.202 544.349 251.898 546.909 251.528L547.891 251.388C546.771 250.306 547.59 251.674 547.343 251.71L547.367 253.849L547.421 258.261C547.494 264.106 547.56 269.423 547.56 269.423C547.56 269.423 547.807 290.685 547.867 294.927C547.921 298.846 548.15 301.076 548.56 304.351C548.891 301.082 549.066 298.858 549.03 294.939C548.987 290.691 548.716 269.429 548.716 269.429C548.716 269.429 548.65 264.112 548.584 258.267L548.53 253.855L548.5 251.716C548.144 251.169 549.277 251.473 547.698 250.24L546.716 250.379C544.156 250.75 542.06 251.054 541.012 251.206C537.138 251.771 534.97 252.287 531.795 253.114L531.789 253.126Z" fill="#FEFEFE"/>
<path d="M532.374 302.273C532.53 299.97 532.615 298.409 532.585 295.65C532.555 292.66 532.374 277.7 532.374 277.7C532.374 277.7 532.199 262.739 532.157 259.756C532.121 256.997 532 255.429 531.789 253.126C531.633 255.429 531.555 256.991 531.579 259.749C531.609 262.739 531.789 277.694 531.789 277.694C531.789 277.694 531.958 292.654 532 295.644C532.036 298.402 532.157 299.964 532.368 302.273H532.374Z" fill="#FEFEFE"/>
<path d="M544.446 303.865C544.62 302.929 544.711 302.291 544.699 301.173C544.699 300.869 544.686 300.262 544.674 299.52L544.656 298.329C544.44 298.056 545.12 298.056 544.168 297.557L543.548 297.685C541.897 298.031 540.391 298.341 540.391 298.341C540.391 298.341 534.38 299.587 533.181 299.836C532 300.912 532.952 301.586 532.868 302.516C533.121 301.835 533.018 300.383 533.313 300.395C534.512 300.152 540.524 298.9 540.524 298.9C540.524 298.9 542.024 298.591 543.68 298.244L544.307 298.117C543.819 297.472 544.174 298.305 544.072 298.317L544.09 299.508C544.102 300.249 544.108 300.857 544.114 301.161C544.138 302.285 544.247 302.923 544.446 303.859V303.865Z" fill="#FEFEFE"/>
<path d="M543.819 253.984C543.235 253.789 542.849 253.698 542.205 253.783C541.506 253.874 538.024 254.385 538.024 254.385C538.024 254.385 534.536 254.877 533.843 254.986C533.205 255.083 532.861 255.284 532.367 255.63C532.952 255.825 533.337 255.916 533.982 255.831C534.681 255.74 538.162 255.229 538.162 255.229C538.162 255.229 541.65 254.737 542.343 254.628C542.988 254.53 543.325 254.33 543.813 253.984H543.819Z" fill="#FEFEFE"/>
<path d="M532.843 298.178C535.349 297.807 537.036 297.528 539.982 296.872C540.777 296.695 542.373 296.337 544.313 295.905C544.861 293.475 544.421 291.476 544.523 289.142C544.475 284.682 544.421 280.629 544.421 280.629C544.421 280.629 544.234 264.411 544.192 261.172C544.15 258.182 544.036 256.487 543.819 253.984C543.662 256.481 543.584 258.176 543.614 261.166C543.644 264.404 543.837 280.623 543.837 280.623C543.837 280.623 543.879 284.676 543.933 289.136C544.03 291.22 543.825 294.022 544.162 295.346C542.222 295.784 540.626 296.142 539.831 296.319C536.891 296.981 535.247 297.449 532.837 298.178H532.843Z" fill="#FEFEFE"/>
<path d="M532.368 255.636C532.205 257.629 532.121 258.984 532.145 261.366C532.169 263.955 532.32 276.904 532.32 276.904C532.32 276.904 532.458 289.853 532.494 292.442C532.525 294.83 532.639 296.185 532.844 298.184C533.007 296.191 533.091 294.836 533.067 292.448C533.043 289.865 532.892 276.91 532.892 276.91C532.892 276.91 532.754 263.961 532.717 261.372C532.687 258.984 532.573 257.629 532.368 255.636Z" fill="#FEFEFE"/>
<path d="M545.403 251.139C545.066 253.618 544.879 255.301 544.903 258.273C544.927 261.493 545.096 277.615 545.096 277.615C545.096 277.615 545.247 293.736 545.289 296.956C545.325 299.928 545.548 301.617 545.939 304.108C546.289 301.629 546.469 299.946 546.451 296.974C546.427 293.754 546.253 277.633 546.253 277.633C546.253 277.633 546.096 261.512 546.054 258.291C546.018 255.32 545.801 253.63 545.409 251.139H545.403Z" fill="#FEFEFE"/>
<path d="M469.213 449.843C469.105 452.176 469.026 454.133 468.996 456.199L468.984 457.779V458.599C470.713 459.523 469.924 458.648 470.52 458.757C471.611 458.259 472.785 457.712 474.086 457.08C479.743 454.364 507.923 440.697 507.923 440.697C507.923 440.697 514.94 437.288 522.645 433.533C524.404 432.853 526.91 431.06 528.072 431.279C530.163 431.85 532.193 432.409 534.06 432.913C537.789 433.934 540.849 434.767 542.379 435.186C548.036 436.723 551.295 437.404 556.114 438.346C551.487 436.705 548.331 435.642 542.686 434.086C541.162 433.667 538.102 432.828 534.373 431.807C532.512 431.297 530.482 430.744 528.392 430.173C525.476 430.106 524.235 431.789 522.085 432.506C514.38 436.262 507.368 439.677 507.368 439.677C507.368 439.677 479.182 453.325 473.538 456.059C472.231 456.691 471.08 457.262 470.008 457.809C470.111 458.107 468.647 457.718 470.056 458.569L470.002 457.748L469.882 456.168C469.707 454.102 469.49 452.152 469.219 449.837L469.213 449.843Z" fill="#FEFEFE"/>
<path d="M527.331 422.699C524.452 423.641 522.519 424.327 519.266 425.84C515.748 427.48 498.098 435.751 498.098 435.751C498.098 435.751 480.37 444.003 476.828 445.662C473.557 447.193 471.786 448.232 469.213 449.836C472.123 448.894 474.081 448.208 477.364 446.695C480.918 445.054 498.64 436.784 498.64 436.784C498.64 436.784 516.302 428.532 519.814 426.873C523.055 425.342 524.801 424.303 527.331 422.699Z" fill="#FEFEFE"/>
<path d="M527.489 430.525C527.676 430.16 527.773 429.911 527.767 429.467C527.761 428.994 527.706 426.612 527.706 426.612C527.706 426.612 527.664 424.23 527.652 423.756C527.64 423.318 527.531 423.069 527.332 422.698C527.145 423.063 527.049 423.312 527.055 423.756C527.061 424.23 527.109 426.612 527.109 426.612C527.109 426.612 527.151 428.994 527.164 429.467C527.176 429.905 527.284 430.154 527.483 430.525H527.489Z" fill="#FEFEFE"/>
<path d="M469.213 449.843C469.749 445.741 470.039 442.951 470.003 438.041C469.967 432.724 469.695 406.091 469.695 406.091C469.695 406.091 469.455 379.457 469.388 374.14C469.328 369.23 468.997 366.447 468.388 362.346C467.858 366.447 467.581 369.237 467.611 374.146C467.647 379.463 467.906 406.097 467.906 406.097C467.906 406.097 468.135 432.731 468.202 438.048C468.262 442.957 468.599 445.741 469.213 449.843Z" fill="#FEFEFE"/>
<path d="M363.644 418.421C368.379 420.421 371.62 421.703 377.505 423.477C383.885 425.403 415.956 434.95 415.956 434.95C415.956 434.95 448.166 444.526 454.617 446.422C460.581 448.172 464.057 448.889 469.213 449.837C464.4 447.838 461.105 446.556 455.153 444.782C448.708 442.855 416.504 433.309 416.504 433.309C416.504 433.309 384.451 423.732 378.066 421.836C372.174 420.086 368.741 419.369 363.644 418.421Z" fill="#FEFEFE"/>
<path d="M363.813 425.998C368.608 427.876 371.885 429.103 377.777 430.944C384.168 432.937 416.269 442.866 416.269 442.866C416.269 442.866 448.521 452.814 454.985 454.789C460.955 456.612 464.412 457.462 469.521 458.647C464.647 456.77 461.322 455.542 455.352 453.701C448.901 451.708 416.643 441.779 416.643 441.779C416.643 441.779 384.548 431.831 378.156 429.857C372.259 428.034 368.849 427.183 363.807 425.998H363.813Z" fill="#FEFEFE"/>
<path d="M363.687 343.107C363.313 347.002 363.115 349.646 363.115 354.294C363.109 359.332 363.151 384.562 363.151 384.562C363.151 384.562 363.181 409.791 363.199 414.829C363.217 419.477 363.428 422.115 363.819 425.992C364.193 422.096 364.398 419.453 364.398 414.805C364.398 409.767 364.343 384.537 364.343 384.537C364.343 384.537 364.313 359.301 364.295 354.27C364.277 349.621 364.072 346.984 363.693 343.107H363.687Z" fill="#FEFEFE"/>
<path d="M403.746 351.177C403.372 354.768 403.173 357.211 403.167 361.507C403.161 366.162 403.185 389.466 403.185 389.466C403.185 389.466 403.185 390.924 403.185 393.178C403.541 393.865 402.39 394.078 403.981 395.293C404.631 395.469 405.33 395.652 406.047 395.846C407.493 396.235 409.053 396.648 410.655 397.074C417.059 398.781 424.058 400.634 426.383 401.254C430.691 402.391 433.184 402.846 436.883 403.448C433.389 402.141 431.004 401.303 426.703 400.148C424.378 399.522 417.384 397.669 410.98 395.962C409.378 395.536 407.818 395.123 406.372 394.734C405.649 394.54 404.956 394.357 404.306 394.181C404.438 395.159 404.342 393.367 404.372 393.166C404.366 390.912 404.366 389.454 404.366 389.454C404.366 389.454 404.354 366.15 404.342 361.495C404.33 357.199 404.125 354.762 403.746 351.177Z" fill="#FEFEFE"/>
<path d="M437.07 407.66C433.226 406.232 430.606 405.308 425.889 404.014C423.335 403.309 415.661 401.219 408.637 399.298C406.878 398.818 405.167 398.35 403.577 397.913C402.788 397.7 402.023 397.488 401.306 397.293C401.149 397.433 400.143 396.576 400.721 397.536V396.57C400.715 394.091 400.715 392.493 400.715 392.493C400.715 392.493 400.691 366.892 400.679 361.776C400.667 357.054 400.456 354.38 400.077 350.443C399.703 354.393 399.505 357.072 399.499 361.788C399.493 366.898 399.529 392.505 399.529 392.505C399.529 392.505 399.529 394.103 399.529 396.582V397.554C400.667 398.776 400.432 398.053 400.968 398.405C401.685 398.6 402.444 398.812 403.24 399.025C404.824 399.456 406.541 399.93 408.3 400.41C415.323 402.331 422.998 404.427 425.558 405.12C430.281 406.402 433.022 406.937 437.07 407.666V407.66Z" fill="#FEFEFE"/>
<path d="M436.793 357.777C436.618 360.116 436.528 361.702 436.534 364.504C436.546 367.536 436.636 382.721 436.636 382.721C436.636 382.721 436.715 397.907 436.739 400.939C436.757 403.74 436.871 405.326 437.077 407.666C437.257 405.326 437.348 403.734 437.336 400.939C437.324 397.907 437.233 382.721 437.233 382.721C437.233 382.721 437.149 367.536 437.131 364.504C437.113 361.702 436.998 360.116 436.799 357.783L436.793 357.777Z" fill="#FEFEFE"/>
<path d="M403.872 394.638C404.022 395.416 403.125 396.236 404.197 396.783C404.908 397.026 405.667 397.257 406.649 397.524C408.769 398.101 419.407 400.951 419.407 400.951C419.407 400.951 430.052 403.813 432.184 404.379C434.154 404.901 435.292 405.102 436.985 405.369C435.395 404.755 434.304 404.36 432.341 403.826C430.214 403.248 419.564 400.398 419.564 400.398C419.564 400.398 408.932 397.536 406.811 396.971C405.83 396.71 405.058 396.528 404.318 396.382C403.781 396.643 404.071 395.239 403.872 394.644V394.638Z" fill="#FEFEFE"/>
<path d="M436.895 401.425C434.286 400.508 432.509 399.912 429.329 399.025C428.467 398.782 426.739 398.308 424.642 397.718L423.004 397.263C423.022 397.542 423.004 396.345 423.004 395.944L422.98 392.353C422.949 387.595 422.925 383.268 422.925 383.268C422.925 383.268 422.829 365.962 422.811 362.505C422.787 359.315 422.678 357.504 422.474 354.842C422.299 357.51 422.209 359.321 422.221 362.511C422.233 365.968 422.335 383.274 422.335 383.274C422.335 383.274 422.359 387.601 422.383 392.359L422.401 395.95C422.588 396.594 421.992 397.001 422.829 397.816L424.468 398.271C426.57 398.855 428.293 399.335 429.16 399.572C432.347 400.453 434.178 400.86 436.895 401.425Z" fill="#FEFEFE"/>
<path d="M418.703 354.112C418.528 358.639 418.432 361.714 418.438 367.128C418.444 370.063 418.468 378.874 418.486 386.95C418.492 388.967 418.498 390.942 418.504 392.765C418.504 393.677 418.51 394.552 418.51 395.378C418.552 395.506 418.426 396.83 418.6 395.937L417.486 395.652C414.636 394.922 412.793 394.454 412.793 394.454C412.793 394.454 410.956 393.987 408.107 393.257C407.57 393.142 406.221 392.735 406.191 392.814C406.191 391.987 406.197 391.112 406.197 390.201C406.203 388.378 406.209 386.403 406.215 384.386C406.239 376.31 406.257 367.493 406.263 364.564C406.275 359.15 406.179 356.075 406.004 351.554C405.805 356.081 405.691 359.156 405.673 364.57C405.661 367.505 405.637 376.316 405.619 384.392C405.613 386.409 405.607 388.384 405.601 390.207C405.601 391.118 405.595 391.993 405.595 392.82C406.504 393.847 407.221 393.458 407.95 393.816C410.799 394.546 412.637 395.014 412.637 395.014C412.637 395.014 414.474 395.487 417.329 396.211L418.444 396.496C419.769 396.271 418.811 395.755 419.106 395.378C419.106 394.552 419.1 393.677 419.1 392.765C419.094 390.942 419.088 388.967 419.088 386.95C419.064 378.874 419.046 370.057 419.034 367.128C419.016 361.714 418.907 358.639 418.703 354.118V354.112Z" fill="#FEFEFE"/>
<path d="M420.697 399.043C420.902 396.959 421.011 395.549 421.029 393.057C421.053 390.359 421.125 376.851 421.125 376.851C421.125 376.851 421.21 363.343 421.222 360.645C421.234 358.154 421.138 356.744 420.963 354.66C420.764 356.744 420.649 358.154 420.631 360.645C420.613 363.343 420.534 376.851 420.534 376.851C420.534 376.851 420.45 390.359 420.438 393.057C420.426 395.549 420.522 396.959 420.703 399.043H420.697Z" fill="#FEFEFE"/>
<path d="M404.016 396.533C403.788 396.406 403.637 396.345 403.414 396.4C403.179 396.46 401.999 396.776 401.999 396.776C401.999 396.776 400.818 397.086 400.583 397.153C400.366 397.214 400.27 397.342 400.137 397.572C400.366 397.7 400.517 397.761 400.74 397.706C400.974 397.645 402.155 397.329 402.155 397.329C402.155 397.329 403.336 397.019 403.571 396.953C403.788 396.892 403.884 396.764 404.016 396.533Z" fill="#FEFEFE"/>
<path d="M426.504 310.835C427.847 309.291 428.715 308.222 429.944 306.162C431.275 303.932 437.859 292.72 437.859 292.72C437.859 292.72 444.425 281.521 445.72 279.285C446.919 277.213 447.425 275.943 448.112 274.035C446.792 275.578 445.937 276.648 444.72 278.708C443.407 280.938 436.859 292.143 436.859 292.143C436.859 292.143 430.257 303.342 428.944 305.585C427.733 307.657 427.209 308.927 426.51 310.835H426.504Z" fill="#FEFEFE"/>
<path d="M448.105 274.035C447.955 275.949 448.328 278.125 447.834 279.322C446.84 280.853 445.834 282.494 444.605 284.62C441.937 289.226 428.522 312.305 428.522 312.305C428.769 312.141 427.757 313.022 428.492 312.949C427.751 312.84 426.684 312.682 425.389 312.494C422.799 312.117 419.293 311.6 415.624 311.06L410.089 310.245C409.528 310.257 407.486 309.662 408.197 310.172C408.203 309.303 408.215 308.459 408.221 307.645C409.842 309.072 413.661 308.915 414.631 309.334C419.528 310.185 422.347 310.47 426.51 310.829C422.486 309.753 419.739 309.073 414.841 308.21C413.257 308.289 411.438 306.806 407.052 307.645C407.046 308.453 407.034 309.297 407.028 310.172C408.299 311.941 408.914 310.889 409.914 311.388L415.45 312.196C419.124 312.731 422.63 313.247 425.221 313.624C426.516 313.812 427.582 313.97 428.323 314.08C429.955 313.028 429.257 312.968 429.54 312.876C429.54 312.876 442.967 289.804 445.617 285.192C446.84 283.065 447.756 281.369 448.581 279.741C449.099 277.602 448.286 276.138 448.117 274.035H448.105Z" fill="#FEFEFE"/>
<path d="M407.637 307.53C409.3 305.233 410.408 303.659 412.215 300.803C414.167 297.704 423.871 282.172 423.871 282.172C423.871 282.172 426.287 278.289 428.938 274.023L429.938 272.407C429.883 272.48 431.01 272.541 431.48 272.608C432.727 272.735 433.937 272.863 435.046 272.978C437.269 273.209 439.088 273.397 440.003 273.489C443.365 273.829 445.286 273.932 448.112 274.042C445.323 273.568 443.425 273.276 440.064 272.923C439.154 272.826 437.329 272.638 435.112 272.407C434.004 272.292 432.793 272.164 431.546 272.036C430.829 272.091 430.504 271.635 429.444 272.109L428.444 273.72C425.793 277.991 423.378 281.874 423.378 281.874C423.378 281.874 413.667 297.4 411.721 300.505C409.926 303.367 408.986 305.044 407.637 307.536V307.53Z" fill="#FEFEFE"/>
<path d="M430.672 274.54C435.54 275.203 438.853 275.628 444.708 276.205C444.804 276.035 445.352 276.679 445.154 275.841L444.738 276.534C444.443 277.032 444.099 277.603 443.726 278.235C442.973 279.499 442.069 281.012 441.076 282.671C439.094 285.995 436.744 289.908 434.497 293.657C429.985 301.156 425.877 307.968 425.877 307.968C426.142 308.709 424.636 307.761 421.335 307.463C419.799 307.208 417.992 306.91 416.022 306.588C415.04 306.43 414.016 306.26 412.962 306.084L411.372 305.823C411.064 306.673 411.781 305.264 411.938 305.093C416.564 297.644 421.594 289.519 423.257 286.815C426.329 281.82 427.986 278.934 430.389 274.668C427.672 278.745 425.847 281.529 422.763 286.517C421.088 289.221 416.064 297.346 411.438 304.796C411.456 305.355 410.167 305.513 411.269 306.394L412.86 306.655C413.908 306.825 414.932 306.995 415.92 307.159C417.89 307.482 419.697 307.779 421.233 308.028C423.998 308.575 426.769 308.946 426.371 308.259C426.371 308.259 430.485 301.441 434.991 293.949C437.238 290.2 439.582 286.28 441.569 282.963C442.557 281.304 443.461 279.791 444.214 278.527C444.587 277.895 444.931 277.324 445.226 276.825L445.636 276.133C444.955 275.245 445.045 275.847 444.75 275.634C438.895 275.063 435.564 274.832 430.66 274.534L430.672 274.54Z" fill="#FEFEFE"/>
<path d="M283.779 253.97C285.641 251.692 286.858 250.112 288.713 247.165C290.725 243.975 300.707 227.951 300.707 227.951C300.707 227.951 310.622 211.939 312.586 208.737C314.393 205.777 315.254 204.003 316.465 201.354C314.646 203.638 313.453 205.212 311.628 208.159C309.646 211.356 299.743 227.373 299.743 227.373C299.743 227.373 289.743 243.385 287.749 246.587C285.906 249.547 285.02 251.321 283.779 253.97Z" fill="#FEFEFE"/>
<path d="M279.792 248.356C279.918 248.806 280.021 249.091 280.34 249.492C281.304 249.741 280.665 252.312 280.804 252.452C280.804 252.452 280.774 253.156 280.737 253.934C281.466 255.101 282.352 254.226 282.623 254.481C283.099 254.378 283.545 254.548 283.779 253.977C283.557 254.183 283.111 253.819 282.635 253.91C282.617 253.91 280.912 253.946 281.316 253.94C281.346 253.163 281.376 252.458 281.376 252.458C281.346 252.658 281.737 249.292 280.792 249.128C280.466 248.733 280.207 248.575 279.792 248.362V248.356Z" fill="#FEFEFE"/>
<path d="M316.724 187.961C314.556 190.519 313.146 192.294 311.086 195.672C308.851 199.336 297.671 217.724 297.671 217.724C297.671 217.724 286.364 236.1 284.111 239.782C282.027 243.179 281.087 245.251 279.792 248.356C282.008 245.798 283.448 244.023 285.557 240.645C287.834 236.981 299.11 218.593 299.11 218.593C299.11 218.593 310.315 200.217 312.526 196.535C314.562 193.138 315.477 191.066 316.724 187.961Z" fill="#FEFEFE"/>
<path d="M316.712 188.332C318.381 192.033 319.58 194.5 322.128 198.571C324.893 202.977 338.898 225.004 338.898 225.004C338.898 225.004 353.048 247.044 355.904 251.437C357.416 253.528 358.108 255.108 359.036 255.691L358.361 255.788C358.03 256.068 358.627 255.229 357.536 256.432L357.572 256.766L357.741 258.109C357.862 259.015 358 259.951 358.157 260.959C358.277 259.932 358.38 258.99 358.47 258.079L358.59 256.724L358.614 256.39C357.615 257.459 358.53 256.693 358.398 256.93L359.078 256.949C360.434 255.259 359.47 255.691 359.771 254.943C359.633 253.728 359.325 253.892 359.084 253.285C358.572 252.422 358 251.504 357.349 250.489C354.512 246.084 340.338 224.056 340.338 224.056C340.338 224.056 326.351 202.017 323.561 197.623C320.995 193.57 319.297 191.431 316.706 188.344L316.712 188.332Z" fill="#FEFEFE"/>
<path d="M316.465 201.348C316.658 200.734 316.767 200.321 316.785 199.586C316.803 198.796 316.875 194.834 316.875 194.834C316.875 194.834 316.954 190.872 316.966 190.082C316.978 189.353 316.888 188.94 316.719 188.332C316.526 188.946 316.423 189.359 316.399 190.094C316.381 190.884 316.309 194.852 316.309 194.852C316.309 194.852 316.23 198.814 316.218 199.604C316.206 200.333 316.296 200.746 316.465 201.354L316.465 201.348Z" fill="#FEFEFE"/>
<path d="M358.156 260.952C357.277 260.831 356.47 260.722 355.687 260.624C355.446 260.588 354.572 260.503 354.861 260.509L354.301 259.5C353.536 258.145 352.687 256.747 351.554 254.991C349.096 251.193 336.826 232.216 336.826 232.216C336.826 232.216 324.694 213.227 322.278 209.441C320.049 205.947 318.628 204.07 316.471 201.354C318.013 204.483 319.103 206.579 321.314 210.086C323.718 213.883 335.862 232.861 335.862 232.861C335.862 232.861 348.114 251.85 350.584 255.635C351.729 257.386 352.663 258.722 353.59 259.968L354.289 260.892C355.066 261.42 355.174 261.007 355.662 261.11C356.452 261.068 357.271 261.013 358.162 260.952H358.156Z" fill="#FEFEFE"/>
<path d="M316.905 192.591C318.652 195.684 319.863 197.769 322.134 201.348C324.604 205.224 337.073 224.639 337.073 224.639C337.073 224.639 349.663 244.054 352.199 247.931C354.543 251.51 355.958 253.485 358.073 256.371C356.265 253.278 355.018 251.194 352.681 247.615C350.157 243.738 337.555 224.323 337.555 224.323C337.555 224.323 325.092 204.908 322.616 201.032C320.333 197.453 318.959 195.478 316.905 192.591Z" fill="#FEFEFE"/>
<path d="M281.16 250.038C283.015 247.389 284.25 245.578 286.28 242.297C288.479 238.748 299.4 220.944 299.4 220.944C299.4 220.944 310.237 203.146 312.387 199.591C313.381 197.95 314.134 196.65 314.827 195.41L315.845 193.557C316.261 193.338 316.405 191.34 316.905 192.591C316.574 191.285 315.966 193.253 315.64 193.435L314.472 195.204C313.695 196.395 312.893 197.671 311.9 199.311C309.743 202.86 298.912 220.664 298.912 220.664C298.912 220.664 287.979 238.463 285.792 242.017C283.768 245.299 282.702 247.213 281.16 250.045V250.038Z" fill="#FEFEFE"/>
<path d="M409.492 188.969C405.143 188.556 402.185 188.325 396.968 188.258C391.318 188.185 363.03 187.888 363.03 187.888C363.03 187.888 334.742 187.572 329.097 187.517C323.881 187.468 320.917 187.632 316.543 187.954C320.881 188.368 323.832 188.599 329.049 188.665C334.699 188.738 362.994 189.036 362.994 189.036C362.994 189.036 391.294 189.352 396.944 189.407C402.161 189.455 405.125 189.291 409.492 188.969Z" fill="#FEFEFE"/>
<path d="M411.721 249.948C411.8 247.08 411.824 245.135 411.703 241.714C411.571 238.008 410.884 219.45 410.884 219.45C410.884 219.45 410.215 200.892 410.071 197.185C409.944 193.764 409.776 191.826 409.493 188.976C409.414 191.844 409.384 193.788 409.505 197.21C409.631 200.916 410.312 219.474 410.312 219.474C410.312 219.474 410.987 238.032 411.131 241.739C411.264 245.16 411.432 247.098 411.721 249.948Z" fill="#FEFEFE"/>
<path d="M359.03 254.658C361.53 254.803 363.223 254.846 366.18 254.591C369.385 254.317 385.433 252.871 385.433 252.871C385.433 252.871 401.468 251.449 404.667 251.151C407.619 250.878 409.282 250.531 411.721 249.948C409.222 249.808 407.534 249.76 404.577 250.015C401.378 250.295 385.348 251.735 385.348 251.735C385.348 251.735 369.307 253.157 366.102 253.454C363.144 253.728 361.482 254.074 359.03 254.658Z" fill="#FEFEFE"/>
<path d="M411.98 255.727C412.155 255.435 412.246 255.241 412.24 254.901C412.234 254.536 412.167 252.701 412.167 252.701C412.167 252.713 412.119 250.854 412.065 250.495C412.035 250.155 411.926 249.973 411.721 249.705C411.558 250.003 411.474 250.197 411.492 250.538C411.534 250.902 411.594 252.719 411.594 252.725C411.594 252.725 411.649 254.56 411.667 254.925C411.685 255.265 411.787 255.454 411.98 255.727Z" fill="#FEFEFE"/>
<path d="M358.156 260.952C360.71 261.068 362.439 261.105 365.47 260.82C368.747 260.51 385.138 258.911 385.138 258.911C385.138 258.911 401.516 257.332 404.787 257.003C407.805 256.7 409.498 256.341 411.986 255.727C409.432 255.606 407.703 255.575 404.685 255.861C401.414 256.171 385.041 257.769 385.041 257.769C385.041 257.769 368.65 259.349 365.379 259.677C362.355 259.981 360.656 260.339 358.156 260.952Z" fill="#FEFEFE"/>
<path d="M359.115 256.304C361.602 256.249 363.289 256.188 366.253 255.915C369.458 255.617 385.511 254.086 385.511 254.086C385.511 254.086 401.553 252.567 404.758 252.257C407.715 251.971 409.378 251.71 411.836 251.297C409.354 251.351 407.667 251.412 404.709 251.691C401.511 251.989 385.469 253.521 385.469 253.521C385.469 253.521 369.415 255.04 366.211 255.35C363.247 255.635 361.578 255.896 359.115 256.31V256.304Z" fill="#FEFEFE"/>
<path d="M342.905 332.383C348.453 333.847 352.236 334.789 358.976 336.12C366.283 337.56 402.975 344.724 402.975 344.724C402.975 344.724 439.793 351.907 447.166 353.329C453.973 354.641 457.877 355.2 463.641 355.948C458.021 354.483 454.202 353.541 447.395 352.211C440.034 350.77 403.216 343.606 403.216 343.606C403.216 343.606 366.536 336.424 359.229 335.002C352.483 333.689 348.615 333.13 342.905 332.389V332.383Z" fill="#FEFEFE"/>
<path d="M393.132 257.654C390.511 260.96 388.776 263.232 385.987 267.419C382.963 271.958 367.765 294.709 367.765 294.709C367.765 294.709 352.38 317.453 349.302 321.999C346.453 326.198 344.995 328.682 342.905 332.383C345.609 329.077 347.398 326.805 350.266 322.618C353.362 318.079 368.729 295.329 368.729 295.329C368.729 295.329 383.939 272.584 386.945 268.039C389.716 263.84 391.126 261.355 393.132 257.654Z" fill="#FEFEFE"/>
<path d="M465.032 358.087C459.231 356.793 455.286 355.942 448.31 354.605C440.756 353.159 402.992 345.934 402.992 345.934C402.992 345.934 365.367 338.697 357.873 337.263C354.416 336.6 351.699 336.102 349.121 335.652L345.283 335.002C344.765 334.808 343.687 334.984 343.591 334.486L343.03 332.48L343.458 334.516C343.747 335.245 344.669 334.972 345.223 335.239L349.024 336.066C351.578 336.606 354.283 337.153 357.747 337.822C365.241 339.268 402.872 346.493 402.872 346.493C402.872 346.493 440.636 353.73 448.196 355.164C455.177 356.495 459.159 357.151 465.032 358.087Z" fill="#FEFEFE"/>
<path d="M465.31 363.373C459.455 361.835 455.473 360.839 448.383 359.423C440.714 357.885 402.372 350.235 402.372 350.235C402.372 350.235 364.181 342.566 356.567 341.047C353.055 340.342 350.296 339.844 347.669 339.413C346.513 339.236 344.73 338.92 344.103 338.89C343.946 337.59 343.784 336.253 343.597 334.801C343.597 336.271 343.597 337.626 343.609 338.933C344.971 339.966 346.169 339.771 347.477 340.239C350.061 340.859 352.802 341.46 356.307 342.171C363.916 343.709 402.125 351.359 402.125 351.359C402.125 351.359 440.473 359.028 448.148 360.547C455.238 361.951 459.304 362.558 465.31 363.379V363.373Z" fill="#FEFEFE"/>
<path d="M347.579 325.134C345.615 324.618 344.278 324.283 341.88 323.876C339.29 323.433 326.309 321.233 326.309 321.233C326.309 321.233 313.351 319.027 310.761 318.59C308.375 318.189 306.996 318.055 304.966 317.897C306.924 318.413 308.255 318.748 310.64 319.155C313.225 319.598 326.188 321.798 326.188 321.798C326.188 321.798 339.164 324.01 341.76 324.441C344.157 324.842 345.531 324.976 347.573 325.134H347.579Z" fill="#FEFEFE"/>
<path d="M344.958 251.048C344.796 253.339 344.711 254.889 344.735 257.617C344.759 260.576 344.916 275.385 344.916 275.385C344.916 275.385 345.067 290.194 345.103 293.153C345.139 295.881 345.253 297.431 345.464 299.703C345.627 297.419 345.711 295.863 345.681 293.135C345.651 290.175 345.494 275.367 345.494 275.367C345.494 275.367 345.344 260.558 345.308 257.599C345.277 254.871 345.163 253.321 344.958 251.048Z" fill="#FEFEFE"/>
<path d="M316.086 295.674C316.477 292.131 316.688 289.731 316.724 285.508C316.761 280.932 316.887 258.005 316.887 258.005C316.887 258.005 316.899 256.571 316.911 254.353C316.917 253.241 316.929 251.935 316.935 250.513L316.941 249.425V249.146C316.664 249.37 317.562 248.447 316.321 249.613L316.459 249.626L317.026 249.668L319.345 249.832C325.628 250.276 332.489 250.762 334.772 250.92C338.989 251.206 341.404 251.181 344.958 251.066C341.471 250.452 339.097 250.087 334.88 249.784C332.597 249.62 325.742 249.133 319.459 248.69L317.14 248.526L316.574 248.489L316.435 248.477C315.134 249.668 316.074 248.89 315.785 249.188V249.468L315.779 250.555C315.773 251.977 315.761 253.284 315.755 254.396C315.742 256.62 315.73 258.048 315.73 258.048C315.73 258.048 315.58 280.975 315.562 285.55C315.544 289.773 315.73 292.168 316.08 295.686L316.086 295.674Z" fill="#FEFEFE"/>
<path d="M345.465 299.709C344.115 299.338 343.194 299.113 341.549 298.882C339.766 298.633 330.814 297.406 330.814 297.406C330.814 297.406 321.875 296.172 320.092 295.935C318.447 295.716 317.495 295.68 316.086 295.674C317.429 296.044 318.345 296.269 319.996 296.5C321.779 296.749 330.718 297.977 330.718 297.977C330.718 297.977 339.664 299.21 341.453 299.447C343.103 299.672 344.055 299.703 345.465 299.709Z" fill="#FEFEFE"/>
<path d="M345.259 297.996C340.868 297.03 337.886 296.422 332.567 295.687C331.127 295.486 328.248 295.091 324.73 294.611C323.851 294.49 322.935 294.368 321.989 294.241L320.555 294.046L319.827 293.943C320.772 294.824 320.086 293.767 320.296 293.767L320.278 287.787C320.254 279.857 320.236 272.645 320.236 272.645C320.236 272.645 320.224 265.432 320.206 257.502L320.194 251.522V250.787C318.929 251.735 320.26 251.079 320.164 251.298L321.598 251.395C322.537 251.456 323.453 251.522 324.332 251.577C327.838 251.814 330.718 252.009 332.158 252.1C337.471 252.446 340.501 252.452 344.97 252.391C340.567 251.729 337.573 251.328 332.266 250.957C330.826 250.86 327.953 250.66 324.447 250.423C323.573 250.362 322.652 250.301 321.712 250.24L320.278 250.143C319.809 250.447 320.308 249.39 319.037 250.818V251.553L319.049 257.532C319.068 265.462 319.086 272.675 319.086 272.675C319.086 272.675 319.098 279.888 319.116 287.818L319.128 293.797C319.351 294.283 318.634 293.748 319.628 295.073L320.357 295.17L321.79 295.365C322.736 295.492 323.652 295.62 324.531 295.742C328.043 296.222 330.929 296.611 332.374 296.805C337.699 297.522 340.748 297.741 345.259 297.984V297.996Z" fill="#FEFEFE"/>
<path d="M316.363 249.03C316.429 249.273 316.484 249.413 316.664 249.51C316.857 249.614 317.851 250.112 317.851 250.112C317.851 250.112 318.839 250.616 319.038 250.714C319.225 250.805 319.375 250.768 319.61 250.683C319.544 250.44 319.49 250.3 319.309 250.203C319.116 250.1 318.122 249.602 318.122 249.602C318.122 249.602 317.134 249.097 316.935 249C316.749 248.909 316.598 248.945 316.363 249.036V249.03Z" fill="#FEFEFE"/>
<path d="M319.718 294.508C319.496 294.392 319.351 294.332 319.146 294.392C318.923 294.459 317.821 294.818 317.821 294.818C317.821 294.818 316.719 295.164 316.496 295.243C316.291 295.31 316.207 295.444 316.086 295.669C316.309 295.79 316.453 295.845 316.658 295.784C316.881 295.717 317.984 295.359 317.984 295.359C317.984 295.359 319.086 295.012 319.309 294.933C319.514 294.866 319.598 294.733 319.718 294.508Z" fill="#FEFEFE"/>
<path d="M344.886 254.074C342.055 253.697 340.134 253.466 336.73 253.229C336.266 253.199 335.574 253.15 334.718 253.09C333.929 254.366 334.495 255.089 334.314 256.31C334.308 258.565 334.302 261.226 334.296 263.766C334.284 268.852 334.272 273.483 334.272 273.483C334.272 273.483 334.26 278.107 334.248 283.199C334.242 285.745 334.236 288.401 334.23 290.655C334.568 291.706 333.459 292.982 334.989 293.493C335.851 293.608 336.543 293.705 337.001 293.766C340.411 294.228 342.362 294.398 345.242 294.605C342.423 294.033 340.501 293.669 337.092 293.201C336.628 293.14 335.935 293.043 335.08 292.928C334.519 293.523 334.929 291.445 334.808 290.643C334.814 288.388 334.82 285.727 334.82 283.187C334.833 278.101 334.839 273.476 334.839 273.476C334.839 273.476 334.851 268.852 334.863 263.76C334.869 261.22 334.875 258.559 334.881 256.304C334.778 255.344 335.122 253.77 334.652 253.673C335.513 253.728 336.2 253.776 336.664 253.807C340.073 254.038 342.013 254.068 344.874 254.08L344.886 254.074Z" fill="#FEFEFE"/>
<path d="M322.086 252.415C324.387 252.676 326.314 252.889 328.362 253.09C329.387 253.187 330.441 253.284 331.579 253.381C331.218 253.898 331.477 255.587 331.399 256.833C331.423 262.83 331.597 292.885 331.597 292.885C332.465 292.526 329.959 292.563 327.236 292.131C325.778 291.955 324.061 291.755 322.188 291.53C321.7 291.086 322.061 288.036 321.959 286.292C321.983 278.028 322.007 269.016 322.013 266.014C322.025 260.473 321.935 257.331 321.766 252.707C321.568 257.343 321.459 260.485 321.435 266.027C321.423 269.028 321.399 278.04 321.375 286.304C321.7 288.297 320.622 290.546 322.104 292.101C323.971 292.326 325.688 292.526 327.152 292.703C330.17 292.867 331.724 293.681 332.182 292.867C332.182 292.867 332.013 262.818 331.977 256.814C331.832 255.344 332.254 254.39 331.633 252.853C330.489 252.78 329.429 252.719 328.405 252.67C326.344 252.567 324.399 252.494 322.086 252.415Z" fill="#FEFEFE"/>
<path d="M319.622 293.469C320.797 293.803 321.598 294.01 323.038 294.198C324.598 294.405 332.411 295.401 332.411 295.401C332.411 295.401 340.224 296.41 341.784 296.605C343.224 296.787 344.061 296.793 345.29 296.769C344.115 296.434 343.314 296.228 341.874 296.039C340.314 295.833 332.501 294.836 332.501 294.836C332.501 294.836 324.694 293.828 323.134 293.633C321.694 293.451 320.863 293.445 319.628 293.469H319.622Z" fill="#FEFEFE"/>
<path d="M283.653 254.164C284.635 254.377 285.297 254.48 286.466 254.413C287.731 254.341 294.05 253.921 294.05 253.921C294.05 253.921 300.369 253.52 301.634 253.429C302.797 253.344 303.453 253.156 304.417 252.821C303.435 252.609 302.773 252.505 301.604 252.572C300.345 252.645 294.02 253.064 294.02 253.064C294.02 253.064 287.701 253.466 286.436 253.557C285.273 253.636 284.611 253.83 283.647 254.164H283.653Z" fill="#FEFEFE"/>
<path d="M359.072 261.075C358.735 263.244 358.56 264.715 358.584 267.297C358.614 270.093 358.825 284.093 358.825 284.093C358.825 284.093 359.024 298.093 359.072 300.889C359.12 303.471 359.343 304.93 359.747 307.068C360.084 304.899 360.265 303.429 360.235 300.846C360.198 298.051 359.982 284.05 359.982 284.05C359.982 284.05 359.783 270.05 359.735 267.255C359.686 264.672 359.47 263.22 359.072 261.075Z" fill="#FEFEFE"/>
<path d="M333.007 251.504C332.832 253.546 332.742 254.931 332.754 257.362C332.766 259.999 332.844 273.197 332.844 273.197C332.844 273.197 332.917 286.402 332.941 289.033C332.959 291.47 333.067 292.843 333.266 294.872C333.441 292.831 333.532 291.451 333.52 289.015C333.508 286.377 333.423 273.179 333.423 273.179C333.423 273.179 333.351 259.975 333.327 257.344C333.309 254.913 333.2 253.534 333.007 251.504Z" fill="#FEFEFE"/>
<path d="M341.609 339.073C337.579 337.785 334.826 336.971 329.881 335.95C328.543 335.677 325.863 335.13 322.592 334.461L321.971 334.334L321.658 334.267L321.502 334.236L321.423 334.218L321.387 334.212H321.375C319.556 335.671 320.869 334.625 320.465 334.954V334.972L320.471 336.272L320.477 338.982L320.496 344.567C320.52 351.968 320.55 358.701 320.55 358.701C320.55 358.701 320.64 385.62 320.676 390.998C320.706 395.962 320.977 398.77 321.471 402.902C321.929 398.739 322.17 395.92 322.158 390.955C322.146 385.577 322.02 358.658 322.02 358.658C322.02 358.658 321.996 351.931 321.971 344.524L321.953 338.94L321.935 334.929V334.911C321.532 335.233 322.845 334.176 321.026 335.628H321.038L321.074 335.634L321.152 335.652L321.622 335.743L322.242 335.871C325.513 336.54 328.194 337.08 329.537 337.354C334.489 338.35 337.356 338.678 341.603 339.073H341.609Z" fill="#FEFEFE"/>
<path d="M342.109 409.251C342.272 405.958 342.362 403.716 342.332 399.778C342.302 395.512 342.145 374.153 342.145 374.153C342.145 374.153 342 352.794 341.964 348.528C341.934 344.591 341.82 342.361 341.609 339.073C341.441 342.367 341.356 344.603 341.38 348.54C341.404 352.806 341.555 374.165 341.555 374.165C341.555 374.165 341.705 395.524 341.741 399.79C341.778 403.728 341.898 405.958 342.109 409.245V409.251Z" fill="#FEFEFE"/>
<path d="M342.17 406.802C338.326 405.562 335.706 404.748 331.049 403.472C330.417 403.296 329.471 403.041 328.297 402.719C327.712 402.561 327.068 402.384 326.375 402.196L325.309 401.904C325.532 402.22 325.369 401.345 325.423 401.108C325.429 398.009 325.435 394.357 325.441 390.857C325.453 383.863 325.465 377.507 325.465 377.507C325.465 377.507 325.526 352.077 325.532 346.997C325.538 342.305 325.441 339.65 325.267 335.737C325.068 339.656 324.959 342.324 324.941 347.009C324.923 352.089 324.869 377.519 324.869 377.519C324.869 377.519 324.857 383.875 324.839 390.869C324.833 394.369 324.827 398.021 324.821 401.121C324.959 401.595 324.513 401.692 325.128 402.451L326.194 402.743C326.887 402.931 327.525 403.108 328.116 403.266C329.29 403.588 330.236 403.843 330.869 404.013C335.531 405.277 338.212 405.903 342.17 406.79V406.802Z" fill="#FEFEFE"/>
<path d="M304.255 241.939C305.448 240.723 306.219 239.873 307.285 238.196C308.442 236.379 314.158 227.258 314.158 227.258C314.158 227.258 319.869 218.143 320.996 216.32C322.038 214.637 322.465 213.579 323.032 211.987C321.851 213.203 321.092 214.06 320.038 215.737C318.893 217.554 313.201 226.674 313.201 226.674C313.201 226.674 307.466 235.789 306.327 237.612C305.273 239.296 304.839 240.353 304.261 241.945L304.255 241.939Z" fill="#FEFEFE"/>
<path d="M305.658 398.612C305.96 391.253 306.11 386.252 306.032 377.466C305.941 367.944 305.478 320.255 305.478 320.255C305.478 320.255 305.08 272.566 304.99 263.044C304.911 254.251 304.676 249.275 304.255 241.946C303.942 249.305 303.779 254.306 303.839 263.099C303.899 272.621 304.309 320.31 304.309 320.31C304.309 320.31 304.743 367.998 304.851 377.52C304.948 386.313 305.207 391.29 305.664 398.618L305.658 398.612Z" fill="#FEFEFE"/>
<path d="M360.072 342.252C359.675 348.176 359.458 352.199 359.428 359.284C359.392 366.959 359.277 405.393 359.277 405.393C359.277 405.393 359.271 407.793 359.259 411.518L359.253 412.977V413.748C360.861 412.958 359.247 413.402 359.398 413.171C358.325 412.867 357.181 412.545 355.994 412.217C353.621 411.549 351.048 410.826 348.422 410.084C337.922 407.125 326.489 403.904 322.688 402.835C315.67 400.86 311.628 399.924 305.658 398.624C311.393 400.629 315.309 401.942 322.321 403.935C326.122 405.01 337.555 408.237 348.061 411.196C350.687 411.938 353.259 412.655 355.633 413.323C356.819 413.657 357.958 413.973 359.036 414.277C359.584 414.01 358.952 415.189 360.452 413.736V412.965L360.458 411.506C360.464 407.781 360.476 405.381 360.476 405.381C360.476 405.381 360.596 366.947 360.614 359.272C360.626 352.187 360.44 348.17 360.084 342.258L360.072 342.252Z" fill="#FEFEFE"/>
<path d="M333.326 423.064C334.808 422.748 335.808 422.505 337.507 421.921C339.35 421.289 348.56 418.099 348.56 418.099C348.56 418.099 357.759 414.921 359.596 414.283C361.277 413.754 362.253 413.39 363.632 412.794C362.138 413.049 361.144 413.207 359.403 413.748C357.566 414.38 348.374 417.57 348.374 417.57C348.374 417.57 339.163 420.748 337.32 421.393C335.621 421.982 334.687 422.407 333.326 423.07V423.064Z" fill="#FEFEFE"/>
<path d="M278.695 405.46C281.111 406.633 282.773 407.38 285.827 408.377C289.135 409.458 305.748 414.806 305.748 414.806C305.748 414.806 322.399 420.171 325.73 421.235C328.808 422.213 330.627 422.59 333.326 423.064C330.886 421.891 329.212 421.144 326.139 420.147C322.814 419.065 306.158 413.718 306.158 413.718C306.158 413.718 289.556 408.352 286.243 407.289C283.183 406.311 281.382 405.94 278.695 405.46Z" fill="#FEFEFE"/>
<path d="M305.526 398.611C304.224 398.757 303.351 398.878 301.845 399.255C300.219 399.668 292.056 401.752 292.056 401.752C292.056 401.752 283.888 403.831 282.255 404.25C280.749 404.639 279.918 404.955 278.695 405.447C279.996 405.301 280.876 405.18 282.382 404.803C284.014 404.39 292.189 402.299 292.189 402.299C292.189 402.299 300.351 400.221 301.984 399.802C303.483 399.413 304.315 399.097 305.526 398.605V398.611Z" fill="#FEFEFE"/>
<path d="M333.326 423.064C333.296 424.036 333.266 424.929 333.242 425.792C333.043 426.771 333.694 427.506 332.447 427.597C330.736 428.193 328.941 428.843 326.658 429.706C326.037 429.936 325.116 430.289 323.959 430.72C322.845 431.99 323.778 433.309 323.604 434.865C322.429 436.293 317.525 437.429 314.526 438.778C313.303 439.677 314.206 440.51 313.941 441.348C314.285 442.09 313.224 443.208 314.718 443.566C316.272 443.019 317.706 442.521 318.917 442.096C321.345 441.245 322.911 440.692 322.911 440.692C322.911 440.692 347.904 431.911 352.88 430.155C357.47 428.533 360.042 427.518 363.807 425.993C359.916 427.172 357.277 427.998 352.681 429.614C347.699 431.364 322.712 440.151 322.712 440.151C322.712 440.151 321.146 440.698 318.718 441.549C317.501 441.974 316.074 442.472 314.519 443.019C314.712 443.147 314.285 439.623 314.73 439.3C317.911 437.69 322.236 437.399 324.206 434.804C324.206 433.51 323.838 431.358 324.17 431.243C325.32 430.805 326.248 430.459 326.868 430.222C329.152 429.359 330.929 428.654 332.603 427.974C333.79 427.889 333.591 426.43 333.495 425.768C333.447 424.905 333.386 424.012 333.32 423.046L333.326 423.064Z" fill="#FEFEFE"/>
<path d="M259.473 419.763C261.883 421.015 263.539 421.823 266.593 422.923C269.906 424.114 286.55 430.021 286.55 430.021C286.55 430.021 303.237 435.945 306.58 437.118C309.67 438.2 311.495 438.631 314.218 439.202C311.785 437.95 310.11 437.142 307.032 436.042C303.7 434.851 287.008 428.945 287.008 428.945C287.008 428.945 270.376 423.02 267.051 421.848C263.985 420.766 262.172 420.335 259.473 419.763Z" fill="#FEFEFE"/>
<path d="M323.953 435.539C321.254 434.409 319.417 433.661 316.11 432.513C312.532 431.261 294.629 425.039 294.629 425.039C294.629 425.039 276.786 418.804 273.226 417.571C271.75 417.018 269.919 416.532 269.425 416.24C269.425 414.982 269.407 413.791 269.371 412.375C269.214 413.791 269.093 414.982 268.985 416.24C269.991 417.413 271.407 417.382 273.003 418.111C276.557 419.363 294.406 425.586 294.406 425.586C294.406 425.586 312.309 431.82 315.887 433.054C319.2 434.196 321.11 434.755 323.947 435.545L323.953 435.539Z" fill="#FEFEFE"/>
<path d="M323.694 431.133C320.869 429.772 318.929 428.891 315.381 427.664C311.544 426.333 292.345 419.734 292.345 419.734C292.345 419.734 287.556 418.081 282.298 416.258C279.665 415.346 276.924 414.398 274.593 413.596C273.43 413.189 272.37 412.825 271.485 412.521C271.039 412.369 270.641 412.229 270.292 412.108L269.81 411.937L269.702 411.901L269.678 411.895L269.666 411.889H269.66C269.672 411.652 269.539 413.943 269.593 412.97H269.599L269.654 412.952L269.852 412.891C273.509 411.773 275.521 410.953 278.472 409.671C275.322 410.254 273.19 410.692 269.533 411.798L269.334 411.858L269.28 411.877C269.334 410.911 269.202 413.201 269.214 412.964H269.22L269.232 412.97L269.256 412.977L269.364 413.013L269.846 413.183C270.196 413.305 270.599 413.444 271.039 413.596C271.924 413.906 272.985 414.271 274.153 414.672C276.479 415.474 279.232 416.428 281.858 417.333C287.123 419.15 291.912 420.803 291.912 420.803C291.912 420.803 311.104 427.421 314.953 428.733C318.507 429.942 320.591 430.447 323.7 431.121L323.694 431.133Z" fill="#FEFEFE"/>
<path d="M278.822 405.46C278.605 406.87 278.431 408.049 278.274 409.3C278.991 410.655 280.629 410.443 282.171 411.184C285.75 412.351 303.701 418.172 303.701 418.172C303.701 418.172 321.7 424 325.302 425.16C328.628 426.23 330.555 426.746 333.399 427.469C330.682 426.4 328.832 425.695 325.507 424.619C321.911 423.453 303.906 417.637 303.906 417.637C303.906 417.637 285.96 411.81 282.382 410.649C280.967 410.096 278.9 409.756 278.714 409.325C278.768 408.067 278.798 406.882 278.828 405.46H278.822Z" fill="#FEFEFE"/>
<path d="M269.19 416.465C265.805 417.328 263.516 417.935 259.522 419.169C258.588 419.947 259.293 420.579 259.106 421.63C259.118 422.128 259.136 422.675 259.148 423.258C259.311 423.617 258.823 423.714 259.516 424.31L260.444 424.644C262.98 425.549 265.967 426.613 268.835 427.634C274.564 429.669 279.78 431.523 279.78 431.523C279.78 431.523 300.689 438.936 304.87 440.413C308.737 441.774 310.972 442.454 314.273 443.427C311.11 442.114 308.96 441.245 305.093 439.878C300.912 438.395 280.003 430.988 280.003 430.988C280.003 430.988 274.786 429.134 269.058 427.093C266.196 426.072 263.202 425.008 260.672 424.103C258.877 423.666 260.022 419.424 259.678 419.716C263.666 418.47 265.901 417.674 269.184 416.465H269.19Z" fill="#FEFEFE"/>
<path d="M568.62 155.688C568.463 156.32 568.378 156.746 568.396 157.499C568.421 158.313 568.553 162.409 568.553 162.409C568.553 162.409 568.68 166.505 568.71 167.319C568.74 168.072 568.849 168.504 569.048 169.13C569.205 168.498 569.289 168.072 569.271 167.319C569.247 166.505 569.114 162.409 569.114 162.409C569.114 162.409 568.987 158.313 568.957 157.499C568.927 156.746 568.819 156.314 568.62 155.688Z" fill="#FEFEFE"/>
<path d="M324.953 167.489C336.422 167.483 344.205 167.404 357.915 166.754C372.758 166.049 447.015 162.445 447.015 162.445C447.015 162.445 521.133 158.866 535.915 158.137C549.56 157.463 557.276 156.788 568.625 155.688C557.192 155.694 549.439 155.773 535.795 156.424C521.018 157.128 446.93 160.732 446.93 160.732C446.93 160.732 372.704 164.311 357.867 165.04C344.163 165.715 336.392 166.389 324.947 167.489H324.953Z" fill="#FEFEFE"/>
<path d="M212.047 307.347C217.932 301.125 221.535 296.543 228.046 288.704C235.07 280.215 270.226 236.865 270.226 236.865C270.226 236.865 303.767 195.004 310.465 186.497C316.622 178.64 320.254 174.38 324.959 167.489C319.417 173.711 315.7 177.983 309.526 185.828C302.803 194.317 268.798 236.902 268.798 236.902C268.798 236.902 234.064 279.468 227.058 287.975C220.565 295.832 217.095 300.462 212.059 307.353L212.047 307.347Z" fill="#FEFEFE"/>
<path d="M304.743 299.521C301.43 303.246 299.219 305.798 295.587 310.501C294.599 311.777 292.629 314.329 290.226 317.44C289.623 318.218 288.997 319.032 288.346 319.865C288.286 320.175 287.105 320.953 287.949 320.892L279.858 319.385C271.25 317.787 263.431 316.334 263.431 316.334C263.431 316.334 232.21 310.507 225.987 309.352C220.24 308.289 216.939 307.876 212.054 307.335C216.758 308.587 219.969 309.395 225.71 310.477C231.932 311.649 263.166 317.459 263.166 317.459C263.166 317.459 270.985 318.917 279.599 320.515L287.696 322.022C289.226 321.165 288.69 321.05 289.28 320.539C289.93 319.701 290.557 318.887 291.159 318.109C293.563 314.998 295.533 312.439 296.515 311.163C300.135 306.448 302.026 303.659 304.755 299.508L304.743 299.521Z" fill="#FEFEFE"/>
<path d="M304.64 310.799C301.327 314.652 299.123 317.301 295.496 322.157C295.002 322.813 294.267 323.803 293.352 325.025C293.063 325.493 292.008 326.629 292.237 326.708C291.346 326.805 290.394 326.915 289.394 327.024C285.846 326.641 281.027 325.438 276.72 324.648C267.967 322.892 260.015 321.294 260.015 321.294C260.015 321.294 228.282 314.889 221.951 313.619C219.029 313.036 216.734 312.622 214.541 312.282C212.692 312.823 214.656 308.241 212.041 307.342C212.788 308.417 213.481 309.098 213.119 310.313L213.011 311.954L212.981 312.464V312.489C213.107 312.647 212.698 312.161 213.264 312.841L213.276 312.847L213.324 312.859L213.523 312.908L214.318 313.109C216.457 313.643 218.734 314.154 221.649 314.743C227.974 316.031 259.726 322.418 259.726 322.418C259.726 322.418 267.678 324.022 276.431 325.778C280.9 326.574 285.189 327.759 289.478 328.172C290.478 328.063 291.424 327.954 292.322 327.856C293.797 326.799 293.623 326.374 294.285 325.681C295.201 324.453 295.936 323.469 296.424 322.807C300.032 317.939 301.924 315.065 304.634 310.793L304.64 310.799Z" fill="#FEFEFE"/>
<path d="M213.379 309C217.041 309.881 219.535 310.453 223.975 311.297C228.788 312.209 252.919 316.754 252.919 316.754C252.919 316.754 277.105 321.305 281.943 322.211C284.177 322.63 285.93 322.934 287.605 323.195C288.707 323.384 288.262 325.99 288.725 327.516C288.304 325.808 289.37 323.7 287.701 322.782C286.057 322.423 284.31 322.071 282.075 321.646C277.238 320.734 253.058 316.189 253.058 316.189C253.058 316.189 228.932 311.632 224.119 310.732C219.68 309.9 217.138 309.517 213.385 309H213.379Z" fill="#FEFEFE"/>
<path d="M287.827 321.47C287.671 321.603 287.592 321.688 287.617 321.786C287.641 321.889 287.797 322.387 287.797 322.387C287.797 322.387 287.948 322.892 287.978 322.989C288.014 323.08 288.123 323.104 288.327 323.123C288.484 322.989 288.562 322.904 288.538 322.807C288.514 322.703 288.358 322.205 288.358 322.205C288.358 322.205 288.213 321.701 288.177 321.603C288.147 321.512 288.032 321.488 287.833 321.47H287.827Z" fill="#FEFEFE"/>
<path d="M279.78 366.06L279.641 367.159C279.798 366.922 279.129 366.85 278.918 366.692L277.033 365.908C275.762 365.403 274.4 364.917 272.641 364.358C270.738 363.75 265.015 362.578 259.774 360.919C258.75 360.658 256.136 360.044 256.22 360.36C256.226 359.138 256.642 357.716 256.648 356.762C256.654 354.854 256.654 353.621 256.654 353.621C256.654 353.621 256.732 333.915 256.738 329.983C256.744 326.349 256.552 324.301 256.184 321.281C255.799 324.332 255.588 326.398 255.564 330.032C255.54 333.969 255.473 353.669 255.473 353.669C255.473 353.669 255.467 354.903 255.461 356.811C255.455 357.765 255.04 359.181 255.034 360.402C255.726 361.265 257.75 361.265 259.347 361.909C264.587 363.574 270.328 364.844 272.232 365.44C273.997 365.993 275.394 366.382 276.732 366.704L278.738 367.147C279.129 367.123 279.31 367.5 279.9 367.147L279.768 366.053L279.78 366.06Z" fill="#FEFEFE"/>
<path d="M279.931 326.052C279.738 327.966 279.629 329.26 279.617 331.545C279.605 334.018 279.563 346.39 279.563 346.39C279.563 346.39 279.515 358.762 279.509 361.235C279.509 363.514 279.605 364.164 279.786 366.06C279.979 364.146 280.088 363.495 280.1 361.211C280.112 358.737 280.148 346.366 280.148 346.366C280.148 346.366 280.196 333.994 280.202 331.521C280.208 329.242 280.112 327.948 279.931 326.052Z" fill="#FEFEFE"/>
<path d="M258.509 321.652C258.106 324.472 257.889 326.38 257.847 329.734C257.804 333.368 257.636 351.567 257.636 351.567C257.636 351.567 257.624 352.703 257.606 354.466C257.6 355.347 257.588 356.386 257.576 357.516C257.762 358.3 257.13 358.172 257.991 359.764L259.78 360.323C264.624 361.837 270.147 362.979 271.906 363.526C275.165 364.535 276.852 364.79 279.695 365.288C277.105 364.091 275.328 363.969 272.075 362.949C270.316 362.396 265.027 360.743 260.184 359.23L258.395 358.671C259.082 359.187 258.594 357.79 258.75 357.474C258.762 356.343 258.768 355.304 258.774 354.423C258.792 352.661 258.798 351.525 258.798 351.525C258.798 351.525 258.979 333.325 259.003 329.692C259.027 326.337 258.841 324.441 258.497 321.652H258.509Z" fill="#FEFEFE"/>
<path d="M255.63 360.639C255.817 360.742 255.931 360.791 256.052 360.73C256.178 360.663 256.817 360.311 256.817 360.311C256.817 360.311 257.877 359.673 258.003 359.6C258.118 359.533 258.136 359.412 258.148 359.199C257.961 359.096 257.847 359.047 257.726 359.108C257.6 359.175 256.546 359.819 256.546 359.819C256.546 359.819 255.901 360.165 255.781 360.238C255.666 360.305 255.642 360.426 255.63 360.639Z" fill="#FEFEFE"/>
<path d="M270.605 324.124C270.401 326.263 270.286 327.716 270.268 330.268C270.238 333.033 270.142 346.887 270.142 346.887C270.142 346.887 270.112 350.351 270.087 354.161C270.075 356.063 270.057 358.056 270.045 359.745C271.611 361.112 273.009 360.894 273.666 361.295C276.147 362.048 277.593 362.382 279.732 362.838C277.72 362.03 276.346 361.507 273.864 360.748C273.388 360.584 271.419 360.031 270.642 359.727C270.654 358.038 270.666 356.051 270.684 354.143C270.714 350.333 270.738 346.869 270.738 346.869C270.738 346.869 270.846 333.014 270.864 330.249C270.883 327.697 270.792 326.251 270.617 324.124H270.605Z" fill="#FEFEFE"/>
<path d="M268.334 323.676C268.117 327.37 267.997 329.874 267.955 334.285C267.931 336.673 267.876 343.85 267.822 350.431C267.967 353.591 267.388 357.158 268.141 358.883C265.889 358.209 264.431 357.777 264.431 357.777C264.431 357.777 262.979 357.34 260.726 356.665C260.545 356.69 259.925 356.246 260.069 356.647L260.081 355.675C260.087 355 260.094 354.289 260.1 353.548C260.118 352.065 260.13 350.455 260.148 348.808C260.214 342.227 260.286 335.051 260.31 332.663C260.353 328.251 260.274 325.754 260.13 322.071C259.907 325.766 259.78 328.27 259.726 332.681C259.696 335.069 259.624 342.246 259.557 348.827C259.539 350.473 259.521 352.077 259.509 353.566C259.503 354.308 259.497 355.025 259.485 355.693L259.473 356.665C260.118 357.328 260.166 357 260.521 357.212C262.774 357.887 264.226 358.318 264.226 358.318C264.226 358.318 265.678 358.756 267.937 359.43C268.756 356.568 268.202 353.821 268.406 350.413C268.461 343.832 268.515 336.655 268.533 334.267C268.563 329.855 268.485 327.358 268.328 323.676H268.334Z" fill="#FEFEFE"/>
<path d="M258.238 357.716C259.178 358.208 259.823 358.524 261.027 358.907C262.328 359.326 268.864 361.398 268.864 361.398C268.864 361.398 275.599 363.002 276.912 363.41C278.117 363.786 278.641 363.744 279.713 363.89C278.774 363.397 278.226 363.367 277.021 362.978C275.714 362.559 269.069 360.851 269.069 360.851C269.069 360.851 262.539 358.767 261.232 358.36C260.027 357.983 259.311 357.862 258.238 357.71V357.716Z" fill="#FEFEFE"/>
<path d="M269.407 323.759C269.208 325.516 269.094 326.707 269.069 328.803C269.045 331.069 268.955 342.433 268.955 342.433C268.955 342.433 268.858 353.79 268.846 356.062C268.834 358.159 268.925 359.338 269.1 361.082C269.299 359.326 269.413 358.134 269.437 356.038C269.461 353.772 269.546 342.408 269.546 342.408C269.546 342.408 269.642 331.051 269.66 328.779C269.672 326.682 269.582 325.497 269.407 323.753V323.759Z" fill="#FEFEFE"/>
<path d="M238.811 380.029C239.359 377.063 239.648 375.052 239.636 371.54C239.624 367.73 239.474 348.667 239.474 348.667C239.474 348.667 239.365 329.605 239.329 325.795C239.293 322.283 238.98 320.302 238.401 317.397C237.859 320.363 237.564 322.374 237.57 325.886C237.576 329.696 237.703 348.759 237.703 348.759C237.703 348.759 237.811 367.821 237.853 371.631C237.889 375.143 238.215 377.118 238.799 380.029H238.811Z" fill="#FEFEFE"/>
<path d="M303.417 399.103C300.556 397.682 298.592 396.794 294.96 395.713C291.026 394.54 271.334 388.749 271.334 388.749C271.334 388.749 251.708 382.934 247.787 381.785C244.172 380.728 242.022 380.406 238.811 380.035C241.636 381.451 243.582 382.344 247.19 383.426C251.1 384.599 270.744 390.39 270.744 390.39C270.744 390.39 290.436 396.211 294.382 397.353C298.026 398.411 300.189 398.733 303.417 399.103Z" fill="#FEFEFE"/>
<path d="M289.816 402.647C287.316 401.462 285.599 400.708 282.455 399.693C279.051 398.6 262.003 393.167 262.003 393.167C262.003 393.167 245.01 387.716 241.619 386.641L240.498 386.295C240.763 387.309 240.576 385.966 240.631 385.942C240.625 385.274 240.607 384.66 240.57 384.064C240.504 382.867 240.396 381.743 240.245 380.394C240.016 381.743 239.836 382.88 239.697 384.077C239.631 384.678 239.57 385.292 239.522 385.96C239.775 386.453 238.86 386.288 240.077 387.358L241.185 387.729C244.57 388.822 261.576 394.255 261.576 394.255C261.576 394.255 278.617 399.706 282.033 400.781C285.183 401.778 287.045 402.154 289.81 402.647H289.816Z" fill="#FEFEFE"/>
</svg>
