<svg width="262" height="233" viewBox="0 0 262 233" fill="none" xmlns="http://www.w3.org/2000/svg">
<g filter="url(#filter0_d)">
<path fill-rule="evenodd" clip-rule="evenodd" d="M10 119.802L23.8448 116.117C23.0862 95.7574 28.2448 76.0053 38.069 58.9881C51.6862 35.4755 74.2552 17.1288 102.552 9.60784C130.848 2.04885 159.524 6.72099 183.041 20.3196C200.034 30.1956 214.334 44.7438 223.779 62.7866L237.624 59.1021L238.193 61.2672L10.569 122.005L10 119.84V119.802ZM23.8069 171.689L39.3207 167.549L42.0517 166.827L46.7552 165.574L47.8552 165.27L78.1621 157.179L81.3103 156.343L95.0793 152.659L96.8621 152.165L105.51 149.848L111.845 148.139L112.376 147.987L113.703 147.645L161.497 134.882L162.824 134.54L163.355 134.388L169.69 132.717L178.338 130.4L180.121 129.906L227.383 117.295L228.483 116.991L233.186 115.737L235.917 115.016L251.431 110.875L252 113.041L235.841 117.371C235.007 134.464 230.038 150.911 221.655 165.384C208.038 188.896 185.469 207.243 157.172 214.764C128.876 222.323 100.2 217.651 76.6828 204.052C62.231 195.658 49.7517 183.882 40.5345 169.486L24.3759 173.816L23.8069 171.651V171.689ZM233.11 118.169L228.369 119.422C227.269 134.502 222.717 148.936 215.321 161.775C202.652 183.654 181.638 200.71 155.314 207.737C128.952 214.764 102.286 210.434 80.4 197.747C67.6172 190.34 56.5034 180.046 48.0448 167.511L43.3034 168.764C52.2552 182.477 64.2414 193.72 78.0862 201.735C100.997 215.03 128.914 219.55 156.528 212.181C184.103 204.812 206.103 186.959 219.379 164.054C227.383 150.19 232.238 134.502 233.148 118.131L233.11 118.169ZM227.269 119.726L166.579 135.907C167.945 136.173 170.6 136.857 171.814 138.49C173.71 140.276 173.634 141.073 174.052 142.365C174.886 144.91 174.848 147.721 176.745 148.594C178.376 149.202 179.817 147.493 179.931 149.354L180.007 149.202L179.931 148.594V148.556C179.666 146.163 180.045 144.074 181.448 141.985C182.472 140.618 183.8 139.516 185.279 138.718L185.09 138.035L185.431 137.959L185.583 136.933L184.748 137.579L184.824 137.921L183.648 138.225L182.738 134.806L183.914 134.502L184.028 134.844L185.052 134.996L184.407 134.198L184.066 134.274L183.762 133.097L187.176 132.185L187.479 133.362L187.138 133.476L186.986 134.502L187.783 133.856L187.707 133.514L188.883 133.211L189.793 136.629L188.617 136.933L188.503 136.591L187.479 136.439L188.124 137.237L188.466 137.161L188.655 137.921C190.666 137.997 192.448 138.338 194.193 139.326C196.166 140.58 197.19 142.175 198.1 144.264C198.631 144.416 199.01 144.682 199.352 145.138C199.845 146.049 199.579 146.885 198.783 147.493C198.897 148.215 198.328 150.038 198.176 150.835C199.086 151.747 198.783 153.039 197.986 153.836C197.645 154.102 197.303 154.254 196.924 154.406C196.09 154.596 194.459 156.951 194.079 157.863C193.776 158.736 193.245 159.154 192.41 159.078C191.766 158.964 191.614 158.888 190.931 159.154C190.59 160.066 190.134 160.712 189.224 161.053C188.466 161.281 187.821 161.167 187.062 161.129C184.748 161.053 182.434 161.623 180.121 161.433C178.3 161.281 176.441 161.357 174.621 161.433C173.331 161.509 171.966 161.813 170.714 162.041C168.59 162.421 166.466 162.877 164.379 163.446C163.203 163.75 161.8 164.624 160.586 164.206C159.79 163.75 159.486 162.953 159.6 162.041C159.714 161.433 160.055 160.939 160.169 160.37C160.283 159.8 160.283 159.268 160.245 158.66C160.51 158.318 160.814 157.977 161.079 157.635C161.079 157.635 159.41 157.939 159.145 157.901C157.4 157.635 156.945 156.305 156.376 154.824C157.134 154.824 157.893 154.9 158.652 154.71C159.941 154.178 159.638 152.849 159.107 151.823C157.134 148.632 153.228 150.266 151.71 153.001C150.952 154.558 150.914 156.001 151.938 157.369C152.393 157.939 152.924 158.356 153.531 158.774C153.948 159.04 154.441 159.04 154.897 159.192C155.845 159.534 156.679 160.104 157.248 160.977C157.893 162.003 158.007 163.029 158.159 164.206C160.283 164.51 162.445 164.928 164.455 165.801C165.745 166.409 166.731 167.549 168.21 167.549C169.007 167.473 169.652 167.055 169.803 166.219C169.841 165.688 169.614 165.346 169.234 165.004L167.831 164.016L169.728 163.674C171.169 163.484 172.307 163.674 173.331 164.776C174.317 166.143 174.848 168.46 173.331 169.714C174.431 169.752 175.228 169.904 176.1 170.626C176.934 171.537 177.276 172.753 177.428 173.93C177.579 175.032 177.541 176.627 178.262 177.501L180.121 178.299C179.324 178.678 178.528 179.096 177.655 179.4C176.252 179.818 175 179.704 173.9 178.488C173.634 180.654 172.193 182.781 170.107 183.578C168.59 184.11 167.035 184.034 165.479 183.806C165.821 185.895 164.531 187.567 163.014 188.782C160.776 190.302 157.931 191.061 155.314 190.074C154.555 192.391 153.455 194.556 152.279 196.683C150.193 195.43 148.145 194.1 146.362 192.467C145.603 193.34 144.731 193.948 143.707 194.442C142.341 194.974 141.09 195.24 139.61 195.202C137.562 195.05 135.21 194.214 134.414 192.087C133.162 193.037 131.872 193.872 130.279 194.176C128.079 194.518 125.803 193.454 124.476 191.669C124.362 192.201 124.172 192.657 123.831 193.113C123.034 194.024 121.934 194.328 120.759 194.442L118.976 194.556L120.076 193.265C120.569 192.429 119.962 191.289 119.621 190.53C118.976 189.01 118.293 187.567 118.672 185.895C119.052 184.946 119.697 184.224 120.607 183.73C119.507 183.54 118.824 182.743 118.445 181.755C118.141 180.73 117.99 179.742 118.369 178.716C119.203 177.007 120.834 176.627 122.541 176.057C122.048 177.083 120.986 178.982 122.769 179.476C123.945 179.666 124.703 178.792 125.234 177.881C126.069 176.209 126.828 175.146 128.117 173.892C129.028 173.019 130.014 172.183 131 171.385C130.469 169.98 129.938 168.612 130.355 167.131C130.697 166.105 131.341 165.308 132.176 164.624C132.593 163.902 132.897 163.067 133.01 162.231C133.124 160.598 132.366 159.42 131 158.508C129.521 157.597 127.814 157.369 126.145 157.977C124.21 158.774 123.452 160.712 124.286 162.649C124.817 163.674 125.766 163.56 126.714 163.143L127.852 162.459C128.003 163.294 128.155 164.054 128.003 164.89C127.852 165.498 127.586 165.953 127.131 166.371C126.41 166.941 125.614 167.169 124.741 167.283C124.931 167.739 125.766 168.574 126.259 168.726C126.979 169.03 127.472 169.562 127.662 170.322C127.776 171.005 127.624 171.651 127.017 172.069C125.386 172.715 123.414 173.322 121.821 173.93C120.303 174.538 118.786 175.146 117.307 175.829C116.321 176.285 115.372 176.703 114.386 177.197C112.186 178.261 109.986 179.59 108.279 181.337C108.052 182.325 107.597 183.161 106.838 183.844C106.345 184.3 105.852 184.718 105.321 185.174L105.283 185.63C105.662 185.63 106.003 186.009 106.231 186.275C106.686 186.883 106.838 187.643 106.421 188.289C106.952 188.251 107.407 188.44 107.824 188.782C108.469 189.39 108.659 190.112 108.431 190.947C108.659 191.099 108.848 191.099 109.076 191.403C109.379 191.897 109.379 192.315 109.038 192.809C108.772 193.075 108.469 193.189 108.09 193.189C107.597 193.075 107.217 192.809 107.141 192.277C106.648 192.429 106.193 192.391 105.7 192.239C105.321 192.049 105.017 191.821 104.79 191.441C104.448 190.871 104.372 190.226 104.638 189.58C104.031 189.618 103.424 189.048 102.969 188.744C102.969 188.744 101.641 188.289 101.224 187.719C100.428 187.757 99.631 187.795 98.8345 187.833C98.0759 187.757 97.9621 187.263 97.8483 186.617C97.7724 186.275 97.6966 185.933 97.6586 185.592C97.0897 185.592 96.5207 185.592 95.9517 185.402C95.231 185.098 95.0793 184.376 95.0034 183.616C95.0034 183.313 95.0414 183.123 95.1931 182.857C94.5862 182.705 93.9793 182.591 93.3724 182.515C92.7276 181.945 92.5379 181.375 92.3862 180.464C92.3862 180.046 92.5379 179.78 92.8035 179.514C93.3724 178.982 93.9414 178.488 94.4724 177.957C94.0172 177.425 93.6 176.855 93.1448 176.285C92.7655 176.285 92.5759 176.209 92.2724 175.981C91.969 175.829 91.931 175.298 91.969 174.994C91.4 175.146 90.7552 174.424 90.5276 174.006C90.2241 173.398 90.1103 172.943 89.5414 172.525C89.1621 172.297 88.7828 172.107 88.4035 171.917L89.0483 171.499C88.7069 171.423 88.3655 171.233 88.2138 170.891C88.1379 170.55 88.1759 170.246 88.3655 169.904L79.4897 159.154L48.9172 167.321C57.2621 179.59 68.1862 189.618 80.7034 196.911C102.324 209.446 128.724 213.738 154.783 206.787C180.841 199.836 201.628 182.971 214.145 161.319C221.39 148.746 225.903 134.578 227.041 119.802L227.269 119.726ZM109.797 151.063L82.8655 158.243L90.9069 168.005C91.2862 167.929 91.5517 168.005 91.8552 168.233C92.0069 168.498 92.1207 168.84 92.1207 169.106L92.5759 168.916L92.7276 169.41C92.9172 169.942 93.2586 170.436 93.6759 170.816C93.9414 171.119 94.9276 172.297 94.8896 172.677C95.1552 172.715 95.3069 172.753 95.5345 172.905C95.8379 173.209 96.0655 173.664 95.8759 174.082C96.2552 174.538 96.6345 175.032 97.0138 175.488L98.6448 173.626L98.9103 173.55C99.7828 173.322 100.579 173.436 101.414 173.664C102.021 173.854 102.438 174.728 102.666 175.298C103.424 175.602 104.145 176.019 104.79 176.513C106.497 175.981 108.09 175.222 109.607 174.31C111.238 173.285 112.793 172.107 114.234 170.816L113.059 171.157L113.286 170.55C112.679 170.967 111.693 170.891 111.01 170.929C111.162 170.322 111.352 169.752 111.466 169.144C111.466 169.106 109.114 170.967 107.407 170.664C106.079 170.322 105.131 169.714 104.524 168.498C105.586 168.195 106.724 167.929 107.407 166.979C108.317 165.536 107.217 163.067 106.838 161.471C106.497 160.066 106.269 158.926 106.155 157.521C106.8 154.786 107.748 152.659 109.834 151.063H109.797ZM26.5379 115.396L31.1655 114.18C30.7862 95.8334 35.5655 78.0565 44.4793 62.6727C57.1483 40.7934 78.1621 23.7382 104.486 16.711C130.848 9.68381 157.514 14.0141 179.4 26.701C194.762 35.6274 207.734 48.6562 216.534 64.7618L221.162 63.5463C211.945 46.2252 198.138 32.2088 181.752 22.7126C158.841 9.41791 130.924 4.89772 103.31 12.2668C75.7345 19.6358 53.7345 37.4887 40.4586 60.3936C30.9759 76.803 25.931 95.8334 26.5759 115.472L26.5379 115.396ZM32.2276 113.876L54.531 107.913C54.1138 107.685 53.7345 107.419 53.3172 107.153C50.9655 105.444 49.4103 103.544 48.0448 100.999C49.9034 100.316 51.5724 99.9358 53.5448 99.9358C55.0621 100.012 56.5414 100.24 57.9828 100.657C54.4552 98.4544 51.1172 95.7195 49.5241 91.7311C48.6138 88.9961 48.8793 86.831 49.6 84.0581C50.7379 85.0457 51.8759 85.9953 53.0138 86.945C54.4931 88.1225 55.9724 89.3 57.4517 90.4016C55.0241 87.9706 53.0897 85.3116 52.0276 82.0069C50.8897 77.6007 52.0276 74.334 54.1897 70.4595C56.2 73.6503 58.2483 76.803 60.5241 79.8418C63.6345 83.9062 67.2759 87.8186 71.2966 91.0093L71.4862 89.414C73.0034 91.0853 74.4828 92.7187 76.1897 94.1621C77.4414 95.1877 79.4138 96.5931 80.8172 97.4288C80.8172 93.1745 83.6621 97.8466 86.0897 98.9862C86.3172 99.1001 86.5069 99.1761 86.7345 99.29L108.09 93.5923C107.824 93.1365 107.521 92.7187 107.179 92.3008C105.966 90.8194 103.614 88.4264 101.679 88.0465C101.414 88.7303 100.921 89.262 100.428 89.7938C98.7207 89.5659 96.9759 89.338 95.269 89.7558C93.7138 90.2117 93.031 91.0093 92.4241 92.4528C91.6276 92.5667 90.869 92.6427 90.1104 92.7566C90.5276 91.769 90.9448 90.7055 91.5138 89.7938C90.5276 90.4776 89.6172 91.2373 88.7069 91.959C87.531 92.9466 86.2414 93.5923 84.6862 93.7443C82.6 93.8202 81.0069 92.8706 79.9828 91.0473L78.8828 88.8442L80.969 90.0977C81.8793 90.5915 82.7517 90.8574 83.8517 90.6675C85.4828 90.2876 86.431 89.1481 87.7586 88.2365C88.8966 87.5147 90.1483 87.0969 91.5138 86.945C90.1103 86.4132 88.669 86.0333 87.1517 86.0713C85.7104 86.1853 84.9138 86.7171 83.8138 87.5907C82.7896 85.1977 82.1448 82.8806 83.7379 80.5635C84.5724 79.4999 85.7483 78.8162 87 78.3224L87.0759 78.2844C87.0379 77.7906 87.1897 77.4488 87.4172 77.0309C83.3966 76.955 80.8931 76.3472 79.0724 74.8658C77.5172 72.9665 76.9483 70.7634 77.3276 68.3324C77.2896 67.4967 77.2897 66.6611 77.2517 65.8254C75.8862 67.4967 74.4448 68.7882 72.7759 69.358C71.1828 70.8394 71.3724 72.3968 72.3966 74.0301C74.2931 75.2836 76.1897 76.1193 75.1276 79.386C74.6345 80.2216 74.1414 81.0193 73.1552 82.0069C72.8138 82.5387 72.6241 83.2604 73.4966 83.7922C72.7 84.0201 71.9414 83.8682 71.5241 82.9566C70.9931 81.779 71.3345 81.5131 71.9793 80.5255C72.4724 79.8418 73.0034 79.1201 72.7759 78.5123C72.2448 80.3356 71.031 81.3992 69.6276 81.741C68.0724 81.855 67.2379 81.5131 66.631 81.7031C66.1379 81.855 65.6828 81.9689 65 82.3108C64.8483 80.9813 64.9621 79.7658 66.4793 79.234C67.2379 78.7782 69.6655 79.31 68.831 78.3604C67.2379 77.7526 66.1 76.4991 65.7207 75.3976C65.0759 73.5743 65.9103 72.3968 67.3138 71.2192C69.8931 70.1557 71.9035 68.2564 73.269 64.8378C73.5345 62.3308 74.0276 61.1912 76 59.9757C76.4552 59.4819 76.9103 59.1021 77.5931 59.9377C78.8069 61.0773 80.0586 62.5207 81.9931 63.8122C82.9035 64.5339 83.5483 65.6355 82.7897 67.6107C82.2966 68.9022 81.8034 69.8898 81.4621 71.2572C82.031 72.8146 85.0276 74.9797 89.1621 74.5239C89.3897 74.5619 89.4276 74.448 89.3138 74.1441C89.1241 73.9921 89.0103 73.6883 89.0483 73.4604C89.0483 73.4224 89.0103 73.3464 88.9724 73.3084C88.8586 73.2324 88.7828 73.1565 88.7448 73.0425C88.4793 72.5867 88.2517 72.1689 87.9483 71.713C87 70.2696 85.8241 68.9781 85.6724 67.1549C85.6345 65.5975 86.469 64.382 87.7966 63.6982C88.5931 63.2804 89.3897 63.0525 90.2621 62.8246L90.4897 63.4324L91.2862 63.2044L90.9828 62.2548L91.0965 62.2168C90.831 62.0269 90.7172 61.837 90.6034 61.5331C90.5655 61.2672 90.5655 61.0773 90.6414 60.8114L90.5276 60.3176L90.7172 60.2796L90.6793 59.7098L90.1862 59.9757L90.2241 60.1657L89.6172 60.3176L89.0862 58.3804L89.6931 58.2284L89.731 58.4184H90.3L90.0345 57.8866L89.8448 57.9245L89.6931 57.2788L91.5517 56.785L91.7035 57.4307L91.5138 57.4687L91.5517 58.0385L92.0448 57.7726L92.0069 57.5827L92.6138 57.4307L93.1448 59.368L92.5379 59.5199L92.5 59.33H91.931L92.1965 59.8618L92.3862 59.8238L92.5759 60.4695H92.5C92.6138 60.6215 92.6897 60.7734 92.7655 60.9633C92.8035 61.2672 92.8034 61.4951 92.6897 61.799L92.9552 61.723L93.1828 62.7106L94.0172 62.5207L93.9035 61.875C95.269 61.5331 96.9379 61.1153 98.3414 61.723C99.7828 62.4447 100.352 63.5843 100.541 65.0277C100.617 65.9394 100.503 66.699 100.428 67.6107C100.352 68.2944 100.314 68.9781 100.352 69.6239C100.352 69.9278 100.693 70.0417 100.352 70.3456C100.352 70.3456 100.39 70.4975 100.39 70.5355C100.466 70.6875 100.503 70.8394 100.503 71.0673C100.466 71.1813 100.503 71.2572 100.503 71.3712C100.503 71.3712 100.617 71.6751 100.655 71.713C100.693 71.751 100.731 71.713 101.034 71.6371C105.966 70.1177 108.241 67.0409 109.607 63.3564C108.962 63.3564 108.393 63.3184 107.862 63.2424C107.521 63.2044 107.293 63.0525 107.141 62.9006C106.876 62.6347 106.8 62.2168 106.686 61.913C106.307 61.5331 106.307 61.1533 106.231 60.6974C105.928 60.5835 105.7 60.1657 105.89 59.8618C105.397 58.8362 104.79 57.8866 104.145 56.9749C103.386 55.9114 102.514 54.8858 101.869 53.7462C100.655 51.4291 100.314 49.0741 101.907 46.833C103.386 44.9337 106.041 44.174 108.128 43.6043L108.507 44.5159L109.834 44.1361L109.379 42.6546L109.607 42.5787C109.19 42.3128 108.962 41.9709 108.81 41.5151C108.734 41.1353 108.734 40.7554 108.886 40.4135L108.697 39.6918L108.962 39.6159L108.924 38.6662L108.09 39.1221L108.166 39.3879L107.217 39.6538L106.421 36.729L107.369 36.5011L107.445 36.767L108.393 36.729L107.938 35.8933L107.672 35.9693L107.407 35.0197L110.328 34.222L110.593 35.1716L110.328 35.2476L110.366 36.1972L111.2 35.7414L111.124 35.4755L112.072 35.2096L112.869 38.1344L111.921 38.4003L111.845 38.1344L110.897 38.1724L111.352 39.0081L111.617 38.9321L111.883 39.8818L111.769 39.9197C111.997 40.1476 112.148 40.5275 112.224 40.8694C112.262 41.2872 112.224 41.6291 112.034 42.0089L112.49 41.8949L112.831 43.3764L114.159 43.0725L114.007 42.0849C115.638 41.6291 117.117 41.3252 118.862 41.3252C120.948 41.4011 122.883 42.5027 123.831 44.4399C124.741 46.4911 124.514 48.3144 124.286 50.4035C124.134 51.695 124.059 53.0245 124.059 54.354C124.059 54.5819 124.021 55.1896 124.134 55.3796C124.21 55.6455 124.172 55.9873 123.869 56.1393C123.907 56.3672 123.983 56.5191 124.059 56.747L124.021 57.2788L124.059 57.6587C124.172 57.7346 124.248 57.8486 124.324 57.9625C124.438 58.2664 124.286 58.6463 124.021 58.7982C123.717 59.292 123.072 59.5199 122.617 59.8238C125.538 62.2548 128.8 64.1541 133.959 62.6727L134.376 62.5587C134.376 62.3688 134.376 62.3688 134.3 62.2168C134.072 61.9509 134.11 61.761 133.997 61.4951C133.845 61.4571 133.428 61.3052 133.655 60.8874C133.352 60.3176 132.972 59.7858 132.631 59.254C131.948 58.2664 131.228 57.3168 130.886 56.1393C130.469 54.5439 131.076 52.9485 132.479 52.0369C133.352 51.5051 134.338 51.1632 135.362 50.8974L135.59 51.5051L136.386 51.2772L136.083 50.3276L136.348 50.2516C135.969 49.9477 135.741 49.4919 135.855 48.9981H135.779L135.628 48.3524L135.817 48.3144L135.779 47.7446L135.286 48.0105L135.324 48.2004L134.717 48.3524L134.186 46.4151L134.793 46.2632L134.831 46.4531H135.4L135.134 45.9213L134.945 45.9593L134.755 45.3136L136.614 44.8198L136.766 45.4655L136.576 45.5035L136.614 46.0733L137.107 45.8074L137.069 45.6175L137.676 45.4655L138.207 47.4027L137.6 47.5547L137.562 47.3648H136.993L137.259 47.8966L137.448 47.8586L137.562 48.3524C138.017 48.6942 138.093 49.302 137.866 49.7958L138.017 49.7578L138.245 50.7454L139.041 50.5555L138.928 49.9097C139.876 49.6439 140.634 49.4919 141.621 49.4539C143.517 49.4159 144.959 50.5175 145.414 52.3788C145.679 53.7082 145.452 54.9237 145.376 56.2532C145.338 56.861 145.338 57.4307 145.338 58.0005C145.376 58.1904 145.262 58.3044 145.262 58.4184C145.3 58.6842 145.528 58.9122 145.376 59.216C145.414 59.33 145.414 59.406 145.414 59.5199L145.679 59.4439C149.776 57.8486 151.179 54.392 150.534 52.6826C149.548 51.6571 148.524 50.7074 147.424 49.9097C145.755 48.5803 146.21 47.4407 146.514 46.2632C147.576 44.174 147.993 42.6167 148.486 41.0213C148.638 39.9577 149.207 39.9957 149.89 40.1856C152.203 40.2616 153.948 41.705 155.428 43.7562C157.59 45.6175 160.169 45.9213 162.938 45.5795C164.759 45.9213 166.124 46.719 166.466 48.6562C166.693 49.7958 166.276 51.0113 165.176 52.3408C164.759 54.0501 166.883 52.3408 167.755 52.3788C169.121 52.1509 170.145 52.5307 170.334 54.354C168.703 53.8602 167.49 55.7214 166.048 56.0253C164.645 56.4431 163.203 56.0633 161.838 54.7718C161.952 55.4175 162.672 55.7974 163.431 56.1772C164.493 56.671 165.138 56.861 165.252 58.1525C165.366 59.1401 164.683 59.4439 163.848 59.6719C164.341 58.7602 163.924 58.3804 163.355 58.0765C162.028 57.7346 161.079 57.2788 160.245 56.785C157.666 54.4679 158.917 52.4547 159.903 50.4035C159.979 48.4663 159.6 47.0609 157.476 46.5671C155.769 46.9469 153.645 46.4531 151.634 45.6934C152.014 46.4151 152.431 47.1748 152.81 47.8966C154.366 49.7958 154.934 51.9989 154.555 54.4299C153.721 56.671 151.938 58.5323 148.41 60.6215C149.169 60.5835 149.662 60.9254 149.966 61.5711H150.041C151.938 61.2672 153.797 61.4571 155.314 62.7106C156.907 64.192 157.172 66.0153 157.438 67.9905C154.403 67.5347 152.317 69.0161 150.459 71.2192C150.421 71.2572 153.569 69.9657 155.541 70.7254C157.893 71.1053 159.828 70.9533 161.155 68.7502L162.331 66.6231C162.407 68.3704 162.672 69.8898 161.952 71.5231C161.003 73.3464 159.221 74.22 157.286 74.372C155.503 74.448 153.683 73.8782 151.862 73.7262C151.786 73.7262 154.176 75.3596 154.479 75.5875C153.759 75.8914 153.038 76.1953 152.317 76.4991C151.748 76.0433 151.255 75.7015 150.534 75.5115C149.359 75.2836 148.297 75.5875 147.234 76.0813C146.059 76.6511 145.034 77.4108 144.01 78.2085C143.29 77.9806 142.645 77.7906 142.038 77.3348C140.748 78.4364 140.141 80.6015 139.686 82.1969C139.421 83.2604 139.269 84.286 139.231 85.3496L160.586 79.6519C161.61 78.2844 162.521 76.803 163.052 75.0937L163.507 73.3844L164.569 74.6759C166.352 72.4348 168.021 67.8006 168.969 63.5083L169.879 64.7238C170.031 64.9517 172.572 56.1393 172.762 55.3796C173.938 49.7578 174.317 44.174 174.583 38.4383C177.048 39.8818 178.945 41.2112 180.576 43.6043C183.117 47.8586 182.89 52.7586 181.638 57.3548C183.003 54.278 184.179 51.0873 185.317 47.9345C188.086 50.7834 189.49 53.6323 189.338 57.3928C189.034 60.6215 187.859 63.6223 186.303 66.4711C189.072 63.6223 191.5 62.4447 195.103 61.799C195.179 64.4959 194.838 66.737 193.814 69.244C193.548 69.8518 193.245 70.4595 192.903 71.0293L215.245 65.0657C206.559 49.226 193.776 36.4251 178.641 27.6506C157.021 15.1156 130.621 10.8234 104.562 17.7746C78.5034 24.7258 57.7172 41.5911 45.2 63.2424C36.4379 78.3984 31.7345 95.8714 32.0379 113.914L32.2276 113.876ZM122.769 89.7179L124.893 89.1481C124.893 88.4644 124.931 87.7806 124.969 87.0969C125.31 83.4124 126.259 79.6519 127.966 76.3472C127.131 76.3092 126.41 76.0053 125.614 75.7394C128.345 73.8402 128.838 72.2448 130.621 69.9278C129.217 69.7378 126.676 67.6866 126.145 67.3068C127.017 67.2308 127.852 67.1929 128.724 67.1169C127.359 66.775 126.069 66.2052 124.779 65.6735L127.017 65.1037C123.793 64.8758 120.986 63.7742 118.483 61.761C117.193 62.2168 115.79 62.5967 114.386 62.9006C113.362 65.7114 111.693 68.0285 109.341 69.8138L111.2 69.282C110.328 70.3836 109.493 71.5231 108.469 72.5107C109.266 72.1309 110.024 71.751 110.821 71.4092C110.138 73.0425 109.455 74.6759 108.128 75.8914C111.276 77.1449 112.148 78.2085 115.448 78.5123C114.917 79.1201 114.386 79.7658 113.703 80.2216C116.814 82.2348 119.507 85.0457 121.631 88.0465C122.01 88.6163 122.39 89.1861 122.731 89.7938L122.769 89.7179ZM245.666 89.262C246.69 93.0985 247.334 95.8334 247.562 97.4668C247.828 99.1001 247.638 100.733 247.031 102.291C246.424 103.848 245.4 105.216 243.997 106.355C242.555 107.495 240.772 108.368 238.648 108.938C236.6 109.47 234.703 109.622 232.883 109.394C231.062 109.166 229.507 108.52 228.179 107.419C226.852 106.355 225.866 105.064 225.259 103.544C224.652 102.025 223.817 99.29 222.793 95.3776L221.048 88.8442C220.024 85.0077 219.379 82.2728 219.152 80.6395C218.886 79.0061 219.076 77.3728 219.683 75.8154C220.29 74.258 221.314 72.8906 222.717 71.751C224.159 70.6115 225.941 69.7378 228.066 69.1681C230.114 68.6363 232.01 68.4843 233.831 68.7122C235.614 68.9402 237.207 69.5859 238.534 70.6875C239.862 71.751 240.848 73.0425 241.455 74.5619C242.062 76.0813 242.897 78.8162 243.921 82.7286L245.666 89.262ZM232.39 79.348C231.934 77.5627 231.517 76.4612 231.176 76.0053C230.834 75.5495 230.379 75.4356 229.81 75.5875C229.317 75.7394 228.976 76.0433 228.786 76.4991C228.634 76.9549 228.786 78.1705 229.317 80.1457L234.059 97.9606C234.666 100.164 235.083 101.531 235.424 101.987C235.728 102.481 236.221 102.595 236.866 102.443C237.51 102.253 237.852 101.873 237.89 101.227C237.928 100.582 237.624 99.1381 237.017 96.897L232.352 79.348H232.39ZM213.083 73.9541L223.248 112.167L213.31 114.826L209.062 98.7962L206.179 99.5559L210.428 115.586L200.49 118.244L190.324 80.0317L200.262 77.3728L203.903 91.0473L206.786 90.2876L203.145 76.6131L213.083 73.9541ZM170.297 85.3876L186.834 80.9813L188.883 88.6163L182.283 90.3636L184.217 97.6567L190.4 96.0233L192.334 103.278L186.152 104.912L188.39 113.306L195.672 111.369L197.721 119.004L180.5 123.6L170.334 85.3876H170.297ZM176.479 124.626L140.748 134.16L130.583 95.9474L140.521 93.2884L148.638 123.866L151.597 123.069L143.479 92.4908L153.417 89.8318L161.534 120.41L164.493 119.612L156.376 89.0341L166.352 86.3752L176.517 124.588L176.479 124.626ZM110.555 101.303L127.093 96.897L129.141 104.532L122.541 106.279L124.476 113.572L130.659 111.939L132.593 119.194L126.41 120.827L128.648 129.222L135.931 127.285L137.979 134.92L120.759 139.516L110.593 101.303H110.555ZM86.3552 107.761L96.331 105.102C99.0241 104.38 101.148 104.038 102.741 104.076C104.297 104.114 105.548 104.418 106.497 105.026C107.445 105.634 108.203 106.469 108.772 107.533C109.341 108.596 109.948 110.344 110.555 112.737L111.428 116.079C112.072 118.51 112.3 120.372 112.072 121.587C111.883 122.841 111.162 123.942 109.986 124.892C108.81 125.841 107.141 126.601 104.979 127.171L102.324 127.893L106.421 143.314L96.4828 145.973L86.3172 107.761H86.3552ZM98.0379 111.635L100.617 121.359C100.921 121.283 101.148 121.245 101.338 121.207C102.248 120.979 102.817 120.562 103.045 120.03C103.272 119.498 103.197 118.51 102.817 117.105L101.983 113.952C101.641 112.661 101.224 111.863 100.693 111.559C100.2 111.255 99.2897 111.293 98 111.635H98.0379ZM82.7897 126.487C84.3448 126.601 85.6345 127.095 86.6586 128.007C87.6448 128.918 88.7069 131.425 89.769 135.528C90.5655 138.566 90.869 140.997 90.6034 142.859C90.3759 144.72 89.5034 146.315 88.0241 147.645C86.5448 148.974 84.4966 150 81.8414 150.684C78.8448 151.481 76.3414 151.595 74.331 151.063C72.3586 150.494 70.8793 149.582 69.931 148.253C69.0207 146.923 68.0345 144.454 67.0862 140.807L66.2897 137.807L75.7724 135.262L77.4414 141.491C77.8966 143.163 78.2759 144.188 78.5793 144.568C78.8828 144.986 79.3759 145.062 80.0586 144.91C80.7793 144.72 81.1965 144.302 81.3103 143.656C81.3862 143.049 81.1207 141.529 80.4759 139.136L79.7552 136.477C79.3759 134.996 78.9207 133.97 78.4276 133.4C77.9345 132.831 77.3276 132.489 76.6069 132.451C75.9241 132.413 74.6345 132.603 72.7759 133.097L71.2966 127.551C73.5724 126.943 74.9379 126.487 75.431 126.183C75.9241 125.879 76.1897 125.386 76.2655 124.74C76.3414 124.094 76.2276 123.145 75.8862 121.929L75.3172 119.802C74.9759 118.472 74.5965 117.637 74.2172 117.257C73.8379 116.915 73.3448 116.801 72.7759 116.953C72.0931 117.143 71.7138 117.485 71.6 117.979C71.4862 118.51 71.6 119.46 71.9793 120.941L72.8138 124.056L63.331 126.601L62.4586 123.334C61.4724 119.688 61.6621 117.029 62.9897 115.282C64.3172 113.572 66.7828 112.205 70.4241 111.255C74.9379 110.04 78.2759 110.116 80.3621 111.445C82.4483 112.775 83.9276 115.054 84.7621 118.206C85.331 120.334 85.4448 121.967 85.1414 123.069C84.8 124.17 84.0034 125.31 82.7897 126.487ZM53.431 116.573L69.2483 153.266L59.1207 155.963L56.769 149.24L53.2034 150.19L54.4931 157.179L44.2138 159.914L39.0931 120.372L53.431 116.535V116.573ZM54.7207 142.555C53.0897 138.338 51.1552 133.135 48.9552 126.867C49.9414 134.464 50.7379 140.01 51.3828 143.466L54.7586 142.555H54.7207ZM12.1241 127.589L22.1 124.93C24.7931 124.208 26.9172 123.866 28.5103 123.904C30.0655 123.942 31.3172 124.284 32.2655 124.854C33.2138 125.462 33.9724 126.297 34.5414 127.361C35.1103 128.424 35.6793 130.172 36.3241 132.565L37.1966 135.907C37.8414 138.338 38.069 140.2 37.8414 141.415C37.6517 142.669 36.931 143.77 35.7552 144.72C34.5793 145.67 32.9103 146.429 30.7483 146.999L28.0931 147.721L32.1897 163.143L22.2517 165.801L12.0862 127.589H12.1241ZM23.8069 131.463L26.3862 141.187C26.6897 141.111 26.9172 141.073 27.1069 141.035C28.0172 140.807 28.5862 140.39 28.8138 139.858C29.0414 139.326 28.9655 138.338 28.5862 136.933L27.7517 133.78C27.4103 132.489 26.9931 131.691 26.4621 131.387C25.969 131.083 25.0586 131.121 23.769 131.463H23.8069ZM169.728 154.748C170.41 155.318 171.093 155.47 172.003 155.394L173.862 154.976L173.407 154.558C174.241 154.52 174.81 154.14 175.569 153.722C175.114 153.304 174.621 152.849 174.279 152.355C175.303 152.735 176.479 152.621 177.503 152.279C178.641 151.975 179.741 150.494 179.741 150.532C179.817 151.481 180.386 152.013 181.297 152.203C181.448 152.469 181.79 152.583 181.941 152.811C182.283 153.304 182.7 153.76 183.155 154.178C182.662 154.558 182.169 154.938 181.638 155.28C180.424 155.963 178.907 156.191 177.579 156.381C175.721 156.609 173.938 156.571 172.079 156.381C171.434 156.305 170.828 156.229 170.183 156.115C169.993 155.925 169.841 155.052 169.766 154.748H169.728ZM96.6724 180.312C96.5207 180.122 96.331 179.894 96.1793 179.704L95.6862 180.046L96.6724 180.312ZM143.707 189.086C142.455 188.896 141.583 187.985 141.09 186.807C140.331 184.49 140.862 181.299 141.052 179.058C141.317 176.323 141.962 173.626 142.19 170.929C142.266 173.626 142.19 176.323 142.228 179.02C142.266 181.413 142.379 183.882 142.683 186.275C142.759 186.655 143.707 189.124 143.669 189.086H143.707ZM150.572 171.765C151.786 173.285 152.924 174.842 154.024 176.437C155.238 178.261 156.907 180.274 157.362 182.477C157.514 183.616 157.248 185.098 156.224 185.782C156.224 184.756 156.072 183.768 155.731 182.819C154.897 180.806 153.872 178.83 152.848 176.893C151.976 175.298 151.066 173.74 150.193 172.183C149.624 171.233 149.093 170.246 148.562 169.296C149.245 170.132 149.966 170.967 150.648 171.803L150.572 171.765ZM165.214 178.754C166.314 178.261 166.997 176.703 166.39 175.564C166.124 176.627 165.328 177.501 164.417 178.033C164.531 178.336 164.607 178.602 164.721 178.906L165.214 178.754ZM161.307 173.474C161.648 172.145 159.903 170.778 159.031 170.056C157.817 169.106 156.452 168.384 155.048 167.701C156.338 168.688 157.628 169.714 158.803 170.853C159.638 171.651 160.321 172.677 161.231 173.436L161.269 173.474H161.307ZM153.379 162.953C154.745 163.484 156.11 163.788 157.552 163.978C157.134 163.636 156.755 163.294 156.262 163.105C155.959 162.991 153.379 162.953 153.379 162.953ZM131.19 187.339C130.469 186.959 129.824 186.161 129.824 185.326C130.279 185.782 130.734 186.047 131.341 186.275C131.834 186.389 132.29 186.465 132.783 186.465C132.821 186.769 132.897 187.073 132.934 187.377C132.328 187.567 131.759 187.567 131.19 187.339ZM133.2 180.957C132.441 180.198 132.859 179.02 133.086 178.071C133.466 176.703 134.072 175.488 134.831 174.272C135.134 173.778 135.476 173.285 135.817 172.829C135.59 173.36 135.362 173.892 135.172 174.386C134.679 175.602 134.262 176.817 133.921 178.071C133.655 179.02 133.579 180.008 133.238 180.919L133.2 180.957ZM134.869 167.853C134.338 168.536 133.769 169.144 133.162 169.79C132.707 170.132 132.214 170.474 131.759 170.853L132.062 170.056C132.403 169.372 132.972 168.878 133.693 168.574C133.845 168.536 134.869 167.853 134.831 167.891L134.869 167.853Z" fill="url(#paint0_linear)"/>
</g>
<defs>
<filter id="filter0_d" x="0" y="0" width="262" height="232.372" filterUnits="userSpaceOnUse" color-interpolation-filters="sRGB">
<feFlood flood-opacity="0" result="BackgroundImageFix"/>
<feColorMatrix in="SourceAlpha" type="matrix" values="0 0 0 0 0 0 0 0 0 0 0 0 0 0 0 0 0 0 127 0"/>
<feOffset dy="4"/>
<feGaussianBlur stdDeviation="5"/>
<feColorMatrix type="matrix" values="0 0 0 0 0 0 0 0 0 0 0 0 0 0 0 0 0 0 0.5 0"/>
<feBlend mode="normal" in2="BackgroundImageFix" result="effect1_dropShadow"/>
<feBlend mode="normal" in="SourceGraphic" in2="effect1_dropShadow" result="shape"/>
</filter>
<linearGradient id="paint0_linear" x1="109.303" y1="4.47988" x2="155.134" y2="206.683" gradientUnits="userSpaceOnUse">
<stop stop-color="#FEFEFE"/>
<stop offset="1" stop-color="#ECECEC"/>
</linearGradient>
</defs>
</svg>
