<svg width="60" height="61" viewBox="0 0 60 61" fill="none" xmlns="http://www.w3.org/2000/svg">
<path d="M52.7651 30.0748C52.7651 42.5023 42.6611 52.6929 30.0624 52.6929C17.5884 52.6929 7.35967 42.6266 7.35967 30.0748C7.35967 17.6472 17.4636 7.45655 30.0624 7.45655C34.0541 7.45655 37.921 8.45076 41.4137 10.5634L36.6736 16.1559L57.5052 19.8841L50.2703 0L46.1539 4.84676C32.183 -3.97683 13.7214 0.124275 4.74013 14.0432C1.49688 19.0142 0 24.6066 0 30.199C0 40.0168 4.98961 49.5861 13.8462 55.3027C18.8358 58.5339 24.4491 60.0252 30.0624 60.0252C39.9168 60.0252 49.5218 55.0542 55.2599 46.2306C58.2536 41.5081 59.8753 36.1643 60 30.5719V30.199H52.6403L52.7651 30.0748Z" fill="#4564AA"/>
<path d="M41.5418 31.8144H28.4441V22.2452H30.8142V29.3289H41.5418V31.8144ZM16.3443 30.0746C16.3443 37.6554 22.4566 43.7449 30.0657 43.7449C37.6749 43.7449 43.7871 37.6554 43.7871 30.0746C43.7871 22.4937 37.6749 16.4042 30.0657 16.4042C22.4566 16.4042 16.3443 22.4937 16.3443 30.0746Z" fill="#4564AA"/>
</svg>
