<svg width="2000" height="400" viewBox="0 0 2000 400" fill="none" xmlns="http://www.w3.org/2000/svg">
<rect width="2000" height="400" transform="matrix(1 0 0 -1 0 400)" fill="#4564AA"/>
<g opacity="0.5">
<path fill-rule="evenodd" clip-rule="evenodd" d="M491.029 400L891.031 3.05176e-05H887.365L487.363 400H491.029Z" fill="#3B4F9A"/>
<path fill-rule="evenodd" clip-rule="evenodd" d="M481.228 400L881.217 3.05176e-05H877.564L477.562 400H481.228Z" fill="#3B4F9A"/>
<path fill-rule="evenodd" clip-rule="evenodd" d="M471.414 400L871.416 3.05176e-05H867.75L467.748 400H471.414Z" fill="#3B4F9A"/>
<path fill-rule="evenodd" clip-rule="evenodd" d="M461.613 400L861.614 3.05176e-05H857.949L457.947 400H461.613Z" fill="#3B4F9A"/>
<path fill-rule="evenodd" clip-rule="evenodd" d="M451.799 400L851.801 3.05176e-05H848.135L448.146 400H451.799Z" fill="#3B4F9A"/>
<path fill-rule="evenodd" clip-rule="evenodd" d="M441.997 400L841.987 3.05176e-05H838.333L438.332 400H441.997Z" fill="#3B4F9A"/>
<path fill-rule="evenodd" clip-rule="evenodd" d="M432.184 400L832.185 3.05176e-05H828.532L428.53 400H432.184Z" fill="#3B4F9A"/>
<path fill-rule="evenodd" clip-rule="evenodd" d="M422.382 400L822.384 3.05176e-05H818.718L418.717 400H422.382Z" fill="#3B4F9A"/>
<path fill-rule="evenodd" clip-rule="evenodd" d="M412.569 400L812.57 3.05176e-05H808.917L408.915 400H412.569Z" fill="#3B4F9A"/>
<path fill-rule="evenodd" clip-rule="evenodd" d="M402.767 400L802.769 3.05176e-05H799.103L399.102 400H402.767Z" fill="#3B4F9A"/>
<path fill-rule="evenodd" clip-rule="evenodd" d="M392.954 400L792.955 3.05176e-05H789.302L389.3 400H392.954Z" fill="#3B4F9A"/>
<path fill-rule="evenodd" clip-rule="evenodd" d="M383.152 400L783.154 3.05176e-05H779.488L379.486 400H383.152Z" fill="#3B4F9A"/>
<path fill-rule="evenodd" clip-rule="evenodd" d="M373.351 400L773.34 3.05176e-05H769.687L369.685 400H373.351Z" fill="#3B4F9A"/>
<path fill-rule="evenodd" clip-rule="evenodd" d="M363.537 400L763.539 3.05176e-05H759.873L359.871 400H363.537Z" fill="#3B4F9A"/>
<path fill-rule="evenodd" clip-rule="evenodd" d="M353.723 400L753.725 3.05176e-05H750.072L350.07 400H353.723Z" fill="#3B4F9A"/>
<path fill-rule="evenodd" clip-rule="evenodd" d="M343.922 400L743.924 3.05176e-05H740.258L340.256 400H343.922Z" fill="#3B4F9A"/>
<path fill-rule="evenodd" clip-rule="evenodd" d="M334.121 400L734.11 3.05176e-05H730.457L330.455 400H334.121Z" fill="#3B4F9A"/>
<path fill-rule="evenodd" clip-rule="evenodd" d="M324.307 400L724.309 3.05176e-05H720.643L320.641 400H324.307Z" fill="#3B4F9A"/>
<path fill-rule="evenodd" clip-rule="evenodd" d="M314.493 400L714.495 3.05176e-05H710.842L310.84 400H314.493Z" fill="#3B4F9A"/>
<path fill-rule="evenodd" clip-rule="evenodd" d="M304.692 400L704.694 3.05176e-05H701.028L301.026 400H304.692Z" fill="#3B4F9A"/>
<path fill-rule="evenodd" clip-rule="evenodd" d="M294.878 400L694.88 3.05176e-05H691.227L291.225 400H294.878Z" fill="#3B4F9A"/>
<path fill-rule="evenodd" clip-rule="evenodd" d="M285.077 400L685.079 3.05176e-05H681.413L281.411 400H285.077Z" fill="#3B4F9A"/>
<path fill-rule="evenodd" clip-rule="evenodd" d="M275.263 400L675.265 3.05176e-05H671.612L271.61 400H275.263Z" fill="#3B4F9A"/>
<path fill-rule="evenodd" clip-rule="evenodd" d="M265.462 400L665.464 3.05176e-05H661.798L261.796 400H265.462Z" fill="#3B4F9A"/>
<path fill-rule="evenodd" clip-rule="evenodd" d="M255.661 400L655.65 3.05176e-05H651.997L251.995 400H255.661Z" fill="#3B4F9A"/>
<path fill-rule="evenodd" clip-rule="evenodd" d="M245.847 400L645.849 3.05176e-05H642.183L242.181 400H245.847Z" fill="#3B4F9A"/>
<path fill-rule="evenodd" clip-rule="evenodd" d="M236.046 400L636.048 3.05176e-05H632.382L232.38 400H236.046Z" fill="#3B4F9A"/>
<path fill-rule="evenodd" clip-rule="evenodd" d="M226.232 400L626.234 3.05176e-05H622.568L222.579 400H226.232Z" fill="#3B4F9A"/>
<path fill-rule="evenodd" clip-rule="evenodd" d="M216.431 400L616.42 3.05176e-05H612.767L212.765 400H216.431Z" fill="#3B4F9A"/>
<path fill-rule="evenodd" clip-rule="evenodd" d="M206.617 400L606.619 3.05176e-05H602.953L202.964 400H206.617Z" fill="#3B4F9A"/>
<path fill-rule="evenodd" clip-rule="evenodd" d="M196.816 400L596.818 3.05176e-05H593.152L193.15 400H196.816Z" fill="#3B4F9A"/>
<path fill-rule="evenodd" clip-rule="evenodd" d="M187.002 400L587.004 3.05176e-05H583.351L183.349 400H187.002Z" fill="#3B4F9A"/>
<path fill-rule="evenodd" clip-rule="evenodd" d="M177.201 400L577.203 3.05176e-05H573.537L173.535 400H177.201Z" fill="#3B4F9A"/>
<path fill-rule="evenodd" clip-rule="evenodd" d="M167.4 400L567.389 3.05176e-05H563.736L163.734 400H167.4Z" fill="#3B4F9A"/>
<path fill-rule="evenodd" clip-rule="evenodd" d="M157.586 400L557.588 3.05176e-05H553.922L153.92 400H157.586Z" fill="#3B4F9A"/>
<path fill-rule="evenodd" clip-rule="evenodd" d="M147.785 400L547.786 3.05176e-05H544.12L144.119 400H147.785Z" fill="#3B4F9A"/>
<path fill-rule="evenodd" clip-rule="evenodd" d="M137.971 400L537.973 3.05176e-05H534.307L134.317 400H137.971Z" fill="#3B4F9A"/>
<path fill-rule="evenodd" clip-rule="evenodd" d="M128.169 400L528.171 3.05176e-05H524.505L124.504 400H128.169Z" fill="#3B4F9A"/>
<path fill-rule="evenodd" clip-rule="evenodd" d="M118.356 400L518.357 3.05176e-05H514.704L114.702 400H118.356Z" fill="#3B4F9A"/>
<path fill-rule="evenodd" clip-rule="evenodd" d="M108.554 400L508.556 3.05176e-05H504.89L104.889 400H108.554Z" fill="#3B4F9A"/>
<path fill-rule="evenodd" clip-rule="evenodd" d="M98.7533 400L498.742 3.05176e-05H495.089L95.0874 400H98.7533Z" fill="#3B4F9A"/>
<path fill-rule="evenodd" clip-rule="evenodd" d="M88.9394 400L488.941 3.05176e-05H485.275L85.2735 400H88.9394Z" fill="#3B4F9A"/>
<path fill-rule="evenodd" clip-rule="evenodd" d="M79.1382 400L479.14 3.05176e-05H475.474L75.4723 400H79.1382Z" fill="#3B4F9A"/>
<path fill-rule="evenodd" clip-rule="evenodd" d="M69.3243 400L469.326 3.05176e-05H465.66L65.6712 400H69.3243Z" fill="#3B4F9A"/>
<path fill-rule="evenodd" clip-rule="evenodd" d="M59.5232 400L459.525 3.05176e-05H455.859L55.8573 400H59.5232Z" fill="#3B4F9A"/>
<path fill-rule="evenodd" clip-rule="evenodd" d="M49.7093 400L449.711 3.05176e-05H446.058L46.0561 400H49.7093Z" fill="#3B4F9A"/>
<path fill-rule="evenodd" clip-rule="evenodd" d="M39.9081 400L439.91 3.05176e-05H436.244L36.2422 400H39.9081Z" fill="#3B4F9A"/>
<path fill-rule="evenodd" clip-rule="evenodd" d="M30.0942 400L430.096 3.05176e-05H426.443L26.4411 400H30.0942Z" fill="#3B4F9A"/>
<path fill-rule="evenodd" clip-rule="evenodd" d="M20.2931 400L420.295 3.05176e-05H416.629L16.6272 400H20.2931Z" fill="#3B4F9A"/>
<path fill-rule="evenodd" clip-rule="evenodd" d="M10.4919 400L410.481 3.05176e-05H406.828L6.82603 400H10.4919Z" fill="#3B4F9A"/>
<path fill-rule="evenodd" clip-rule="evenodd" d="M0.674625 400L400.676 3.05176e-05H397.011L0 397.021V400H0.674625Z" fill="#3B4F9A"/>
<path fill-rule="evenodd" clip-rule="evenodd" d="M0.00340725 390.874L390.879 9.15527e-05H387.213L0.00340725 387.208V390.874Z" fill="#3B4F9A"/>
<path fill-rule="evenodd" clip-rule="evenodd" d="M0.00340725 381.06L381.065 0H377.412L0.00340725 377.407V381.06Z" fill="#3B4F9A"/>
<path fill-rule="evenodd" clip-rule="evenodd" d="M0.00340725 371.259L371.264 0H367.598L0.00340725 367.593V371.259Z" fill="#3B4F9A"/>
<path fill-rule="evenodd" clip-rule="evenodd" d="M0.00340725 361.445L361.45 3.05176e-05H357.797L0.00340725 357.792V361.445Z" fill="#3B4F9A"/>
<path fill-rule="evenodd" clip-rule="evenodd" d="M0.00340725 351.644L351.649 0H347.983L0.00340725 347.99V351.644Z" fill="#3B4F9A"/>
<path fill-rule="evenodd" clip-rule="evenodd" d="M0.00340725 341.842L341.835 3.05176e-05H338.182L0.00340725 338.177V341.842Z" fill="#3B4F9A"/>
<path fill-rule="evenodd" clip-rule="evenodd" d="M0.00340725 332.029L332.034 3.05176e-05H328.368L0.00340725 328.363V332.029Z" fill="#3B4F9A"/>
<path fill-rule="evenodd" clip-rule="evenodd" d="M0.00340725 322.228L322.232 3.05176e-05H318.567L0.00340725 318.562V322.228Z" fill="#3B4F9A"/>
<path fill-rule="evenodd" clip-rule="evenodd" d="M0.00340725 312.414L312.419 3.05176e-05H308.753L0.00340725 308.761V312.414Z" fill="#3B4F9A"/>
<path fill-rule="evenodd" clip-rule="evenodd" d="M0.00340725 302.613L302.617 3.05176e-05H298.952L0.00340725 298.947V302.613Z" fill="#3B4F9A"/>
<path fill-rule="evenodd" clip-rule="evenodd" d="M0.00340725 292.799L292.804 0H289.15L0.00340725 289.146V292.799Z" fill="#3B4F9A"/>
<path fill-rule="evenodd" clip-rule="evenodd" d="M0.00340725 282.998L283.002 3.05176e-05H279.336L0.00340725 279.332V282.998Z" fill="#3B4F9A"/>
<path fill-rule="evenodd" clip-rule="evenodd" d="M0.00340725 273.197L273.188 3.05176e-05H269.535L0.00340725 269.531V273.197Z" fill="#3B4F9A"/>
<path fill-rule="evenodd" clip-rule="evenodd" d="M0.00340725 263.383L263.387 3.05176e-05H259.721L0.00340725 259.717V263.383Z" fill="#3B4F9A"/>
<path fill-rule="evenodd" clip-rule="evenodd" d="M0.00340725 253.569L253.573 3.05176e-05H249.92L0.00340725 249.916V253.569Z" fill="#3B4F9A"/>
<path fill-rule="evenodd" clip-rule="evenodd" d="M0.00340725 243.768L243.772 0H240.106L0.00340725 240.115V243.768Z" fill="#3B4F9A"/>
<path fill-rule="evenodd" clip-rule="evenodd" d="M0.00340725 233.967L233.958 3.05176e-05H230.305L0.00340725 230.301V233.967Z" fill="#3B4F9A"/>
<path fill-rule="evenodd" clip-rule="evenodd" d="M0.00340725 224.153L224.157 3.05176e-05H220.491L0.00340725 220.5V224.153Z" fill="#3B4F9A"/>
<path fill-rule="evenodd" clip-rule="evenodd" d="M0.00340725 214.352L214.356 3.05176e-05H210.69L0.00340725 210.686V214.352Z" fill="#3B4F9A"/>
<path fill-rule="evenodd" clip-rule="evenodd" d="M0.00340725 204.538L204.542 3.05176e-05H200.889L0.00340725 200.885V204.538Z" fill="#3B4F9A"/>
<path fill-rule="evenodd" clip-rule="evenodd" d="M0.00340725 194.737L194.741 3.05176e-05H191.075L0.00340725 191.071V194.737Z" fill="#3B4F9A"/>
<path fill-rule="evenodd" clip-rule="evenodd" d="M0.00340725 184.936L184.927 3.05176e-05H181.274L0.00340725 181.27V184.936Z" fill="#3B4F9A"/>
<path fill-rule="evenodd" clip-rule="evenodd" d="M0.00340725 175.122L175.126 3.05176e-05H171.46L0.00340725 171.456V175.122Z" fill="#3B4F9A"/>
<path fill-rule="evenodd" clip-rule="evenodd" d="M0.00340725 165.321L165.325 3.05176e-05H161.659L0.00340725 161.655V165.321Z" fill="#3B4F9A"/>
<path fill-rule="evenodd" clip-rule="evenodd" d="M0.00340725 155.507L155.511 3.05176e-05H151.845L0.00340725 151.841V155.507Z" fill="#3B4F9A"/>
<path fill-rule="evenodd" clip-rule="evenodd" d="M0.00340725 145.706L145.71 3.05176e-05H142.044L0.00340725 142.04V145.706Z" fill="#3B4F9A"/>
<path fill-rule="evenodd" clip-rule="evenodd" d="M0.00340725 135.892L135.896 3.05176e-05H132.243L0.00340725 132.239V135.892Z" fill="#3B4F9A"/>
<path fill-rule="evenodd" clip-rule="evenodd" d="M0.00340725 126.091L126.095 3.05176e-05H122.429L0.00340725 122.425V126.091Z" fill="#3B4F9A"/>
<path fill-rule="evenodd" clip-rule="evenodd" d="M0.00340725 116.277L116.281 3.05176e-05H112.615L0.00340725 112.624V116.277Z" fill="#3B4F9A"/>
<path fill-rule="evenodd" clip-rule="evenodd" d="M0.00340725 106.476L106.48 3.05176e-05H102.814L0.00340725 102.81V106.476Z" fill="#3B4F9A"/>
<path fill-rule="evenodd" clip-rule="evenodd" d="M0.00340725 96.6747L96.6658 3.05176e-05H93.0126L0.00340725 93.0088V96.6747Z" fill="#3B4F9A"/>
<path fill-rule="evenodd" clip-rule="evenodd" d="M0.00340725 86.8608L86.8646 3.05176e-05H83.1987L0.00340725 83.1949V86.8608Z" fill="#3B4F9A"/>
<path fill-rule="evenodd" clip-rule="evenodd" d="M0.00340725 77.0597L77.0507 3.05176e-05H73.3975L0.00340725 73.3938V77.0597Z" fill="#3B4F9A"/>
<path fill-rule="evenodd" clip-rule="evenodd" d="M0.00340725 67.2458L67.2495 3.05176e-05H63.5837L0.00340725 63.58V67.2458Z" fill="#3B4F9A"/>
<path fill-rule="evenodd" clip-rule="evenodd" d="M0.00340725 57.4447L57.4356 3.05176e-05H53.7825L0.00340725 53.7789V57.4447Z" fill="#3B4F9A"/>
<path fill-rule="evenodd" clip-rule="evenodd" d="M0.00340725 47.6309L47.6345 3.05176e-05H43.9686L0.00340725 43.9777V47.6309Z" fill="#3B4F9A"/>
<path fill-rule="evenodd" clip-rule="evenodd" d="M0.00340725 37.8298L37.8333 3.05176e-05H34.1674L0.00340725 34.1639V37.8298Z" fill="#3B4F9A"/>
<path fill-rule="evenodd" clip-rule="evenodd" d="M0.00340725 28.016L28.0194 3.05176e-05H24.3536L0.00340725 24.3628V28.016Z" fill="#3B4F9A"/>
<path fill-rule="evenodd" clip-rule="evenodd" d="M0.00340725 18.2148L18.2183 3.05176e-05H14.5524L0.00340725 14.5489V18.2148Z" fill="#3B4F9A"/>
<path fill-rule="evenodd" clip-rule="evenodd" d="M0.00340725 8.40097L8.4044 3.05176e-05H4.73851L0.00340725 4.74783V8.40097Z" fill="#3B4F9A"/>
<path fill-rule="evenodd" clip-rule="evenodd" d="M2000 400V397.671L1997.67 400H2000Z" fill="#3B4F9A"/>
<path fill-rule="evenodd" clip-rule="evenodd" d="M1991.52 400L2000 391.523V387.857L1987.86 400H1991.52Z" fill="#3B4F9A"/>
<path fill-rule="evenodd" clip-rule="evenodd" d="M1981.71 400L2000 381.709V378.056L1978.06 400H1981.71Z" fill="#3B4F9A"/>
<path fill-rule="evenodd" clip-rule="evenodd" d="M1971.91 400L2000 371.908V368.242L1968.24 400H1971.91Z" fill="#3B4F9A"/>
<path fill-rule="evenodd" clip-rule="evenodd" d="M1962.09 400L2000 362.094V358.441L1958.44 400H1962.09Z" fill="#3B4F9A"/>
<path fill-rule="evenodd" clip-rule="evenodd" d="M1952.29 400L2000 352.293V348.627L1948.63 400H1952.29Z" fill="#3B4F9A"/>
<path fill-rule="evenodd" clip-rule="evenodd" d="M1942.49 400L2000 342.492V338.826L1938.83 400H1942.49Z" fill="#3B4F9A"/>
<path fill-rule="evenodd" clip-rule="evenodd" d="M1932.68 400L2000 332.678V329.025L1929.02 400H1932.68Z" fill="#3B4F9A"/>
<path fill-rule="evenodd" clip-rule="evenodd" d="M1922.88 400L2000 322.877V319.211L1919.21 400H1922.88Z" fill="#3B4F9A"/>
<path fill-rule="evenodd" clip-rule="evenodd" d="M1913.06 400L2000 313.063V309.41L1909.41 400H1913.06Z" fill="#3B4F9A"/>
<path fill-rule="evenodd" clip-rule="evenodd" d="M1903.26 400L2000 303.262V299.596L1899.6 400H1903.26Z" fill="#3B4F9A"/>
<path fill-rule="evenodd" clip-rule="evenodd" d="M1893.46 400L2000 293.448V289.795L1889.79 400H1893.46Z" fill="#3B4F9A"/>
<path fill-rule="evenodd" clip-rule="evenodd" d="M1883.65 400L2000 283.647V279.981L1879.98 400H1883.65Z" fill="#3B4F9A"/>
<path fill-rule="evenodd" clip-rule="evenodd" d="M1873.85 400L2000 273.833V270.18L1870.18 400H1873.85Z" fill="#3B4F9A"/>
<path fill-rule="evenodd" clip-rule="evenodd" d="M1864.03 400L2000 264.032V260.366L1860.38 400H1864.03Z" fill="#3B4F9A"/>
<path fill-rule="evenodd" clip-rule="evenodd" d="M1854.23 400L2000 254.231V250.565L1850.56 400H1854.23Z" fill="#3B4F9A"/>
<path fill-rule="evenodd" clip-rule="evenodd" d="M1844.42 400L2000 244.417V240.764L1840.76 400H1844.42Z" fill="#3B4F9A"/>
<path fill-rule="evenodd" clip-rule="evenodd" d="M1834.61 400L2000 234.616V230.95L1830.95 400H1834.61Z" fill="#3B4F9A"/>
<path fill-rule="evenodd" clip-rule="evenodd" d="M1824.81 400L2000 224.802V221.149L1821.15 400H1824.81Z" fill="#3B4F9A"/>
<path fill-rule="evenodd" clip-rule="evenodd" d="M1815 400L2000 215.001V211.335L1811.33 400H1815Z" fill="#3B4F9A"/>
<path fill-rule="evenodd" clip-rule="evenodd" d="M1805.2 400L2000 205.2V201.534L1801.53 400H1805.2Z" fill="#3B4F9A"/>
<path fill-rule="evenodd" clip-rule="evenodd" d="M1795.38 400L2000 195.386V191.733L1791.73 400H1795.38Z" fill="#3B4F9A"/>
<path fill-rule="evenodd" clip-rule="evenodd" d="M1785.58 400L2000 185.585V181.919L1781.92 400H1785.58Z" fill="#3B4F9A"/>
<path fill-rule="evenodd" clip-rule="evenodd" d="M1775.77 400L2000 175.771V172.105L1772.12 400H1775.77Z" fill="#3B4F9A"/>
<path fill-rule="evenodd" clip-rule="evenodd" d="M1765.97 400L2000 165.97V162.304L1762.3 400H1765.97Z" fill="#3B4F9A"/>
<path fill-rule="evenodd" clip-rule="evenodd" d="M1756.15 400L2000 156.156V152.503L1752.5 400H1756.15Z" fill="#3B4F9A"/>
<path fill-rule="evenodd" clip-rule="evenodd" d="M1746.35 400L2000 146.355V142.689L1742.69 400H1746.35Z" fill="#3B4F9A"/>
<path fill-rule="evenodd" clip-rule="evenodd" d="M1736.55 400L2000 136.541V132.888L1732.89 400H1736.55Z" fill="#3B4F9A"/>
<path fill-rule="evenodd" clip-rule="evenodd" d="M1726.74 400L2000 126.74V123.074L1723.09 400H1726.74Z" fill="#3B4F9A"/>
<path fill-rule="evenodd" clip-rule="evenodd" d="M1716.94 400L2000 116.939V113.273L1713.27 400H1716.94Z" fill="#3B4F9A"/>
<path fill-rule="evenodd" clip-rule="evenodd" d="M1707.12 400L2000 107.125V103.459L1703.47 400H1707.12Z" fill="#3B4F9A"/>
<path fill-rule="evenodd" clip-rule="evenodd" d="M1697.32 400L2000 97.3238V93.6579L1693.66 400H1697.32Z" fill="#3B4F9A"/>
<path fill-rule="evenodd" clip-rule="evenodd" d="M1687.51 400L2000 87.5099V83.8568L1683.86 400H1687.51Z" fill="#3B4F9A"/>
<path fill-rule="evenodd" clip-rule="evenodd" d="M1677.71 400L2000 77.7089V74.043L1674.04 400H1677.71Z" fill="#3B4F9A"/>
<path fill-rule="evenodd" clip-rule="evenodd" d="M1667.91 400L2000 67.895V64.2419L1664.24 400H1667.91Z" fill="#3B4F9A"/>
<path fill-rule="evenodd" clip-rule="evenodd" d="M1658.09 400L2000 58.0939V54.428L1654.43 400H1658.09Z" fill="#3B4F9A"/>
<path fill-rule="evenodd" clip-rule="evenodd" d="M1648.29 400L2000 48.2928V44.6269L1644.63 400H1648.29Z" fill="#3B4F9A"/>
<path fill-rule="evenodd" clip-rule="evenodd" d="M1638.48 400L2000 38.4789V34.8131L1634.82 400H1638.48Z" fill="#3B4F9A"/>
<path fill-rule="evenodd" clip-rule="evenodd" d="M1628.68 400L2000 28.6778V25.0119L1625.01 400H1628.68Z" fill="#3B4F9A"/>
<path fill-rule="evenodd" clip-rule="evenodd" d="M1618.86 400L2000 18.864V15.2108L1615.21 400H1618.86Z" fill="#3B4F9A"/>
<path fill-rule="evenodd" clip-rule="evenodd" d="M1609.06 400L2000 9.06284V5.397L1605.4 400H1609.06Z" fill="#3B4F9A"/>
<path fill-rule="evenodd" clip-rule="evenodd" d="M1599.25 400L1999.25 3.05176e-05H1995.6L1595.59 400H1599.25Z" fill="#3B4F9A"/>
<path fill-rule="evenodd" clip-rule="evenodd" d="M1589.45 400L1989.45 3.05176e-05H1985.78L1585.78 400H1589.45Z" fill="#3B4F9A"/>
<path fill-rule="evenodd" clip-rule="evenodd" d="M1579.63 400L1979.63 3.05176e-05H1975.98L1575.98 400H1579.63Z" fill="#3B4F9A"/>
<path fill-rule="evenodd" clip-rule="evenodd" d="M1569.83 400L1969.83 3.05176e-05H1966.17L1566.17 400H1569.83Z" fill="#3B4F9A"/>
<path fill-rule="evenodd" clip-rule="evenodd" d="M1560.03 400L1960.03 3.05176e-05H1956.37L1556.36 400H1560.03Z" fill="#3B4F9A"/>
<path fill-rule="evenodd" clip-rule="evenodd" d="M1550.22 400L1950.22 3.05176e-05H1946.55L1546.56 400H1550.22Z" fill="#3B4F9A"/>
<path fill-rule="evenodd" clip-rule="evenodd" d="M1540.41 400L1940.42 3.05176e-05H1936.75L1536.75 400H1540.41Z" fill="#3B4F9A"/>
<path fill-rule="evenodd" clip-rule="evenodd" d="M1530.6 400L1930.6 3.05176e-05H1926.95L1526.95 400H1530.6Z" fill="#3B4F9A"/>
<path fill-rule="evenodd" clip-rule="evenodd" d="M1520.8 400L1920.8 3.05176e-05H1917.14L1517.13 400H1520.8Z" fill="#3B4F9A"/>
<path fill-rule="evenodd" clip-rule="evenodd" d="M1510.99 400L1910.99 3.05176e-05H1907.33L1507.33 400H1510.99Z" fill="#3B4F9A"/>
<path fill-rule="evenodd" clip-rule="evenodd" d="M1501.18 400L1901.19 3.05176e-05H1897.52L1497.52 400H1501.18Z" fill="#3B4F9A"/>
<path fill-rule="evenodd" clip-rule="evenodd" d="M1491.37 400L1891.37 3.05176e-05H1887.72L1487.72 400H1491.37Z" fill="#3B4F9A"/>
<path fill-rule="evenodd" clip-rule="evenodd" d="M1481.57 400L1881.57 3.05176e-05H1877.91L1477.9 400H1481.57Z" fill="#3B4F9A"/>
<path fill-rule="evenodd" clip-rule="evenodd" d="M1471.77 400L1871.76 3.05176e-05H1868.1L1468.1 400H1471.77Z" fill="#3B4F9A"/>
<path fill-rule="evenodd" clip-rule="evenodd" d="M1461.95 400L1861.96 3.05176e-05H1858.29L1458.29 400H1461.95Z" fill="#3B4F9A"/>
<path fill-rule="evenodd" clip-rule="evenodd" d="M1452.15 400L1852.16 3.05176e-05H1848.49L1448.49 400H1452.15Z" fill="#3B4F9A"/>
<path fill-rule="evenodd" clip-rule="evenodd" d="M1442.34 400L1842.34 3.05176e-05H1838.68L1438.69 400H1442.34Z" fill="#3B4F9A"/>
<path fill-rule="evenodd" clip-rule="evenodd" d="M1432.54 400L1832.54 3.05176e-05H1828.87L1428.87 400H1432.54Z" fill="#3B4F9A"/>
<path fill-rule="evenodd" clip-rule="evenodd" d="M1422.72 400L1822.73 3.05176e-05H1819.06L1419.07 400H1422.72Z" fill="#3B4F9A"/>
<path fill-rule="evenodd" clip-rule="evenodd" d="M1412.92 400L1812.93 3.05176e-05H1809.26L1409.26 400H1412.92Z" fill="#3B4F9A"/>
<path fill-rule="evenodd" clip-rule="evenodd" d="M1403.11 400L1803.11 3.05176e-05H1799.45L1399.46 400H1403.11Z" fill="#3B4F9A"/>
<path fill-rule="evenodd" clip-rule="evenodd" d="M1393.31 400L1793.31 3.05176e-05H1789.64L1389.64 400H1393.31Z" fill="#3B4F9A"/>
<path fill-rule="evenodd" clip-rule="evenodd" d="M1383.49 400L1783.5 3.05176e-05H1779.84L1379.84 400H1383.49Z" fill="#3B4F9A"/>
<path fill-rule="evenodd" clip-rule="evenodd" d="M1373.69 400L1773.69 3.05176e-05H1770.03L1370.03 400H1373.69Z" fill="#3B4F9A"/>
<path fill-rule="evenodd" clip-rule="evenodd" d="M1363.88 400L1763.88 3.05176e-05H1760.22L1360.23 400H1363.88Z" fill="#3B4F9A"/>
<path fill-rule="evenodd" clip-rule="evenodd" d="M1354.08 400L1754.08 3.05176e-05H1750.41L1350.41 400H1354.08Z" fill="#3B4F9A"/>
<path fill-rule="evenodd" clip-rule="evenodd" d="M1344.26 400L1744.27 3.05176e-05H1740.6L1340.61 400H1344.26Z" fill="#3B4F9A"/>
<path fill-rule="evenodd" clip-rule="evenodd" d="M1334.46 400L1734.46 3.05176e-05H1730.8L1330.8 400H1334.46Z" fill="#3B4F9A"/>
<path fill-rule="evenodd" clip-rule="evenodd" d="M1324.65 400L1724.65 3.05176e-05H1720.99L1321 400H1324.65Z" fill="#3B4F9A"/>
<path fill-rule="evenodd" clip-rule="evenodd" d="M1314.85 400L1714.85 3.05176e-05H1711.18L1311.18 400H1314.85Z" fill="#3B4F9A"/>
<path fill-rule="evenodd" clip-rule="evenodd" d="M1305.03 400L1705.04 3.05176e-05H1701.38L1301.38 400H1305.03Z" fill="#3B4F9A"/>
<path fill-rule="evenodd" clip-rule="evenodd" d="M1295.23 400L1695.23 3.05176e-05H1691.57L1291.57 400H1295.23Z" fill="#3B4F9A"/>
<path fill-rule="evenodd" clip-rule="evenodd" d="M1285.42 400L1685.42 3.05176e-05H1681.77L1281.77 400H1285.42Z" fill="#3B4F9A"/>
<path fill-rule="evenodd" clip-rule="evenodd" d="M1275.62 400L1675.62 3.05176e-05H1671.95L1271.95 400H1275.62Z" fill="#3B4F9A"/>
<path fill-rule="evenodd" clip-rule="evenodd" d="M1265.8 400L1665.81 3.05176e-05H1662.15L1262.15 400H1265.8Z" fill="#3B4F9A"/>
<path fill-rule="evenodd" clip-rule="evenodd" d="M1256 400L1656 3.05176e-05H1652.34L1252.34 400H1256Z" fill="#3B4F9A"/>
<path fill-rule="evenodd" clip-rule="evenodd" d="M1246.2 400L1646.19 3.05176e-05H1642.54L1242.54 400H1246.2Z" fill="#3B4F9A"/>
<path fill-rule="evenodd" clip-rule="evenodd" d="M1236.39 400L1636.39 3.05176e-05H1632.72L1232.72 400H1236.39Z" fill="#3B4F9A"/>
<path fill-rule="evenodd" clip-rule="evenodd" d="M1226.59 400L1626.58 3.05176e-05H1622.92L1222.92 400H1226.59Z" fill="#3B4F9A"/>
<path fill-rule="evenodd" clip-rule="evenodd" d="M1216.77 400L1616.77 3.05176e-05H1613.11L1213.11 400H1216.77Z" fill="#3B4F9A"/>
<path fill-rule="evenodd" clip-rule="evenodd" d="M1206.97 400L1606.97 3.05176e-05H1603.31L1203.31 400H1206.97Z" fill="#3B4F9A"/>
<path fill-rule="evenodd" clip-rule="evenodd" d="M1197.16 400L1597.16 3.05176e-05H1593.49L1193.5 400H1197.16Z" fill="#3B4F9A"/>
<path fill-rule="evenodd" clip-rule="evenodd" d="M1187.36 400L1587.36 3.05176e-05H1583.69L1183.69 400H1187.36Z" fill="#3B4F9A"/>
<path fill-rule="evenodd" clip-rule="evenodd" d="M1177.54 400L1577.54 3.05176e-05H1573.89L1173.89 400H1177.54Z" fill="#3B4F9A"/>
<path fill-rule="evenodd" clip-rule="evenodd" d="M1167.74 400L1567.74 3.05176e-05H1564.08L1164.08 400H1167.74Z" fill="#3B4F9A"/>
<path fill-rule="evenodd" clip-rule="evenodd" d="M1157.94 400L1557.93 3.05176e-05H1554.28L1154.27 400H1157.94Z" fill="#3B4F9A"/>
<path fill-rule="evenodd" clip-rule="evenodd" d="M1148.13 400L1548.13 3.05176e-05H1544.46L1144.46 400H1148.13Z" fill="#3B4F9A"/>
<path fill-rule="evenodd" clip-rule="evenodd" d="M1138.31 400L1538.31 3.05176e-05H1534.66L1134.66 400H1138.31Z" fill="#3B4F9A"/>
<path fill-rule="evenodd" clip-rule="evenodd" d="M1128.51 400L1528.51 3.05176e-05H1524.85L1124.85 400H1128.51Z" fill="#3B4F9A"/>
<path fill-rule="evenodd" clip-rule="evenodd" d="M1118.7 400L1518.7 3.05176e-05H1515.05L1115.04 400H1118.7Z" fill="#3B4F9A"/>
<path fill-rule="evenodd" clip-rule="evenodd" d="M1108.9 400L1508.9 3.05176e-05H1505.23L1105.23 400H1108.9Z" fill="#3B4F9A"/>
<path fill-rule="evenodd" clip-rule="evenodd" d="M1099.1 400L1499.08 3.05176e-05H1495.43L1095.43 400H1099.1Z" fill="#3B4F9A"/>
<path fill-rule="evenodd" clip-rule="evenodd" d="M1089.28 400L1489.28 3.05176e-05H1485.62L1085.62 400H1089.28Z" fill="#3B4F9A"/>
<path fill-rule="evenodd" clip-rule="evenodd" d="M1079.48 400L1479.47 3.05176e-05H1475.82L1075.81 400H1079.48Z" fill="#3B4F9A"/>
<path fill-rule="evenodd" clip-rule="evenodd" d="M1069.67 400L1469.67 3.05176e-05H1466L1066 400H1069.67Z" fill="#3B4F9A"/>
<path fill-rule="evenodd" clip-rule="evenodd" d="M1059.87 400L1459.85 3.05176e-05H1456.2L1056.2 400H1059.87Z" fill="#3B4F9A"/>
<path fill-rule="evenodd" clip-rule="evenodd" d="M1050.05 400L1450.05 3.05176e-05H1446.39L1046.39 400H1050.05Z" fill="#3B4F9A"/>
<path fill-rule="evenodd" clip-rule="evenodd" d="M1040.25 400L1440.25 3.05176e-05H1436.59L1036.58 400H1040.25Z" fill="#3B4F9A"/>
<path fill-rule="evenodd" clip-rule="evenodd" d="M1030.44 400L1430.44 3.05176e-05H1426.77L1026.77 400H1030.44Z" fill="#3B4F9A"/>
<path fill-rule="evenodd" clip-rule="evenodd" d="M1020.62 400L1420.62 3.05176e-05H1416.97L1016.97 400H1020.62Z" fill="#3B4F9A"/>
<path fill-rule="evenodd" clip-rule="evenodd" d="M1010.82 400L1410.82 3.05176e-05H1407.16L1007.16 400H1010.82Z" fill="#3B4F9A"/>
<path fill-rule="evenodd" clip-rule="evenodd" d="M1001.02 400L1401.01 3.05176e-05H1397.36L997.354 400H1001.02Z" fill="#3B4F9A"/>
<path fill-rule="evenodd" clip-rule="evenodd" d="M991.206 400L1391.21 3.05176e-05H1387.54L987.54 400H991.206Z" fill="#3B4F9A"/>
<path fill-rule="evenodd" clip-rule="evenodd" d="M981.405 400L1381.39 3.05176e-05H1377.74L977.739 400H981.405Z" fill="#3B4F9A"/>
<path fill-rule="evenodd" clip-rule="evenodd" d="M971.591 400L1371.59 3.05176e-05H1367.93L967.925 400H971.591Z" fill="#3B4F9A"/>
<path fill-rule="evenodd" clip-rule="evenodd" d="M961.79 400L1361.78 3.05176e-05H1358.13L958.124 400H961.79Z" fill="#3B4F9A"/>
<path fill-rule="evenodd" clip-rule="evenodd" d="M951.976 400L1351.98 3.05176e-05H1348.31L948.31 400H951.976Z" fill="#3B4F9A"/>
<path fill-rule="evenodd" clip-rule="evenodd" d="M942.175 400L1342.18 3.05176e-05H1338.51L938.509 400H942.175Z" fill="#3B4F9A"/>
<path fill-rule="evenodd" clip-rule="evenodd" d="M932.361 400L1332.36 3.05176e-05H1328.7L928.695 400H932.361Z" fill="#3B4F9A"/>
<path fill-rule="evenodd" clip-rule="evenodd" d="M922.56 400L1322.55 3.05176e-05H1318.9L918.894 400H922.56Z" fill="#3B4F9A"/>
<path fill-rule="evenodd" clip-rule="evenodd" d="M912.746 400L1312.75 3.05176e-05H1309.08L909.08 400H912.746Z" fill="#3B4F9A"/>
<path fill-rule="evenodd" clip-rule="evenodd" d="M902.945 400L1302.93 3.05176e-05H1299.28L899.279 400H902.945Z" fill="#3B4F9A"/>
<path fill-rule="evenodd" clip-rule="evenodd" d="M893.131 400L1293.13 3.05176e-05H1289.47L889.465 400H893.131Z" fill="#3B4F9A"/>
<path fill-rule="evenodd" clip-rule="evenodd" d="M883.33 400L1283.32 3.05176e-05H1279.67L879.664 400H883.33Z" fill="#3B4F9A"/>
<path fill-rule="evenodd" clip-rule="evenodd" d="M873.516 400L1273.52 3.05176e-05H1269.85L869.85 400H873.516Z" fill="#3B4F9A"/>
<path fill-rule="evenodd" clip-rule="evenodd" d="M863.715 400L1263.7 3.05176e-05H1260.05L860.049 400H863.715Z" fill="#3B4F9A"/>
<path fill-rule="evenodd" clip-rule="evenodd" d="M853.901 400L1253.9 3.05176e-05H1250.24L850.235 400H853.901Z" fill="#3B4F9A"/>
<path fill-rule="evenodd" clip-rule="evenodd" d="M844.1 400L1244.1 3.05176e-05H1240.44L840.434 400H844.1Z" fill="#3B4F9A"/>
<path fill-rule="evenodd" clip-rule="evenodd" d="M834.286 400L1234.29 3.05176e-05H1230.62L830.62 400H834.286Z" fill="#3B4F9A"/>
<path fill-rule="evenodd" clip-rule="evenodd" d="M824.485 400L1224.49 3.05176e-05H1220.82L820.819 400H824.485Z" fill="#3B4F9A"/>
<path fill-rule="evenodd" clip-rule="evenodd" d="M814.671 400L1214.67 3.05176e-05H1211.01L811.018 400H814.671Z" fill="#3B4F9A"/>
<path fill-rule="evenodd" clip-rule="evenodd" d="M804.87 400L1204.86 3.05176e-05H1201.21L801.204 400H804.87Z" fill="#3B4F9A"/>
<path fill-rule="evenodd" clip-rule="evenodd" d="M795.056 400L1195.06 3.05176e-05H1191.39L791.39 400H795.056Z" fill="#3B4F9A"/>
<path fill-rule="evenodd" clip-rule="evenodd" d="M785.254 400L1185.24 3.05176e-05H1181.59L781.589 400H785.254Z" fill="#3B4F9A"/>
<path fill-rule="evenodd" clip-rule="evenodd" d="M775.441 400L1175.44 3.05176e-05H1171.78L771.775 400H775.441Z" fill="#3B4F9A"/>
<path fill-rule="evenodd" clip-rule="evenodd" d="M765.639 400L1165.63 3.05176e-05H1161.98L761.973 400H765.639Z" fill="#3B4F9A"/>
<path fill-rule="evenodd" clip-rule="evenodd" d="M755.826 400L1155.83 3.05176e-05H1152.16L752.16 400H755.826Z" fill="#3B4F9A"/>
<path fill-rule="evenodd" clip-rule="evenodd" d="M746.024 400L1146.03 3.05176e-05H1142.36L742.359 400H746.024Z" fill="#3B4F9A"/>
<path fill-rule="evenodd" clip-rule="evenodd" d="M736.21 400L1136.21 3.05176e-05H1132.55L732.545 400H736.21Z" fill="#3B4F9A"/>
<path fill-rule="evenodd" clip-rule="evenodd" d="M726.409 400L1126.41 3.05176e-05H1122.75L722.743 400H726.409Z" fill="#3B4F9A"/>
<path fill-rule="evenodd" clip-rule="evenodd" d="M716.595 400L1116.6 3.05176e-05H1112.93L712.942 400H716.595Z" fill="#3B4F9A"/>
<path fill-rule="evenodd" clip-rule="evenodd" d="M706.794 400L1106.8 3.05176e-05H1103.13L703.128 400H706.794Z" fill="#3B4F9A"/>
<path fill-rule="evenodd" clip-rule="evenodd" d="M696.98 400L1096.98 3.05176e-05H1093.32L693.327 400H696.98Z" fill="#3B4F9A"/>
<path fill-rule="evenodd" clip-rule="evenodd" d="M687.179 400L1087.18 3.05176e-05H1083.52L683.513 400H687.179Z" fill="#3B4F9A"/>
<path fill-rule="evenodd" clip-rule="evenodd" d="M677.365 400L1077.37 3.05176e-05H1073.7L673.699 400H677.365Z" fill="#3B4F9A"/>
<path fill-rule="evenodd" clip-rule="evenodd" d="M667.564 400L1067.57 3.05176e-05H1063.9L663.898 400H667.564Z" fill="#3B4F9A"/>
<path fill-rule="evenodd" clip-rule="evenodd" d="M657.75 400L1057.75 3.05176e-05H1054.09L654.097 400H657.75Z" fill="#3B4F9A"/>
<path fill-rule="evenodd" clip-rule="evenodd" d="M647.949 400L1047.95 3.05176e-05H1044.29L644.283 400H647.949Z" fill="#3B4F9A"/>
<path fill-rule="evenodd" clip-rule="evenodd" d="M638.135 400L1038.14 3.05176e-05H1034.47L634.482 400H638.135Z" fill="#3B4F9A"/>
<path fill-rule="evenodd" clip-rule="evenodd" d="M628.334 400L1028.34 3.05176e-05H1024.67L624.668 400H628.334Z" fill="#3B4F9A"/>
<path fill-rule="evenodd" clip-rule="evenodd" d="M618.52 400L1018.52 3.05176e-05H1014.86L614.867 400H618.52Z" fill="#3B4F9A"/>
<path fill-rule="evenodd" clip-rule="evenodd" d="M608.719 400L1008.72 3.05176e-05H1005.06L605.053 400H608.719Z" fill="#3B4F9A"/>
<path fill-rule="evenodd" clip-rule="evenodd" d="M598.905 400L998.907 3.05176e-05H995.254L595.252 400H598.905Z" fill="#3B4F9A"/>
<path fill-rule="evenodd" clip-rule="evenodd" d="M589.104 400L989.106 3.05176e-05H985.44L585.438 400H589.104Z" fill="#3B4F9A"/>
<path fill-rule="evenodd" clip-rule="evenodd" d="M579.29 400L979.292 3.05176e-05H975.639L575.637 400H579.29Z" fill="#3B4F9A"/>
<path fill-rule="evenodd" clip-rule="evenodd" d="M569.489 400L969.491 3.05176e-05H965.825L565.823 400H569.489Z" fill="#3B4F9A"/>
<path fill-rule="evenodd" clip-rule="evenodd" d="M559.675 400L959.677 3.05176e-05H956.024L556.022 400H559.675Z" fill="#3B4F9A"/>
<path fill-rule="evenodd" clip-rule="evenodd" d="M549.874 400L949.876 3.05176e-05H946.21L546.208 400H549.874Z" fill="#3B4F9A"/>
<path fill-rule="evenodd" clip-rule="evenodd" d="M540.06 400L940.062 3.05176e-05H936.409L536.407 400H540.06Z" fill="#3B4F9A"/>
<path fill-rule="evenodd" clip-rule="evenodd" d="M530.259 400L930.261 3.05176e-05H926.595L526.593 400H530.259Z" fill="#3B4F9A"/>
<path fill-rule="evenodd" clip-rule="evenodd" d="M520.445 400L920.447 3.05176e-05H916.794L516.792 400H520.445Z" fill="#3B4F9A"/>
<path fill-rule="evenodd" clip-rule="evenodd" d="M510.644 400L910.646 3.05176e-05H906.98L506.978 400H510.644Z" fill="#3B4F9A"/>
<path fill-rule="evenodd" clip-rule="evenodd" d="M500.83 400L900.832 3.05176e-05H897.179L497.177 400H500.83Z" fill="#3B4F9A"/>
</g>
</svg>
