<svg width="57" height="61" viewBox="0 0 57 61" fill="none" xmlns="http://www.w3.org/2000/svg">
<path fill-rule="evenodd" clip-rule="evenodd" d="M1.9026 21.3711C1.24761 21.3163 0.647196 21.3867 0 21.4806C0.343092 22.4115 0.764159 23.0686 1.52832 23.71C2.27688 24.2967 3.08003 24.6878 3.95335 25.0555C3.36074 25.0085 2.77592 25.0242 2.18331 25.1024C1.50492 25.2197 0.920109 25.4544 0.335294 25.7986C0.818741 26.5183 1.49713 26.9485 2.15992 27.3944C2.56539 27.6682 4.21847 28.0515 4.21067 28.0515C3.08003 28.2862 2.16772 28.8963 1.29439 29.6238C1.95718 30.054 2.63557 30.3982 3.39973 30.6016C3.38413 30.6642 3.36854 30.7033 3.39193 30.7659C3.35294 30.7424 3.28276 30.7424 3.24378 30.7659L3.18919 30.6407L3.1658 30.6486L3.158 30.6251L3.02544 30.6877L3.03324 30.7111L3.00985 30.719L3.06443 30.8441C3.02544 30.8598 2.97866 30.9067 2.96306 30.9536C2.94747 31.0162 2.97086 31.071 3.00985 31.1179C3.03324 31.1414 3.06443 31.1648 3.07223 31.1883C3.00205 31.2118 2.91628 31.204 2.8539 31.1727C2.86949 31.1492 2.87729 31.1101 2.8539 31.0944C2.8539 31.0631 2.8383 31.024 2.8383 30.9849C2.82271 30.8832 2.8383 30.7659 2.76813 30.6798C2.72914 30.6407 2.67456 30.6094 2.61997 30.6094C2.54979 30.6094 2.48741 30.6329 2.43283 30.6564C2.43283 30.6486 2.42503 30.6329 2.41724 30.6251L2.45622 30.6094C2.37045 30.4139 2.36265 30.4061 2.16772 30.4921L2.18331 30.5312L2.14432 30.5469L2.2145 30.7111L2.24569 30.7033C2.24569 30.7111 2.25349 30.719 2.25349 30.7268L2.19111 30.7502L2.15212 30.7737C2.09754 30.8128 2.05855 30.8598 2.04295 30.9302C2.03516 30.9927 2.05075 31.0475 2.08974 31.0944C2.13653 31.157 2.2145 31.204 2.24569 31.2822C2.26908 31.3213 2.30027 31.3761 2.35486 31.3839C2.33146 31.4621 2.28468 31.5169 2.2223 31.5638C2.19111 31.4621 2.2223 31.3369 2.08194 31.2978C2.04295 31.29 2.00397 31.2978 1.96498 31.3135L1.95718 31.2822L1.9104 31.1805L1.887 31.1883L1.87921 31.1648L1.74665 31.2274L1.75445 31.2509L1.73105 31.2587L1.78564 31.3839H1.77784C1.73885 31.4152 1.69986 31.4465 1.68427 31.4934C1.66088 31.4465 1.49713 31.3369 1.43475 31.3291C1.28659 31.3526 1.31778 31.5012 1.29439 31.5951C1.271 31.642 1.24761 31.6733 1.20082 31.7046C1.16183 31.7281 1.14624 31.7515 1.13064 31.7906C1.10725 31.861 1.13064 31.9314 1.18523 31.9706C1.15404 31.994 1.13064 32.0253 1.13064 32.0644C1.00588 31.9549 0.896717 31.8298 0.787551 31.7046C0.725171 31.8689 0.670588 31.994 0.764159 32.1818L0.693981 32.1427C0.678386 32.2678 0.670588 32.3539 0.725171 32.4712C0.740766 32.5025 0.881122 32.6355 0.881122 32.6355C0.810944 32.6511 0.756361 32.6824 0.693981 32.7137C0.771956 32.8154 0.818741 32.878 0.943502 32.9327C0.873324 32.9562 0.818741 32.9953 0.756361 33.0344C0.849931 33.1361 0.912312 33.1909 1.06826 33.2143C1.01368 33.2534 0.974692 33.3082 0.927907 33.363C1.02148 33.4255 1.09945 33.4647 1.22421 33.4568C1.18523 33.5116 1.15404 33.5742 1.12285 33.6368C1.18523 33.6446 1.24761 33.6602 1.30999 33.6602L1.30219 33.6759L1.31778 33.6915C1.30999 33.6993 1.31778 33.715 1.31778 33.7228L1.29439 33.7463L1.30219 33.7541C1.29439 33.7541 1.2788 33.7619 1.2788 33.7776C1.2788 33.7854 1.2788 33.7932 1.28659 33.801C1.28659 33.8088 1.2788 33.8167 1.2788 33.8245L1.24761 33.8088C1.24761 33.8245 1.24761 33.848 1.2554 33.8636C1.2632 33.8792 1.2632 33.8949 1.2788 33.9027L1.271 33.9184C1.2788 33.9262 1.28659 33.9262 1.29439 33.934L1.28659 33.9497C1.29439 33.9575 1.30999 33.9575 1.31778 33.9575V33.9731C1.32558 33.9731 1.33338 33.9731 1.34897 33.9731V33.9888C1.35677 33.9888 1.36457 33.9809 1.37237 33.9809L1.38016 33.9888H1.39576L1.40356 33.9966C1.41135 33.9966 1.41135 33.9966 1.41915 33.9966L1.47373 34.0122L1.46594 34.0279L1.48933 34.0201C1.49713 34.0201 1.49713 34.0201 1.49713 34.0279C1.50492 34.0357 1.51272 34.0357 1.51272 34.0357C1.52052 34.0357 1.53611 34.0357 1.54391 34.0357C1.55171 34.0435 1.5673 34.0357 1.5751 34.0279L1.5829 34.0357L1.5907 34.0279L1.60629 34.0357C1.61409 34.067 1.63748 34.0826 1.66088 34.0826L2.2223 34.5833V34.6067L2.18331 34.638L2.28468 34.6693C2.30027 34.6771 2.36265 34.7397 2.37825 34.7554C2.38605 34.7554 2.40944 34.7632 2.41724 34.771C2.39384 34.8023 2.37825 34.818 2.38605 34.8571C2.40164 34.904 2.42503 34.9509 2.47962 34.9509V34.9588C2.48741 35.0213 2.57319 35.0292 2.57319 35.0292C2.59658 35.0996 2.65116 35.0839 2.70575 35.0761C2.72914 35.0917 2.76033 35.0917 2.78372 35.1074C2.79932 35.1543 2.8383 35.1934 2.90068 35.1856C2.93187 35.2091 2.97866 35.2013 3.00205 35.1778C3.03324 35.1387 3.03324 35.0917 2.98646 35.0604C2.97866 35.0213 2.95527 34.99 2.91628 34.9822C2.90848 34.9666 2.90068 34.9431 2.88509 34.9275C2.91628 34.8884 2.91628 34.8414 2.94747 34.8101C3.00205 34.7475 3.07223 34.7006 3.13461 34.6537C3.11122 34.7084 3.13461 34.8023 3.1814 34.8414C3.12681 34.9431 3.21258 35.0057 3.24378 35.0917L3.1658 35.2169C3.25157 35.2013 3.37633 35.1934 3.43092 35.1074C3.52449 35.1543 3.61806 35.1387 3.69603 35.0683C3.7896 35.1387 3.90657 35.123 4.00014 35.0683C3.72722 35.3421 3.76621 35.8818 4.41341 36.1791C4.32763 36.2573 4.28865 36.3433 4.28085 36.4607C4.30424 36.6171 4.39781 36.7345 4.54596 36.7736L8.56949 45.5895C8.46813 45.6834 8.42914 45.7851 8.42134 45.9181C8.46033 46.0511 8.5461 46.1528 8.66306 46.2153L8.39795 46.2936C8.51491 46.3952 8.63187 46.4969 8.74104 46.6065C8.90479 46.802 8.89699 46.9819 8.95157 47.2166C8.99836 47.3887 9.15431 47.6938 9.37264 47.7016C9.32585 47.8033 9.29466 47.991 9.38044 48.0771C9.46621 48.1866 9.52079 48.2335 9.65335 48.2648C9.75472 48.4995 9.85609 48.7342 9.95745 48.9689C9.71573 49.1018 9.46621 49.227 9.22449 49.36C9.09193 49.4304 9.02175 49.5086 8.98276 49.6494C8.94377 49.978 8.96717 50.2048 9.13871 50.4551C9.34925 50.5412 9.55198 50.635 9.73912 50.7524C9.65335 50.8228 9.62216 50.8932 9.59877 50.9949C9.55978 51.253 9.55198 51.5268 9.77031 51.7067C9.94966 51.8241 10.1524 51.871 10.3551 51.9336C10.3473 52.0587 10.3395 52.1839 10.3317 52.3091C10.3161 52.5516 10.3083 52.7315 10.5657 52.8332C10.8542 52.8957 11.1349 52.9505 11.4234 53.0209C11.5092 53.2634 11.938 53.545 11.9302 53.545C12.055 53.7015 12.2187 53.9518 12.4293 53.9987C12.2889 54.2021 12.2577 54.429 12.3201 54.6636C12.3747 54.8123 12.4527 54.9218 12.5696 55.0235C12.7178 55.133 12.8815 55.1877 13.0687 55.1799C13.0531 55.3677 13.1544 55.5085 13.3182 55.5945C13.4508 55.6336 13.5677 55.618 13.6925 55.5476C13.8484 55.4146 13.8952 55.2581 13.8328 55.0626C13.7782 54.9374 13.7159 54.9218 13.6457 54.8436C13.8016 54.5698 13.7938 54.296 13.6301 54.03C13.5131 53.8736 13.3728 53.7719 13.1778 53.7328C13.3806 53.5372 13.3962 53.2556 13.3026 53.0053C13.2402 52.8879 13.1622 52.7237 13.0219 52.6924L13.0843 52.5359C13.3026 52.4264 13.5209 52.3169 13.7315 52.2074C14.059 52.0431 14.3085 51.7928 14.4722 51.4564C15.2364 51.0105 16.1331 50.7446 16.9986 50.5803C17.3807 50.5099 17.7628 50.4395 18.1527 50.3769C18.7375 50.283 19.3301 50.2048 19.9149 50.1344C20.5231 50.0718 21.2795 50.0405 21.9111 49.9701C22.1606 49.8763 22.2776 49.6651 22.301 49.4069C22.301 49.1253 22.1762 48.8906 21.9579 48.7185C21.8019 48.6168 21.5914 48.2492 21.568 48.0614C21.8877 48.0927 22.1918 48.0927 22.4881 47.9598C22.6908 47.8581 22.8234 47.7173 22.9326 47.5217C23.0651 47.2401 23.0729 46.9585 23.1041 46.6534L22.6362 46.7864C22.2698 46.8568 21.9345 46.7942 21.8331 46.3874C21.7239 45.6286 22.1762 45.0107 22.9248 44.9168C23.5564 44.8699 24.1334 45.1045 24.5778 45.5661C24.9755 46.0198 25.1315 46.5048 24.9287 47.068C24.8118 47.3574 24.6246 47.6156 24.4063 47.8346C24.0476 47.991 23.7435 48.2179 23.533 48.5464C23.2445 49.0314 23.2912 49.5634 23.3536 50.1031C22.9326 50.283 22.5115 50.4864 22.106 50.7133C21.5368 51.034 21.1703 51.3391 20.7259 51.8475C20.4529 52.1213 20.0943 52.3638 19.7044 52.1761C19.1274 51.8319 19.681 51.2687 19.9461 50.9479C19.2911 50.9949 18.6907 50.9714 18.2306 51.4877C18.0123 51.8162 17.9655 52.1683 17.9811 52.5594C18.0201 52.9505 18.1839 53.2947 18.5581 53.459C18.1917 53.5372 17.8953 53.7328 17.677 54.0378C17.3807 54.5854 17.4899 55.1643 17.5756 55.751C17.6224 56.056 17.7238 56.5097 17.4743 56.7601L16.9674 57.1199L17.599 57.2451C18.0123 57.3076 18.4334 57.3076 18.7999 57.0573C18.9558 56.9322 19.065 56.7914 19.1585 56.6114C19.4549 57.3624 20.1566 57.9569 20.9598 58.043C21.5446 58.0821 22.0826 57.91 22.6051 57.6909C22.683 58.5201 23.4316 59.0286 24.1412 59.2789C24.6558 59.4197 25.1237 59.451 25.6461 59.3884C26.0594 59.3102 26.4181 59.185 26.7689 58.9425C27.2446 59.6857 27.845 60.3506 28.4532 60.9842C29.0614 60.3428 29.654 59.6935 30.1375 58.9425C30.9718 59.5292 32.0323 59.5292 32.968 59.2085C33.623 58.9269 34.2234 58.4654 34.3014 57.6909C34.8316 57.91 35.3696 58.0821 35.9466 58.043C36.742 57.9569 37.4516 57.3468 37.7479 56.6114C38.013 57.1434 38.4497 57.292 38.9799 57.2842C39.3074 57.2607 39.6193 57.1825 39.939 57.1199L39.3542 56.6662C39.1748 56.2907 39.3386 55.7275 39.3932 55.3364C39.4477 54.8905 39.4477 54.4446 39.2372 54.0457C39.0033 53.7171 38.7304 53.5841 38.3561 53.4668C39.0111 53.1695 39.0345 52.3012 38.8239 51.7302C38.5744 51.2452 38.1845 51.0731 37.6621 51.0027L36.9603 50.9479L37.3658 51.4251C37.4672 51.5816 37.5062 51.7224 37.4516 51.9023C37.3268 52.1839 37.0539 52.2778 36.7732 52.223C36.2507 52.0744 36.0168 51.5816 35.6191 51.253C35.0031 50.768 34.278 50.416 33.5606 50.1031C33.6074 49.6651 33.662 49.2974 33.5372 48.875C33.4124 48.523 33.1785 48.2414 32.8744 48.0302C32.7263 47.9363 32.5547 47.8815 32.4378 47.7564C32.2662 47.5608 32.1181 47.3574 32.0089 47.1149C31.7828 46.5439 31.9309 46.0354 32.3364 45.5661C33.1239 44.7525 34.66 44.5413 35.0421 45.8477C35.1357 46.2623 35.1201 46.7551 34.6133 46.8255C34.3326 46.8255 34.0752 46.7316 33.8023 46.6534C33.8569 47.2244 33.9037 47.7407 34.4885 47.991C34.5743 48.0223 35.1981 48.0771 35.1981 48.0771C35.0655 48.171 34.9408 48.2727 34.8082 48.3665C34.777 48.5777 34.7224 48.7655 34.6211 48.9532C34.5197 49.1488 34.3559 49.2974 34.2624 49.493C34.1376 49.798 34.1688 50.1109 34.4105 50.3456C34.8082 50.6116 35.3696 50.4395 35.8141 50.4395C36.6016 50.4395 37.3814 50.4708 38.1611 50.5412C38.629 50.5803 39.128 50.5959 39.5881 50.6976C40.2353 50.8384 40.8981 50.9871 41.5219 51.2139C42.325 51.4955 43.175 51.5112 43.9859 51.7615C44.251 51.8475 44.4616 51.9414 44.7501 51.9336C45.0932 51.8945 45.3193 51.7146 45.522 51.4251C45.7793 51.4016 45.8183 51.4408 46.0445 51.5425C46.3408 51.6441 46.5669 51.5503 46.7462 51.2687C46.9646 50.9871 47.7521 50.3065 48.064 50.3143C48.22 50.3065 48.3525 50.283 48.4929 50.2205C48.8438 50.0171 49.0699 49.5868 48.836 49.1879C48.9685 48.9141 49.335 48.3352 49.3662 48.0693C49.7015 47.9285 49.873 47.6547 49.7873 47.287C49.7093 47.0993 49.6001 46.9741 49.4286 46.8646C49.3116 46.0432 49.1011 45.394 48.5241 44.7682C48.0016 44.2441 47.4012 43.9703 46.715 43.7512V43.4696H46.5825L46.4343 43.1254L46.7774 43.2741V43.4071H47.2141V42.1242H46.7774V42.2571L46.4343 42.4058L46.5825 42.0616H46.715V41.6235H45.4362V42.0616H45.5688L45.717 42.4058L45.3739 42.2571V42.1242H44.9372V43.4071H45.3739V43.2741L45.717 43.1254L45.5688 43.4696H45.4362V43.7278C44.8436 43.8764 44.2666 44.1345 43.7832 44.5178C43.0892 45.1124 42.7539 45.8164 42.6291 46.6847V46.6925L42.5979 46.9115L42.5512 46.9585C42.6915 46.2857 42.0209 46.7551 41.5063 46.3953C40.9137 45.9103 41.1866 44.9324 41.1398 43.9546C41.1164 43.4618 41.2256 43.188 40.7187 42.3823C40.3445 41.428 38.8083 40.8647 38.8317 40.8413L39.3074 40.2468C38.9175 40.325 38.5198 40.4345 38.1144 40.4345C37.7401 40.4189 37.4672 40.2311 37.2176 39.973L38.1923 40.2468C37.8804 39.8556 37.5685 39.4958 37.3346 39.0656C36.9993 38.3928 36.8901 37.7123 36.9369 36.9691C36.9525 36.8205 37.2644 35.3421 37.3424 35.4985C37.6153 35.9209 38.0754 36.1008 38.3873 36.5545C38.5978 36.1478 38.6992 35.9913 39.1358 35.8114L39.2528 38.6432C39.2216 39.0577 39.2762 39.4254 39.5881 39.7227C39.9078 39.973 40.4146 39.926 40.6174 40.3172L40.9215 40.9899L41.093 40.2155C41.3036 39.6757 42.0287 39.7305 42.2081 39.1829C42.3796 39.5506 42.6759 39.8087 43.0502 39.9573C43.3933 39.9886 43.7286 40.0356 43.9157 40.3641L44.2042 40.9899L44.3914 40.3485C44.5239 39.9652 44.8202 39.6757 45.1243 39.4098C45.2491 39.2064 45.3271 39.003 45.3427 38.7683L45.3739 38.7996C45.5688 38.9639 45.7715 39.0577 45.9977 39.1438C46.4265 39.1125 46.8008 39.1516 47.1673 39.3941L47.5572 39.6914C47.5728 39.4567 47.5806 39.2142 47.6429 38.9873C47.7833 38.5493 48.064 38.2755 48.0718 37.7827C48.4695 38.1894 48.8828 38.2598 49.4286 38.2755C49.7717 38.0643 50.1304 38.0878 50.528 38.0643C50.4267 37.5167 50.5514 37.329 50.6606 36.8127C50.7854 36.0383 50.1927 35.608 49.6781 35.1778C50.5124 35.6315 51.6275 36.2025 52.6022 35.9209C52.7971 35.8427 52.9375 35.741 53.1012 35.608C52.7425 34.5129 52.1187 33.8088 51.1674 33.1909C52.2435 33.4412 53.2026 33.2926 54.0759 32.5807C53.8576 31.6655 53.4521 31.0944 52.571 30.7581C53.7406 30.6486 54.6919 30.2574 55.6666 29.616C54.7777 28.8807 53.92 28.2471 52.7425 28.0437C53.4287 27.9185 54.1071 27.7308 54.7465 27.4492C55.5964 27.0346 56.0877 26.5809 56.6257 25.783C56.228 25.5483 55.8693 25.3605 55.4327 25.2276C54.6451 25.0164 53.8186 24.9772 53.0154 25.032C53.9434 24.6565 54.8323 24.2028 55.6042 23.5535C56.2826 22.9356 56.6569 22.3176 56.9688 21.4571C55.5886 21.2459 54.6062 21.3007 53.1948 21.7622C53.8654 21.2694 54.4814 20.7218 54.996 20.0725C55.5886 19.2903 55.9161 18.5237 56.1423 17.5772C54.8089 17.4676 53.8498 17.6554 52.6178 18.3907C53.4287 17.5302 54.1227 16.5837 54.536 15.4807C54.9414 14.1665 54.7231 13.0323 54.0135 11.7729C53.3196 12.7898 52.61 13.7832 51.8458 14.7454C52.7113 13.2435 53.2494 11.546 52.7503 9.80942C52.3995 8.82378 51.8536 8.17451 51.1284 7.43138C50.5046 9.43394 49.8419 11.3583 48.9139 13.22C48.7814 13.4703 47.0737 16.3256 47.0347 16.2317L46.8242 15.7154C46.099 17.1391 45.0698 18.6176 44.2354 19.2355L43.9859 18.6801L43.674 19.2355C42.9644 20.3698 41.8338 20.9799 40.7889 21.8013C39.8298 22.5914 38.9253 23.7569 38.9487 25.0555C38.9877 25.736 39.2294 26.2992 39.5413 26.8938C39.8064 26.8625 39.978 26.8312 40.2041 26.9876C40.8513 27.5274 40.4848 28.5365 39.8766 28.9276C39.0891 29.35 38.0676 29.3187 37.28 28.9354C37.1943 28.8885 36.2507 28.2783 36.4223 28.2627C37.436 28.0358 38.0208 27.1363 38.052 26.088C38.0286 25.4153 37.7479 25.0007 37.397 24.461C37.2878 25.1259 37.2488 25.7126 36.6094 26.1115L36.4925 26.1663C35.931 26.3931 35.2994 26.2992 34.8082 25.9472C35.4008 25.9551 35.9155 25.869 36.3209 25.3605C36.5159 25.0868 36.6016 24.766 36.6562 24.4375L36.7576 23.7491L36.204 24.2419C35.7985 24.5548 35.3696 24.5939 34.9486 24.2967C34.1064 23.6005 34.0285 22.4819 34.1532 21.4806C34.2546 20.7844 34.4651 20.1586 34.8082 19.5406C35.1123 19.0243 35.5256 18.3203 36.0792 18.0543C36.243 18.2734 36.4535 18.4063 36.6874 18.5471C37.1241 18.3672 37.5529 18.1951 38.013 18.1013C38.4341 18.0309 38.8317 18.023 39.2216 18.2186C39.4555 18.3516 39.5881 18.5237 39.7518 18.7349C40.0326 18.6958 40.3133 18.6567 40.594 18.6176C40.5082 18.508 39.822 17.7101 39.8532 17.718C40.4692 17.937 41.0618 18.3047 41.6934 18.4533C42.3874 18.5784 43.0892 18.4455 43.596 17.8901C44.0015 17.3894 44.0483 16.8262 44.1808 16.2004L43.5648 16.834C42.8942 17.4755 42.2003 17.3503 41.4049 16.9983C40.7889 16.5446 39.5647 16.7089 39.5725 16.701C40.438 16.1065 41.2958 15.778 42.325 16.2239C42.4264 15.5042 42.4888 14.8393 42.0755 14.1665C41.6622 13.5799 41.0228 13.3374 40.3289 13.267H40.3055C40.2509 13.0245 40.1183 12.8445 39.8454 12.7898C41.2802 12.383 42.0677 11.898 42.5746 11.1862C42.9332 10.3648 42.9332 9.55127 42.5746 8.72991C42.5044 8.43266 42.442 8.1354 42.3718 7.84597C43.0034 8.3075 43.713 8.66733 44.3446 8.70644C45.0464 9.0741 45.0464 9.60603 44.8358 10.2788C44.29 10.9046 43.674 11.4991 44.3602 12.5473C44.6175 12.7976 44.8982 13.0479 45.3349 13.2983C45.4986 13.4547 45.6156 13.6346 45.3583 13.9084C45.6624 13.9162 45.9353 13.8693 45.9899 13.5095C46.0678 13.0479 45.8573 12.9149 45.5376 12.6412C45.3037 12.4378 45.0932 12.2344 45.1087 11.9997C45.4596 12.5942 45.9353 12.8602 46.4655 12.8367C46.9958 12.868 47.5884 12.3283 48.1186 12.6568C48.22 12.0075 47.9003 11.7729 47.3934 11.7259C47.0893 11.6399 46.177 12.0388 46.4889 11.4756C46.9958 11.108 47.2609 10.7168 47.2843 10.2944C47.3388 9.58256 46.9412 9.16797 46.333 8.88636C45.3271 8.7612 44.446 8.40137 43.8611 7.54871C43.5336 6.69606 43.058 6.02333 42.2549 5.77301C42.0443 5.64002 41.8416 5.57744 41.6856 5.92946C41.3737 6.44574 41.0696 6.94638 40.5082 7.58783C40.2899 7.96331 40.0248 8.32314 40.4848 8.94894C40.7967 9.34007 41.0774 9.7703 41.3191 10.224C41.3893 10.8967 40.5784 11.9762 38.9877 12.1562H38.8941C38.8941 12.1171 38.9019 12.0858 38.9019 12.0467C38.9721 11.9528 38.9175 11.8589 38.9331 11.7572C38.9409 11.7025 38.9877 11.679 38.9955 11.6164C39.0501 11.4052 39.1046 11.2018 39.1748 10.9984C39.3308 10.5369 39.5257 10.1301 39.5491 9.63732C39.5647 8.94894 39.1592 8.42483 38.4886 8.25274C38.1378 8.17451 37.857 8.15887 37.4984 8.15887L37.475 8.39354L37.1709 8.38572L37.1865 8.01806H37.1397C37.2644 7.86161 37.3034 7.64258 37.1709 7.47831V7.29839H37.1085L37.0617 7.09501L37.2566 7.14194V7.21235H37.4828V6.47703H37.2566V6.54743L37.0617 6.59437L37.1085 6.39098H37.1709V6.14849H36.4691V6.39098H36.5315L36.5782 6.59437L36.3833 6.54743V6.47703H36.1572V7.21235H36.3833V7.14194L36.5782 7.09501L36.5315 7.29839H36.4691V7.54089H36.4925C36.4067 7.70516 36.4457 7.88508 36.5549 8.02589H36.4535L36.4691 8.39354L36.165 8.40137L36.1416 8.16669C35.7595 8.16669 35.3852 8.18234 35.0265 8.29185C34.4495 8.47959 34.0986 8.98023 34.0908 9.58256C34.0986 10.0284 34.2624 10.4352 34.4105 10.842C34.4885 11.061 34.5665 11.2879 34.6211 11.5147C34.5041 11.6399 34.6367 11.7259 34.6912 11.7572C34.7068 11.8746 34.6678 11.9371 34.7302 12.0467C34.738 12.1014 34.738 12.1171 34.7224 12.1796H34.5743C32.6171 12.2109 31.658 11.2409 30.8549 10.1145C31.0498 10.0597 31.2915 10.0363 31.4475 9.88764C31.5566 9.85635 31.6346 9.73901 31.6268 9.62168C31.6112 9.57474 31.6034 9.51998 31.5644 9.48869L31.58 9.34789L31.6424 9.16015C31.6424 9.0741 31.619 9.01152 31.6346 8.92547C31.7438 8.90201 31.7984 8.79249 31.7906 8.6908C31.775 8.61257 31.8451 8.40137 31.8607 8.32314C31.9777 7.86161 32.1336 7.40791 32.3052 6.96203C32.5859 6.25018 32.8432 5.62438 32.7107 4.82648C32.5547 4.0677 31.9777 3.49666 31.2525 3.2698C30.6443 3.09771 30.0985 3.08207 29.4825 3.08207L29.4435 3.4419L28.9445 3.42626L28.9678 2.87086L28.7963 2.86303C28.8977 2.75352 28.9523 2.63618 28.9756 2.47973C28.9834 2.3624 28.9601 2.20595 28.8977 2.10425H28.9367V1.75224H28.8353L28.7573 1.4237L29.0848 1.50192V1.60361H29.4357V0.50064H29.0848V0.602333L28.7573 0.680558L28.8353 0.352013H28.9367V0H27.8372V0.352013H27.9386L28.0166 0.680558L27.6891 0.602333V0.50064H27.3382V1.60361H27.6891V1.50192L28.0166 1.4237L27.9386 1.75224H27.8372V2.02603C27.7514 2.14336 27.7124 2.26853 27.7046 2.40933C27.7124 2.58925 27.767 2.72223 27.8918 2.85521H27.806L27.8294 3.41061L27.3304 3.42626L27.2914 3.06642C26.5038 3.06642 25.4979 3.08207 24.804 3.614C24.032 4.25544 23.9306 5.11591 24.1412 6.03897C24.2581 6.5005 24.4765 6.93856 24.6324 7.38444C24.765 7.76774 24.8897 8.16669 24.9677 8.56564C24.8663 8.65951 24.9053 8.81596 25.0067 8.89418C24.9833 9.06628 24.9521 9.19926 25.0457 9.36353L25.0535 9.37136C25.0691 9.50434 25.0535 9.65297 25.1237 9.7703C25.1549 9.8407 25.225 9.91111 25.342 9.95804C25.5213 10.0363 25.7241 10.0988 25.9424 10.1536C25.1237 11.3113 24.032 12.1796 22.1606 12.2579C22.0436 12.2579 22.0202 12.2657 22.0124 12.25C22.0046 12.2344 21.9891 12.1171 21.9891 12.1171C21.9969 12.0779 21.9969 12.0467 22.0202 12.0075C22.0436 11.9371 22.0436 11.8824 22.028 11.812C22.028 11.8042 22.028 11.7494 22.0358 11.7416C22.184 11.6633 22.0826 11.5929 22.106 11.4913C22.1684 11.2488 22.2464 11.0219 22.3243 10.7872C22.4413 10.4743 22.5505 10.2162 22.6051 9.87982C22.6752 9.34007 22.5895 8.88636 22.145 8.50306C21.7161 8.16669 21.0845 8.14322 20.5777 8.14322L20.5543 8.3779L20.2502 8.37008L20.2658 8.00242H20.1644C20.2346 7.90855 20.2658 7.83032 20.2736 7.71299C20.2658 7.64258 20.258 7.58 20.2268 7.51742H20.2502V7.27493H20.1878L20.141 7.07154L20.336 7.11848V7.18888H20.5621V6.45356H20.336V6.52397L20.141 6.5709L20.1878 6.36752H20.2502V6.12502H19.5484V6.36752H19.6108L19.6576 6.5709L19.4627 6.52397V6.45356H19.2365V7.18888H19.4627V7.11848L19.6576 7.07154L19.6108 7.27493H19.5484V7.45484C19.4938 7.54871 19.4782 7.60347 19.4627 7.70516C19.4704 7.8225 19.5016 7.90073 19.5718 7.9946H19.525L19.5406 8.36225L19.2365 8.37008L19.2131 8.1354C18.8934 8.1354 18.5815 8.15105 18.2696 8.21363C17.7316 8.33879 17.3183 8.68298 17.1936 9.23055C17.0688 9.87982 17.3651 10.443 17.5679 11.0454C17.6224 11.2253 17.677 11.4052 17.7238 11.5851C17.7316 11.6321 17.7472 11.6633 17.7784 11.7025C17.7862 11.7103 17.7862 11.7416 17.7862 11.7572C17.7472 11.8354 17.755 11.9528 17.8096 12.0232C17.8174 12.1405 17.8018 12.1796 17.7238 12.1405C16.2345 11.9215 15.3845 10.8811 15.33 10.2709C15.5795 9.81724 15.8446 9.51998 16.1331 9.10539C16.5932 8.47959 16.4606 8.03371 16.2111 7.69734C15.6497 7.0559 15.3378 6.4301 15.0259 5.92163C14.8777 5.5618 14.6828 5.64784 14.4722 5.78083C13.6613 6.03115 13.3884 6.38316 13.0609 7.23581C12.2655 8.3075 11.3844 8.79249 10.3785 8.91765C9.77031 9.19926 9.37264 9.53563 9.42722 10.2397C9.45061 10.6621 9.73133 11.2175 10.2382 11.5773C10.4409 11.9919 9.63776 11.5773 9.33365 11.6555C8.74884 11.7103 8.60848 12.1171 8.53051 12.602C8.79562 12.5473 8.96717 12.5473 9.15431 12.5395C9.38823 12.5316 9.64555 12.7272 10.207 12.8289C10.7372 12.8445 11.2674 12.5786 11.6183 11.9919C11.6339 12.2266 11.3844 12.4221 11.1505 12.6255C10.823 12.9071 10.6826 12.9697 10.7606 13.4391C10.8152 13.7911 11.0647 13.9241 11.3766 13.9162C11.1193 13.6346 11.2518 13.4078 11.4234 13.2513C11.8601 13.001 12.1018 12.7663 12.3513 12.516C13.0375 11.46 12.4371 10.9906 11.899 10.3726C11.6885 9.6999 11.7665 9.12886 12.4683 8.7612C13.0999 8.72991 13.7393 8.40137 14.3709 7.93984C14.3007 8.23709 14.2383 8.53435 14.1681 8.82378C13.8094 9.64514 13.8094 10.4587 14.1681 11.28C14.6672 11.9841 15.4937 12.43 16.8973 12.8289C16.7725 12.9462 16.6945 13.0636 16.6555 13.2357H16.6321C16.1409 13.2826 15.673 13.4234 15.2754 13.7128C14.4878 14.3699 14.5112 15.2461 14.6438 16.1926C15.1194 15.9892 15.4469 15.8719 15.9616 15.9657C16.4918 16.0909 16.9674 16.3647 17.4119 16.6776C16.9207 16.6072 16.445 16.6306 15.9772 16.7793C15.4235 16.9748 14.9947 17.2799 14.3787 17.2721C13.9732 17.2408 13.6925 17.0687 13.4196 16.8106L12.8036 16.1769L12.9907 17.0531C13.1856 17.7805 13.6535 18.2655 14.3865 18.4376C14.9479 18.5315 15.4547 18.422 15.9694 18.1873C16.3592 18.0074 16.7569 17.8275 17.1624 17.6867C16.8739 17.9526 16.6321 18.2812 16.3904 18.5941C16.6711 18.6332 16.9518 18.6723 17.2326 18.7114C17.5834 18.2577 17.9109 18.0387 18.488 18.0309C19.1274 18.0465 19.72 18.2812 20.297 18.5237C20.5153 18.3907 20.7492 18.2421 20.8974 18.0309C21.5446 18.3438 22.145 19.4076 22.4335 20.0412C22.6051 20.448 22.722 20.847 22.8 21.285C22.9404 22.2394 22.9248 23.0842 22.3789 23.9056C22.1996 24.1481 22.0047 24.3358 21.7239 24.4531C21.3575 24.5627 21.0689 24.461 20.7726 24.2341L20.219 23.7413C20.3048 24.3436 20.3282 24.9929 20.757 25.4701L20.8116 25.5248C21.1859 25.8455 21.685 25.9394 22.1606 25.9316C21.4978 26.4244 20.5465 26.4088 19.9695 25.7673C19.6654 25.3605 19.6498 24.946 19.5718 24.4453L19.1741 25.0476C18.7687 25.8143 18.8544 26.6982 19.3145 27.4413C19.6264 27.8716 20.0397 28.1923 20.5855 28.2627C20.1878 28.6538 19.7044 28.9745 19.1741 29.131C18.5191 29.3031 17.6926 29.2483 17.0844 28.9198C16.5074 28.5443 16.2267 27.8403 16.562 27.1988C16.7881 26.8468 17.0298 26.839 17.4197 26.8859C17.9187 25.9394 18.2228 25.0242 17.833 23.9369C17.5912 23.3423 17.1702 22.7557 16.7413 22.3019C16.0239 21.5901 15.1584 21.0816 14.3787 20.4402C13.6301 19.8066 13.0687 17.8979 12.6788 19.3998C12.2577 18.9852 11.7041 18.3047 11.361 17.8197C10.8932 17.1469 10.5267 16.4351 10.1524 15.6998L9.93406 16.2395C8.81901 14.7376 7.9145 13.0323 7.19713 11.3035C6.68249 10.0284 6.25362 8.72209 5.84815 7.40791C4.72531 8.55782 4.03133 9.60603 4.00793 11.2644C4.07031 12.516 4.50698 13.6424 5.13078 14.7219C4.70191 14.1822 4.28865 13.6424 3.89097 13.087C3.57127 12.649 3.26717 12.2031 2.96306 11.7494C2.45622 12.6568 2.15212 13.3843 2.2145 14.4403C2.40164 15.9892 3.31395 17.2643 4.35103 18.3751C3.87538 18.0934 3.38413 17.8666 2.8617 17.7023C2.15992 17.5146 1.55171 17.4989 0.826539 17.5615C1.07606 18.5863 1.44254 19.3998 2.10533 20.2212C2.60438 20.8079 3.158 21.2928 3.78181 21.7466C3.1658 21.5432 2.55759 21.3945 1.9104 21.3241L1.9026 21.3711ZM3.78181 31.0866C3.73502 31.0553 3.70383 31.071 3.65704 31.0631C3.72722 30.9771 3.75841 30.9067 3.73502 30.7972C3.71943 30.7581 3.70383 30.7268 3.68044 30.7033C3.71163 30.7033 3.74282 30.6877 3.76621 30.6955C3.78181 30.7033 3.7896 30.7268 3.7974 30.7424C3.78181 30.7894 3.77401 30.8285 3.78181 30.8754C3.813 30.9458 3.85978 30.9771 3.92996 30.9927L3.78181 31.0866ZM4.72531 33.3317H4.84227V33.3395L4.82668 33.3551L4.71751 33.3239L4.72531 33.3317ZM5.40369 33.2769L5.55964 33.2535L5.73119 33.2222L5.79357 33.2065L5.63762 33.3082L5.48947 33.4099V33.3708L5.47387 33.3395L5.45048 33.316L5.41929 33.3004L5.40369 33.2847V33.2769ZM1.69207 31.6185C1.71546 31.6733 1.76224 31.7124 1.80123 31.7594C1.80903 31.7672 1.70766 31.775 1.67647 31.7202C1.67647 31.7124 1.69207 31.6264 1.69207 31.6264V31.6185ZM1.22421 32.1661C1.2554 32.1348 1.30219 32.1505 1.34118 32.1348C1.38016 32.2052 1.44254 32.1896 1.50492 32.1583C1.53611 32.1974 1.67647 32.3539 1.67647 32.4008C1.55171 32.3304 1.47373 32.2913 1.36457 32.2052V32.2678C1.31778 32.2287 1.271 32.2052 1.22421 32.1661ZM1.51272 32.1505L1.55171 32.1348L1.47373 32.0957C1.51272 32.041 1.52832 31.9862 1.52052 31.9236C1.49713 31.8767 1.48153 31.8532 1.43475 31.8298C1.40356 31.8141 1.38796 31.8063 1.38016 31.775C1.38016 31.7359 1.42695 31.7202 1.45034 31.6968C1.45034 31.7281 1.45814 31.7515 1.47373 31.775C1.51272 31.8532 1.55951 31.8923 1.64528 31.9158C1.66088 31.9158 1.73105 31.9236 1.73105 31.9236C1.69986 31.9627 1.68427 32.0097 1.68427 32.0566C1.68427 32.1192 1.71546 32.1661 1.74665 32.2209L1.77004 32.2443C1.69207 32.2522 1.5907 32.1818 1.52832 32.1583L1.51272 32.1505ZM1.78564 32.4086C1.84802 32.4086 1.9026 32.3852 1.94159 32.3382L1.97278 32.346C2.01176 32.3382 2.04295 32.3226 2.08194 32.3148C2.11313 32.1974 2.19111 32.2131 2.29248 32.2052C2.30027 32.1896 2.31587 32.1739 2.32367 32.1583C2.35486 32.1739 2.38605 32.1896 2.41724 32.2131C2.48741 32.2678 2.54979 32.3539 2.56539 32.4399C2.56539 32.479 2.56539 32.5494 2.51081 32.5338L2.33926 32.479L2.38605 32.5573C2.37825 32.612 2.36265 32.6589 2.36265 32.7137C2.32367 32.6198 2.24569 32.5651 2.15212 32.526C2.05075 32.4868 1.87141 32.479 1.79343 32.4086H1.78564ZM2.5342 32.9327C2.51081 32.964 2.47962 32.9875 2.44063 32.9953C2.38605 33.0266 2.27688 32.9562 2.37045 32.9171C2.37045 32.878 2.37825 32.8389 2.37045 32.7919C2.42503 32.8545 2.44063 32.9093 2.5342 32.9249V32.9327ZM3.37633 34.5442C3.38413 34.5442 3.39193 34.5363 3.39973 34.5363C3.39193 34.5442 3.39193 34.552 3.38413 34.5598C3.36854 34.5911 3.36074 34.638 3.33735 34.6615L3.36854 34.552L3.37633 34.5442ZM3.46211 34.3642C3.45431 34.3564 3.43871 34.3486 3.43092 34.3408C3.43871 34.3251 3.45431 34.3173 3.46211 34.3017C3.46211 34.3251 3.46211 34.3486 3.46211 34.3642ZM3.4699 34.2626C3.4777 34.2078 3.44651 34.153 3.43092 34.1061L3.33735 34.1765C3.32955 34.153 3.32175 34.1217 3.34514 34.1061C3.36854 34.0826 3.40752 34.0748 3.44651 34.0826C3.4855 34.0905 3.51669 34.1139 3.51669 34.1609C3.51669 34.1922 3.4699 34.2626 3.4699 34.2626ZM4.54596 34.067L4.60834 34.0983H4.53037L4.54596 34.067ZM4.31204 33.9731L4.26525 33.9262H4.29644L4.31204 33.9731ZM4.24186 33.9184H4.22626H4.15609V33.7932L4.16388 33.7854H4.29644V33.8167H4.28085L4.17948 33.8323L4.22626 33.9184L4.28865 33.9809L4.24186 33.9184ZM4.82668 33.4021V33.5038H4.79549L4.77989 33.4959V33.3786L4.86566 33.3864L4.82668 33.4021ZM3.4933 30.9771C3.4855 30.9145 3.4933 30.8598 3.46211 30.805C3.46211 30.805 3.62585 30.8519 3.4933 30.9771ZM2.8461 31.6498L2.95527 31.6733C2.94747 31.7124 2.93187 31.994 2.93187 31.9862C2.8617 31.908 2.77592 31.8376 2.68235 31.7906L2.74473 31.6968C2.62777 31.7046 2.59658 31.7124 2.49521 31.6811C2.5264 31.6185 2.5264 31.5481 2.5264 31.4777C2.55759 31.4308 2.57319 31.3839 2.58878 31.3291C2.61217 31.3213 2.64336 31.3056 2.66676 31.2978C2.71354 31.3213 2.77592 31.3448 2.83051 31.3526C2.8461 31.3682 3.00205 31.4699 3.00205 31.4699C2.96306 31.5638 2.93187 31.5794 2.8461 31.6655V31.6498ZM2.70575 34.0748L2.61997 33.9575C2.61217 33.9496 2.57319 33.9497 2.56539 33.9497C2.55759 33.9731 2.542 33.9888 2.5264 34.0044C2.5186 34.0122 2.50301 34.0201 2.49521 34.0279C2.47962 34.0513 2.49521 34.1765 2.49521 34.2078L2.38605 34.0748C2.36265 34.0513 2.32367 34.0513 2.30027 34.0279C2.27688 34.0513 2.23789 34.0592 2.2223 34.0826L2.15992 34.1922C2.12873 34.1296 2.11313 34.0905 2.06635 34.0513C2.04295 34.0748 2.00397 34.1061 1.97278 34.0983L2.37045 34.4581C2.40164 34.4581 2.42503 34.4816 2.44063 34.4972C2.45622 34.5285 2.50301 34.5755 2.5342 34.5911L2.55759 34.6067V34.6146L2.56539 34.6224C2.58098 34.5989 2.60438 34.5911 2.63557 34.5833C2.65896 34.5833 2.67456 34.5833 2.69795 34.5833C2.72914 34.5911 2.74473 34.6067 2.76813 34.6302C2.78372 34.638 2.79152 34.638 2.80711 34.6459C2.8539 34.6224 2.89289 34.5911 2.93187 34.552L2.90848 34.5442C2.79932 34.5833 2.74473 34.5207 2.69015 34.4425C2.72134 34.4268 2.76813 34.4112 2.79152 34.3877C2.80711 34.2782 2.69795 34.2 2.71354 34.0826L2.70575 34.0748ZM2.73694 33.9653V33.9105C2.73694 33.9027 2.75253 33.9027 2.75253 33.8949L2.76813 33.9027C2.75253 33.9184 2.74473 33.9418 2.73694 33.9575V33.9653ZM2.79932 33.8167C2.80711 33.7541 2.76033 33.6759 2.73694 33.6211L2.76033 33.6446C2.76813 33.6055 2.76813 33.5585 2.78372 33.5272C2.8539 33.6289 2.8539 33.6993 2.82271 33.8167L2.79152 33.8245L2.79932 33.8167ZM4.91245 33.6837H4.90465L4.88906 33.6915L4.87346 33.7072H4.81108L4.85787 33.6759L4.85007 33.668H4.85787L4.88906 33.6368L4.89685 33.6446L4.91245 33.6524H4.93584L4.91245 33.6837ZM29.2096 10.3805C29.888 11.3192 30.7847 11.9762 31.8919 12.3517L31.0576 12.3361C31.4631 12.6412 31.8607 12.9697 32.313 13.22C32.0011 13.1653 31.697 13.1027 31.3929 13.0479C31.541 13.2357 32.2428 14.1978 32.7185 14.3934C31.8763 15.0427 31.5488 15.559 30.4182 15.9735C30.6677 16.1378 30.9016 16.3099 31.1901 16.4116C30.2934 17.4129 29.5994 18.6488 29.1394 19.9083C28.8509 20.7609 28.6404 21.6214 28.5156 22.5132C28.3908 21.6214 28.1803 20.7609 27.8918 19.9083C27.4317 18.6488 26.7378 17.4129 25.841 16.4116C26.1217 16.3177 26.3635 16.1378 26.613 15.9735C25.4746 15.559 25.2718 15.1052 24.2815 14.3699C24.8585 14.0727 25.2484 13.5564 25.6383 13.0479C25.3342 13.1105 25.0223 13.1653 24.7182 13.22C25.1705 12.9697 25.5681 12.649 25.9736 12.3361L25.2718 12.3439C26.2621 11.9371 27.0653 11.2879 27.6891 10.3883C28.2037 10.4117 28.7339 10.4039 29.233 10.3726L29.2096 10.3805ZM6.08988 35.7175C6.19124 35.6784 7.2829 35.1543 7.2829 35.1543C7.00219 35.3968 6.72927 35.655 6.45636 35.9053C6.3394 36.1243 6.28481 36.3277 6.28481 36.578C6.30041 36.8909 6.44076 37.1647 6.48755 37.4698C6.51094 37.6653 6.47196 37.8453 6.43297 38.0408C6.82284 38.0643 7.18933 38.033 7.53242 38.252C7.78974 38.2442 8.03146 38.2364 8.28878 38.1582C8.52271 38.0643 8.71765 37.9391 8.88919 37.7592C8.89699 38.166 9.04514 38.3694 9.20889 38.6901C9.28687 38.8465 9.34145 39.0108 9.36484 39.1907L9.40383 39.6679L9.79371 39.3706C9.95745 39.2611 10.1368 39.1829 10.3317 39.136C10.7528 39.0577 11.0335 39.1438 11.4156 38.9013C11.4312 38.8935 11.6183 38.7448 11.6183 38.7448C11.6339 38.9404 11.6807 39.089 11.7587 39.2611C11.8601 39.4254 12.0082 39.5271 12.1408 39.6679C12.3201 39.8635 12.4839 40.0747 12.5696 40.325L12.7568 40.9664L13.0453 40.3406C13.1155 40.2155 13.209 40.1294 13.3338 40.059C13.5209 39.9808 13.7081 39.9573 13.9108 39.9339C14.1681 39.8322 14.7607 39.1986 14.7685 39.2064C14.9401 39.5819 15.3144 39.6366 15.6107 39.8556C15.7432 39.9652 15.8056 40.0903 15.8836 40.2468L16.0395 40.9743L16.3436 40.3015C16.4216 40.1529 16.5386 40.0512 16.6945 39.9886C16.9908 39.8869 17.2092 39.8713 17.4431 39.6366C17.7004 39.3315 17.7394 38.9952 17.7082 38.6197L17.8252 35.7879C18.215 35.9131 18.3866 36.1791 18.5737 36.5311L18.7999 36.1947C19.026 35.8818 19.4471 35.7645 19.642 35.3968C19.7278 35.5533 19.7668 35.6706 19.8213 35.8427C20.0787 36.7658 20.1332 37.6497 19.8291 38.5806C19.5874 39.2298 19.2053 39.6757 18.7687 40.2233L19.7434 39.9495L19.7278 39.9652C19.4237 40.2781 19.1118 40.4423 18.6283 40.3954C18.3008 40.3563 17.9811 40.2781 17.6536 40.2233L18.1215 40.8491C17.0688 41.2011 16.4684 41.8817 15.9382 42.8829C15.8524 43.3992 15.8212 43.8138 15.8056 44.3379C15.7978 44.9403 15.946 45.9024 15.4937 46.3327C15.1662 46.5986 14.7373 46.583 14.3319 46.5986C14.4332 47.0758 14.714 47.3887 15.1428 47.6312C15.7042 47.8894 16.7101 47.4591 16.7101 47.4748C16.6243 47.686 16.4996 47.8737 16.3904 48.0693C16.6321 48.124 16.983 48.2414 17.2326 48.1553L17.1 48.3509L17.5445 48.3352C16.9285 48.6638 16.2657 48.9297 15.5951 49.1331C14.9713 49.313 14.3475 49.4226 13.6925 49.4538C13.5131 49.2114 13.3026 49.0001 13.0609 48.8202C13.0375 48.5855 12.9751 48.2492 12.7724 48.124C12.4995 47.9598 12.2265 47.8502 11.899 47.8502L11.7977 47.8581L11.0491 48.3587C10.9633 48.1553 10.8698 47.9597 10.784 47.7564C10.8776 47.6234 10.8464 47.4356 10.7684 47.3105C10.706 47.2401 10.6592 47.2088 10.5657 47.1775C10.6124 47.0445 10.3863 46.5361 10.3161 46.4109C10.2148 46.2388 10.1368 46.0354 10.1212 45.832L10.1134 45.6521L9.94186 45.6756C9.97305 45.5739 9.94966 45.4409 9.92626 45.3392C9.84049 45.2297 9.75472 45.1749 9.61436 45.1671L5.57524 36.3199C5.63762 36.1791 5.60643 36.0304 5.49726 35.9131C5.6922 35.8505 5.89494 35.7879 6.08988 35.7254V35.7175ZM38.4964 47.8893C38.6914 48.1553 38.9097 48.2727 39.2294 48.3274L39.9156 48.3587L39.7908 48.171C40.0871 48.2335 40.3289 48.1553 40.6174 48.0849C40.5004 47.8893 40.3678 47.6938 40.2899 47.4826C40.6174 47.7094 41.0384 47.7877 41.4283 47.7642C41.865 47.7642 42.3796 47.3496 42.3796 47.3574C42.325 47.6938 42.4732 47.9363 42.7617 48.0927C42.7929 48.2022 42.9021 48.2727 42.9332 48.3743C43.0112 48.5856 43.1048 48.7811 43.2295 48.961C43.019 49.0471 42.8163 49.1409 42.5979 49.2035C42.1145 49.3287 41.5609 49.2661 41.0618 49.2035C40.399 49.1018 39.7596 48.9297 39.1358 48.6872C38.9175 48.6012 38.707 48.5073 38.4964 48.4135C38.4497 48.3274 38.4808 47.9989 38.4808 47.8972L38.4964 47.8893ZM10.4565 50.0249C10.4175 49.9388 10.3785 49.8528 10.3395 49.7668L10.1368 49.8372L10.4487 50.0249H10.4565ZM26.1529 57.5188C25.7319 57.3311 25.5135 56.9322 25.459 56.4706C25.4044 55.5789 25.8956 54.5072 26.1763 53.7328C26.5194 52.7941 27.0029 51.9101 27.3382 50.9792C27.112 51.9336 26.8313 52.8801 26.5974 53.8344C26.3869 54.6871 26.1919 55.5632 26.075 56.4315C26.0672 56.5645 26.1763 57.5267 26.1607 57.5188H26.1529ZM30.1765 52.0744C30.4572 52.7158 30.7145 53.3729 30.9484 54.0378C31.2057 54.7966 31.6034 55.6493 31.5566 56.4706C31.5098 56.8852 31.2759 57.3859 30.8393 57.5267C30.9328 57.159 30.9718 56.807 30.9406 56.4315C30.8315 55.6414 30.6599 54.8514 30.4806 54.0769C30.3246 53.4355 30.1531 52.8019 29.9815 52.1683C29.8802 51.7771 29.7788 51.386 29.6774 50.9949C29.8412 51.3547 30.0127 51.7067 30.1765 52.0744ZM34.6678 55.9074C35.1045 55.837 35.4944 55.352 35.3774 54.8983C35.1825 55.2425 34.8316 55.4772 34.4573 55.5789C34.4729 55.6884 34.4807 55.8057 34.4807 55.9152H34.6678V55.9074ZM33.7867 53.6858C34.0362 53.2478 33.5528 52.6063 33.3111 52.2621C32.968 51.8084 32.5625 51.4251 32.1259 51.0653C32.4923 51.5346 32.8432 52.0196 33.1551 52.5281C33.3813 52.8957 33.5216 53.3182 33.7711 53.6624L33.7867 53.6858ZM31.9855 49.2348C32.4144 49.5477 32.8666 49.7824 33.3501 49.9936C33.2409 49.8372 33.1317 49.6807 32.9758 49.5634C32.8822 49.5008 31.9777 49.2348 31.9855 49.2348ZM21.9189 55.7353C21.7083 55.5398 21.5602 55.1956 21.6304 54.8983C21.7473 55.1017 21.8799 55.2425 22.0748 55.3755C22.2308 55.4615 22.3867 55.5319 22.5583 55.5789C22.5427 55.6884 22.5349 55.8057 22.5349 55.9152C22.3088 55.9231 22.106 55.8761 21.9267 55.7353H21.9189ZM23.2211 53.6858C23.0261 53.3416 23.2756 52.9661 23.4472 52.6532C23.7123 52.2074 24.032 51.8397 24.4063 51.4799C24.5622 51.3391 24.7182 51.1983 24.8819 51.0653C24.7572 51.2296 24.6324 51.3938 24.5077 51.5581C24.2269 51.9414 23.9618 52.3325 23.7201 52.7393C23.5408 53.0444 23.4238 53.3886 23.2211 53.678V53.6858ZM25.0223 49.2348C24.7728 49.4226 24.5155 49.5868 24.2503 49.7511C24.0554 49.8293 23.8527 49.9076 23.6577 49.9936L23.8449 49.7355C24.032 49.5243 24.2737 49.4069 24.5544 49.3756C24.6168 49.3678 25.0301 49.2348 25.0223 49.2348Z" fill="#4564AA"/>
</svg>
