<svg width="146" height="152" viewBox="0 0 146 152" fill="none" xmlns="http://www.w3.org/2000/svg">
<path fill-rule="evenodd" clip-rule="evenodd" d="M31.7824 29.3958C31.964 30.1231 30.9954 29.6382 30.6322 29.7595C30.6322 29.2746 31.2981 29.3958 31.7824 29.3958Z" fill="#0081C6"/>
<path fill-rule="evenodd" clip-rule="evenodd" d="M10.2312 79.7027C10.655 79.6421 10.4733 80.2482 10.8366 80.3088C10.5339 80.9149 9.68635 80.0663 10.2312 79.7027Z" fill="#0081C6"/>
<path fill-rule="evenodd" clip-rule="evenodd" d="M10.231 83.036C10.9574 83.2785 10.4126 84.1876 10.4126 84.7937C9.98882 84.2482 10.1099 83.7633 10.231 83.036Z" fill="#0081C6"/>
<path fill-rule="evenodd" clip-rule="evenodd" d="M10.4128 85.3391C10.5945 85.2784 10.5945 85.3997 10.5945 85.5209C10.9577 85.5209 11.0182 85.2784 11.3814 85.3391C11.442 86.3088 10.7761 85.4603 10.5945 85.9452C10.4128 86.0058 10.4128 85.8846 10.4128 85.7633C10.4128 85.6421 10.4128 85.5209 10.4128 85.3997V85.3391Z" fill="#0081C6"/>
<path fill-rule="evenodd" clip-rule="evenodd" d="M12.4104 89.6426C12.7131 89.8245 13.0158 89.9457 13.0158 90.4306C11.9261 90.6124 12.4104 91.0973 12.8342 91.5822C11.8656 91.764 11.8656 90.9761 11.684 90.4306C12.1077 90.37 12.592 90.3094 12.471 89.6426H12.4104Z" fill="#0081C6"/>
<path fill-rule="evenodd" clip-rule="evenodd" d="M12.955 93.5215C12.955 94.067 12.047 94.0064 11.8048 93.7033C11.9864 93.3396 12.6523 93.1578 12.955 93.5215Z" fill="#0081C6"/>
<path fill-rule="evenodd" clip-rule="evenodd" d="M16.0427 96.0675C16.8902 95.8251 16.4665 96.7948 17.1929 96.6736C17.1324 97.0373 17.1324 97.5222 16.5875 97.4616C17.0718 96.9767 16.4665 96.613 15.8005 96.6736C15.9216 96.4918 15.9822 96.3706 15.9822 96.0675H16.0427Z" fill="#0081C6"/>
<path fill-rule="evenodd" clip-rule="evenodd" d="M14.8925 98.3704C14.8319 97.9461 15.5584 98.3097 15.8611 98.1885C15.8611 98.4916 15.8006 98.734 16.0427 98.7946C15.4979 99.1583 15.2557 98.6128 14.8925 98.431V98.3704Z" fill="#0081C6"/>
<path fill-rule="evenodd" clip-rule="evenodd" d="M16.4662 99.3406C16.1029 100.007 15.5581 99.4012 14.7106 99.5224C14.8316 98.7951 15.6186 99.5831 16.4662 99.3406Z" fill="#0081C6"/>
<path fill-rule="evenodd" clip-rule="evenodd" d="M17.6169 102.856C17.9196 102.916 17.6774 103.462 17.9801 103.462C17.859 103.704 17.5563 103.826 17.1931 103.826C17.4958 103.462 17.1931 103.583 17.1931 103.038C17.4353 103.098 17.5563 102.977 17.5563 102.856H17.6169Z" fill="#0081C6"/>
<path fill-rule="evenodd" clip-rule="evenodd" d="M123.8 104.614C123.982 104.796 123.921 105.159 124.164 105.22C123.861 105.766 123.316 104.978 122.59 105.22C122.953 104.978 123.256 104.735 123.74 104.614H123.8Z" fill="#0081C6"/>
<path fill-rule="evenodd" clip-rule="evenodd" d="M122.468 105.947C123.074 105.766 122.892 106.432 123.255 106.553C123.134 106.978 122.226 106.553 122.468 105.947Z" fill="#0081C6"/>
<path fill-rule="evenodd" clip-rule="evenodd" d="M25.1837 115.888C26.0312 116.009 25.7891 115.948 26.5156 116.069C26.5156 116.433 26.5156 116.857 26.5156 117.221C26.455 116.372 25.4259 116.554 25.1837 115.888Z" fill="#0081C6"/>
<path fill-rule="evenodd" clip-rule="evenodd" d="M27.908 118.797C27.9685 119.221 28.7555 118.978 28.695 119.584C28.4528 119.584 28.1501 119.584 27.908 119.584C27.908 119.342 27.908 119.039 27.908 118.797Z" fill="#0081C6"/>
<path fill-rule="evenodd" clip-rule="evenodd" d="M29.24 119.16C30.1481 119.281 29.1795 120.13 29.6033 120.554C29.0584 120.312 28.9373 119.766 29.24 119.16Z" fill="#0081C6"/>
<path fill-rule="evenodd" clip-rule="evenodd" d="M32.2062 122.494C32.6299 121.888 32.8116 123.161 33.3564 123.1C32.9932 123.646 32.3878 122.736 32.2062 122.494Z" fill="#0081C6"/>
<path fill-rule="evenodd" clip-rule="evenodd" d="M103.399 125.585C103.883 125.828 103.217 126.555 102.612 126.373C102.672 125.949 103.217 125.949 103.399 125.585Z" fill="#0081C6"/>
<path fill-rule="evenodd" clip-rule="evenodd" d="M97.4057 126.373C97.8295 127.222 99.8878 126.494 100.13 127.525C99.3429 127.404 98.4349 126.797 98.1927 127.707C97.5873 127.585 98.3743 127.282 98.1927 126.919C97.6479 126.737 97.7084 127.222 97.2241 127.1C97.1636 126.676 97.3452 126.616 97.4057 126.312V126.373Z" fill="#0081C6"/>
<path fill-rule="evenodd" clip-rule="evenodd" d="M38.5628 126.555C38.7444 126.555 38.926 126.555 39.1682 126.555C39.1682 126.858 39.1077 127.1 39.3498 127.161C39.3498 127.585 38.5023 127.221 38.1996 127.343C38.2601 127.04 38.805 127.161 38.5628 126.555Z" fill="#0081C6"/>
<path fill-rule="evenodd" clip-rule="evenodd" d="M93.8945 128.313C93.8945 127.949 94.4394 128.07 94.2578 127.525C94.8026 127.949 95.2264 127.889 96.0134 127.707C96.195 127.889 96.1344 128.252 96.3766 128.313C95.7107 128.434 95.1658 130.131 96.195 130.252C95.7107 130.737 94.9237 129.889 94.4394 129.646C95.1053 129.404 95.2869 128.677 95.0448 128.07C94.4394 127.949 94.3183 128.252 93.8945 128.252V128.313Z" fill="#0081C6"/>
<path fill-rule="evenodd" clip-rule="evenodd" d="M91.9573 128.131C92.3811 128.01 92.6838 127.707 93.2892 127.767C92.6233 128.252 92.6233 128.434 92.3206 128.919C91.9573 128.858 91.8968 128.555 91.9573 128.131Z" fill="#0081C6"/>
<path fill-rule="evenodd" clip-rule="evenodd" d="M101.886 128.676C101.401 128.918 101.341 129.525 100.554 129.464C100.493 129.1 100.009 129.1 100.191 128.494C100.796 128.191 101.462 128.312 101.946 128.676H101.886Z" fill="#0081C6"/>
<path fill-rule="evenodd" clip-rule="evenodd" d="M47.8856 129.464C48.6121 129.161 48.2488 130.009 48.8542 129.828C48.6726 130.615 47.9462 129.949 47.8856 129.464Z" fill="#0081C6"/>
<path fill-rule="evenodd" clip-rule="evenodd" d="M90.9888 129.888C90.6256 130.312 91.1099 130.252 90.8072 130.676C90.2018 130.676 89.8991 130.434 89.4753 130.312C89.7175 129.524 90.4439 130.434 91.0493 129.949L90.9888 129.888Z" fill="#0081C6"/>
<path fill-rule="evenodd" clip-rule="evenodd" d="M49.0963 131.222C49.4595 131.646 49.8227 132.373 50.2465 131.585C50.6097 131.767 50.7308 132.252 50.4281 132.555C49.6411 132.555 49.52 131.949 48.8541 131.767C48.9752 131.646 49.0357 131.464 49.0357 131.161L49.0963 131.222Z" fill="#0081C6"/>
<path fill-rule="evenodd" clip-rule="evenodd" d="M54.121 131.646C54.5447 132.373 55.3923 131.404 55.2712 132.616C54.6658 132.495 54.121 132.313 54.121 131.646Z" fill="#0081C6"/>
<path fill-rule="evenodd" clip-rule="evenodd" d="M56.2399 132.01C56.7242 131.949 57.2085 131.949 57.0269 132.616C56.6637 132.555 56.1794 132.555 56.2399 132.01Z" fill="#0081C6"/>
<path fill-rule="evenodd" clip-rule="evenodd" d="M88.2645 132.373C87.8407 132.555 87.3564 133.222 86.9326 132.737C87.1142 132.312 87.9618 132.009 88.2645 132.373Z" fill="#0081C6"/>
<path fill-rule="evenodd" clip-rule="evenodd" d="M63.8072 133.767C63.9888 133.767 64.1704 133.767 64.4125 133.767C63.8677 134.434 63.7466 134.555 64.0493 135.525C63.8677 135.404 63.7466 135.343 63.4439 135.343C63.3229 134.616 63.6256 134.191 63.8072 133.767Z" fill="#0081C6"/>
<path fill-rule="evenodd" clip-rule="evenodd" d="M66.713 134.313C67.0762 135.283 67.2578 134.555 67.8632 134.313C68.1659 134.677 67.8632 134.555 67.8632 135.101C68.408 135.101 68.8923 135.101 69.4372 135.101C68.5291 135.768 67.1367 135.465 66.3497 134.919C66.4103 134.737 66.5313 134.737 66.5313 134.555C66.713 134.616 66.713 134.495 66.713 134.374V134.313Z" fill="#0081C6"/>
<path fill-rule="evenodd" clip-rule="evenodd" d="M123.255 106.553C122.892 106.492 123.134 105.826 122.468 105.947C122.226 106.553 123.134 106.977 123.255 106.553ZM122.65 105.219C123.316 104.977 123.921 105.765 124.224 105.219C123.921 105.159 123.982 104.795 123.861 104.613C123.376 104.735 123.074 104.977 122.711 105.219H122.65ZM124.224 101.522C124.89 101.522 124.708 102.371 125.374 102.31C125.314 102.007 125.677 101.825 125.374 101.704C125.193 102.31 124.587 100.674 124.224 101.522ZM105.397 126.009C105.457 125.888 104.246 126.433 104.246 125.403C104.67 125.342 104.973 125.463 105.215 125.585C104.791 125.16 104.791 124.857 105.215 124.433C104.489 124.009 103.217 124.918 103.278 123.463C103.702 123.16 104.246 123.948 105.215 123.645C105.155 122.615 104.549 123.342 104.065 123.463C105.578 121.524 106.789 119.342 109.332 118.433C109.392 118.069 109.271 117.826 108.968 117.826C110.664 116.857 111.814 116.129 112.056 114.493C113.025 113.523 115.325 113.281 114.78 111.402C115.264 111.341 115.204 111.765 115.749 111.584C115.628 111.402 115.325 111.402 115.385 110.977C116.959 110.856 116.899 108.977 118.715 109.038C119.381 108.553 118.957 106.795 120.289 106.492C119.684 103.765 122.408 102.977 123.376 101.219C123.316 100.977 122.892 101.037 122.59 101.037C122.65 100.371 123.437 100.371 123.376 99.4614C123.619 99.7038 124.103 99.7038 124.345 99.4614C123.437 97.5219 124.829 96.0066 125.677 94.4307C125.859 89.0363 129.794 83.2783 127.977 77.1566C127.796 76.7323 127.493 76.4899 126.827 76.5505C125.919 74.7322 123.8 73.3381 124.103 70.9137C123.982 70.4288 123.921 69.8833 123.316 69.9439C123.619 69.2772 124.042 69.0953 123.679 68.1862C125.253 67.8831 125.495 66.2466 125.616 64.4889C129.794 61.0947 125.859 55.0336 123.679 52.2455C123.377 50.609 123.8 49.0937 123.679 47.5785C123.437 45.154 121.318 43.5782 119.986 41.3355C119.623 40.6688 119.563 39.6991 119.199 39.2142C118.473 38.2444 117.383 37.9413 116.657 36.911C115.93 35.7593 114.841 35.2745 113.751 35.1532C113.69 34.1229 112.419 34.2441 112.601 33.0319C107.576 30.0619 103.581 26.001 97.6479 23.8796C94.3788 21.2127 89.2331 20.546 85.4192 18.4246C83.0582 18.4852 81.3631 17.8185 79.6075 17.273C79.0022 17.3942 78.5178 17.6367 78.0335 17.8791C76.8833 17.7579 76.1569 17.1518 74.704 17.273C72.8273 15.2122 68.8318 16.2426 66.3497 16.6669C64.1703 17.0306 62.0515 16.3032 59.9327 16.4851C56.6636 16.7275 54.0605 18.9095 51.3968 19.2126C51.0336 19.3944 51.0336 19.8793 50.7914 20.1823C49.0358 20.0005 45.5852 19.6975 45.5246 21.9401C44.6166 22.1825 43.8296 22.6068 43.4058 23.2735C41.2264 21.0309 39.4708 23.3341 37.4125 24.2433C37.2915 24.8494 37.7758 24.7888 37.5942 25.3949C36.3229 25.6373 35.8991 26.6677 34.3251 26.5465C34.0224 27.1526 35.3543 27.0314 35.2937 26.7283C35.7175 27.395 33.9013 27.5163 33.5381 28.0618C32.509 27.8799 32.509 27.0314 31.2377 27.4557C31.5404 26.9102 31.9641 27.3344 32.5695 26.8495C33.1749 27.0314 33.417 27.6375 34.1435 27.2132C34.1435 26.7889 33.4776 27.1526 33.1749 27.0314C33.7197 25.8192 35.4753 25.8192 36.6861 25.2737C36.565 24.7888 36.2018 24.4251 35.7175 24.3039C36.2018 23.6978 36.3229 23.819 37.2915 23.9402C37.4731 23.2735 36.6861 23.6372 36.3229 23.5766C36.9282 23.4553 37.1099 22.9098 37.4731 22.6068C38.3812 22.3037 36.9888 23.6978 38.0785 23.5766C38.5022 23.3947 38.3206 22.6674 39.2287 22.6068C39.2287 21.9401 38.139 22.3037 37.8969 21.8188C41.4686 17.8185 46.6749 15.2122 52.2444 13.4545C53.6973 13.0303 55.0291 12.1817 56.1188 11.1513C57.9349 11.0907 59.2668 10.5452 60.5986 9.99971C61.9304 10.5452 63.2017 9.69666 64.1098 9.21177C65.0784 9.75727 66.047 9.87849 67.3789 9.57543C69.2555 7.27222 72.7667 10.424 74.9461 8.42383C76.2779 9.27238 79.1838 8.78749 80.9394 9.02994C81.5448 8.90872 81.4842 9.51482 81.7264 9.81788C84.8138 9.57544 87.1142 9.09055 88.5066 11.1513C89.1725 11.0301 90.1411 10.7877 90.8071 10.9695C91.473 11.0907 91.5335 11.6968 92.3811 12.1211C94.5604 13.2727 98.1927 12.909 99.1613 14.8486C99.8272 14.7274 99.8878 15.1516 100.493 15.0304C100.312 15.5759 100.735 15.5153 100.675 16.0002C101.341 16.0608 101.764 16.3032 102.612 16.182C104.489 18.1822 107.637 18.9095 109.211 21.2127C113.872 24.1221 117.565 28.0011 121.258 31.8802C121.318 32.3045 121.137 32.4257 121.076 32.6682C125.374 36.4261 127.554 42.3659 130.581 47.4572C130.581 50.2453 130.581 51.7 132.518 53.4577C131.852 54.6699 132.881 55.7609 133.486 56.3671C133.365 59.4582 134.515 62.2463 134.637 64.9132C134.273 64.9132 134.213 65.1556 133.85 65.095C134.031 65.8223 134.092 66.6709 135 66.6709C134.818 66.8527 134.637 67.0346 134.394 67.277C134.697 68.065 135.302 68.9135 135.363 69.8227C135.424 70.4288 134.697 71.3379 134.758 71.944C134.758 72.1259 135.302 72.732 135.363 72.9138C135.363 73.7018 134.818 74.5503 134.758 75.4595C134.697 77.2172 135.787 79.4598 134.394 81.0963C134.939 82.551 134.394 85.2178 133.426 86.7331C133.547 87.0968 133.184 87.8847 133.607 87.8847C132.76 90.9759 131.428 94.1882 130.702 96.7945C128.764 98.7341 128.522 102.371 126.403 104.189C126.524 106.007 124.406 106.129 124.829 107.704C124.406 107.947 124.103 108.25 123.679 108.492C123.498 109.038 123.982 108.977 123.861 109.462C123.134 110.856 121.863 111.584 121.137 112.978C120.894 116.432 117.262 116.493 116.475 119.402C116.051 119.584 115.325 119.524 114.901 119.766C113.206 122.675 109.513 123.585 107.334 126.009C106.668 125.948 106.184 125.706 105.578 126.009C105.639 126.312 106.184 126.191 105.942 126.797C105.639 126.797 105.397 126.736 105.336 126.979C105.276 126.676 104.791 126.554 105.155 125.827L105.397 126.009Z" fill="#0081C6"/>
<path fill-rule="evenodd" clip-rule="evenodd" d="M10.8366 78.0056C10.8971 78.4904 10.4128 78.4904 10.2312 78.7935C10.1707 79.2784 9.74689 77.6419 10.8366 78.0056Z" fill="#0081C6"/>
<path fill-rule="evenodd" clip-rule="evenodd" d="M9.44421 80.9148C9.44421 80.7935 9.44421 80.6723 9.44421 80.5511C9.62583 80.6117 9.62583 80.4905 9.62583 80.3693C9.98906 80.5511 10.2312 81.8239 10.4128 81.5209C10.5944 81.5815 10.5339 81.8845 10.776 81.8845C10.7155 82.3088 9.92852 82.0058 9.80744 81.8845C10.1101 81.5815 9.98906 80.8542 9.44421 80.9148Z" fill="#0081C6"/>
<path fill-rule="evenodd" clip-rule="evenodd" d="M13.7421 89.6425C13.8026 89.3395 13.5604 89.2789 13.5604 89.0364C13.1367 89.2789 12.7734 89.5213 11.9865 89.4001C12.2286 88.5515 13.3183 87.9454 14.1053 88.2485C13.9842 89.0364 13.9842 88.8546 14.1053 89.6425C13.621 89.5819 13.6815 90.0062 13.1367 89.8244C13.1972 89.5819 13.4999 89.6425 13.7421 89.6425Z" fill="#0081C6"/>
<path fill-rule="evenodd" clip-rule="evenodd" d="M12.7736 87.0968C12.8342 87.4604 13.1368 87.521 13.5606 87.4604C12.8342 87.5817 12.8342 88.4302 11.9866 88.4302C11.9866 88.1272 11.9866 87.7635 11.9866 87.4604C11.6234 87.521 11.5023 87.8847 11.018 87.8241C11.0786 88.3696 11.8656 88.9151 10.8364 88.9757C10.4126 87.7635 11.018 87.7029 11.1996 86.4301C11.3207 87.6423 12.8342 86.3088 13.5001 87.0362C14.0449 87.3998 13.1368 86.8543 12.7131 87.0362L12.7736 87.0968Z" fill="#0081C6"/>
<path fill-rule="evenodd" clip-rule="evenodd" d="M14.3478 93.3399C14.2873 92.9762 13.924 92.855 13.9846 92.3701C14.8321 92.3701 14.6505 93.4005 15.1348 93.7036C14.4689 93.2187 13.4397 94.0672 14.3478 94.3097C14.1057 94.6733 13.3187 94.0672 12.7738 94.4915C12.7738 94.7946 13.924 94.7946 12.9554 94.8552C13.1976 95.4613 13.6819 94.5521 13.924 95.037C13.8635 95.4613 13.5608 95.5219 13.3187 95.8249C12.9554 95.3401 12.2895 95.037 12.3501 94.0672C13.5608 94.3703 13.5608 93.4611 14.2873 93.2793L14.3478 93.3399Z" fill="#0081C6"/>
<path fill-rule="evenodd" clip-rule="evenodd" d="M17.4349 98.9769C17.3744 98.7344 16.9506 98.795 16.6479 98.795C16.5874 98.3707 16.6479 98.0677 16.8296 97.8253C17.1928 97.704 17.2533 98.9162 17.6166 98.1889C18.1614 98.5526 17.1928 98.9162 17.4349 99.5223C17.1928 99.4617 17.1928 98.9162 17.4349 98.9162V98.9769Z" fill="#0081C6"/>
<path fill-rule="evenodd" clip-rule="evenodd" d="M15.0742 100.553C15.5585 100.068 15.8007 101.523 16.6482 101.341C16.5877 101.583 16.285 101.462 16.285 101.704C15.6796 101.523 15.6191 100.795 15.1348 100.553H15.0742Z" fill="#0081C6"/>
<path fill-rule="evenodd" clip-rule="evenodd" d="M125.374 101.704C125.677 101.765 125.314 101.947 125.374 102.311C124.648 102.371 124.829 101.523 124.224 101.523C124.648 100.674 125.253 102.311 125.374 101.704Z" fill="#0081C6"/>
<path fill-rule="evenodd" clip-rule="evenodd" d="M19.009 108.129C19.6144 107.462 20.4014 107.947 21.3095 107.947C20.8252 106.856 21.6122 107.765 21.6727 106.796C21.6122 106.553 21.3095 106.614 21.3095 106.796C20.8252 106.493 21.6122 105.826 22.2781 106.008C22.2781 106.19 22.0359 106.129 21.9149 106.19C22.2781 106.977 22.0965 107.099 22.5202 107.947C21.9149 107.584 21.6727 107.462 21.9149 108.311C21.3095 107.887 20.7646 108.614 20.1593 108.129C19.4328 108.25 20.2198 108.735 19.796 109.099C18.7669 108.856 20.583 107.887 19.009 108.129Z" fill="#0081C6"/>
<path fill-rule="evenodd" clip-rule="evenodd" d="M22.4598 109.826C22.5204 110.008 22.8231 109.947 22.8231 110.19C23.0652 110.129 23.0047 109.705 23.0047 109.402C23.9733 110.25 25.5473 111.523 26.0921 112.129C26.758 112.129 25.6684 112.796 26.2737 112.735C25.9711 113.281 25.85 112.917 25.1235 113.099C25.1841 112.796 25.7289 113.038 25.7289 112.735C25.5473 112.19 25.2446 112.978 24.7603 112.735C24.6998 112.432 24.9419 112.372 24.9419 112.129C24.2154 112.008 23.9733 112.493 23.1863 112.311C23.0652 111.766 23.5495 111.947 23.5495 111.523C23.9733 111.463 24.276 111.523 24.5181 111.705C24.8208 111.584 24.4576 111.463 24.5181 111.099C24.276 111.281 23.9733 111.341 23.5495 111.281C24.7603 110.553 23.4285 111.038 22.9442 110.493C22.5809 110.493 22.8231 111.159 22.3388 111.099C22.9442 111.705 22.5204 113.281 23.6706 113.22C23.1258 113.766 23.8522 114.008 23.8522 114.554C22.5204 113.523 21.7939 111.947 20.9464 110.493C21.5518 110.372 21.3096 111.038 21.915 110.856C21.128 109.887 21.4912 109.644 20.7648 109.099C20.1594 109.341 20.9464 109.765 20.7648 110.25C20.2805 110.008 19.9173 109.523 19.9778 108.674C21.7334 108.008 21.7939 109.584 22.8836 108.856C23.0652 109.462 22.3993 109.281 22.2782 109.644L22.4598 109.826Z" fill="#0081C6"/>
<path fill-rule="evenodd" clip-rule="evenodd" d="M26.7579 112.978C26.1525 114.251 27.4843 114.311 28.0897 114.918C27.9081 115.463 27.4843 114.615 26.9395 114.918C27 114.493 26.8184 114.372 26.7579 114.13C26.9395 115.039 25.6076 114.796 25.426 113.948C25.8498 113.584 26.213 113.16 26.7579 112.978Z" fill="#0081C6"/>
<path fill-rule="evenodd" clip-rule="evenodd" d="M27.121 115.463C26.6367 115.099 27.4237 115.463 27.7264 115.463C27.4842 116.069 27.6658 116.13 27.7264 116.797C27.9685 116.736 28.0896 116.857 28.0896 116.978C28.7555 116.797 28.2107 116.615 28.2712 116.009C29.1793 116.19 28.4528 115.706 28.8766 115.645C29.2398 116.19 30.0268 116.312 30.2084 116.978C29.1187 116.069 29.3004 117.706 28.2712 117.16C27.6658 117.403 28.4528 117.827 28.2712 118.312C27.0605 117.1 27.7264 116.918 27.121 115.403V115.463Z" fill="#0081C6"/>
<path fill-rule="evenodd" clip-rule="evenodd" d="M30.6322 120.918C30.269 120.918 30.3901 120.373 29.8453 120.555C30.0874 119.949 29.8453 120.13 29.8453 119.403C30.0874 119.403 30.3901 119.403 30.6322 119.403C30.6322 119.767 30.0874 119.645 30.269 120.191C30.9955 120.312 30.6928 119.464 31.2376 119.403C30.7533 118.736 29.9663 119.464 29.3004 118.797C29.482 118.373 29.9663 118.191 30.6322 118.191C30.6322 117.827 30.5112 117.706 30.269 117.585C30.6928 117.039 30.9955 118.312 31.6009 118.191C31.7825 118.979 31.3587 119.585 32.3879 119.161C32.3273 119.827 31.843 119.645 32.2062 120.312C31.6009 120.13 30.7533 119.949 30.6322 120.918Z" fill="#0081C6"/>
<path fill-rule="evenodd" clip-rule="evenodd" d="M44.6165 130.434C44.1928 129.949 43.5268 130.979 43.0425 130.434C44.6165 129.706 42.2555 129.1 42.8609 128.312C42.5582 128.312 42.195 128.312 41.8923 128.312C42.4372 128.555 42.2555 129.161 42.0739 129.646C40.8026 129.282 40.621 128.252 40.1367 126.555C40.5605 126.918 40.8026 127.403 40.9237 128.131C41.7107 128.07 41.7107 127.282 42.0739 126.797C42.3766 126.858 42.2555 127.403 42.8609 127.161C41.9529 128.009 43.1636 128.494 44.4349 128.312C44.3744 128.737 43.5874 128.373 43.6479 128.919C43.769 129.464 43.8295 130.01 44.6165 129.888C44.0112 129.282 44.7376 128.494 44.6165 127.767C44.9798 127.949 45.4641 128.979 45.9484 128.373C46.13 128.737 46.3116 129.161 46.5537 129.525C45.4035 129.646 46.2511 128.919 45.5851 128.737C44.9192 128.858 45.8878 130.373 44.6165 130.313C44.9192 131.161 45.2219 129.949 46.1905 130.313C46.13 130.919 45.8878 131.343 45.4035 131.464C44.8587 130.979 45.9484 131.161 45.4035 130.676C44.7981 130.434 45.2824 131.282 44.6165 131.04C44.6165 130.858 44.6165 130.676 44.6165 130.434Z" fill="#0081C6"/>
<path fill-rule="evenodd" clip-rule="evenodd" d="M86.9327 132.797C87.417 133.222 87.8407 132.555 88.2645 132.434C87.9013 132.131 87.0537 132.373 86.9327 132.797ZM90.0201 131.646C89.2936 131.949 89.6569 131.1 89.0515 131.282C89.112 132.191 88.1434 130.979 88.0829 131.888C88.9909 131.706 89.4753 131.949 90.0201 131.706V131.646ZM89.4147 130.312C89.8385 130.494 90.1412 130.737 90.7465 130.676C91.1098 130.252 90.6255 130.312 90.9282 129.888C90.3228 130.373 89.5963 129.524 89.3542 130.252L89.4147 130.312ZM94.6815 128.979C93.7734 128.797 93.9551 129.646 92.9259 129.343C92.9259 129.524 92.9259 129.706 92.9259 129.949C92.8654 130.252 93.9551 130.252 93.8945 129.949C93.834 130.312 94.5604 130.252 94.4999 131.1C93.5313 131.161 93.047 130.737 92.3811 130.494C92.8048 131.1 93.4708 131.525 94.1367 131.828C94.8026 131.888 94.8026 130.797 95.4685 131.464C95.4685 131.222 95.4685 130.918 95.4685 130.676C96.6187 131.403 98.0111 129.949 98.1927 128.918C99.5246 128.615 97.8295 130.191 99.1613 129.888C98.677 130.797 97.2846 130.737 97.0425 131.828C94.8026 131.464 93.5313 133.585 90.8071 133.404C88.9304 135.343 84.5717 134.131 82.4528 136.131C78.8206 135.949 74.6434 136.131 70.5874 135.525C71.0112 135.04 72.1008 135.04 71.9192 134.555C72.6457 134.555 72.8273 135.04 73.2511 135.343C73.8565 134.979 73.0089 134.434 72.4641 134.555C72.2825 132.252 75.6726 134.555 76.1569 132.797C78.2152 133.767 82.8161 133.404 83.7241 131.04C84.4506 131.161 84.8138 131.343 85.056 130.676C85.964 131.282 87.7197 130.676 87.9618 129.524C89.112 129.1 90.5044 129.161 91.6546 128.373C91.6546 128.555 91.4125 128.555 91.2914 128.555C91.5335 128.979 92.1389 129.1 92.6232 129.343C93.047 129.282 92.6838 128.494 92.9865 128.373C93.5918 128.918 94.5604 127.949 94.5604 128.979H94.6815Z" fill="#0081C6"/>
<path fill-rule="evenodd" clip-rule="evenodd" d="M49.6411 130.07C48.9147 130.676 48.3698 131.404 47.5223 131.828C48.1277 132.01 48.4909 132.07 48.8541 132.798C47.825 132.131 47.1591 133.101 46.3115 132.01C46.5537 131.767 46.9169 131.646 46.3115 131.404C46.6142 130.676 46.6142 131.828 47.0985 131.585C47.2801 131.04 48.6725 130.434 49.6411 130.01V130.07Z" fill="#0081C6"/>
<path fill-rule="evenodd" clip-rule="evenodd" d="M52.9708 131.404C52.9708 131.585 52.7286 131.585 52.6075 131.585C52.6075 131.949 52.7286 132.07 52.9708 132.192C52.7892 132.737 52.3654 132.07 52.0022 132.192C52.0627 132.798 50.9125 133.283 51.0336 133.949C50.7914 133.343 50.8519 131.343 51.3968 130.858C51.2757 131.464 51.2757 131.222 51.3968 131.828C52.0627 131.949 51.6389 131.04 52.3654 131.222C52.2443 131.404 52.1838 131.525 52.1838 131.828C52.547 131.828 52.4259 131.282 52.9708 131.464V131.404Z" fill="#0081C6"/>
<path fill-rule="evenodd" clip-rule="evenodd" d="M88.0829 131.828C88.1434 130.919 89.112 132.192 89.0515 131.222C89.6569 131.101 89.2937 131.888 90.0201 131.585C89.4753 131.888 88.991 131.585 88.0829 131.767V131.828Z" fill="#0081C6"/>
<path fill-rule="evenodd" clip-rule="evenodd" d="M64.5943 135.283C64.7759 135.222 65.5629 134.98 65.9261 135.283C65.9261 135.949 64.7154 135.404 64.7759 136.071C64.11 136.01 65.2602 135.343 64.5943 135.283Z" fill="#0081C6"/>
<path fill-rule="evenodd" clip-rule="evenodd" d="M64.7755 136.07C64.7755 135.404 65.9863 135.949 65.9257 135.283C65.502 134.98 64.715 135.222 64.5939 135.283C65.2598 135.343 64.1096 136.01 64.7755 136.07ZM66.5311 134.495C66.5311 134.676 66.3495 134.737 66.3495 134.858C67.197 135.404 68.5894 135.707 69.4369 135.04C68.8921 135.04 68.4078 135.04 67.863 135.04C67.863 134.495 68.1656 134.676 67.863 134.252C67.2576 134.495 67.076 135.222 66.7127 134.252C66.7127 134.373 66.7127 134.495 66.5311 134.434V134.495ZM63.4437 135.283C63.6858 135.283 63.8675 135.404 64.0491 135.464C63.7464 134.495 63.8675 134.373 64.4123 133.707C64.2307 133.707 64.0491 133.707 63.8069 133.707C63.5648 134.131 63.3226 134.495 63.4437 135.283ZM58.6006 133.525C58.6006 133.707 58.6006 133.889 58.6006 134.131C59.4482 134.434 59.085 133.464 59.7509 133.525C59.8114 134.434 60.3563 134.616 59.7509 135.283C60.1141 135.525 61.2038 135.161 62.0513 135.283C61.3249 134.737 60.9011 133.949 60.2957 133.343C60.9011 132.797 61.567 133.767 62.2329 133.707C62.1724 133.949 61.9908 134.131 61.6275 134.07C62.1118 134.616 62.6567 133.464 62.2329 132.919C64.3518 133.525 66.8944 133.707 69.0132 134.07C69.1343 135.222 69.9818 134.616 70.345 135.04C70.1029 134.798 69.4975 136.313 70.5266 135.646C70.5872 136.131 69.6186 135.525 69.9213 136.252C69.558 136.192 69.2553 136.131 69.1343 135.828C68.7105 136.07 68.5894 136.616 68.1657 136.798C67.2576 135.343 64.8966 136.555 64.6544 137.161C63.928 137.465 62.4751 136.798 62.354 135.828C61.9302 135.889 61.6275 135.828 61.3854 135.646C60.78 135.767 61.1432 136.192 61.2038 136.616C59.3876 136.01 55.6948 136.07 56.9056 133.888C57.1477 133.949 57.0872 134.252 57.0872 134.495C57.7531 134.555 57.3899 133.646 58.2374 133.888C58.419 133.282 57.8137 133.525 57.4504 133.525C57.8137 133.101 57.9953 132.858 57.0872 132.919C57.0872 132.131 58.6612 133.343 58.8428 132.313C59.4482 132.313 59.3876 132.919 60.1746 132.676C59.993 133.464 59.3271 133.101 58.419 133.464L58.6006 133.525Z" fill="#0081C6"/>
<path fill-rule="evenodd" clip-rule="evenodd" d="M52.3653 133.344C52.9101 133.344 52.8496 133.889 53.1523 134.131C53.5155 133.647 55.3316 133.586 55.2711 134.313C54.6052 134.495 54.4236 133.95 54.1209 134.313C54.242 134.495 54.5447 134.495 54.4841 134.919C53.7577 134.798 53.5155 134.192 52.5469 134.313C52.6074 133.828 52.1837 133.889 52.3653 133.344Z" fill="#0081C6"/>
<path fill-rule="evenodd" clip-rule="evenodd" d="M110.724 33.1536C110.603 33.3961 110.542 33.6385 110.24 33.6385C110.179 33.2748 110.482 33.2142 110.724 33.1536Z" fill="#DE1D2C"/>
<path fill-rule="evenodd" clip-rule="evenodd" d="M110.543 33.6384C110.724 33.8202 110.724 33.5778 111.027 33.6384C110.845 33.8809 110.785 33.9415 111.148 34.0021C110.966 34.2445 110.482 33.9415 110.543 33.6384Z" fill="#DE1D2C"/>
<path fill-rule="evenodd" clip-rule="evenodd" d="M113.872 37.3961C113.872 37.2748 114.054 37.3355 114.175 37.2748C114.235 37.6991 114.054 37.6385 114.175 37.9416C113.993 38.0628 113.63 37.8203 113.569 37.5779C113.751 37.6385 114.175 37.5173 113.872 37.3961Z" fill="#DE1D2C"/>
<path fill-rule="evenodd" clip-rule="evenodd" d="M121.016 51.1545C121.439 51.0939 120.955 51.3363 121.137 51.6394C121.016 51.6394 120.895 51.6394 120.713 51.6394C120.774 51.3969 121.076 51.4575 121.016 51.1545Z" fill="#DE1D2C"/>
<path fill-rule="evenodd" clip-rule="evenodd" d="M121.258 51.5189C121.621 51.4583 121.379 52.0037 121.439 52.1856C121.258 52.1856 121.258 52.0644 121.318 52.0644C121.258 51.7613 121.076 52.1856 120.894 52.0644C120.834 51.7007 121.318 51.8825 121.197 51.4583L121.258 51.5189Z" fill="#DE1D2C"/>
<path fill-rule="evenodd" clip-rule="evenodd" d="M124.829 57.2768C125.071 56.9131 125.011 57.6405 125.011 57.8829C124.89 57.9435 124.769 57.5192 124.708 57.7617C124.406 57.6405 124.829 57.5192 124.89 57.4586C124.89 57.3374 124.89 57.2768 124.769 57.2768H124.829Z" fill="#DE1D2C"/>
<path fill-rule="evenodd" clip-rule="evenodd" d="M125.616 64.2467C125.919 64.1255 126.04 64.1255 126.04 64.5497C125.798 64.5497 125.616 64.4891 125.616 64.2467Z" fill="#DE1D2C"/>
<path fill-rule="evenodd" clip-rule="evenodd" d="M21.4911 81.3391C21.3095 80.7936 21.3095 81.3997 20.8252 81.3391C20.7041 80.6724 21.9149 80.7936 21.4911 81.3391Z" fill="#DE1D2C"/>
<path fill-rule="evenodd" clip-rule="evenodd" d="M21.1885 82.1272C21.4912 82.006 21.249 82.4303 21.5517 82.309C21.6122 82.4909 21.4912 82.4909 21.3701 82.4909C21.3701 82.6727 21.4912 82.6727 21.4912 82.8545C21.1279 82.8545 21.3701 82.2484 21.1885 82.0666V82.1272Z" fill="#DE1D2C"/>
<path fill-rule="evenodd" clip-rule="evenodd" d="M121.197 82.6117C121.56 82.4905 121.439 83.2178 121.076 82.9754C121.076 82.7935 121.197 82.7935 121.197 82.6117Z" fill="#DE1D2C"/>
<path fill-rule="evenodd" clip-rule="evenodd" d="M22.0965 83.4001C22.157 83.7637 21.7333 84.1274 22.0965 84.6729C21.9149 84.6729 21.9754 84.9153 21.6727 84.8547C21.4911 84.3092 21.8543 84.188 21.5516 83.5819C21.8543 83.885 21.7333 83.3395 22.0359 83.4001H22.0965Z" fill="#DE1D2C"/>
<path fill-rule="evenodd" clip-rule="evenodd" d="M22.702 83.3996C22.8837 83.642 22.8837 84.0663 23.0047 84.3694C22.702 84.1875 22.581 83.7026 22.702 83.3996Z" fill="#DE1D2C"/>
<path fill-rule="evenodd" clip-rule="evenodd" d="M121.016 84.6726C121.137 85.0362 120.652 84.915 120.834 85.3393C120.652 85.2787 120.592 85.0362 120.652 84.7332C120.834 84.7332 120.834 84.6119 121.016 84.6119V84.6726Z" fill="#DE1D2C"/>
<path fill-rule="evenodd" clip-rule="evenodd" d="M21.9148 85.097C22.0964 85.097 22.2175 85.097 22.3991 85.097C22.3991 85.2789 22.3991 85.4001 22.3991 85.5819C22.1569 85.5213 21.7937 85.5213 21.9148 85.097Z" fill="#DE1D2C"/>
<path fill-rule="evenodd" clip-rule="evenodd" d="M122.166 89.2181C122.347 89.4606 122.347 90.006 122.65 90.1273C122.347 90.6122 122.287 91.8244 121.439 91.5213C122.045 90.9758 121.742 89.5818 121.318 89.2787C121.56 89.0363 121.742 89.3393 122.105 89.2787L122.166 89.2181Z" fill="#DE1D2C"/>
<path fill-rule="evenodd" clip-rule="evenodd" d="M115.386 97.9464C115.143 98.3101 114.901 98.7344 114.72 99.1587C114.538 98.9768 113.993 99.1587 114.054 98.7344C114.599 98.6738 114.599 97.8858 115.446 97.9464H115.386Z" fill="#DE1D2C"/>
<path fill-rule="evenodd" clip-rule="evenodd" d="M117.262 98.1282C117.323 97.9464 117.868 98.007 117.928 98.1282C117.989 98.3706 117.747 98.3706 117.807 98.6131C117.323 98.7343 117.444 98.2494 117.202 98.1282H117.262Z" fill="#DE1D2C"/>
<path fill-rule="evenodd" clip-rule="evenodd" d="M116.839 99.5827C117.02 99.5221 117.081 99.6433 117.202 99.7039C117.081 99.8251 117.141 100.128 116.839 100.068C116.657 99.8857 116.839 99.8251 116.839 99.5827Z" fill="#DE1D2C"/>
<path fill-rule="evenodd" clip-rule="evenodd" d="M115.991 100.371C116.294 100.31 116.354 100.553 116.657 100.492C116.536 100.795 116.475 101.219 115.991 101.159C115.809 101.098 115.991 100.674 115.809 100.674C115.87 100.553 116.051 100.553 115.991 100.371Z" fill="#DE1D2C"/>
<path fill-rule="evenodd" clip-rule="evenodd" d="M33.1748 101.765C33.2353 101.462 33.3564 101.886 33.5986 101.765C33.5986 101.947 33.5986 102.068 33.5986 102.25C33.3564 102.25 33.417 101.826 33.1748 101.765Z" fill="#DE1D2C"/>
<path fill-rule="evenodd" clip-rule="evenodd" d="M115.567 101.704C115.628 102.189 115.446 102.432 115.083 102.492C115.083 102.25 115.083 102.007 115.083 101.825C115.386 101.886 115.325 101.704 115.567 101.704Z" fill="#DE1D2C"/>
<path fill-rule="evenodd" clip-rule="evenodd" d="M114.114 103.341C113.933 103.644 113.812 103.947 113.63 104.25C113.509 104.068 113.69 103.341 114.114 103.341Z" fill="#DE1D2C"/>
<path fill-rule="evenodd" clip-rule="evenodd" d="M36.5649 104.856C36.8676 104.917 37.0492 105.099 37.1703 105.341C36.7465 105.402 36.3833 105.099 36.5649 104.856Z" fill="#DE1D2C"/>
<path fill-rule="evenodd" clip-rule="evenodd" d="M38.3813 108.069C38.0181 108.129 37.897 107.887 37.4733 107.947C37.5943 107.584 38.3813 107.462 38.3813 108.069Z" fill="#DE1D2C"/>
<path fill-rule="evenodd" clip-rule="evenodd" d="M38.6838 108.674C38.8049 108.674 38.7443 108.796 38.8049 108.856C39.047 108.917 39.047 108.674 39.2892 108.735C39.4103 109.038 38.4417 109.038 38.6838 108.614V108.674Z" fill="#DE1D2C"/>
<path fill-rule="evenodd" clip-rule="evenodd" d="M39.0473 110.251C38.9262 110.251 38.8656 110.251 38.8656 110.129C38.7446 110.129 38.8051 110.251 38.7446 110.311C38.6235 110.251 38.5024 110.19 38.3208 110.129C38.4419 109.887 38.9262 109.887 38.9867 110.251H39.0473Z" fill="#DE1D2C"/>
<path fill-rule="evenodd" clip-rule="evenodd" d="M40.6212 110.25C40.8634 110.311 41.045 110.735 40.8028 110.917C40.6212 110.796 40.7423 110.372 40.6212 110.25Z" fill="#DE1D2C"/>
<path fill-rule="evenodd" clip-rule="evenodd" d="M40.4395 110.674C40.4395 110.917 40.3184 110.978 40.1368 111.099C39.8946 111.099 39.7736 110.978 39.7736 110.674C40.0762 110.735 40.2579 110.432 40.4395 110.674Z" fill="#DE1D2C"/>
<path fill-rule="evenodd" clip-rule="evenodd" d="M41.2263 111.281C41.2263 111.402 41.2263 111.462 41.3474 111.462C41.1052 111.644 40.8631 111.22 40.4393 111.462C40.4393 111.341 40.4393 111.281 40.3182 111.281C40.5604 110.856 40.6815 111.402 41.2263 111.281Z" fill="#DE1D2C"/>
<path fill-rule="evenodd" clip-rule="evenodd" d="M40.8633 111.644C41.166 111.765 41.2871 111.765 41.5292 111.644C41.5898 111.765 41.6503 111.826 41.8319 111.826C41.5897 112.311 41.3476 111.826 40.9238 112.129C40.9238 112.008 41.0449 112.068 41.1054 112.008C41.0449 111.826 40.7422 111.947 40.8028 111.644H40.8633Z" fill="#DE1D2C"/>
<path fill-rule="evenodd" clip-rule="evenodd" d="M104.731 112.251C104.549 112.433 104.125 112.736 104.065 112.433C104.186 112.311 104.489 112.251 104.731 112.251Z" fill="#DE1D2C"/>
<path fill-rule="evenodd" clip-rule="evenodd" d="M43.5873 112.432C43.5267 112.796 43.4057 113.099 43.7689 113.22C43.4662 113.584 43.1635 113.038 42.8003 113.099C42.9214 112.856 42.9819 112.917 42.9214 112.614C43.3451 112.735 43.2846 112.432 43.5873 112.432Z" fill="#DE1D2C"/>
<path fill-rule="evenodd" clip-rule="evenodd" d="M99.7062 112.553C99.8273 112.553 99.9483 112.553 100.069 112.553C99.8878 112.796 100.251 113.099 99.7062 113.038C99.7062 112.857 99.7062 112.735 99.7062 112.553Z" fill="#DE1D2C"/>
<path fill-rule="evenodd" clip-rule="evenodd" d="M42.1344 112.856C42.2555 112.977 42.316 113.159 42.6187 113.038C42.6792 113.341 42.2555 113.159 42.1949 113.341C42.2555 113.462 42.4976 113.462 42.6792 113.523C42.5582 113.705 42.2555 113.644 42.0739 113.705C42.0739 113.402 42.0739 113.099 42.0739 112.796L42.1344 112.856Z" fill="#DE1D2C"/>
<path fill-rule="evenodd" clip-rule="evenodd" d="M44.98 113.099C45.0406 113.16 45.1616 113.221 45.2827 113.221C45.2222 113.706 45.1011 113.463 45.1011 113.887C45.0406 113.827 44.8589 113.766 44.6773 113.766C44.6168 113.403 45.1616 113.584 44.98 113.099Z" fill="#DE1D2C"/>
<path fill-rule="evenodd" clip-rule="evenodd" d="M100.069 115.281C99.9481 115.826 99.3427 115.463 99.1611 115.584C99.1006 115.584 99.04 115.523 99.04 115.463C99.04 115.402 99.04 115.342 99.04 115.281C99.2217 115.16 99.6454 115.342 100.009 115.281H100.069Z" fill="#DE1D2C"/>
<path fill-rule="evenodd" clip-rule="evenodd" d="M98.011 115.888C98.3137 116.009 98.3743 116.312 98.1321 116.494C97.8899 116.494 98.0716 116.069 98.011 115.888Z" fill="#DE1D2C"/>
<path fill-rule="evenodd" clip-rule="evenodd" d="M48.7332 116.008C49.0359 116.069 48.9753 116.493 49.0359 116.796C48.9148 116.796 48.8543 116.796 48.8543 116.917C48.5516 116.796 48.5516 116.372 48.0673 116.433C48.3094 116.19 48.7332 116.614 48.7332 116.008Z" fill="#DE1D2C"/>
<path fill-rule="evenodd" clip-rule="evenodd" d="M96.74 116.069C97.0427 115.827 97.2243 116.554 97.4059 116.736C97.2243 116.736 97.2243 116.857 96.9821 116.857C96.8611 116.615 96.8005 116.312 96.6794 116.069H96.74Z" fill="#DE1D2C"/>
<path fill-rule="evenodd" clip-rule="evenodd" d="M53.9393 117.766C54.2419 118.009 54.3025 117.888 54.6052 117.766C54.4236 118.251 53.9998 118.191 54.1814 118.979C53.6971 118.736 53.3339 118.372 53.8787 117.766H53.9393Z" fill="#DE1D2C"/>
<path fill-rule="evenodd" clip-rule="evenodd" d="M54.4238 120.009C54.5449 120.07 54.5449 120.312 54.6054 120.494C54.2422 120.373 54.4238 120.736 54.1211 120.676C53.879 120.433 54.4238 120.312 54.4238 120.009Z" fill="#DE1D2C"/>
<path fill-rule="evenodd" clip-rule="evenodd" d="M62.7173 120.615C62.6567 120.857 62.3541 120.857 62.1119 120.918C62.0514 120.554 62.4146 120.615 62.7173 120.615Z" fill="#DE1D2C"/>
<path fill-rule="evenodd" clip-rule="evenodd" d="M66.0471 120.918C65.9261 121.282 65.5023 121.039 65.3812 121.039C65.4418 120.857 65.9261 120.797 66.0471 120.918Z" fill="#DE1D2C"/>
<path fill-rule="evenodd" clip-rule="evenodd" d="M56.7848 121.039C56.4216 121.645 57.3902 121.1 57.0875 121.706C57.5113 121.766 57.0875 120.979 57.5718 121.1C57.7534 121.282 57.5113 121.403 57.4507 121.585C58.1167 121.585 58.2377 122.009 58.722 121.706C58.8431 122.191 58.2377 121.888 58.4193 122.373C57.7534 121.827 56.3005 121.888 56.1189 121.1C56.24 120.736 56.4216 121.039 56.7243 120.979L56.7848 121.039Z" fill="#DE1D2C"/>
<path fill-rule="evenodd" clip-rule="evenodd" d="M63.9886 122.009C64.5335 121.888 64.8362 122.312 64.594 122.676C64.4124 122.615 64.2308 122.494 64.2913 122.191C64.1097 122.251 63.9886 122.191 63.9886 122.009Z" fill="#DE1D2C"/>
<path fill-rule="evenodd" clip-rule="evenodd" d="M68.3477 122.494C68.3477 122.736 67.9239 122.554 67.7423 122.615C67.7423 122.372 68.2266 122.372 68.3477 122.494Z" fill="#DE1D2C"/>
<path fill-rule="evenodd" clip-rule="evenodd" d="M70.2242 122.676C70.3453 122.857 70.2242 123.1 70.3453 123.464C70.1637 123.282 69.861 123.221 69.861 122.857C70.1031 122.857 70.2242 122.857 70.2242 122.676Z" fill="#DE1D2C"/>
<path fill-rule="evenodd" clip-rule="evenodd" d="M67.076 122.918C67.076 122.797 67.2577 122.858 67.3787 122.797C67.3787 123.04 67.6209 123.161 67.4998 123.403C67.1971 123.403 67.2577 123.04 67.076 122.918Z" fill="#DE1D2C"/>
<path fill-rule="evenodd" clip-rule="evenodd" d="M66.6522 122.918C66.8338 122.918 66.8944 123.1 66.8338 123.281C66.7128 123.281 66.6522 123.281 66.5311 123.281C66.4706 123.1 66.5917 123.039 66.6522 122.918Z" fill="#DE1D2C"/>
<path fill-rule="evenodd" clip-rule="evenodd" d="M65.8657 123.1C66.1684 123.039 66.0473 123.403 66.1684 123.585C65.8657 123.645 65.8657 123.342 65.8657 123.1Z" fill="#DE1D2C"/>
<path fill-rule="evenodd" clip-rule="evenodd" d="M71.9799 123.1C71.6772 123.403 72.2826 123.221 72.1615 123.585C71.7377 123.646 71.7377 123.282 71.2534 123.403C71.2534 123.1 71.6772 123.221 71.9193 123.1H71.9799Z" fill="#DE1D2C"/>
<path fill-rule="evenodd" clip-rule="evenodd" d="M121.016 52.1242C121.197 52.2455 121.318 51.8212 121.439 52.1242C121.318 52.1242 121.379 52.2455 121.561 52.2455C121.5 52.003 121.742 51.4575 121.379 51.5787C121.5 52.003 121.016 51.7606 121.076 52.1849L121.016 52.1242ZM120.713 51.6394C120.834 51.6394 120.955 51.6394 121.137 51.6394C121.016 51.3363 121.439 51.0939 121.016 51.1545C121.076 51.4575 120.774 51.3969 120.713 51.6394ZM113.63 37.6382C113.63 37.9413 114.054 38.1837 114.235 38.0019C114.114 37.6988 114.296 37.6988 114.235 37.3352C114.114 37.3352 113.933 37.3352 113.933 37.4564C114.235 37.5776 113.812 37.7595 113.63 37.6382ZM111.148 34.0622C110.845 33.941 110.845 33.8804 111.027 33.6985C110.724 33.6379 110.724 33.8804 110.543 33.6985C110.482 34.0622 110.966 34.3046 111.148 34.0622ZM110.24 33.6985C110.543 33.6379 110.603 33.4561 110.724 33.2136C110.482 33.2743 110.179 33.3349 110.24 33.6985ZM58.0562 20.0611C58.2378 19.8186 58.4799 19.6974 58.4799 19.2731C58.7221 19.2731 58.7826 19.3944 58.7826 19.6368C59.2669 19.2731 60.2355 18.667 60.6593 19.455C60.7804 19.455 60.8409 19.0307 60.8409 19.455C62.2938 17.8791 65.8656 18.0003 68.0449 17.4548C68.0449 17.576 68.0449 17.7579 68.166 17.7579C69.0741 17.0911 69.74 17.6972 70.8297 17.3336C70.9508 17.4548 71.1929 17.3942 71.1324 17.6366C71.3745 17.6972 71.314 17.4548 71.4351 17.3336C71.6167 17.3942 71.7377 17.576 71.9194 17.6366C73.3117 16.9699 76.0359 17.0305 77.731 17.6366C78.6996 17.576 80.3341 17.3942 80.879 17.9397C81.0606 17.6366 81.3027 17.9397 81.5449 17.7579C84.8139 18.5458 88.4462 19.5762 91.7758 20.6066C91.8969 20.7278 91.8364 20.7884 91.7758 20.9096C92.6234 20.6066 93.1682 21.3339 94.4395 21.6976C95.4081 22.0006 96.3767 21.6976 96.6794 22.4855C97.3453 21.8794 97.7691 22.5461 98.5561 22.6067C98.6771 23.0916 98.9193 23.3947 99.3431 23.5765C99.2825 23.5159 99.222 23.3947 99.222 23.2735C99.5852 23.3947 99.6458 23.5159 100.191 23.5765C100.191 23.3947 100.07 23.3947 100.07 23.2128C99.7668 23.0916 100.009 23.5159 99.6458 23.3947C99.9484 22.6673 99.1009 23.4553 99.2825 22.6067C99.8274 22.728 100.251 23.031 100.251 23.3947C100.554 23.4553 100.493 23.2735 100.735 23.2735C100.675 23.5159 101.22 23.6371 100.917 23.7583C101.946 24.4857 103.278 26.304 104.67 26.7283C104.973 27.5162 105.397 27.5768 105.942 28.1223C105.942 28.486 105.76 28.5466 106.063 28.7284C106.063 28.9103 105.881 28.9709 105.639 28.9103C105.881 29.2133 106.244 28.7284 106.426 29.0921C106.487 29.0921 106.487 28.6072 106.426 28.6072C106.487 28.3648 106.85 28.789 106.608 28.9103C107.213 29.3952 107.697 29.88 108.061 30.6074C108.848 31.0923 109.574 31.6378 109.816 32.6681C109.998 32.6681 110.24 32.6681 110.422 32.6681C110.603 33.153 110.906 33.4561 111.087 33.941C111.269 33.6379 111.451 33.8198 111.269 34.1228C111.33 34.4259 111.39 33.8804 111.632 34.0016C111.693 34.3046 111.935 34.4865 112.056 34.7895C112.177 34.7895 112.117 34.6683 112.177 34.6077C112.722 34.9107 112.722 35.6381 113.085 36.0624C113.267 36.3654 113.751 36.4866 113.993 36.7291C114.356 37.0927 114.417 37.8807 115.083 37.8201C114.72 38.1837 114.962 38.608 115.204 38.9111C115.143 38.9717 114.962 39.0323 114.78 39.0323C114.841 39.2141 115.083 39.2141 114.901 39.396C115.204 39.396 115.386 39.2141 115.507 39.0323C115.93 39.1535 115.688 39.3353 115.809 39.699C115.688 39.699 115.507 39.699 115.507 39.8202C115.809 40.0021 115.749 39.9415 115.87 40.3051C115.507 40.4263 115.567 40.0021 115.204 40.1233C114.962 40.3051 115.567 40.4869 115.688 40.6082C115.991 40.4263 115.991 40.2445 116.475 40.4263C116.475 40.9718 116.778 40.9112 116.354 41.2143C116.596 41.2749 117.141 41.0931 116.839 40.9112C117.323 40.7294 117.02 41.4567 116.536 41.3961C117.02 41.6992 117.323 42.4871 117.807 42.4871C117.807 43.6993 119.078 44.4873 118.413 45.0328C118.534 45.3358 118.776 44.9115 119.018 45.0328C119.018 45.2752 118.715 45.2752 118.594 45.457C118.655 45.6389 118.776 45.6995 118.897 45.8207C119.018 45.6995 118.897 45.6389 118.897 45.3358C119.139 45.5783 119.078 45.2146 119.381 45.2146C119.442 45.457 119.563 45.5783 119.563 45.8813C119.442 45.8813 119.321 45.8813 119.139 45.8813C119.805 46.1238 119.502 46.9723 120.047 46.9723C119.865 47.5784 120.229 48.0633 120.652 48.1845C120.471 48.427 120.895 48.7906 120.35 48.7906C120.652 49.518 121.561 49.6392 121.742 50.5484C121.621 50.5484 121.439 50.5484 121.439 50.6696C121.561 50.912 121.803 50.4878 121.924 50.7908C121.682 51.1545 121.863 51.5787 121.318 51.5787C121.379 51.7 121.197 52.0636 121.439 52.0636C121.803 52.2455 121.5 51.6394 121.742 51.7C122.226 51.8818 122.59 52.2455 122.832 52.6697C122.832 53.0334 122.408 52.9728 122.348 53.2759C122.408 53.3365 122.469 53.4577 122.469 53.5789C122.711 53.7607 122.65 53.1546 122.771 53.4577C122.771 54.0638 122.226 53.3365 122.105 53.2759C121.742 53.7607 121.439 55.2154 122.408 55.5185C122.408 55.7003 122.045 55.5791 121.984 55.7003C121.984 56.1852 122.59 55.5791 122.469 56.0033C122.348 56.0033 122.226 56.0033 122.045 56.0033C122.711 57.458 121.439 60.1855 123.135 61.3371C123.074 62.0038 122.469 62.913 122.953 63.7009C123.256 67.9437 123.013 71.7622 123.074 75.5201C122.832 75.5807 122.892 76.0049 122.65 76.1262C122.65 76.4292 122.892 76.4292 122.832 76.7323C121.863 78.49 122.771 80.4901 121.137 81.8842C121.016 80.0053 121.318 78.2475 121.621 76.2474C121.561 70.3075 120.774 62.7918 118.836 56.9731C117.989 54.3062 116.536 51.7606 115.507 49.2755C114.659 47.3966 113.206 45.2752 112.056 43.6387C111.814 43.2751 111.572 42.972 111.087 42.8508C109.877 41.1537 109.029 39.2141 107.213 38.1231C106.729 36.426 104.61 36.3048 103.944 34.7895C103.096 34.244 101.946 33.941 101.583 32.9106C100.796 32.7288 100.191 32.3045 99.8274 31.6984C98.0112 31.0923 96.7399 29.88 95.1659 29.0315C93.5314 28.789 92.6839 27.7587 91.5337 27.0313C89.8386 27.0313 88.5673 25.7585 86.9933 25.5767C86.0853 25.4554 84.9956 25.7585 84.2086 24.9706C83.1189 25.0918 82.3319 24.3644 81.4238 24.1826C80.8184 24.0614 80.1525 24.2432 79.6682 24.0008C79.4866 23.9402 79.5471 23.7583 79.3655 23.6977C78.8812 23.5765 78.3364 23.7583 77.7915 23.6977C76.5808 23.5159 75.249 22.4855 73.8566 23.2128C71.9194 22.6067 69.0741 23.3947 67.4395 22.9098C61.0225 23.6977 55.3319 25.213 50.3678 27.5768C50.1862 27.395 50.0046 27.698 49.7624 27.4556C49.5808 27.6374 49.2781 27.6981 49.2781 28.0617C49.0965 27.8193 48.7333 28.2435 48.4912 27.9405C47.8858 28.789 47.1593 29.4558 45.9486 29.6982C45.7064 29.6982 45.7669 30.0619 45.6459 30.1831C44.3746 30.4862 43.9508 31.3953 42.8006 31.9408C42.619 31.9408 42.74 32.3045 42.619 32.3651C42.0741 32.4863 41.7109 32.85 41.4082 33.2743C41.1661 33.3349 40.9844 33.3955 40.8028 33.4561C35.6571 36.9715 32.6907 42.6689 29.4822 47.8815C29.5428 48.3058 29.3611 48.427 29.3611 48.7906C29.2401 48.7906 29.1795 48.7906 29.0585 48.7906C28.8163 49.8816 28.4531 51.1545 27.7872 51.5787C28.2715 52.9122 26.6975 54.0032 26.8186 55.3366C26.3342 55.2154 26.3948 55.7003 26.1526 55.8215C25.7289 55.8821 25.6683 55.6397 25.3656 55.6397C24.2154 56.4276 24.2154 57.7611 23.489 59.0945C23.5495 59.3976 23.7917 59.5188 24.0943 59.5794C23.7917 59.8218 24.0943 60.0643 24.0943 60.2461C23.9733 60.5492 23.7311 60.1249 23.4284 60.2461C23.0047 60.4885 23.1257 61.3977 22.823 61.822C22.823 62.125 23.0047 62.2463 23.3073 62.2463C23.489 62.9736 23.0047 63.3979 22.3993 63.6403C22.4598 67.0345 20.5831 69.0953 20.5226 71.7622C20.2199 72.2471 19.9172 71.5803 19.554 71.5803C19.1908 71.5803 19.3724 72.1258 19.0697 72.1865C18.1011 67.9437 19.4329 63.7615 20.6437 59.3369C20.9464 59.3976 20.8253 59.0945 21.128 59.1551C21.0069 57.5792 21.4307 55.9427 22.2177 54.7911C22.1571 54.3062 22.0361 53.7607 22.5204 53.5789C22.6414 52.6697 22.8836 51.6394 23.1863 50.7908C23.5495 49.821 24.6392 49.0937 24.8813 48.0027C25.063 47.2148 25.184 46.7905 25.5473 46.1238C25.7289 46.0632 25.971 46.0025 26.1526 45.8207C25.971 44.1842 28.0293 43.6387 27.545 42.1841C28.6952 41.3355 28.8768 39.8202 29.7849 38.8505C29.8455 38.7898 30.0271 38.9111 30.0876 38.8505C30.9957 37.9413 31.7221 36.8503 32.267 35.5775C32.9934 35.335 33.3567 34.6077 33.7199 34.0016C34.3858 34.3046 34.1437 33.5773 34.6885 33.6985C34.9912 33.6379 34.4463 33.5773 34.5674 33.2743C35.6571 32.5469 36.4441 30.971 37.8365 30.7892C38.5024 30.1831 38.8656 29.1527 39.5921 28.6072C39.8342 28.6072 39.8948 28.6678 39.8948 28.9103C40.258 28.789 40.0764 28.486 40.1974 28.3042C40.3791 28.3042 40.3791 28.4254 40.5001 28.4254C41.1661 27.2738 42.4979 26.7283 43.4665 25.8797C43.6481 25.8191 43.7087 25.9403 43.8903 26.0009C44.0719 25.9403 44.193 25.6979 44.193 25.3948C44.6167 25.213 44.7983 25.213 45.2826 25.2736C45.7064 25.213 45.8275 24.9099 46.2512 24.8493C46.9172 23.7583 48.3095 23.2735 49.2176 22.7886C49.5808 22.7886 49.5808 22.9098 49.8835 22.7886C50.2468 22.7886 49.9441 22.1825 50.2468 22.1825C50.7916 22.6673 51.3364 21.8794 51.9418 22.1825C51.8813 22.1218 51.8207 22.0006 51.8207 21.8794C53.3342 21.5157 54.545 20.6066 55.9373 19.8186C56.4216 19.8186 56.7243 19.9399 57.027 20.1217C57.0875 20.0611 57.2086 20.0005 57.3297 20.0005C56.8454 19.6974 57.2692 19.8792 57.7535 19.8792L58.0562 20.0611Z" fill="#DE1D2C"/>
<path fill-rule="evenodd" clip-rule="evenodd" d="M123.861 55.7008C124.103 55.822 123.74 55.9433 123.982 56.0039C123.861 56.3675 123.195 55.7008 123.316 56.1857C123.074 56.2463 122.953 56.1857 122.832 56.0645C122.832 55.8826 123.013 55.822 122.832 55.7614C123.134 55.7614 123.558 56.1251 123.921 55.6402L123.861 55.7008Z" fill="#DE1D2C"/>
<path fill-rule="evenodd" clip-rule="evenodd" d="M126.04 64.5497C126.04 64.1254 125.919 64.1254 125.616 64.2467C125.616 64.4891 125.737 64.5497 126.04 64.5497ZM125.374 66.2468C125.132 66.2468 125.495 66.7923 125.071 66.6105C125.011 66.3074 125.193 66.368 125.193 66.1256C125.495 66.3074 125.556 66.1256 125.98 66.1256C125.919 65.7619 125.556 65.8225 125.314 65.9438C125.435 65.3983 124.648 64.3073 125.435 64.0648C125.374 63.7012 125.132 64.1254 125.071 63.7618C125.435 63.4587 125.193 63.2163 125.435 62.8526C127.614 63.5193 125.858 66.1256 126.827 67.7015C126.706 70.2471 127.069 72.1867 126.706 74.4293C126.343 74.4293 126.282 74.7323 126.101 74.9142C126.706 76.8537 125.98 78.4296 125.677 80.6722C124.769 81.5208 125.011 83.4603 124.587 84.4907C124.527 84.4907 124.466 84.4301 124.466 84.3695C124.345 84.3695 124.284 84.3695 124.163 84.3695C124.466 84.3695 124.406 83.5209 124.466 83.7028C124.163 82.8542 125.071 80.551 123.074 81.0359C123.074 80.854 123.013 80.7934 122.892 80.7328C123.316 80.6116 123.679 80.9147 124.284 80.854C125.314 79.5812 125.556 76.9749 125.193 75.6415C124.89 75.6415 124.587 75.6415 124.284 75.6415C124.466 74.9748 124.527 74.7323 125.071 74.3687C125.374 72.4291 125.858 69.5198 125.193 67.2772C125.314 66.9135 125.677 66.7317 125.374 66.3074V66.2468Z" fill="#DE1D2C"/>
<path fill-rule="evenodd" clip-rule="evenodd" d="M63.3835 122.979C64.7758 122.979 62.7781 122.676 63.2018 123.161C63.2018 123.039 63.3229 122.979 63.3835 122.979ZM64.2915 122.191C64.231 122.494 64.4126 122.615 64.5942 122.676C64.8969 122.312 64.5337 121.827 63.9888 122.009C63.9888 122.191 64.1099 122.251 64.2915 122.191ZM56.1794 121.1C56.3611 121.888 57.7534 121.827 58.4799 122.373C58.2983 121.827 58.9036 122.13 58.7826 121.706C58.2983 122.009 58.1772 121.585 57.5113 121.585C57.5718 121.403 57.814 121.282 57.6324 121.1C57.0875 120.918 57.5718 121.767 57.148 121.706C57.4507 121.039 56.4821 121.645 56.8454 121.039C56.5427 121.1 56.3611 120.797 56.24 121.16L56.1794 121.1ZM62.1122 120.918C62.3543 120.857 62.657 120.857 62.7175 120.615C62.4149 120.615 62.0516 120.554 62.1122 120.918ZM58.4799 121.403C58.4193 121.16 58.9036 121.464 58.7826 121.1C58.5404 120.918 58.2983 120.797 58.1772 120.494C58.4799 120.494 58.722 120.433 58.8431 120.312C58.722 120.312 58.6615 120.312 58.5404 120.312C58.5404 120.191 58.5404 120.009 58.4193 120.009C58.2377 120.676 57.5718 120.009 57.2086 119.888C57.027 120.13 56.7848 120.373 56.3005 120.373C56.3005 120.554 56.4216 120.615 56.4216 120.736C56.6637 120.797 56.7848 120.736 56.9059 120.615C56.9059 120.857 56.9059 121.1 57.0875 121.1C57.2691 120.918 57.5113 120.797 57.5718 120.494C57.9956 120.676 58.4193 120.857 58.3588 121.282L58.4799 121.403ZM44.8588 114.493C44.314 114.13 44.5561 114.675 43.9508 114.311C43.9508 114.433 43.9508 114.554 43.7691 114.493C43.7691 114.918 44.0718 114.978 44.2535 115.16C44.314 115.039 44.1324 114.675 44.3745 114.675C44.6167 114.978 44.6167 114.978 44.6772 115.463C45.0404 115.402 44.9799 115.766 45.2826 115.766C45.3431 115.584 45.7064 115.584 45.7064 115.281C45.6458 115.281 45.5853 115.221 45.5853 115.099C45.3431 115.16 44.8588 115.221 44.7983 114.918C45.3431 114.796 46.0091 115.16 46.1907 114.796C45.9485 114.736 45.6458 114.736 45.5248 114.614C46.1301 114.614 45.4037 114.311 45.7064 113.948C45.4037 114.008 45.4642 113.827 45.2221 113.827C45.2221 114.19 45.0404 114.311 44.9194 114.493H44.8588ZM43.1638 113.705C42.8005 113.523 42.4979 113.766 42.2557 114.008C42.5584 114.19 42.6189 113.766 42.9216 114.13C42.9216 113.827 43.3454 113.948 43.2848 113.645C43.1032 113.705 43.0427 113.523 42.9822 113.645C43.0427 113.645 43.1032 113.645 43.1032 113.766L43.1638 113.705ZM44.6167 113.827C44.7983 113.827 44.9194 113.827 45.0404 113.948C45.0404 113.523 45.1615 113.705 45.2221 113.281C45.101 113.281 44.9799 113.22 44.9194 113.16C45.101 113.645 44.5561 113.463 44.6167 113.827ZM42.0741 113.705C42.2557 113.584 42.5584 113.645 42.6795 113.523C42.4979 113.463 42.2557 113.463 42.1952 113.342C42.1952 113.16 42.6189 113.342 42.6189 113.039C42.3162 113.099 42.2557 112.978 42.1346 112.857C42.1346 113.16 42.1346 113.463 42.1346 113.766L42.0741 113.705ZM42.8611 112.614C42.9822 112.917 42.9216 112.857 42.74 113.099C43.1032 113.039 43.4059 113.523 43.7086 113.22C43.3454 113.099 43.4665 112.796 43.527 112.432C43.2243 112.432 43.2243 112.736 42.8611 112.614ZM41.1055 112.008C41.0449 112.008 40.9239 112.008 40.9239 112.129C41.3476 111.826 41.5898 112.311 41.8319 111.826C41.6503 111.826 41.5898 111.766 41.5292 111.645C41.2266 111.766 41.1055 111.766 40.8633 111.645C40.8028 111.948 41.1055 111.826 41.166 112.008H41.1055ZM40.3185 111.22C40.379 111.22 40.4396 111.281 40.4396 111.402C40.8633 111.16 41.1055 111.584 41.3476 111.402C41.2871 111.402 41.2266 111.341 41.2266 111.22C40.6817 111.341 40.5606 110.796 40.3185 111.22ZM39.7131 110.614C39.7131 110.857 39.8342 110.978 40.0763 111.038C40.1974 110.978 40.379 110.917 40.379 110.614C40.1369 110.372 40.0158 110.675 39.7131 110.614ZM40.8028 110.917C40.9844 110.675 40.8633 110.25 40.6212 110.25C40.7423 110.432 40.6212 110.796 40.8028 110.917ZM38.3207 110.129C38.4418 110.19 38.5629 110.25 38.7445 110.311C38.7445 110.25 38.7445 110.129 38.8656 110.129C38.8656 110.19 38.9261 110.25 39.0472 110.25C38.9866 109.887 38.5023 109.887 38.3813 110.129H38.3207ZM39.2288 108.735C38.9261 108.675 38.9866 108.856 38.7445 108.856C38.7445 108.796 38.7445 108.675 38.6234 108.675C38.3813 109.099 39.3499 109.099 39.2288 108.796V108.735ZM37.4732 107.947C37.897 107.887 37.9575 108.069 38.3813 108.069C38.4418 107.462 37.6548 107.584 37.4732 107.947ZM36.5046 106.371C36.6257 106.856 37.1705 107.099 37.4127 106.674C36.9889 106.917 36.9284 106.432 36.5046 106.371ZM33.5382 102.25C33.5382 102.068 33.5382 101.947 33.5382 101.765C33.3566 101.886 33.2355 101.462 33.1145 101.765C33.3566 101.826 33.2355 102.25 33.5382 102.25ZM28.9979 94.431C29.24 94.3704 29.6033 93.8855 29.3611 93.7643C29.3611 93.8249 29.3006 93.8855 29.1795 93.8855C29.3006 94.3098 28.9373 94.1886 28.9979 94.4917V94.431ZM26.9396 88.4912C27.0001 88.7942 27.0607 88.2487 27.3028 88.37C26.879 88.8548 27.7266 89.0973 27.3028 89.2791C27.3028 89.3397 27.6055 89.4003 27.7266 89.2791C27.6055 89.9458 28.0898 90.1277 27.8477 90.6732C28.2109 90.855 28.453 91.2187 28.6347 91.5823C28.1503 91.4005 28.9373 92.1278 29.0584 92.3703C28.9373 92.3703 28.8768 92.3703 28.7557 92.3703C29.24 92.8552 29.9665 93.5825 29.6638 94.2492C30.0876 94.2492 29.7849 94.4917 29.9665 94.9159C29.7849 94.8553 29.7243 94.9765 29.5427 95.0372C29.6638 95.1584 29.6638 95.4008 29.7243 95.522C29.9059 95.522 29.9059 95.4008 30.0876 95.4008C30.2086 95.522 30.1481 95.8251 30.5113 95.7645C30.5113 96.0675 30.2086 96.0675 30.0876 96.2494C30.2086 96.5524 30.5113 96.6736 30.8746 96.7343C31.0562 97.4616 31.2378 97.4616 31.4799 98.1283C31.3589 98.1283 31.2983 98.1283 31.1772 98.1283C31.1772 98.3101 31.2983 98.3101 31.2983 98.492C31.4799 98.2495 31.4799 98.1283 31.7826 98.3101C31.8432 98.492 31.6616 98.9163 31.9642 98.795C31.9642 98.9163 31.7826 98.8556 31.6615 98.9163C31.601 99.2799 31.8432 99.2799 32.0248 99.4011C31.9642 99.5224 31.8432 99.5224 31.7221 99.583C31.9642 99.7648 31.8432 99.9466 32.0248 100.25C32.2669 100.189 32.2064 99.886 32.6302 99.9466C32.5696 100.25 32.7512 100.371 32.9328 100.432C32.8723 100.553 32.7512 100.553 32.6302 100.613C32.6907 100.735 32.7512 100.856 32.8118 101.038C33.0539 101.038 33.1145 100.977 33.1145 100.735C33.4777 101.28 33.8409 101.886 34.5068 102.189C34.3252 102.31 34.2041 102.492 34.0225 102.553C34.2647 102.795 34.5674 102.432 34.6279 102.856C34.749 102.856 34.6885 102.674 34.749 102.553C34.9306 102.553 35.0517 102.553 35.2333 102.553C35.1122 102.795 35.1122 103.098 34.9306 103.22C35.4754 103.159 35.536 103.098 35.8992 103.341C35.6571 103.947 36.4441 104.068 36.5651 104.614C36.3835 104.553 36.323 104.674 36.2019 104.735C36.2624 104.917 36.3835 105.099 36.6862 105.038C36.8073 105.402 36.323 105.22 36.2624 105.462C36.5651 105.523 36.5651 105.947 37.0494 105.826C37.1705 105.462 36.6257 105.826 36.7467 105.462C37.11 105.159 37.1705 105.826 37.6548 105.765C37.5943 105.887 37.5337 105.947 37.3521 105.947C37.4127 106.19 37.897 105.765 38.018 106.068C38.1391 105.765 37.7153 106.008 37.8364 105.705C38.5023 105.826 37.9575 106.553 38.7445 106.674C38.4418 105.887 39.3499 107.099 39.2288 107.644C39.4104 107.462 39.7736 107.584 40.0158 107.644C40.0158 107.826 39.6526 107.705 39.5315 107.765C39.8342 107.887 39.7131 108.068 39.5315 108.25C39.8947 108.129 40.3185 108.675 40.5001 108.372C40.7423 108.372 40.379 108.614 40.3185 108.675C40.5606 109.038 41.0449 109.705 41.5292 109.281C41.5292 109.584 41.166 109.523 41.0449 109.705C41.2266 110.19 41.3476 109.644 41.7109 109.705C41.6503 110.069 41.4082 110.008 41.7109 110.311C42.3768 110.129 42.6795 110.493 43.1638 110.675C43.0427 110.796 43.1032 111.16 42.9822 111.281C43.1638 111.402 43.4059 111.22 43.6481 111.402C43.527 111.826 43.8902 111.705 43.8297 112.008C44.2535 112.008 44.3745 111.826 44.7378 112.008C44.7378 112.19 44.3745 112.069 44.3745 112.19C44.4351 112.554 45.101 112.311 45.4642 112.372C45.7064 112.614 45.2826 112.614 45.2826 112.857C45.4037 112.796 45.7669 112.978 45.7669 112.736C45.9485 112.857 45.6458 113.16 45.888 113.402C46.1301 112.978 46.0696 113.463 46.3723 113.523C46.1907 113.766 45.8274 114.13 46.0696 114.433C46.1301 114.008 46.3723 113.766 46.5539 113.463C47.1593 113.766 48.3095 114.008 48.249 114.675C48.4306 114.978 48.6122 114.796 48.9149 114.796C48.8543 115.342 50.731 115.402 49.8229 115.887C49.8229 115.948 49.944 116.009 49.944 116.069C50.3073 115.766 50.731 115.705 51.0337 116.069C51.0337 116.251 50.9126 116.251 50.9126 116.372C51.1548 116.857 52.0023 116.069 52.1234 116.796C51.9418 116.857 51.8812 116.736 51.7602 116.675C51.7602 116.857 51.8812 116.857 51.8812 117.1C52.0629 117.1 52.2445 117.16 52.2445 116.978C52.305 117.221 52.6682 117.16 52.6077 117.584C52.3655 117.584 52.2445 117.463 52.2445 117.16C51.9418 117.221 52.1234 117.403 52.1234 117.645C51.8207 117.281 51.3364 117.342 51.2153 117.766C50.9126 117.645 51.0942 117.039 50.731 116.978C50.6099 117.281 50.5494 117.524 50.2467 117.16C49.944 117.281 50.4283 117.403 50.3678 117.645C50.0046 117.524 49.7624 117.342 49.4597 117.16C49.3386 117.281 49.2781 117.342 49.157 117.463C48.9754 117.403 49.0965 117.221 49.2781 117.281C49.3386 117.1 49.2176 117.1 49.0965 117.1C49.2781 116.796 49.5203 116.615 49.5808 116.19C49.0965 116.009 48.8543 115.524 48.4911 115.221C48.1884 115.16 48.0673 115.766 47.8857 115.524C47.462 115.524 47.8857 115.402 47.8857 115.221C47.5225 115.281 47.462 115.281 47.2198 115.099C47.0987 115.281 46.8566 115.342 46.7355 115.463C46.5539 115.402 46.5539 115.342 46.6144 115.16C46.1907 115.281 46.3723 115.342 46.0091 115.16C46.0696 115.342 45.9485 115.645 45.5853 115.827C45.7669 116.13 45.7669 115.524 46.1907 115.705C46.1907 116.069 46.4328 116.251 46.0696 116.372C46.1301 116.372 46.8566 116.19 47.1593 116.19C47.3409 116.554 47.2804 116.615 47.1593 117.1C47.5225 117.221 47.6436 117.281 48.1279 117.584C48.249 117.463 48.6122 117.524 48.6122 117.281C48.6727 117.584 48.9754 117.706 49.2781 117.766C49.2176 117.948 49.157 118.191 48.9754 118.251C49.036 118.494 49.3992 118.069 49.5808 118.372C50.0046 118.13 49.3992 117.948 49.7019 117.584C49.8229 117.766 49.8835 118.069 50.1256 118.191C50.0651 118.251 50.0046 118.433 50.0046 118.554C50.6099 119.403 51.6996 119.16 52.5472 119.645C52.8498 119.585 52.4261 119.463 52.5472 119.282C52.9104 119.282 52.9709 119.585 53.1525 119.766C53.1525 120.009 52.7893 119.827 52.6682 119.888C53.0315 120.191 53.5763 119.888 53.3342 119.282C53.5158 119.282 53.5763 119.221 53.6368 119.1C53.6974 119.524 53.5763 119.888 53.8185 120.373C53.7579 120.494 53.6974 120.312 53.5158 120.373C53.7579 120.979 54.7265 120.797 54.9687 120.373C54.666 120.857 55.0898 121.039 55.6346 120.979C55.7557 120.676 55.3924 120.797 55.2108 120.797C55.2108 120.554 55.8767 120.433 55.6346 120.191C55.7557 120.009 56.1794 120.312 56.5427 120.191C56.7243 120.069 56.7243 119.888 57.027 119.888C56.4821 119.827 55.5135 119.403 55.6346 118.675C55.1503 119.039 55.3924 119.221 55.3319 119.766C54.9081 119.403 55.0292 118.978 55.3319 118.675C55.3319 118.554 55.1503 118.615 55.1503 118.494C54.9687 118.615 54.9687 118.797 54.666 118.797C54.6055 118.978 54.666 119.1 54.8476 119.1C54.7871 119.221 54.666 119.282 54.4844 119.282C54.3633 118.615 54.7871 118.554 54.666 117.887C55.3924 118.312 55.5741 118.494 56.3611 118.372C56.24 118.675 56.8454 118.797 56.8454 118.675C56.6637 119.1 57.5113 118.736 57.2086 119.16C57.6929 119.16 57.4507 118.797 57.5718 118.675C57.9956 118.675 57.5718 118.918 57.6929 119.16C58.6615 118.978 60.0539 119.1 60.7803 119.827C61.083 119.888 61.083 119.645 61.3857 119.706C61.5068 120.373 62.1727 119.948 62.4754 120.312C62.8386 120.191 62.2332 120.191 62.3543 119.948C63.0202 120.312 63.6861 120.069 64.4126 120.433C63.9888 120.554 64.6548 120.797 64.2915 121.1C64.2915 121.282 64.7153 121.1 64.7758 121.282C64.7153 121.403 64.5337 121.282 64.4731 121.585C64.4731 121.645 64.5942 121.706 64.5942 121.767C64.7758 121.827 64.7758 121.706 64.7758 121.585C65.0785 121.645 64.9575 122.009 64.7758 122.07C64.9575 122.251 64.9574 122.13 64.8969 122.494C65.1391 122.555 65.0785 122.312 65.3207 122.312C65.1391 121.948 65.0785 121.524 65.018 121.039C65.3207 120.979 65.3207 121.645 65.3812 121.464C65.6839 121.585 65.3812 121.948 65.2601 122.07C65.5628 122.433 66.4709 122.191 66.4709 122.858C66.1682 122.918 66.2287 122.615 65.9866 122.555C65.7444 122.676 65.6839 122.858 65.3812 122.918C65.3207 123.161 65.805 122.858 65.6839 123.221C65.5023 123.342 64.8969 123.282 64.4731 123.403C64.3521 123.706 64.7758 123.464 64.6548 123.827C65.018 123.524 65.3207 123.767 65.7444 123.646C65.8655 123.827 65.9866 123.949 66.1682 124.07C66.592 123.827 66.6525 124.13 67.1368 123.888C67.0763 123.949 67.0157 124.07 67.0157 124.191C67.4395 123.706 68.1054 124.555 68.4081 123.888C68.3476 124.13 68.953 124.252 69.074 124.555C68.3476 125.04 67.0763 124.13 66.1077 124.676C65.8655 124.191 65.1391 124.494 64.6548 124.555C64.4731 124.252 63.2624 123.949 63.0808 124.252C62.4148 123.767 61.0225 124.252 60.5382 123.585C60.6593 124.13 60.1144 123.949 59.4485 123.949C59.4485 123.767 59.8723 123.949 59.8723 123.646C59.8723 123.585 59.7512 123.524 59.7512 123.464C58.9037 124.312 56.8454 122.918 56.3005 123.282C56.1189 123.221 55.9978 122.979 55.9978 122.676C55.5741 122.797 55.3924 122.433 55.0292 122.797C55.0292 122.555 54.7265 122.615 54.4238 122.615C54.4238 122.373 54.6054 122.312 54.3028 122.191C54.0606 122.191 54.0606 122.433 53.9395 122.494C53.5763 122.373 53.3341 122.07 52.7288 122.07C52.7288 121.827 52.5472 121.767 52.5472 121.585C52.1234 121.888 51.9418 121.706 51.6391 121.403C51.518 121.403 51.5785 121.645 51.518 121.767C51.0942 121.524 51.0337 121.403 50.731 120.857C50.3073 121.403 49.2176 120.433 49.157 120.676C48.7938 120.918 48.6122 119.766 48.0673 120.191C48.0673 119.948 47.8857 119.888 48.1884 119.827C47.7647 119.463 46.796 119.766 46.4328 118.918C46.0696 118.857 45.7669 118.918 45.5248 119.039C45.5248 118.494 45.5247 118.978 45.2221 118.918C45.1615 118.13 44.8588 118.13 44.2535 118.009C44.1929 117.403 43.527 117.524 43.3454 117.039C43.1032 117.039 43.4665 117.221 43.3454 117.403C43.0427 117.221 42.9216 116.918 42.3768 117.039C42.6795 116.493 41.7109 116.675 41.7714 116.069C40.8028 116.19 40.4396 115.16 39.7736 115.281C39.471 114.857 38.5023 114.311 38.3813 113.281C37.8364 113.281 37.7759 113.16 37.4127 113.281C37.3521 112.675 36.8678 112.554 36.4441 112.311C36.323 111.341 35.4149 111.16 34.6884 110.735C34.749 110.675 34.8095 110.554 34.8095 110.432C33.7804 109.402 32.8118 108.372 31.6615 107.462C31.601 106.614 30.3297 106.129 30.0876 105.099C29.4216 105.038 28.9979 104.674 29.119 103.826C27.9687 103.462 28.3925 101.583 27.1212 101.341C27.0607 101.038 26.879 100.492 26.4553 100.371C26.3947 100.128 26.6369 100.128 26.5764 99.886C26.5764 99.7042 26.2131 100.007 26.0921 99.7648C26.0315 98.6738 25.7288 97.8253 25.0024 97.401C24.9418 97.0979 25.1234 97.0373 25.1234 96.7949C25.0629 96.4918 24.9418 96.31 24.7602 96.1888C25.0024 95.8857 24.5786 95.522 24.9418 95.4008C24.0943 94.8553 24.2759 93.34 22.8835 93.34C22.7019 93.037 22.9441 92.3097 22.3992 92.3703C22.3992 92.1884 22.7019 91.8248 22.2782 91.8854C22.1571 91.5217 22.6414 91.7036 22.5809 91.4005C22.5203 91.0974 22.3992 91.5217 22.2176 91.4005C21.9755 90.1277 20.8252 88.8548 21.7939 87.6426C21.8544 87.0971 21.3096 87.1577 21.1885 86.7335C21.3701 86.7941 22.1571 86.7941 21.8544 86.1274C22.0965 86.188 22.0965 86.491 22.1571 86.7335C22.7019 86.6729 22.8835 86.0061 22.9441 85.8243C23.1862 85.8849 23.0046 86.4304 23.4284 86.491C23.4284 86.4304 23.4889 86.3698 23.5495 86.3698C23.1862 86.0667 23.6705 85.9455 23.6705 85.4606C24.1548 85.7637 24.5181 85.5212 25.1234 85.6425C24.9418 86.0061 25.2445 85.8849 25.3051 86.1274C25.4261 86.1274 25.3656 85.9455 25.4867 85.9455C25.9104 86.0667 26.3342 86.5516 26.1526 86.9153C26.3342 87.279 27.1817 87.4608 26.9396 87.8851C27.2423 87.8851 27.0001 88.1275 26.8185 88.37L26.9396 88.4912Z" fill="#DE1D2C"/>
<path fill-rule="evenodd" clip-rule="evenodd" d="M120.471 85.7028C120.773 86.0059 120.531 87.2181 119.986 87.2787C120.108 87.4605 120.41 88.006 119.865 87.9454C119.865 87.0363 120.289 86.4908 120.471 85.7028Z" fill="#DE1D2C"/>
<path fill-rule="evenodd" clip-rule="evenodd" d="M119.805 89.0364C119.805 88.8546 119.805 88.6727 119.805 88.4303C119.986 88.6727 120.107 88.9152 120.41 89.0364C120.41 89.2182 120.047 88.9152 119.805 89.0364Z" fill="#DE1D2C"/>
<path fill-rule="evenodd" clip-rule="evenodd" d="M29.1795 93.8858C29.3006 93.8858 29.3612 93.8858 29.3612 93.7646C29.5428 93.9464 29.2401 94.4313 28.9979 94.4313C28.9979 94.1283 29.3006 94.2495 29.1795 93.8252V93.8858Z" fill="#DE1D2C"/>
<path fill-rule="evenodd" clip-rule="evenodd" d="M116.96 97.8255C116.839 98.0073 116.536 97.7649 116.173 97.9467C116.173 97.7043 116.233 97.4618 115.87 97.583C116.052 97.3406 116.112 97.28 115.991 96.9769C116.294 97.0375 116.233 96.8557 116.475 96.8557C116.415 97.28 116.415 97.8255 116.96 97.8255Z" fill="#DE1D2C"/>
<path fill-rule="evenodd" clip-rule="evenodd" d="M112.903 104.917C113.145 105.099 112.54 105.28 112.419 105.402C112.116 105.159 112.843 105.099 112.903 104.917Z" fill="#DE1D2C"/>
<path fill-rule="evenodd" clip-rule="evenodd" d="M37.4126 106.735C37.1704 107.159 36.6256 106.917 36.5045 106.432C36.9283 106.493 36.9888 106.978 37.4126 106.735Z" fill="#DE1D2C"/>
<path fill-rule="evenodd" clip-rule="evenodd" d="M110.542 107.402C110.361 107.22 110.603 107.038 110.845 107.038C110.724 107.22 110.542 107.401 110.482 107.644C110.3 107.583 110.421 107.402 110.603 107.462L110.542 107.402Z" fill="#DE1D2C"/>
<path fill-rule="evenodd" clip-rule="evenodd" d="M106.123 111.038C106.305 111.16 105.821 111.463 105.639 111.523C105.579 111.16 106.002 111.22 106.123 111.038Z" fill="#DE1D2C"/>
<path fill-rule="evenodd" clip-rule="evenodd" d="M43.1034 113.644C43.164 113.523 43.2245 113.705 43.4061 113.644C43.4061 113.947 43.0429 113.826 43.0429 114.129C42.6796 113.765 42.6796 114.25 42.377 114.008C42.5586 113.765 42.9218 113.523 43.285 113.705C43.285 113.644 43.2245 113.584 43.164 113.584L43.1034 113.644Z" fill="#DE1D2C"/>
<path fill-rule="evenodd" clip-rule="evenodd" d="M97.2242 114.19C97.1637 113.887 97.7085 114.13 97.648 113.766C97.8901 113.766 98.1928 113.766 98.435 113.766C98.2534 113.948 98.0112 114.008 98.435 114.372C98.3139 114.736 97.648 114.311 97.648 114.857C97.3453 114.796 97.3453 115.039 97.0426 114.978C97.1031 114.796 97.5269 114.311 97.1637 114.554C96.7399 114.069 97.8901 114.433 97.2848 114.19H97.2242Z" fill="#DE1D2C"/>
<path fill-rule="evenodd" clip-rule="evenodd" d="M47.1592 115.524C47.4013 115.22 47.704 115.766 47.7646 116.008C47.4619 116.008 47.2197 116.008 47.2803 115.705C47.6435 115.766 47.4013 115.463 47.1592 115.524Z" fill="#DE1D2C"/>
<path fill-rule="evenodd" clip-rule="evenodd" d="M47.8253 117.099C47.8253 116.796 48.0675 116.735 48.3096 116.675C48.2491 116.857 48.0069 116.978 48.1885 117.16C48.128 117.463 48.128 116.857 47.8253 117.038V117.099Z" fill="#DE1D2C"/>
<path fill-rule="evenodd" clip-rule="evenodd" d="M52.4867 116.857C52.7288 116.615 52.971 117.16 53.4553 116.978C53.2737 117.584 53.6369 117.402 53.6369 117.948C53.3948 117.887 53.3948 118.13 53.1526 118.069C53.3342 118.493 53.3342 118.554 53.2737 119.16C52.7894 119.039 53.0921 118.857 53.1526 118.554C53.0315 118.312 52.7288 118.19 52.4867 118.069C52.7894 117.766 52.8499 117.524 52.9105 117.16C52.9105 116.978 52.6683 116.978 52.4867 116.857Z" fill="#DE1D2C"/>
<path fill-rule="evenodd" clip-rule="evenodd" d="M57.6928 120.615C57.6323 120.918 57.3296 120.979 57.2085 121.221C56.9664 121.221 56.9663 120.979 57.0269 120.736C56.9058 120.797 56.7847 120.857 56.5426 120.857C56.5426 120.676 56.4215 120.676 56.4215 120.494C56.9058 120.494 57.0874 120.251 57.3296 120.009C57.6323 120.13 58.2982 120.736 58.5403 120.13C58.6614 120.13 58.6009 120.312 58.6614 120.433C58.7825 120.433 58.843 120.433 58.9641 120.433C58.843 120.615 58.6009 120.615 58.2982 120.615C58.4193 120.857 58.6614 121.039 58.9036 121.221C59.0852 121.585 58.5403 121.282 58.6009 121.524C58.6614 121.1 58.2376 120.918 57.8139 120.736L57.6928 120.615Z" fill="#DE1D2C"/>
<path fill-rule="evenodd" clip-rule="evenodd" d="M63.2018 123.221C62.778 122.675 64.7758 123.039 63.3834 123.039C63.3229 123.1 63.2018 123.1 63.2018 123.221Z" fill="#DE1D2C"/>
<path fill-rule="evenodd" clip-rule="evenodd" d="M122.59 87.2787C122.771 87.2787 123.074 87.6424 123.195 87.3999C123.437 87.8848 123.013 88.5515 122.59 88.6727C122.529 88.8546 122.65 88.8546 122.771 88.8546C122.771 89.0364 122.529 89.0364 122.469 89.2788C122.347 88.794 122.711 87.9454 122.59 87.2787Z" fill="#DE1D2C"/>
<path fill-rule="evenodd" clip-rule="evenodd" d="M114.478 99.2189C114.478 99.3401 114.357 99.2795 114.296 99.3401C114.114 99.5219 114.054 99.7644 114.114 100.128C113.509 100.431 113.267 101.34 112.54 100.734C112.722 100.552 112.783 100.189 112.904 99.9462C113.206 99.8856 113.146 100.067 113.388 100.067C113.448 99.6431 113.085 99.8856 113.267 99.4613C113.812 99.7644 113.812 99.0977 114.478 99.2795V99.2189Z" fill="#DE1D2C"/>
<path fill-rule="evenodd" clip-rule="evenodd" d="M45.1614 113.826C45.4036 113.766 45.4036 114.008 45.6457 113.947C45.343 114.372 46.0695 114.614 45.4641 114.614C45.5852 114.735 45.8879 114.796 46.13 114.796C45.9484 115.099 45.2825 114.796 44.7377 114.917C44.7982 115.281 45.2825 115.22 45.5246 115.099C45.5246 115.22 45.5246 115.281 45.6457 115.281C45.6457 115.584 45.343 115.584 45.222 115.766C44.9193 115.766 44.9798 115.402 44.6166 115.463C44.6166 114.978 44.556 114.978 44.3139 114.675C44.0717 114.675 44.2534 115.038 44.1928 115.16C44.0112 114.978 43.648 114.917 43.7085 114.493C43.8901 114.554 43.8901 114.432 43.8901 114.311C44.435 114.675 44.1928 114.129 44.7982 114.493C44.9193 114.251 45.1009 114.129 45.1009 113.826H45.1614Z" fill="#DE1D2C"/>
<path fill-rule="evenodd" clip-rule="evenodd" d="M68.1658 121.524C68.5895 121.584 68.3474 121.039 68.7712 121.1C68.7712 121.524 68.9528 121.16 69.1344 121.221C69.1949 121.766 68.5895 121.706 68.529 122.13C68.2263 122.13 68.2263 121.888 68.2263 121.645C67.3182 121.584 67.4393 121.524 66.5312 121.342C66.7734 120.554 67.9842 121.039 68.1052 121.524H68.1658Z" fill="#DE1D2C"/>
<path fill-rule="evenodd" clip-rule="evenodd" d="M71.798 123.888C71.8585 123.948 72.0402 124.009 72.1612 124.009C72.1007 124.251 72.1612 124.373 72.2823 124.494C73.4931 124.373 74.8249 124.373 75.6119 124.373C74.7644 124.797 73.7352 124.676 72.7666 124.676C72.4034 124.676 72.6455 125.282 72.2823 125.282C72.6455 124.554 71.1926 124.554 70.8294 124.858C70.5267 124.494 69.5581 125.1 69.5581 124.251C69.9819 124.07 70.5267 124.615 70.6478 124.13C70.9505 124.13 71.011 124.373 71.2532 124.433C71.5559 124.373 71.798 124.191 71.8585 123.827L71.798 123.888Z" fill="#DE1D2C"/>
<path fill-rule="evenodd" clip-rule="evenodd" d="M30.6323 127.949C31.1166 127.767 31.5404 128.737 31.1166 129.1C30.3901 129.706 29.9664 128.131 30.6323 127.949Z" fill="#F2F2F2"/>
<path fill-rule="evenodd" clip-rule="evenodd" d="M104.973 141.283C103.641 144.132 98.8587 142.193 97.2847 144.799C96.1345 146.617 95.2264 148.436 93.2892 148.557C91.8363 148.678 90.6256 147.769 88.8699 148.072C87.4776 148.314 86.8722 149.345 84.8744 149.708C83.9058 149.89 82.6951 149.769 81.6054 149.951C80.213 150.193 79.0023 150.799 78.0942 150.86C72.5852 151.224 67.9238 148.678 62.657 150.86C58.6615 152.496 57.9956 146.799 54.9687 146.193C51.3364 145.466 48.0068 145.708 47.2803 143.162C46.8566 141.768 48.9754 143.647 49.8835 143.647C54.0001 143.708 57.8745 145.041 61.083 146.193C62.5359 146.738 65.1996 146.617 66.713 146.92C68.5897 147.284 70.3453 146.86 72.3431 146.92C75.5516 147.041 78.2758 146.193 81.4843 145.769C84.5718 145.344 87.7803 145.89 90.3834 144.617C91.1099 144.253 91.4731 143.223 92.2601 142.981C97.3453 141.223 99.8273 140.435 103.944 139.465C103.883 140.556 104.973 140.495 105.094 141.344L104.973 141.283Z" fill="#F2F2F2"/>
<path fill-rule="evenodd" clip-rule="evenodd" d="M141.477 100.553C140.569 103.159 141.72 107.523 139.116 108.068C137.785 108.372 138.874 105.947 139.359 105.28C139.964 104.432 138.148 105.22 138.208 104.553C138.269 103.038 139.056 102.129 139.116 101.038C139.419 97.5828 139.419 94.4916 139.601 90.7337C139.843 85.2788 144.081 78.9752 141.235 72.7323C140.388 70.914 138.572 69.3381 138.208 67.3379C137.664 64.6104 139.419 62.6709 138.935 60.0646C138.39 57.3371 136.998 55.9431 136.15 52.5489C133.729 43.0329 127.796 33.5776 119.805 28.4257C118.231 27.4559 116.294 27.6984 114.901 26.3043C113.69 25.1527 113.812 23.3344 112.782 22.304C109.332 18.9098 104.186 17.0915 98.9797 14.7883C95.8923 13.4548 93.2286 10.9698 90.5649 9.87878C89.0515 9.21206 87.2354 9.87878 85.1771 9.63633C83.1188 9.39389 81.9686 7.81801 80.0313 7.27251C76.278 6.24212 70.8296 6.84823 66.9551 7.51495C59.3879 8.78778 51.2153 10.8486 45.4641 13.8185C44.2534 14.4246 43.3453 15.5156 42.1951 16.1823C36.6256 19.2129 31.1772 21.4555 26.7579 25.3346C25.9709 26.0013 25.4261 26.5468 24.3969 27.4559C22.0359 29.5167 21.37 32.2442 19.9777 34.7293C17.9799 38.2447 14.2871 40.9722 13.1974 44.7907C12.8947 45.7604 13.5606 45.6998 13.4395 46.6696C12.6526 54.0035 8.05167 61.0344 6.65929 69.1563C6.47768 70.1866 5.81176 71.3382 5.75122 72.4292C5.56961 74.6112 6.17499 76.9751 5.99338 79.2177C5.81176 80.9148 5.14584 83.218 5.26692 85.2788C5.69069 90.1882 6.96198 96.8555 8.77812 100.492C9.08081 101.098 8.17274 100.977 8.29382 101.401C8.83866 102.917 10.0494 103.826 10.6548 105.826C14.4687 119.645 28.6346 125.403 38.018 136.01C38.3812 136.434 38.139 136.859 38.5023 137.647C38.9866 138.859 42.861 139.162 41.287 140.192C39.8341 141.223 38.139 138.677 36.6256 138.071C34.3857 137.222 31.7826 136.919 30.0875 135.949C29.24 135.465 28.8162 136.859 28.2108 136.434C27.2422 135.768 27.4844 134.252 26.5763 133.646C25.7288 133.04 25.0628 134.313 24.2153 133.889C22.7019 133.161 22.2781 131.586 20.9463 130.131C18.2221 127.282 17.7983 124.13 16.0427 121.463C14.7108 119.403 13.6212 117.706 11.805 116.069C9.80727 114.19 9.32297 111.341 8.29382 108.372C7.38575 105.705 4.96423 104.25 3.87455 101.583C0.908186 94.1886 2.30056 86.491 0.605495 79.3389C0.121192 77.3993 -0.181498 74.9143 0.121192 72.0656C0.18173 71.3382 0.726571 70.6715 0.847647 69.9442C1.02926 68.6108 0.302805 67.2773 0.363343 66.1863C0.423881 65.0953 1.33195 63.7013 1.51357 62.186C2.17948 57.7008 3.39024 54.7915 4.54046 51.6397C6.59876 46.1241 6.6593 44.0633 8.77812 39.4569C11.0786 34.4868 13.6817 29.7592 17.1929 25.8801C18.888 24.0011 21.7938 22.7283 23.731 20.7281C24.7602 19.6977 25.6077 19.031 27.2422 17.94C32.8117 14.1215 37.7153 10.4849 42.6794 5.99968C44.435 4.42379 47.4014 4.90868 49.7018 3.8783C50.852 3.3328 51.8206 2.2418 52.9709 1.99936C55.2713 1.51447 57.0874 1.75691 59.509 0.847751C66.0471 -1.57669 73.6749 1.93875 80.334 2.2418C88.5067 2.60547 92.3811 5.0299 98.7981 6.6664C105.397 8.3635 109.453 15.2125 115.87 17.8794C117.868 18.728 118.776 18.6068 120.289 19.7584C121.318 20.5463 121.984 21.2736 122.832 22.1222C131.004 29.6985 137.603 40.3055 141.78 52.5489C144.444 60.2464 145.049 69.7624 145.776 78.7934C146.32 85.8849 146.018 92.5521 143.233 98.9162C142.93 99.5829 141.841 99.6435 141.598 100.31L141.477 100.553Z" fill="#F2F2F2"/>
<path fill-rule="evenodd" clip-rule="evenodd" d="M133.971 118.615C133.789 118.857 133.547 117.948 133.244 118.13C132.821 118.433 133.789 118.494 133.729 118.857C132.699 123.403 128.462 126.252 125.072 129.403C124.164 130.252 123.679 131.525 122.287 131.525C122.045 131.222 121.379 131.222 121.379 130.798C121.197 126.555 120.108 121.403 124.406 121.403C125.677 121.403 125.435 123.282 126.282 123.767C129.551 125.646 131.065 120.857 132.578 118.13C133.002 117.342 132.336 116.857 132.821 116.251C133.426 115.524 134.152 115.887 134.939 116.493C136.15 117.463 134.637 117.766 134.031 118.615H133.971Z" fill="#F2F2F2"/>
</svg>
