<svg width="55" height="55" viewBox="0 0 55 55" fill="none" xmlns="http://www.w3.org/2000/svg">
<path d="M6.6 54.8167C6.96667 55 7.15 55 7.51667 55C7.88333 55 8.25 54.8167 8.61667 54.6333L22.1833 43.8167H37.7667C40.7 43.8167 43.0833 41.4333 43.0833 38.5V17.2333C43.0833 14.3 40.7 11.9167 37.7667 11.9167H5.31667C2.38333 11.9167 0 14.3 0 17.2333V38.5C0 41.4333 2.38333 43.8167 5.31667 43.8167H5.68333V53.1667C5.68333 53.9 6.05 54.45 6.6 54.8167ZM5.31667 40.15C4.4 40.15 3.66667 39.4167 3.66667 38.5V17.2333C3.66667 16.3167 4.4 15.5833 5.31667 15.5833H37.95C38.8667 15.5833 39.6 16.3167 39.6 17.2333V38.5C39.6 39.4167 38.8667 40.15 37.95 40.15H21.6333C21.2667 40.15 20.9 40.3333 20.5333 40.5167L9.35 49.3167V41.8C9.35 40.7 8.61667 39.9667 7.51667 39.9667H5.31667V40.15Z" fill="white"/>
<path d="M7.51667 21.2668H35.75C36.85 21.2668 37.5833 20.5334 37.5833 19.4334C37.5833 18.3334 36.85 17.6001 35.75 17.6001H7.51667C6.41667 17.6001 5.68334 18.3334 5.68334 19.4334C5.68334 20.5334 6.41667 21.2668 7.51667 21.2668Z" fill="white"/>
<path d="M7.51667 28.2332H35.75C36.85 28.2332 37.5833 27.4999 37.5833 26.3999C37.5833 25.2999 36.85 24.5666 35.75 24.5666H7.51667C6.41667 24.5666 5.68334 25.2999 5.68334 26.3999C5.68334 27.4999 6.41667 28.2332 7.51667 28.2332Z" fill="white"/>
<path d="M21.6333 35.3834C22.7333 35.3834 23.4667 34.6501 23.4667 33.5501C23.4667 32.4501 22.7333 31.7167 21.6333 31.7167H7.51667C6.41667 31.7167 5.68334 32.4501 5.68334 33.5501C5.68334 34.6501 6.41667 35.3834 7.51667 35.3834H21.6333Z" fill="white"/>
<path d="M49.5 0H12.8333C9.9 0 7.33333 2.56667 7.33333 5.5V9.16667C7.33333 10.2667 8.06667 11 9.16667 11C10.2667 11 11 10.2667 11 9.16667V5.5C11 4.4 11.9167 3.66667 12.8333 3.66667H49.5C50.6 3.66667 51.3333 4.58333 51.3333 5.5V26.4C51.3333 27.5 50.4167 28.2333 49.5 28.2333H45.8333C44.7333 28.2333 44 28.9667 44 30.0667C44 31.1667 44.7333 31.9 45.8333 31.9H49.5C52.6167 31.9 55 29.3333 55 26.4V5.5C55 2.56667 52.4333 0 49.5 0Z" fill="white"/>
</svg>
