<svg width="412" height="305" viewBox="0 0 412 305" fill="none" xmlns="http://www.w3.org/2000/svg">
<path fill-rule="evenodd" clip-rule="evenodd" d="M1.16032 169.563V169.472C1.04332 167.672 1.02661 165.944 1.16032 164.362H1.17704V164.217C1.2439 163.526 1.32747 162.871 1.46119 162.235H1.49462V162.108C1.57819 161.708 1.67848 161.326 1.77877 160.962H1.79548V160.926C1.87906 160.653 1.97935 160.38 2.07964 160.107H2.09635V160.071C2.53093 159.016 3.13266 158.144 3.91826 157.562C4.11883 157.416 4.31941 157.289 4.55342 157.162L5.4393 156.707C7.61222 155.616 9.78513 154.58 11.9413 153.507C11.7073 153.034 11.4733 152.561 11.2393 152.07V152.034H11.2226C11.022 151.616 10.8214 151.197 10.6209 150.761V150.743C9.55113 148.434 8.53153 146.033 7.57879 143.542V143.506H7.56207C6.80991 141.56 6.10789 139.596 5.4393 137.596V137.541H5.42258C5.00472 136.287 4.60356 135.014 4.21912 133.741V133.705H4.20241C3.65082 131.868 3.14938 130.032 2.68137 128.195V128.159H2.66465C2.44736 127.322 2.24678 126.468 2.06292 125.631V125.595C1.57819 123.449 1.17704 121.358 0.842744 119.34V119.212H0.82603C0.0404369 114.23 -0.226999 109.684 0.207584 106.029H0.241014V105.793C0.50845 103.702 0.993177 101.901 1.74534 100.501H1.76206V100.465C1.82891 100.338 1.89577 100.192 1.97935 100.083H2.06292V99.9558C2.33036 99.5376 2.63122 99.1557 2.9488 98.8102H2.98223V98.792C3.5171 98.2465 4.15226 97.8283 4.85428 97.5373H5.12172V97.4282C5.45601 97.3191 5.79031 97.2282 6.15803 97.1737C29.3915 93.7188 50.987 81.5175 72.9501 71.1528H72.9669L73.8527 70.7346H73.8862V70.7164C74.7888 70.2982 75.6914 69.8618 76.6107 69.4617H76.6441V69.4435L77.53 69.0253H77.5467V69.0071L78.4493 68.5889C80.3715 67.7161 82.3104 66.8615 84.2326 66.0432H84.2493L84.8845 65.7704L86.2551 65.1886H86.3888V65.134L87.2914 64.7703H87.3081L88.3444 64.3521H88.5283V64.2794L89.4142 63.9339H89.7485V63.8066L90.5006 63.5156H90.9686V63.3338L91.6038 63.0974H92.1888V62.8792L92.7237 62.6792H93.1081V62.5337L93.8603 62.261H94.3283V62.0973L95.0303 61.8428H95.5485V61.6609L96.2003 61.4245H96.7686V61.2245L97.4038 61.0063H97.688V60.9154L98.624 60.5881H98.9081V60.479L99.8609 60.1517H100.128V60.0607L101.114 59.7334H101.348V59.6607L102.402 59.3152H102.569V59.2607C103.839 58.8424 105.093 58.4424 106.363 58.0424H106.53V57.9878L107.734 57.6059H107.75L109.121 57.1877H109.271V57.1332L110.525 56.7513H110.809V56.6604L111.962 56.3149H112.33V56.2058L113.417 55.8967H113.868V55.7694L114.904 55.4785H115.088V55.4239L116.392 55.0602H116.609V55.0057L117.896 54.642H118.13V54.5693L119.434 54.2056H119.651V54.151C121.69 53.5873 123.73 53.0418 125.769 52.5145L129.028 51.6599H129.128V51.6417C130.75 51.2235 132.388 50.8052 134.009 50.387L137.369 49.5324L140.728 48.6778C147.832 46.8776 154.936 45.0956 161.973 43.1317C183.618 37.1129 205.08 30.0576 226.575 23.1478H226.609V23.1297L230.57 21.8568H230.587C235.066 20.4203 239.529 19.002 244.009 17.6018H244.026L246.733 16.7654H246.767V16.7472L249.475 15.9107H249.525V15.8925L252.249 15.0561H252.266C254.606 14.3469 256.946 13.6378 259.286 12.9286L260.707 12.5104H260.807V12.474C262.228 12.0558 263.632 11.6376 265.053 11.2193H265.086V11.2012L266.507 10.7829H266.607V10.7466C270.101 9.74646 273.594 8.74636 277.087 7.80081H277.305V7.74625L278.642 7.38258H278.826V7.32803L280.213 6.94617H280.347V6.9098L281.801 6.52795H281.868V6.50976L285.044 5.67331H285.227V5.61876L286.682 5.2369H286.748V5.21872C289.573 4.49137 292.415 3.78221 295.24 3.10941H295.306V3.09123L297.028 2.673H297.128V2.65482L298.85 2.25478H298.967V2.23659L300.705 1.83655H300.806V1.81837L302.594 1.41833H302.945V1.34559L304.499 1.0001H304.767V0.945552L306.455 0.581878H306.606V0.545511L308.829 0.0727348C309.113 0.0181837 309.38 0 309.664 0V0.163653H310.968C311.336 0.254572 311.72 0.400041 312.105 0.581878V0.600062H312.138C312.339 0.69098 312.523 0.781899 312.723 0.909185V1.03647H312.957C313.693 1.47288 314.428 2.03657 315.18 2.70937V2.74574H315.214C315.615 3.10941 315.999 3.50945 316.4 3.92768V4.0186H316.501C316.985 4.52774 317.453 5.09143 317.938 5.67331V5.70968H317.972C318.974 6.96436 319.994 8.38268 320.997 9.96466C321.515 10.7647 322.017 11.6012 322.518 12.474V12.5104H322.535C323.454 14.0924 324.373 15.8016 325.259 17.5836V17.62H325.276C325.476 18.02 325.677 18.4201 325.878 18.8201V18.8929H325.911C326.312 19.7293 326.713 20.5839 327.098 21.4386V21.4568C327.399 22.1296 327.716 22.8205 328.017 23.5115V23.5843H328.051C328.351 24.2752 328.652 24.9662 328.936 25.6754V25.7117H328.953C329.471 26.9664 329.973 28.2393 330.474 29.5303V29.5485L330.775 30.3486V30.4031H330.792L331.076 31.185V31.2578H331.109C331.527 32.3852 331.928 33.5126 332.313 34.6399V34.6581C332.731 35.9128 333.149 37.1493 333.533 38.404V38.4949H333.566C334.235 40.6406 334.837 42.7681 335.372 44.8592V44.8774C335.706 46.1684 336.007 47.4231 336.291 48.6778V48.7141C336.508 49.696 336.709 50.6598 336.893 51.6235V51.6962H336.909C337.143 52.8964 337.344 54.0601 337.511 55.2057V55.5148H337.561C337.662 56.1876 337.745 56.8422 337.829 57.4787V57.6423H337.845C337.979 58.8788 338.079 60.0607 338.13 61.1881V62.7519H338.18C338.18 63.3338 338.163 63.8975 338.146 64.4612H338.13V64.7885C338.079 65.5704 338.013 66.3159 337.912 67.0069H337.829V67.4979C337.745 67.9161 337.662 68.3161 337.561 68.7162H337.528V68.8435C337.461 69.098 337.377 69.3344 337.294 69.5708H337.227V69.789C337.143 70.0072 337.043 70.2254 336.943 70.4255H336.909V70.4982C336.692 70.9528 336.425 71.3528 336.157 71.7165H336.007V71.8983C335.94 71.9893 335.856 72.062 335.773 72.1347H335.706V72.2075C335.572 72.3347 335.422 72.4438 335.271 72.5529H335.087V72.6802C334.887 72.8075 334.686 72.9166 334.469 73.0075C329.939 74.8805 325.426 76.8443 320.913 78.7536C321.465 80.7356 321.95 82.6994 322.368 84.6087C341.523 79.3173 360.611 73.353 379.616 66.3159C379.766 66.2614 379.9 66.2068 380.05 66.1705H380.919V65.9705C381.822 65.825 382.741 65.8795 383.66 66.1159V66.1705H383.844C384.095 66.2432 384.329 66.3159 384.58 66.4069V66.5887H385.048C385.299 66.6978 385.549 66.8251 385.8 66.9524V67.0251H385.934C386.402 67.2797 386.87 67.5706 387.338 67.8979L328.351 85.3179L318.272 88.3L308.193 91.2822L298.114 94.2643L288.035 97.2464L2.93209 181.437C2.11307 177.727 1.3609 173.527 1.09347 169.672L1.16032 169.563Z" fill="url(#paint0_linear)"/>
<path fill-rule="evenodd" clip-rule="evenodd" d="M69.9077 255.48V255.389H69.8576L69.6069 254.97V254.952C69.189 254.261 68.7878 253.57 68.3867 252.861V252.825H68.37C68.0691 252.279 67.7682 251.734 67.4674 251.17V251.116H67.4507C66.3642 249.061 65.3613 246.915 64.4253 244.751V244.733C64.0074 243.769 63.6063 242.787 63.2051 241.824V241.769H63.1884C61.9181 238.605 60.7815 235.423 59.812 232.423C58.4247 232.586 57.0374 232.732 55.6501 232.823H54.6639V232.877C50.1676 233.15 45.6881 233.041 41.2252 232.459V232.386H40.6736C39.8379 232.277 39.0022 232.132 38.1664 231.986V231.968H38.016C37.3474 231.841 36.6955 231.714 36.0269 231.568V231.532H35.8932C35.4252 231.423 34.9572 231.313 34.4892 231.204V231.095H34.0713C33.6033 230.986 33.1186 230.859 32.6506 230.713V230.659H32.4667C32.0154 230.532 31.5641 230.404 31.1128 230.259V230.222H31.0125L30.1266 229.95C29.7422 229.822 29.3578 229.677 28.9733 229.513V229.368H28.6557C28.4552 229.277 28.2546 229.186 28.054 229.077V228.931H27.7866C27.5693 228.822 27.352 228.695 27.1347 228.568V228.495H27.0177C26.2154 228.022 25.4465 227.477 24.6776 226.858V226.786H24.5941C24.3099 226.549 24.0425 226.331 23.7583 226.077V225.931H23.5912L23.1399 225.513L22.839 225.222V225.076H22.7053C21.9197 224.295 21.1508 223.44 20.3987 222.531L20.0978 222.149V222.094H20.0644L19.7969 221.749V221.658H19.7301L19.4961 221.349V221.24H19.4125L19.1952 220.949V220.821H19.0949C18.6102 220.167 18.1255 219.476 17.6574 218.767V218.694H17.6073L17.3399 218.294V218.276H17.3231C16.805 217.476 16.3035 216.639 15.8188 215.803V215.73H15.7687C15.3675 215.039 14.9831 214.33 14.5986 213.621V213.603C14.3981 213.221 14.1975 212.839 13.9969 212.439V212.33H13.9301C12.7433 210.02 11.6401 207.602 10.6372 205.165V205.093H10.6038C10.186 204.111 9.80151 203.111 9.41707 202.129V202.11C8.53119 199.801 7.71217 197.51 6.97672 195.31V195.292C6.47528 193.764 5.99055 192.291 5.57268 190.873C5.0211 189.055 3.90121 185.2 2.91504 180.69L386.869 67.3147C387.371 67.6238 387.856 67.9875 388.357 68.3875V68.5148H388.507L388.959 68.9149V68.9512H388.992C389.694 69.5695 390.396 70.2605 391.098 71.0242V71.0787H391.148C391.85 71.8606 392.552 72.7153 393.238 73.6244V73.6426C393.438 73.9154 393.639 74.17 393.839 74.4609V74.4973H393.873L394.157 74.8791V74.9155H394.174L394.458 75.3155V75.3337H394.475L394.759 75.7519C395.912 77.443 397.032 79.2978 398.118 81.2798V81.298C398.419 81.8617 398.737 82.4254 399.021 82.989C399.857 84.5892 400.676 86.2621 401.461 87.9896V88.0805H401.512L402.08 89.3533V89.3715C402.381 90.0807 402.698 90.7717 402.999 91.499C403.517 92.7537 404.035 94.0266 404.52 95.3176L404.821 96.1177V96.1722H404.838C405.256 97.2814 405.657 98.4088 406.041 99.518V99.5726H406.058L406.342 100.409V100.427C406.994 102.373 407.612 104.337 408.164 106.282V106.391H408.197C408.398 107.101 408.599 107.792 408.782 108.483V108.519H408.799C409.384 110.665 409.886 112.774 410.32 114.829V114.901H410.337C410.688 116.593 410.989 118.229 411.239 119.829V120.011H411.273C411.373 120.684 411.473 121.338 411.557 121.993V122.139H411.574C411.691 123.139 411.791 124.102 411.858 125.03V125.975H411.925C412.025 127.666 412.025 129.23 411.925 130.649H411.858V131.376C411.741 132.54 411.557 133.576 411.273 134.485H411.239V134.594C411.156 134.849 411.072 135.104 410.972 135.34H410.939V135.431C410.588 136.267 410.153 136.958 409.618 137.467H409.401V137.667C409.1 137.922 408.766 138.122 408.398 138.267L403.918 140.031H403.902L398.436 142.159H398.403V142.177L392.101 144.614C394.424 150.069 396.43 155.851 397.985 161.434L150.573 234.496L140.494 237.478L120.319 243.424L110.24 246.406L71.4956 257.843C70.9608 257.062 70.4259 256.261 69.9077 255.425V255.48Z" fill="url(#paint1_linear)"/>
<path fill-rule="evenodd" clip-rule="evenodd" d="M148.751 304.775V304.739H147.949C146.395 304.684 144.823 304.575 143.252 304.429V304.302H141.982C141.146 304.211 140.31 304.12 139.475 304.011C139.308 303.993 139.14 303.957 138.973 303.92V303.884H138.839C138.589 303.811 138.321 303.72 138.054 303.593V303.448H137.753C137.151 303.157 136.55 302.757 135.914 302.247V302.175H135.814C134.861 301.411 133.875 300.429 132.856 299.247V299.193H132.805C130.633 296.683 128.359 293.319 126.136 289.446V289.41H126.12C125.2 287.81 124.281 286.137 123.395 284.373V284.3H123.362C122.108 281.864 120.888 279.3 119.735 276.663V276.645H119.718C118.982 274.972 118.28 273.281 117.595 271.572V271.535H117.578C117.127 270.408 116.692 269.299 116.275 268.171C115.723 268.317 115.171 268.444 114.603 268.571H114.536V268.589C113.901 268.735 113.266 268.862 112.631 269.008H112.397V269.062C111.728 269.189 111.076 269.317 110.408 269.444H109.94V269.517C107.951 269.862 105.962 270.117 103.973 270.28H102.602V270.39C100.345 270.535 98.1057 270.553 95.8826 270.444V270.299H93.8267C92.7737 270.208 91.7374 270.062 90.701 269.899V269.862H90.5005C89.9489 269.771 89.414 269.68 88.8624 269.571V269.444H88.2273C87.8261 269.353 87.425 269.262 87.0238 269.171V269.026H86.4221C86.0042 268.917 85.603 268.808 85.1852 268.699V268.608H84.8676C84.3327 268.444 83.7979 268.28 83.263 268.098C82.9788 268.008 82.7114 267.898 82.4272 267.789V267.753H82.3437C82.0595 267.644 81.7921 267.517 81.5079 267.371V267.317H81.4076C81.2405 267.226 81.0733 267.153 80.9062 267.062V266.898H80.6053C80.4048 266.789 80.1875 266.662 79.9869 266.535V266.48H79.8866C79.3016 266.116 78.7166 265.698 78.1483 265.262V265.207H78.0814C77.7973 264.989 77.5131 264.753 77.2457 264.516V264.371H77.0618L76.6272 263.971V263.934H76.5938C75.7748 263.171 74.9725 262.334 74.1869 261.425V261.389H74.1534L73.886 261.08V260.97H73.7857C72.8831 259.898 72.014 258.734 71.1782 257.497L108.402 246.496L118.481 243.514L128.56 240.532L315.882 185.217L325.961 182.235L336.04 179.253L397.834 161.015C399.222 165.942 400.258 170.707 400.826 174.962V174.998C401.612 180.871 401.512 185.726 400.241 188.618H400.208V188.69C399.623 189.963 398.804 190.836 397.734 191.218C370.406 200.855 343.545 212.584 316.852 225.058C317.921 228.894 318.74 232.64 319.225 236.131V236.259H319.242C319.359 237.077 319.459 237.895 319.526 238.677V238.804H319.543C320.011 243.787 319.726 248.078 318.389 251.133H318.306V251.333C318.139 251.715 317.938 252.079 317.737 252.406H317.704V252.479C317.537 252.751 317.353 253.006 317.152 253.261H317.085V253.333C316.985 253.461 316.885 253.57 316.785 253.679C316.45 254.042 316.099 254.352 315.715 254.624L315.264 254.952H315.247V254.97L314.662 255.388H314.628V255.406L314.06 255.806H314.01V255.843L313.458 256.243H313.392V256.279L312.84 256.661H312.773V256.715L312.238 257.097H312.171V257.152L311.637 257.534H311.57V257.588L311.018 257.97H310.951V258.025L310.4 258.407H310.333V258.443L309.764 258.825H309.714V258.861L309.129 259.261H309.096V259.279L308.494 259.679H308.477V259.698C305.653 261.589 302.828 263.425 299.97 265.225H299.919V265.262L297.914 266.498H297.78V266.589L297.228 266.935H297.178V266.971L295.139 268.208H295.039V268.262L294.437 268.626L292.298 269.899C291.094 270.608 289.874 271.317 288.67 272.026H288.62V272.044C286.899 273.044 285.177 274.026 283.439 274.99H283.422V275.008L281.934 275.845H281.901V275.863L280.413 276.699H280.38V276.718L278.876 277.554H278.842V277.572C276.519 278.863 274.179 280.118 271.855 281.391H271.822V281.409C269.298 282.773 266.774 284.118 264.25 285.464C264.25 285.809 264.25 286.155 264.25 286.5H264.2V287.773C264.116 288.973 263.949 290.137 263.699 291.192H263.582V291.628C263.498 291.919 263.414 292.192 263.314 292.465H263.264V292.592C263.18 292.846 263.08 293.083 262.98 293.319H262.963V293.356C262.445 294.538 261.743 295.519 260.84 296.283H260.824V296.301C260.657 296.447 260.473 296.592 260.272 296.72H260.205V296.756C259.988 296.901 259.771 297.029 259.537 297.138H259.286V297.247C259.035 297.356 258.768 297.465 258.484 297.556H258.367V297.592C258.199 297.647 258.032 297.683 257.848 297.72L254.84 298.392H254.706V298.429L252.934 298.829H252.867V298.847L250.962 299.265H250.728V299.32L248.923 299.702H248.589V299.774L246.783 300.138H246.75C245.998 300.284 245.229 300.429 244.46 300.556H244.293V300.593C243.49 300.738 242.688 300.865 241.869 300.993H240.616V301.175C240.014 301.266 239.412 301.338 238.794 301.411H236.938V301.629C236.119 301.72 235.284 301.793 234.465 301.847H233.278V301.92C232.843 301.938 232.425 301.956 231.991 301.975C231.807 301.975 231.623 301.975 231.439 301.956V301.829H230.737C230.47 301.756 230.186 301.684 229.918 301.556V301.393H229.55C229.066 301.175 228.581 300.884 228.096 300.556V300.538H228.079C227.779 300.338 227.478 300.102 227.177 299.865V299.684H226.96L226.558 299.338V299.247H226.458C226.191 299.011 225.907 298.738 225.639 298.465V298.392H225.572C225.188 298.011 224.803 297.611 224.419 297.174V297.12H224.369L224.118 296.829V296.683H224.001C223.333 295.901 222.664 295.047 221.979 294.137L221.678 293.719V293.701L221.377 293.283V293.265C220.458 291.974 219.538 290.573 218.636 289.064V289.01H218.602C218.335 288.573 218.067 288.137 217.817 287.682C216.78 288.137 215.744 288.573 214.724 289.01H214.674V289.028C213.671 289.446 212.685 289.864 211.682 290.283H211.615V290.319C209.894 291.028 208.189 291.737 206.467 292.41H206.434V292.428C205.732 292.701 205.013 292.992 204.311 293.265H204.294C203.191 293.701 202.071 294.119 200.968 294.538H200.935V294.556C198.561 295.447 196.171 296.301 193.798 297.101H193.614V297.156L192.527 297.52H192.394V297.556L191.224 297.938H191.173V297.956C188.833 298.702 186.477 299.411 184.12 300.065H183.836V300.138L182.549 300.484H182.315V300.538L180.911 300.902H180.777V300.938C179.64 301.229 178.504 301.502 177.367 301.756H177.1V301.811C176.548 301.938 175.996 302.066 175.445 302.175H175.278V302.211C174.642 302.338 174.007 302.484 173.372 302.593H173.138V302.647C172.453 302.775 171.784 302.902 171.099 303.029H170.999V303.048C170.18 303.193 169.377 303.32 168.558 303.448C167.589 303.593 166.603 303.738 165.633 303.866H164.898V303.957C163.912 304.084 162.909 304.193 161.923 304.284H161.538V304.32C159.616 304.502 157.694 304.629 155.755 304.702H151.459V304.775C150.54 304.775 149.621 304.757 148.718 304.72L148.751 304.775Z" fill="url(#paint2_linear)"/>
<defs>
<linearGradient id="paint0_linear" x1="-181.732" y1="249.989" x2="350.67" y2="70.8945" gradientUnits="userSpaceOnUse">
<stop stop-color="#DADADA"/>
<stop offset="0.219608" stop-color="#ECECEC"/>
<stop offset="1" stop-color="#FEFEFE"/>
</linearGradient>
<linearGradient id="paint1_linear" x1="-8.25041" y1="226.422" x2="428.336" y2="117.497" gradientUnits="userSpaceOnUse">
<stop stop-color="#0076B3"/>
<stop offset="0.0392157" stop-color="#0082C6"/>
<stop offset="0.160784" stop-color="#00A0E1"/>
<stop offset="0.388235" stop-color="#0082C6"/>
<stop offset="1" stop-color="#00689D"/>
</linearGradient>
<linearGradient id="paint2_linear" x1="9.71812" y1="295.483" x2="438.533" y2="188.499" gradientUnits="userSpaceOnUse">
<stop stop-color="#C62029"/>
<stop offset="0.0392157" stop-color="#DE1D2C"/>
<stop offset="0.160784" stop-color="#EA765A"/>
<stop offset="0.388235" stop-color="#DE1D2C"/>
<stop offset="1" stop-color="#AD2225"/>
</linearGradient>
</defs>
</svg>
