<svg width="82" height="52" viewBox="0 0 82 52" fill="none" xmlns="http://www.w3.org/2000/svg">
<path d="M20.403 25.1188L20.3495 25.0648C19.7033 24.4274 18.8469 24.077 17.937 24.077C16.9971 24.077 16.1198 24.4471 15.4684 25.1202L9.76606 30.959C8.43709 32.3314 8.4619 34.5402 9.8235 35.8811L9.87834 35.9351C10.5245 36.5725 11.3796 36.9229 12.2908 36.9229C13.2308 36.9229 14.1068 36.5528 14.7582 35.8797L20.4605 30.0396C21.7882 28.6698 21.7647 26.461 20.403 25.1188Z" fill="white"/>
<path d="M27.4095 30.3267L27.3547 30.2727C26.7085 29.6366 25.8534 29.2849 24.9435 29.2849C24.0023 29.2849 23.1263 29.655 22.4735 30.3281L16.7739 36.1695C15.4449 37.5406 15.4697 39.7494 16.83 41.0916L16.8848 41.1443C17.531 41.7818 18.3874 42.1334 19.2973 42.1334C20.2373 42.1334 21.1145 41.7633 21.766 41.0903L27.467 35.2488C28.7959 33.8777 28.7698 31.6689 27.4095 30.3267Z" fill="white"/>
<path d="M34.8677 34.9169L34.8116 34.8616C34.1667 34.2254 33.3103 33.8751 32.3991 33.8751C31.4591 33.8751 30.5832 34.2452 29.9317 34.9182L24.2294 40.7584C22.9005 42.1308 22.9253 44.3396 24.2869 45.6805L24.3417 45.7345C24.9866 46.3706 25.843 46.7223 26.7542 46.7223C27.6941 46.7223 28.5701 46.3522 29.2229 45.6791L34.9238 39.8377C36.2528 38.4666 36.2267 36.2578 34.8677 34.9169Z" fill="white"/>
<path d="M41.8729 39.9194L41.8167 39.8627C41.1718 39.2279 40.3167 38.8775 39.4055 38.8775C38.4656 38.8775 37.5896 39.2476 36.9369 39.9207L31.2359 45.7608C29.9056 47.1319 29.9317 49.3407 31.292 50.6829L31.3481 50.7369C31.993 51.3731 32.8494 51.7247 33.7593 51.7247C34.6993 51.7247 35.5766 51.3546 36.228 50.6816L41.929 44.8401C43.2593 43.469 43.2332 41.2602 41.8729 39.9194Z" fill="white"/>
<path d="M47.9994 14.5147C41.9603 20.2797 37.2854 22.4346 37.087 22.5254L37.0478 22.5399C36.1484 22.8284 35.0753 22.9798 33.946 22.9798C32.5126 22.9798 31.3286 22.7414 30.7489 22.5373C29.5792 22.125 27.5845 20.1823 26.7229 18.6175C25.8351 17.0054 26.6067 14.5647 26.6419 14.462L26.6693 14.3711L39.9238 1.75968C39.2893 1.12088 38.0296 0.798182 36.1732 0.798182C31.1105 0.798182 23.4474 3.26779 23.0179 3.4074C22.4409 3.66556 21.6041 3.79727 20.531 3.79727C18.6133 3.79727 16.5323 3.39028 16.1994 3.32311C16.1955 3.32311 16.1929 3.32311 16.189 3.32311C15.065 3.32311 12.1198 1.53972 11.646 1.24732C11.1642 1.07609 10.7073 0.987847 10.2909 0.987847C9.15773 0.987847 8.62379 1.62533 8.52458 1.75573L2.13559 16.4627C0.130389 20.2692 -0.0158217 21.3769 0.0011494 21.6601C3.50895 22.5202 8.15904 27.6029 9.31439 28.9161L15.9645 22.3608L16.0702 22.3384C16.6355 22.2185 17.1812 22.1566 17.6916 22.1566C21.7803 22.1566 22.9252 25.9644 23.185 27.1749C23.5205 27.142 23.8482 27.1248 24.1615 27.1248C29.0009 27.1248 30.0087 31.034 30.2111 32.3683C30.886 32.2313 31.5257 32.1628 32.121 32.1628C36.5583 32.1628 37.5805 35.9219 37.7985 37.185C40.1327 36.8294 41.929 37.3352 43.1326 38.672C45.0478 40.7939 44.7488 44.2316 44.7358 44.3765L44.724 44.5095L38.1405 51.2571C39.0596 51.7511 39.9342 52 40.7462 52C44.0047 52 45.4224 47.9538 45.4368 47.9117L45.5399 47.61L45.8519 47.6667C46.3963 47.7641 46.9146 47.8142 47.3937 47.8142C51.7931 47.8142 52.019 43.6218 52.0268 43.4453L52.0464 42.9817L52.4916 43.0976C53.3754 43.3281 54.2017 43.4453 54.9459 43.4453C59.5294 43.4453 59.9876 39.0896 60.0046 38.9052L60.0424 38.4969L60.4419 38.5719C61.122 38.701 61.7565 38.7642 62.3296 38.7642C63.8622 38.7642 65.0124 38.3046 65.746 37.3997C67.1625 35.6545 66.652 32.7911 66.622 32.6264C65.421 27.8045 50.1483 16.1374 47.9994 14.5147Z" fill="white"/>
<path d="M73.8099 2.9306L73.8008 2.88582C73.4261 1.04975 72.3152 0.775786 71.6872 0.775786C71.622 0.775786 71.5671 0.778419 71.5267 0.782371C68.1612 3.42979 64.4876 3.82756 62.5894 3.82756C61.8636 3.82756 61.4079 3.76961 61.3375 3.76039C57.9733 3.42847 53.814 1.98491 53.6391 1.923L53.5973 1.90588C51.0321 0.641439 48.8363 0 47.066 0C45.2893 0 44.6117 0.674366 44.6052 0.682269C37.0022 8.90638 29.9213 14.3448 29.1106 14.9586C27.826 17.8286 31.1811 20.1915 31.621 20.4852C32.5374 20.7104 33.3964 20.8237 34.1758 20.8237C35.4656 20.8237 36.0935 20.505 36.1001 20.5023L36.1849 20.4575L36.3089 20.4602C38.2946 20.4602 45.4381 14.4409 48.0242 12.1215L48.2109 11.9542L48.4355 12.0648C57.0438 16.3271 67.9366 29.1018 68.5528 29.8315C69.1559 30.2925 69.7173 30.5243 70.2186 30.5243C70.8034 30.5243 71.1089 30.2016 71.1207 30.1885L71.1572 30.1529L79.9574 22.7375L80.0188 22.7151C80.9979 22.3516 81.6232 21.8471 81.8751 21.2188C82.1623 20.505 81.8647 19.8464 81.8608 19.8398L73.8099 2.9306Z" fill="white"/>
</svg>
